M48
; DRILL file {KiCad (5.1.6)-1} date 08/04/20 14:24:41
; FORMAT={-:-/ absolute / inch / decimal}
; #@! TF.CreationDate,2020-08-04T14:24:41+05:30
; #@! TF.GenerationSoftware,Kicad,Pcbnew,(5.1.6)-1
; #@! TF.FileFunction,Plated,1,2,PTH
FMAT,2
INCH
T1C0.0157
T2C0.0315
T3C0.0394
T4C0.0433
T5C0.0472
T6C0.0512
T7C0.0598
%
G90
G05
T1
X4.311Y-4.6457
X4.3701Y-5.0591
X4.4488Y-5.0787
X4.4685Y-4.2913
X4.4685Y-4.3898
X4.6457Y-5.0787
X4.7244Y-5.0591
X4.9803Y-4.4488
X5.1575Y-4.6654
X5.3455Y-5.3848
T2
X4.0551Y-4.0898
X4.0551Y-4.3898
X4.1551Y-4.0898
X4.1551Y-4.3898
X5.2559Y-4.3094
X5.2559Y-4.4094
X4.8031Y-4.0898
X4.8031Y-4.3898
X4.9031Y-4.0898
X4.9031Y-4.3898
X4.626Y-6.1417
X4.726Y-6.1417
T3
X4.6638Y-5.374
X4.7638Y-5.374
X4.8638Y-5.374
X4.9638Y-5.374
X5.0638Y-5.374
X5.1638Y-5.374
X4.0571Y-3.8406
X4.5295Y-3.8406
X4.8051Y-3.8406
X5.2776Y-3.8406
T4
X5.0591Y-4.9606
X5.0591Y-5.2165
X5.2362Y-4.9606
X5.2362Y-5.2165
X5.0591Y-4.5472
X5.0591Y-4.8031
X5.2362Y-4.5472
X5.2362Y-4.8031
T5
X4.6654Y-5.6496
X4.6654Y-5.9449
T6
X4.0551Y-3.3583
X4.2913Y-3.9173
X4.5295Y-3.3602
X4.8031Y-3.3583
X5.0394Y-3.9173
X5.2776Y-3.3602
T7
X4.1339Y-6.1417
X4.3339Y-6.1417
X4.9378Y-2.9331
X5.1378Y-2.9331
X4.1898Y-2.9331
X4.3898Y-2.9331
X5.0Y-6.1417
X5.2Y-6.1417
T0
M30
