%TF.GenerationSoftware,KiCad,Pcbnew,(5.1.6)-1*%
%TF.CreationDate,2020-08-04T14:24:57+05:30*%
%TF.ProjectId,ESP32-BLE-Relay-Control-Board,45535033-322d-4424-9c45-2d52656c6179,rev?*%
%TF.SameCoordinates,Original*%
%TF.FileFunction,Legend,Top*%
%TF.FilePolarity,Positive*%
%FSLAX46Y46*%
G04 Gerber Fmt 4.6, Leading zero omitted, Abs format (unit mm)*
G04 Created by KiCad (PCBNEW (5.1.6)-1) date 2020-08-04 14:24:57*
%MOMM*%
%LPD*%
G01*
G04 APERTURE LIST*
%ADD10C,0.150000*%
%ADD11C,0.120000*%
G04 APERTURE END LIST*
D10*
X114309523Y-65152380D02*
X114928571Y-65152380D01*
X114595238Y-65533333D01*
X114738095Y-65533333D01*
X114833333Y-65580952D01*
X114880952Y-65628571D01*
X114928571Y-65723809D01*
X114928571Y-65961904D01*
X114880952Y-66057142D01*
X114833333Y-66104761D01*
X114738095Y-66152380D01*
X114452380Y-66152380D01*
X114357142Y-66104761D01*
X114309523Y-66057142D01*
X115261904Y-65152380D02*
X115928571Y-65152380D01*
X115500000Y-66152380D01*
X116309523Y-66057142D02*
X116357142Y-66104761D01*
X116309523Y-66152380D01*
X116261904Y-66104761D01*
X116309523Y-66057142D01*
X116309523Y-66152380D01*
X116976190Y-65152380D02*
X117071428Y-65152380D01*
X117166666Y-65200000D01*
X117214285Y-65247619D01*
X117261904Y-65342857D01*
X117309523Y-65533333D01*
X117309523Y-65771428D01*
X117261904Y-65961904D01*
X117214285Y-66057142D01*
X117166666Y-66104761D01*
X117071428Y-66152380D01*
X116976190Y-66152380D01*
X116880952Y-66104761D01*
X116833333Y-66057142D01*
X116785714Y-65961904D01*
X116738095Y-65771428D01*
X116738095Y-65533333D01*
X116785714Y-65342857D01*
X116833333Y-65247619D01*
X116880952Y-65200000D01*
X116976190Y-65152380D01*
X117928571Y-65152380D02*
X118023809Y-65152380D01*
X118119047Y-65200000D01*
X118166666Y-65247619D01*
X118214285Y-65342857D01*
X118261904Y-65533333D01*
X118261904Y-65771428D01*
X118214285Y-65961904D01*
X118166666Y-66057142D01*
X118119047Y-66104761D01*
X118023809Y-66152380D01*
X117928571Y-66152380D01*
X117833333Y-66104761D01*
X117785714Y-66057142D01*
X117738095Y-65961904D01*
X117690476Y-65771428D01*
X117690476Y-65533333D01*
X117738095Y-65342857D01*
X117785714Y-65247619D01*
X117833333Y-65200000D01*
X117928571Y-65152380D01*
X118880952Y-65152380D02*
X118976190Y-65152380D01*
X119071428Y-65200000D01*
X119119047Y-65247619D01*
X119166666Y-65342857D01*
X119214285Y-65533333D01*
X119214285Y-65771428D01*
X119166666Y-65961904D01*
X119119047Y-66057142D01*
X119071428Y-66104761D01*
X118976190Y-66152380D01*
X118880952Y-66152380D01*
X118785714Y-66104761D01*
X118738095Y-66057142D01*
X118690476Y-65961904D01*
X118642857Y-65771428D01*
X118642857Y-65533333D01*
X118690476Y-65342857D01*
X118738095Y-65247619D01*
X118785714Y-65200000D01*
X118880952Y-65152380D01*
X120404761Y-66152380D02*
X120404761Y-65485714D01*
X120404761Y-65580952D02*
X120452380Y-65533333D01*
X120547619Y-65485714D01*
X120690476Y-65485714D01*
X120785714Y-65533333D01*
X120833333Y-65628571D01*
X120833333Y-66152380D01*
X120833333Y-65628571D02*
X120880952Y-65533333D01*
X120976190Y-65485714D01*
X121119047Y-65485714D01*
X121214285Y-65533333D01*
X121261904Y-65628571D01*
X121261904Y-66152380D01*
X121738095Y-66152380D02*
X121738095Y-65485714D01*
X121738095Y-65580952D02*
X121785714Y-65533333D01*
X121880952Y-65485714D01*
X122023809Y-65485714D01*
X122119047Y-65533333D01*
X122166666Y-65628571D01*
X122166666Y-66152380D01*
X122166666Y-65628571D02*
X122214285Y-65533333D01*
X122309523Y-65485714D01*
X122452380Y-65485714D01*
X122547619Y-65533333D01*
X122595238Y-65628571D01*
X122595238Y-66152380D01*
X100000000Y-67000000D02*
X137000000Y-67000000D01*
X100000000Y-70000000D02*
X100000000Y-66413579D01*
X137000000Y-70000000D02*
X137000000Y-66413579D01*
X137000000Y-67000000D02*
X135873496Y-67586421D01*
X137000000Y-67000000D02*
X135873496Y-66413579D01*
X100000000Y-67000000D02*
X101126504Y-67586421D01*
X100000000Y-67000000D02*
X101126504Y-66413579D01*
X142252380Y-119047619D02*
X142252380Y-118857142D01*
X142204761Y-118761904D01*
X142157142Y-118714285D01*
X142014285Y-118619047D01*
X141823809Y-118571428D01*
X141442857Y-118571428D01*
X141347619Y-118619047D01*
X141300000Y-118666666D01*
X141252380Y-118761904D01*
X141252380Y-118952380D01*
X141300000Y-119047619D01*
X141347619Y-119095238D01*
X141442857Y-119142857D01*
X141680952Y-119142857D01*
X141776190Y-119095238D01*
X141823809Y-119047619D01*
X141871428Y-118952380D01*
X141871428Y-118761904D01*
X141823809Y-118666666D01*
X141776190Y-118619047D01*
X141680952Y-118571428D01*
X141252380Y-117952380D02*
X141252380Y-117857142D01*
X141300000Y-117761904D01*
X141347619Y-117714285D01*
X141442857Y-117666666D01*
X141633333Y-117619047D01*
X141871428Y-117619047D01*
X142061904Y-117666666D01*
X142157142Y-117714285D01*
X142204761Y-117761904D01*
X142252380Y-117857142D01*
X142252380Y-117952380D01*
X142204761Y-118047619D01*
X142157142Y-118095238D01*
X142061904Y-118142857D01*
X141871428Y-118190476D01*
X141633333Y-118190476D01*
X141442857Y-118142857D01*
X141347619Y-118095238D01*
X141300000Y-118047619D01*
X141252380Y-117952380D01*
X142157142Y-117190476D02*
X142204761Y-117142857D01*
X142252380Y-117190476D01*
X142204761Y-117238095D01*
X142157142Y-117190476D01*
X142252380Y-117190476D01*
X141252380Y-116523809D02*
X141252380Y-116428571D01*
X141300000Y-116333333D01*
X141347619Y-116285714D01*
X141442857Y-116238095D01*
X141633333Y-116190476D01*
X141871428Y-116190476D01*
X142061904Y-116238095D01*
X142157142Y-116285714D01*
X142204761Y-116333333D01*
X142252380Y-116428571D01*
X142252380Y-116523809D01*
X142204761Y-116619047D01*
X142157142Y-116666666D01*
X142061904Y-116714285D01*
X141871428Y-116761904D01*
X141633333Y-116761904D01*
X141442857Y-116714285D01*
X141347619Y-116666666D01*
X141300000Y-116619047D01*
X141252380Y-116523809D01*
X141252380Y-115571428D02*
X141252380Y-115476190D01*
X141300000Y-115380952D01*
X141347619Y-115333333D01*
X141442857Y-115285714D01*
X141633333Y-115238095D01*
X141871428Y-115238095D01*
X142061904Y-115285714D01*
X142157142Y-115333333D01*
X142204761Y-115380952D01*
X142252380Y-115476190D01*
X142252380Y-115571428D01*
X142204761Y-115666666D01*
X142157142Y-115714285D01*
X142061904Y-115761904D01*
X141871428Y-115809523D01*
X141633333Y-115809523D01*
X141442857Y-115761904D01*
X141347619Y-115714285D01*
X141300000Y-115666666D01*
X141252380Y-115571428D01*
X141252380Y-114619047D02*
X141252380Y-114523809D01*
X141300000Y-114428571D01*
X141347619Y-114380952D01*
X141442857Y-114333333D01*
X141633333Y-114285714D01*
X141871428Y-114285714D01*
X142061904Y-114333333D01*
X142157142Y-114380952D01*
X142204761Y-114428571D01*
X142252380Y-114523809D01*
X142252380Y-114619047D01*
X142204761Y-114714285D01*
X142157142Y-114761904D01*
X142061904Y-114809523D01*
X141871428Y-114857142D01*
X141633333Y-114857142D01*
X141442857Y-114809523D01*
X141347619Y-114761904D01*
X141300000Y-114714285D01*
X141252380Y-114619047D01*
X142252380Y-113095238D02*
X141585714Y-113095238D01*
X141680952Y-113095238D02*
X141633333Y-113047619D01*
X141585714Y-112952380D01*
X141585714Y-112809523D01*
X141633333Y-112714285D01*
X141728571Y-112666666D01*
X142252380Y-112666666D01*
X141728571Y-112666666D02*
X141633333Y-112619047D01*
X141585714Y-112523809D01*
X141585714Y-112380952D01*
X141633333Y-112285714D01*
X141728571Y-112238095D01*
X142252380Y-112238095D01*
X142252380Y-111761904D02*
X141585714Y-111761904D01*
X141680952Y-111761904D02*
X141633333Y-111714285D01*
X141585714Y-111619047D01*
X141585714Y-111476190D01*
X141633333Y-111380952D01*
X141728571Y-111333333D01*
X142252380Y-111333333D01*
X141728571Y-111333333D02*
X141633333Y-111285714D01*
X141585714Y-111190476D01*
X141585714Y-111047619D01*
X141633333Y-110952380D01*
X141728571Y-110904761D01*
X142252380Y-110904761D01*
X140500000Y-160000000D02*
X140500000Y-70000000D01*
X137000000Y-160000000D02*
X141086421Y-160000000D01*
X137000000Y-70000000D02*
X141086421Y-70000000D01*
X140500000Y-70000000D02*
X141086421Y-71126504D01*
X140500000Y-70000000D02*
X139913579Y-71126504D01*
X140500000Y-160000000D02*
X141086421Y-158873496D01*
X140500000Y-160000000D02*
X139913579Y-158873496D01*
X125238095Y-151071428D02*
X126000000Y-151071428D01*
X125619047Y-151452380D02*
X125619047Y-150690476D01*
X127000000Y-151452380D02*
X126428571Y-151452380D01*
X126714285Y-151452380D02*
X126714285Y-150452380D01*
X126619047Y-150595238D01*
X126523809Y-150690476D01*
X126428571Y-150738095D01*
X127380952Y-150547619D02*
X127428571Y-150500000D01*
X127523809Y-150452380D01*
X127761904Y-150452380D01*
X127857142Y-150500000D01*
X127904761Y-150547619D01*
X127952380Y-150642857D01*
X127952380Y-150738095D01*
X127904761Y-150880952D01*
X127333333Y-151452380D01*
X127952380Y-151452380D01*
X128238095Y-150452380D02*
X128571428Y-151452380D01*
X128904761Y-150452380D01*
X101714285Y-151071428D02*
X102476190Y-151071428D01*
X102095238Y-151452380D02*
X102095238Y-150690476D01*
X103428571Y-150452380D02*
X102952380Y-150452380D01*
X102904761Y-150928571D01*
X102952380Y-150880952D01*
X103047619Y-150833333D01*
X103285714Y-150833333D01*
X103380952Y-150880952D01*
X103428571Y-150928571D01*
X103476190Y-151023809D01*
X103476190Y-151261904D01*
X103428571Y-151357142D01*
X103380952Y-151404761D01*
X103285714Y-151452380D01*
X103047619Y-151452380D01*
X102952380Y-151404761D01*
X102904761Y-151357142D01*
X103761904Y-150452380D02*
X104095238Y-151452380D01*
X104428571Y-150452380D01*
X113761904Y-158952380D02*
X113761904Y-157952380D01*
X113761904Y-158333333D02*
X113857142Y-158285714D01*
X114047619Y-158285714D01*
X114142857Y-158333333D01*
X114190476Y-158380952D01*
X114238095Y-158476190D01*
X114238095Y-158761904D01*
X114190476Y-158857142D01*
X114142857Y-158904761D01*
X114047619Y-158952380D01*
X113857142Y-158952380D01*
X113761904Y-158904761D01*
X114809523Y-158952380D02*
X114714285Y-158904761D01*
X114666666Y-158809523D01*
X114666666Y-157952380D01*
X115619047Y-158285714D02*
X115619047Y-158952380D01*
X115190476Y-158285714D02*
X115190476Y-158809523D01*
X115238095Y-158904761D01*
X115333333Y-158952380D01*
X115476190Y-158952380D01*
X115571428Y-158904761D01*
X115619047Y-158857142D01*
X116476190Y-158904761D02*
X116380952Y-158952380D01*
X116190476Y-158952380D01*
X116095238Y-158904761D01*
X116047619Y-158809523D01*
X116047619Y-158428571D01*
X116095238Y-158333333D01*
X116190476Y-158285714D01*
X116380952Y-158285714D01*
X116476190Y-158333333D01*
X116523809Y-158428571D01*
X116523809Y-158523809D01*
X116047619Y-158619047D01*
X116904761Y-158904761D02*
X117047619Y-158952380D01*
X117285714Y-158952380D01*
X117380952Y-158904761D01*
X117428571Y-158857142D01*
X117476190Y-158761904D01*
X117476190Y-158666666D01*
X117428571Y-158571428D01*
X117380952Y-158523809D01*
X117285714Y-158476190D01*
X117095238Y-158428571D01*
X117000000Y-158380952D01*
X116952380Y-158333333D01*
X116904761Y-158238095D01*
X116904761Y-158142857D01*
X116952380Y-158047619D01*
X117000000Y-158000000D01*
X117095238Y-157952380D01*
X117333333Y-157952380D01*
X117476190Y-158000000D01*
X117809523Y-158285714D02*
X118000000Y-158952380D01*
X118190476Y-158476190D01*
X118380952Y-158952380D01*
X118571428Y-158285714D01*
X118952380Y-158952380D02*
X118952380Y-158285714D01*
X118952380Y-157952380D02*
X118904761Y-158000000D01*
X118952380Y-158047619D01*
X119000000Y-158000000D01*
X118952380Y-157952380D01*
X118952380Y-158047619D01*
X119285714Y-158285714D02*
X119666666Y-158285714D01*
X119428571Y-157952380D02*
X119428571Y-158809523D01*
X119476190Y-158904761D01*
X119571428Y-158952380D01*
X119666666Y-158952380D01*
X120428571Y-158904761D02*
X120333333Y-158952380D01*
X120142857Y-158952380D01*
X120047619Y-158904761D01*
X120000000Y-158857142D01*
X119952380Y-158761904D01*
X119952380Y-158476190D01*
X120000000Y-158380952D01*
X120047619Y-158333333D01*
X120142857Y-158285714D01*
X120333333Y-158285714D01*
X120428571Y-158333333D01*
X120857142Y-158952380D02*
X120857142Y-157952380D01*
X121285714Y-158952380D02*
X121285714Y-158428571D01*
X121238095Y-158333333D01*
X121142857Y-158285714D01*
X121000000Y-158285714D01*
X120904761Y-158333333D01*
X120857142Y-158380952D01*
X121761904Y-158571428D02*
X122523809Y-158571428D01*
X122904761Y-158285714D02*
X123142857Y-158952380D01*
X123380952Y-158285714D01*
X124285714Y-158952380D02*
X123714285Y-158952380D01*
X124000000Y-158952380D02*
X124000000Y-157952380D01*
X123904761Y-158095238D01*
X123809523Y-158190476D01*
X123714285Y-158238095D01*
X131000000Y-140261904D02*
X130952380Y-140357142D01*
X130952380Y-140500000D01*
X131000000Y-140642857D01*
X131095238Y-140738095D01*
X131190476Y-140785714D01*
X131380952Y-140833333D01*
X131523809Y-140833333D01*
X131714285Y-140785714D01*
X131809523Y-140738095D01*
X131904761Y-140642857D01*
X131952380Y-140500000D01*
X131952380Y-140404761D01*
X131904761Y-140261904D01*
X131857142Y-140214285D01*
X131523809Y-140214285D01*
X131523809Y-140404761D01*
X131952380Y-139785714D02*
X130952380Y-139785714D01*
X131952380Y-139214285D01*
X130952380Y-139214285D01*
X131952380Y-138738095D02*
X130952380Y-138738095D01*
X130952380Y-138500000D01*
X131000000Y-138357142D01*
X131095238Y-138261904D01*
X131190476Y-138214285D01*
X131380952Y-138166666D01*
X131523809Y-138166666D01*
X131714285Y-138214285D01*
X131809523Y-138261904D01*
X131904761Y-138357142D01*
X131952380Y-138500000D01*
X131952380Y-138738095D01*
X125452380Y-140738095D02*
X125452380Y-140119047D01*
X125833333Y-140452380D01*
X125833333Y-140309523D01*
X125880952Y-140214285D01*
X125928571Y-140166666D01*
X126023809Y-140119047D01*
X126261904Y-140119047D01*
X126357142Y-140166666D01*
X126404761Y-140214285D01*
X126452380Y-140309523D01*
X126452380Y-140595238D01*
X126404761Y-140690476D01*
X126357142Y-140738095D01*
X125452380Y-139833333D02*
X126452380Y-139500000D01*
X125452380Y-139166666D01*
X125452380Y-138928571D02*
X125452380Y-138309523D01*
X125833333Y-138642857D01*
X125833333Y-138500000D01*
X125880952Y-138404761D01*
X125928571Y-138357142D01*
X126023809Y-138309523D01*
X126261904Y-138309523D01*
X126357142Y-138357142D01*
X126404761Y-138404761D01*
X126452380Y-138500000D01*
X126452380Y-138785714D01*
X126404761Y-138880952D01*
X126357142Y-138928571D01*
X123333333Y-139452380D02*
X123000000Y-138976190D01*
X122761904Y-139452380D02*
X122761904Y-138452380D01*
X123142857Y-138452380D01*
X123238095Y-138500000D01*
X123285714Y-138547619D01*
X123333333Y-138642857D01*
X123333333Y-138785714D01*
X123285714Y-138880952D01*
X123238095Y-138928571D01*
X123142857Y-138976190D01*
X122761904Y-138976190D01*
X123666666Y-138452380D02*
X124333333Y-139452380D01*
X124333333Y-138452380D02*
X123666666Y-139452380D01*
X120238095Y-138452380D02*
X120809523Y-138452380D01*
X120523809Y-139452380D02*
X120523809Y-138452380D01*
X121047619Y-138452380D02*
X121714285Y-139452380D01*
X121714285Y-138452380D02*
X121047619Y-139452380D01*
D11*
%TO.C,U5*%
X129590000Y-139590000D02*
X129590000Y-140850000D01*
X129590000Y-146410000D02*
X129590000Y-145150000D01*
X133350000Y-139590000D02*
X129590000Y-139590000D01*
X135600000Y-146410000D02*
X129590000Y-146410000D01*
%TO.C,R5*%
X107990000Y-104671267D02*
X107990000Y-104328733D01*
X109010000Y-104671267D02*
X109010000Y-104328733D01*
%TO.C,R4*%
X126990000Y-104671267D02*
X126990000Y-104328733D01*
X128010000Y-104671267D02*
X128010000Y-104328733D01*
%TO.C,C8*%
X128763748Y-147290000D02*
X129286252Y-147290000D01*
X128763748Y-148710000D02*
X129286252Y-148710000D01*
%TO.C,C7*%
X133263748Y-147290000D02*
X133786252Y-147290000D01*
X133263748Y-148710000D02*
X133786252Y-148710000D01*
D10*
%TO.C,JP2-BOOT1*%
X133100000Y-113030000D02*
X132600000Y-112530000D01*
X133900000Y-113030000D02*
X133100000Y-113030000D01*
X134400000Y-112530000D02*
X133900000Y-113030000D01*
X134400000Y-108930000D02*
X134400000Y-112530000D01*
X133900000Y-108430000D02*
X134400000Y-108930000D01*
X133100000Y-108430000D02*
X133900000Y-108430000D01*
X132600000Y-108930000D02*
X133100000Y-108430000D01*
X132600000Y-112530000D02*
X132600000Y-108930000D01*
D11*
%TO.C,J5*%
X117130000Y-137830000D02*
X117130000Y-136500000D01*
X118460000Y-137830000D02*
X117130000Y-137830000D01*
X119730000Y-137830000D02*
X119730000Y-135170000D01*
X119730000Y-135170000D02*
X132490000Y-135170000D01*
X119730000Y-137830000D02*
X132490000Y-137830000D01*
X132490000Y-137830000D02*
X132490000Y-135170000D01*
%TO.C,D6*%
X118150000Y-70600000D02*
X118150000Y-76000000D01*
X114850000Y-70600000D02*
X114850000Y-76000000D01*
X118150000Y-70600000D02*
X114850000Y-70600000D01*
%TO.C,D5*%
X122150000Y-70600000D02*
X122150000Y-76000000D01*
X118850000Y-70600000D02*
X118850000Y-76000000D01*
X122150000Y-70600000D02*
X118850000Y-70600000D01*
%TO.C,U4*%
X100900000Y-139590000D02*
X106910000Y-139590000D01*
X103150000Y-146410000D02*
X106910000Y-146410000D01*
X106910000Y-139590000D02*
X106910000Y-140850000D01*
X106910000Y-146410000D02*
X106910000Y-145150000D01*
D10*
%TO.C,JP1*%
X121070000Y-156400000D02*
X120570000Y-156900000D01*
X121070000Y-155600000D02*
X121070000Y-156400000D01*
X120570000Y-155100000D02*
X121070000Y-155600000D01*
X116970000Y-155100000D02*
X120570000Y-155100000D01*
X116470000Y-155600000D02*
X116970000Y-155100000D01*
X116470000Y-156400000D02*
X116470000Y-155600000D01*
X116970000Y-156900000D02*
X116470000Y-156400000D01*
X120570000Y-156900000D02*
X116970000Y-156900000D01*
D11*
%TO.C,J4*%
X102460000Y-159810000D02*
X112620000Y-159810000D01*
X102460000Y-152190000D02*
X102460000Y-159810000D01*
X112620000Y-152190000D02*
X102460000Y-152190000D01*
X112620000Y-159810000D02*
X112620000Y-152190000D01*
X112620000Y-158540000D02*
X102460000Y-158540000D01*
%TO.C,J3*%
X124460000Y-159810000D02*
X134620000Y-159810000D01*
X124460000Y-152190000D02*
X124460000Y-159810000D01*
X134620000Y-152190000D02*
X124460000Y-152190000D01*
X134620000Y-159810000D02*
X134620000Y-152190000D01*
X134620000Y-158540000D02*
X124460000Y-158540000D01*
%TO.C,J2*%
X114040000Y-70690000D02*
X103880000Y-70690000D01*
X114040000Y-78310000D02*
X114040000Y-70690000D01*
X103880000Y-78310000D02*
X114040000Y-78310000D01*
X103880000Y-70690000D02*
X103880000Y-78310000D01*
X103880000Y-71960000D02*
X114040000Y-71960000D01*
%TO.C,J1*%
X133040000Y-70690000D02*
X122880000Y-70690000D01*
X133040000Y-78310000D02*
X133040000Y-70690000D01*
X122880000Y-78310000D02*
X133040000Y-78310000D01*
X122880000Y-70690000D02*
X122880000Y-78310000D01*
X122880000Y-71960000D02*
X133040000Y-71960000D01*
%TO.C,C6*%
X114300000Y-153442082D02*
X115550000Y-153442082D01*
X114925000Y-154067082D02*
X114925000Y-152817082D01*
X118183000Y-140889000D02*
X118817000Y-140889000D01*
X117743000Y-140929000D02*
X119257000Y-140929000D01*
X117472000Y-140969000D02*
X119528000Y-140969000D01*
X117259000Y-141009000D02*
X119741000Y-141009000D01*
X117078000Y-141049000D02*
X119922000Y-141049000D01*
X116917000Y-141089000D02*
X120083000Y-141089000D01*
X116772000Y-141129000D02*
X120228000Y-141129000D01*
X116639000Y-141169000D02*
X120361000Y-141169000D01*
X116516000Y-141209000D02*
X120484000Y-141209000D01*
X116400000Y-141249000D02*
X120600000Y-141249000D01*
X116291000Y-141289000D02*
X120709000Y-141289000D01*
X116188000Y-141329000D02*
X120812000Y-141329000D01*
X116090000Y-141369000D02*
X120910000Y-141369000D01*
X115996000Y-141409000D02*
X121004000Y-141409000D01*
X115906000Y-141449000D02*
X121094000Y-141449000D01*
X115819000Y-141489000D02*
X121181000Y-141489000D01*
X115736000Y-141529000D02*
X121264000Y-141529000D01*
X115656000Y-141569000D02*
X121344000Y-141569000D01*
X115579000Y-141609000D02*
X121421000Y-141609000D01*
X115504000Y-141649000D02*
X121496000Y-141649000D01*
X115431000Y-141689000D02*
X121569000Y-141689000D01*
X115360000Y-141729000D02*
X121640000Y-141729000D01*
X115292000Y-141769000D02*
X121708000Y-141769000D01*
X115225000Y-141809000D02*
X121775000Y-141809000D01*
X115161000Y-141849000D02*
X121839000Y-141849000D01*
X115098000Y-141889000D02*
X121902000Y-141889000D01*
X115036000Y-141929000D02*
X121964000Y-141929000D01*
X114976000Y-141969000D02*
X122024000Y-141969000D01*
X114917000Y-142009000D02*
X122083000Y-142009000D01*
X114860000Y-142049000D02*
X122140000Y-142049000D01*
X119940000Y-142089000D02*
X122196000Y-142089000D01*
X114804000Y-142089000D02*
X117060000Y-142089000D01*
X119940000Y-142129000D02*
X122250000Y-142129000D01*
X114750000Y-142129000D02*
X117060000Y-142129000D01*
X119940000Y-142169000D02*
X122304000Y-142169000D01*
X114696000Y-142169000D02*
X117060000Y-142169000D01*
X119940000Y-142209000D02*
X122356000Y-142209000D01*
X114644000Y-142209000D02*
X117060000Y-142209000D01*
X119940000Y-142249000D02*
X122407000Y-142249000D01*
X114593000Y-142249000D02*
X117060000Y-142249000D01*
X119940000Y-142289000D02*
X122457000Y-142289000D01*
X114543000Y-142289000D02*
X117060000Y-142289000D01*
X119940000Y-142329000D02*
X122507000Y-142329000D01*
X114493000Y-142329000D02*
X117060000Y-142329000D01*
X119940000Y-142369000D02*
X122555000Y-142369000D01*
X114445000Y-142369000D02*
X117060000Y-142369000D01*
X119940000Y-142409000D02*
X122602000Y-142409000D01*
X114398000Y-142409000D02*
X117060000Y-142409000D01*
X119940000Y-142449000D02*
X122648000Y-142449000D01*
X114352000Y-142449000D02*
X117060000Y-142449000D01*
X119940000Y-142489000D02*
X122694000Y-142489000D01*
X114306000Y-142489000D02*
X117060000Y-142489000D01*
X119940000Y-142529000D02*
X122738000Y-142529000D01*
X114262000Y-142529000D02*
X117060000Y-142529000D01*
X119940000Y-142569000D02*
X122782000Y-142569000D01*
X114218000Y-142569000D02*
X117060000Y-142569000D01*
X119940000Y-142609000D02*
X122825000Y-142609000D01*
X114175000Y-142609000D02*
X117060000Y-142609000D01*
X119940000Y-142649000D02*
X122867000Y-142649000D01*
X114133000Y-142649000D02*
X117060000Y-142649000D01*
X119940000Y-142689000D02*
X122908000Y-142689000D01*
X114092000Y-142689000D02*
X117060000Y-142689000D01*
X119940000Y-142729000D02*
X122949000Y-142729000D01*
X114051000Y-142729000D02*
X117060000Y-142729000D01*
X119940000Y-142769000D02*
X122989000Y-142769000D01*
X114011000Y-142769000D02*
X117060000Y-142769000D01*
X119940000Y-142809000D02*
X123028000Y-142809000D01*
X113972000Y-142809000D02*
X117060000Y-142809000D01*
X119940000Y-142849000D02*
X123067000Y-142849000D01*
X113933000Y-142849000D02*
X117060000Y-142849000D01*
X119940000Y-142889000D02*
X123105000Y-142889000D01*
X113895000Y-142889000D02*
X117060000Y-142889000D01*
X119940000Y-142929000D02*
X123142000Y-142929000D01*
X113858000Y-142929000D02*
X117060000Y-142929000D01*
X119940000Y-142969000D02*
X123178000Y-142969000D01*
X113822000Y-142969000D02*
X117060000Y-142969000D01*
X119940000Y-143009000D02*
X123214000Y-143009000D01*
X113786000Y-143009000D02*
X117060000Y-143009000D01*
X119940000Y-143049000D02*
X123250000Y-143049000D01*
X113750000Y-143049000D02*
X117060000Y-143049000D01*
X119940000Y-143089000D02*
X123285000Y-143089000D01*
X113715000Y-143089000D02*
X117060000Y-143089000D01*
X119940000Y-143129000D02*
X123319000Y-143129000D01*
X113681000Y-143129000D02*
X117060000Y-143129000D01*
X119940000Y-143169000D02*
X123352000Y-143169000D01*
X113648000Y-143169000D02*
X117060000Y-143169000D01*
X119940000Y-143209000D02*
X123385000Y-143209000D01*
X113615000Y-143209000D02*
X117060000Y-143209000D01*
X119940000Y-143249000D02*
X123418000Y-143249000D01*
X113582000Y-143249000D02*
X117060000Y-143249000D01*
X119940000Y-143289000D02*
X123450000Y-143289000D01*
X113550000Y-143289000D02*
X117060000Y-143289000D01*
X119940000Y-143329000D02*
X123482000Y-143329000D01*
X113518000Y-143329000D02*
X117060000Y-143329000D01*
X119940000Y-143369000D02*
X123512000Y-143369000D01*
X113488000Y-143369000D02*
X117060000Y-143369000D01*
X119940000Y-143409000D02*
X123543000Y-143409000D01*
X113457000Y-143409000D02*
X117060000Y-143409000D01*
X119940000Y-143449000D02*
X123573000Y-143449000D01*
X113427000Y-143449000D02*
X117060000Y-143449000D01*
X119940000Y-143489000D02*
X123602000Y-143489000D01*
X113398000Y-143489000D02*
X117060000Y-143489000D01*
X119940000Y-143529000D02*
X123631000Y-143529000D01*
X113369000Y-143529000D02*
X117060000Y-143529000D01*
X119940000Y-143569000D02*
X123660000Y-143569000D01*
X113340000Y-143569000D02*
X117060000Y-143569000D01*
X119940000Y-143609000D02*
X123688000Y-143609000D01*
X113312000Y-143609000D02*
X117060000Y-143609000D01*
X119940000Y-143649000D02*
X123716000Y-143649000D01*
X113284000Y-143649000D02*
X117060000Y-143649000D01*
X119940000Y-143689000D02*
X123743000Y-143689000D01*
X113257000Y-143689000D02*
X117060000Y-143689000D01*
X119940000Y-143729000D02*
X123770000Y-143729000D01*
X113230000Y-143729000D02*
X117060000Y-143729000D01*
X119940000Y-143769000D02*
X123796000Y-143769000D01*
X113204000Y-143769000D02*
X117060000Y-143769000D01*
X119940000Y-143809000D02*
X123822000Y-143809000D01*
X113178000Y-143809000D02*
X117060000Y-143809000D01*
X119940000Y-143849000D02*
X123847000Y-143849000D01*
X113153000Y-143849000D02*
X117060000Y-143849000D01*
X119940000Y-143889000D02*
X123872000Y-143889000D01*
X113128000Y-143889000D02*
X117060000Y-143889000D01*
X119940000Y-143929000D02*
X123897000Y-143929000D01*
X113103000Y-143929000D02*
X117060000Y-143929000D01*
X119940000Y-143969000D02*
X123921000Y-143969000D01*
X113079000Y-143969000D02*
X117060000Y-143969000D01*
X119940000Y-144009000D02*
X123945000Y-144009000D01*
X113055000Y-144009000D02*
X117060000Y-144009000D01*
X119940000Y-144049000D02*
X123968000Y-144049000D01*
X113032000Y-144049000D02*
X117060000Y-144049000D01*
X119940000Y-144089000D02*
X123991000Y-144089000D01*
X113009000Y-144089000D02*
X117060000Y-144089000D01*
X119940000Y-144129000D02*
X124014000Y-144129000D01*
X112986000Y-144129000D02*
X117060000Y-144129000D01*
X119940000Y-144169000D02*
X124036000Y-144169000D01*
X112964000Y-144169000D02*
X117060000Y-144169000D01*
X119940000Y-144209000D02*
X124058000Y-144209000D01*
X112942000Y-144209000D02*
X117060000Y-144209000D01*
X119940000Y-144249000D02*
X124080000Y-144249000D01*
X112920000Y-144249000D02*
X117060000Y-144249000D01*
X119940000Y-144289000D02*
X124101000Y-144289000D01*
X112899000Y-144289000D02*
X117060000Y-144289000D01*
X119940000Y-144329000D02*
X124122000Y-144329000D01*
X112878000Y-144329000D02*
X117060000Y-144329000D01*
X119940000Y-144369000D02*
X124142000Y-144369000D01*
X112858000Y-144369000D02*
X117060000Y-144369000D01*
X119940000Y-144409000D02*
X124162000Y-144409000D01*
X112838000Y-144409000D02*
X117060000Y-144409000D01*
X119940000Y-144449000D02*
X124182000Y-144449000D01*
X112818000Y-144449000D02*
X117060000Y-144449000D01*
X119940000Y-144489000D02*
X124202000Y-144489000D01*
X112798000Y-144489000D02*
X117060000Y-144489000D01*
X119940000Y-144529000D02*
X124221000Y-144529000D01*
X112779000Y-144529000D02*
X117060000Y-144529000D01*
X119940000Y-144569000D02*
X124239000Y-144569000D01*
X112761000Y-144569000D02*
X117060000Y-144569000D01*
X119940000Y-144609000D02*
X124258000Y-144609000D01*
X112742000Y-144609000D02*
X117060000Y-144609000D01*
X119940000Y-144649000D02*
X124276000Y-144649000D01*
X112724000Y-144649000D02*
X117060000Y-144649000D01*
X119940000Y-144689000D02*
X124293000Y-144689000D01*
X112707000Y-144689000D02*
X117060000Y-144689000D01*
X119940000Y-144729000D02*
X124311000Y-144729000D01*
X112689000Y-144729000D02*
X117060000Y-144729000D01*
X119940000Y-144769000D02*
X124328000Y-144769000D01*
X112672000Y-144769000D02*
X117060000Y-144769000D01*
X119940000Y-144809000D02*
X124345000Y-144809000D01*
X112655000Y-144809000D02*
X117060000Y-144809000D01*
X119940000Y-144849000D02*
X124361000Y-144849000D01*
X112639000Y-144849000D02*
X117060000Y-144849000D01*
X119940000Y-144889000D02*
X124377000Y-144889000D01*
X112623000Y-144889000D02*
X117060000Y-144889000D01*
X119940000Y-144929000D02*
X124393000Y-144929000D01*
X112607000Y-144929000D02*
X117060000Y-144929000D01*
X112592000Y-144969000D02*
X124408000Y-144969000D01*
X112576000Y-145009000D02*
X124424000Y-145009000D01*
X112561000Y-145049000D02*
X124439000Y-145049000D01*
X112547000Y-145089000D02*
X124453000Y-145089000D01*
X112533000Y-145129000D02*
X124467000Y-145129000D01*
X112519000Y-145169000D02*
X124481000Y-145169000D01*
X112505000Y-145209000D02*
X124495000Y-145209000D01*
X112492000Y-145249000D02*
X124508000Y-145249000D01*
X112479000Y-145289000D02*
X124521000Y-145289000D01*
X112466000Y-145329000D02*
X124534000Y-145329000D01*
X112453000Y-145369000D02*
X124547000Y-145369000D01*
X112441000Y-145409000D02*
X124559000Y-145409000D01*
X112429000Y-145449000D02*
X124571000Y-145449000D01*
X112417000Y-145489000D02*
X124583000Y-145489000D01*
X112406000Y-145529000D02*
X124594000Y-145529000D01*
X112395000Y-145569000D02*
X124605000Y-145569000D01*
X112384000Y-145609000D02*
X124616000Y-145609000D01*
X112374000Y-145649000D02*
X124626000Y-145649000D01*
X112363000Y-145689000D02*
X124637000Y-145689000D01*
X112354000Y-145729000D02*
X124646000Y-145729000D01*
X112344000Y-145769000D02*
X124656000Y-145769000D01*
X112334000Y-145809000D02*
X124666000Y-145809000D01*
X112325000Y-145849000D02*
X124675000Y-145849000D01*
X112316000Y-145889000D02*
X124684000Y-145889000D01*
X112308000Y-145929000D02*
X124692000Y-145929000D01*
X112299000Y-145969000D02*
X124701000Y-145969000D01*
X112291000Y-146009000D02*
X124709000Y-146009000D01*
X112284000Y-146049000D02*
X124716000Y-146049000D01*
X112276000Y-146089000D02*
X124724000Y-146089000D01*
X112269000Y-146129000D02*
X124731000Y-146129000D01*
X112262000Y-146169000D02*
X124738000Y-146169000D01*
X112255000Y-146209000D02*
X124745000Y-146209000D01*
X112248000Y-146249000D02*
X124752000Y-146249000D01*
X112242000Y-146289000D02*
X124758000Y-146289000D01*
X112236000Y-146329000D02*
X124764000Y-146329000D01*
X112231000Y-146369000D02*
X124769000Y-146369000D01*
X112225000Y-146409000D02*
X124775000Y-146409000D01*
X112220000Y-146449000D02*
X124780000Y-146449000D01*
X112215000Y-146489000D02*
X124785000Y-146489000D01*
X112210000Y-146529000D02*
X124790000Y-146529000D01*
X112206000Y-146570000D02*
X124794000Y-146570000D01*
X112202000Y-146610000D02*
X124798000Y-146610000D01*
X112198000Y-146650000D02*
X124802000Y-146650000D01*
X112194000Y-146690000D02*
X124806000Y-146690000D01*
X112191000Y-146730000D02*
X124809000Y-146730000D01*
X112188000Y-146770000D02*
X124812000Y-146770000D01*
X112185000Y-146810000D02*
X124815000Y-146810000D01*
X112182000Y-146850000D02*
X124818000Y-146850000D01*
X112180000Y-146890000D02*
X124820000Y-146890000D01*
X112178000Y-146930000D02*
X124822000Y-146930000D01*
X112176000Y-146970000D02*
X124824000Y-146970000D01*
X112174000Y-147010000D02*
X124826000Y-147010000D01*
X112173000Y-147050000D02*
X124827000Y-147050000D01*
X112172000Y-147090000D02*
X124828000Y-147090000D01*
X112171000Y-147130000D02*
X124829000Y-147130000D01*
X112170000Y-147170000D02*
X124830000Y-147170000D01*
X112170000Y-147210000D02*
X124830000Y-147210000D01*
X112170000Y-147250000D02*
X124830000Y-147250000D01*
X124870000Y-147250000D02*
G75*
G03*
X124870000Y-147250000I-6370000J0D01*
G01*
%TO.C,C5*%
X104763748Y-138710000D02*
X105286252Y-138710000D01*
X104763748Y-137290000D02*
X105286252Y-137290000D01*
%TO.C,C4*%
X104738748Y-148710000D02*
X105261252Y-148710000D01*
X104738748Y-147290000D02*
X105261252Y-147290000D01*
%TO.C,U1*%
X124855000Y-132620000D02*
X125635000Y-132620000D01*
X125635000Y-132620000D02*
X125635000Y-131620000D01*
X124855000Y-114380000D02*
X125635000Y-114380000D01*
X125635000Y-114380000D02*
X125635000Y-115380000D01*
X99890000Y-132620000D02*
X99890000Y-114380000D01*
X99890000Y-114380000D02*
X106310000Y-114380000D01*
X99890000Y-132620000D02*
X106310000Y-132620000D01*
X106310000Y-132620000D02*
X106310000Y-133000000D01*
%TO.C,BOOT1*%
X131500000Y-115250000D02*
X130000000Y-115250000D01*
X127500000Y-116500000D02*
X127500000Y-121000000D01*
X130000000Y-122250000D02*
X131500000Y-122250000D01*
X134000000Y-121000000D02*
X134000000Y-116500000D01*
%TO.C,RST1*%
X131500000Y-125750000D02*
X130000000Y-125750000D01*
X127500000Y-127000000D02*
X127500000Y-131500000D01*
X130000000Y-132750000D02*
X131500000Y-132750000D01*
X134000000Y-131500000D02*
X134000000Y-127000000D01*
%TO.C,D3*%
X114000000Y-107250000D02*
X114000000Y-103350000D01*
X116000000Y-107250000D02*
X116000000Y-103350000D01*
X114000000Y-107250000D02*
X116000000Y-107250000D01*
%TO.C,D1*%
X133000000Y-107250000D02*
X133000000Y-103350000D01*
X135000000Y-107250000D02*
X135000000Y-103350000D01*
X133000000Y-107250000D02*
X135000000Y-107250000D01*
%TO.C,U3*%
X120670000Y-105040000D02*
X120670000Y-106690000D01*
X125870000Y-105040000D02*
X120670000Y-105040000D01*
X125870000Y-110340000D02*
X125870000Y-105040000D01*
X120670000Y-110340000D02*
X125870000Y-110340000D01*
X120670000Y-108690000D02*
X120670000Y-110340000D01*
X120670000Y-106690000D02*
G75*
G02*
X120670000Y-108690000I0J-1000000D01*
G01*
%TO.C,R3*%
X129328733Y-109510000D02*
X129671267Y-109510000D01*
X129328733Y-108490000D02*
X129671267Y-108490000D01*
%TO.C,Q2*%
X132080000Y-103740000D02*
X132080000Y-105200000D01*
X128920000Y-103740000D02*
X128920000Y-105900000D01*
X128920000Y-103740000D02*
X129850000Y-103740000D01*
X132080000Y-103740000D02*
X131150000Y-103740000D01*
%TO.C,K2*%
X129850000Y-91450000D02*
X129850000Y-95450000D01*
X126250000Y-91450000D02*
X129850000Y-91450000D01*
X126250000Y-95450000D02*
X126250000Y-91450000D01*
X129850000Y-95450000D02*
X126250000Y-95450000D01*
X129850000Y-91450000D02*
X126250000Y-95450000D01*
X129850000Y-93450000D02*
X134050000Y-93450000D01*
X122050000Y-93450000D02*
X126250000Y-93450000D01*
X128050000Y-96850000D02*
X131650000Y-96850000D01*
X128050000Y-90050000D02*
X131650000Y-90050000D01*
X131650000Y-90050000D02*
X131650000Y-96850000D01*
X128050000Y-88550000D02*
X125550000Y-83950000D01*
X128050000Y-90050000D02*
X128050000Y-88550000D01*
X122050000Y-93450000D02*
X122050000Y-95950000D01*
X128050000Y-96850000D02*
X128050000Y-97650000D01*
X134050000Y-95950000D02*
X134050000Y-93450000D01*
X123800000Y-85350000D02*
X126300000Y-85350000D01*
X132200000Y-85350000D02*
X129750000Y-85350000D01*
X135800000Y-81100000D02*
X135800000Y-100900000D01*
X120200000Y-81100000D02*
X135800000Y-81100000D01*
X120200000Y-100900000D02*
X120200000Y-81100000D01*
X120200000Y-100900000D02*
X126800000Y-100900000D01*
X129200000Y-100900000D02*
X135800000Y-100900000D01*
%TO.C,D4*%
X131185000Y-110540000D02*
X128500000Y-110540000D01*
X131185000Y-112460000D02*
X131185000Y-110540000D01*
X128500000Y-112460000D02*
X131185000Y-112460000D01*
%TO.C,C3*%
X113261252Y-138710000D02*
X112738748Y-138710000D01*
X113261252Y-137290000D02*
X112738748Y-137290000D01*
%TO.C,C2*%
X109286252Y-136210000D02*
X108763748Y-136210000D01*
X109286252Y-134790000D02*
X108763748Y-134790000D01*
%TO.C,C1*%
X109261252Y-138710000D02*
X108738748Y-138710000D01*
X109261252Y-137290000D02*
X108738748Y-137290000D01*
%TO.C,R2*%
X113046267Y-136010000D02*
X112703733Y-136010000D01*
X113046267Y-134990000D02*
X112703733Y-134990000D01*
%TO.C,U2*%
X101670000Y-108690000D02*
X101670000Y-110340000D01*
X101670000Y-110340000D02*
X106870000Y-110340000D01*
X106870000Y-110340000D02*
X106870000Y-105040000D01*
X106870000Y-105040000D02*
X101670000Y-105040000D01*
X101670000Y-105040000D02*
X101670000Y-106690000D01*
X101670000Y-106690000D02*
G75*
G02*
X101670000Y-108690000I0J-1000000D01*
G01*
%TO.C,R1*%
X110328733Y-108490000D02*
X110671267Y-108490000D01*
X110328733Y-109510000D02*
X110671267Y-109510000D01*
%TO.C,Q1*%
X113080000Y-103740000D02*
X112150000Y-103740000D01*
X109920000Y-103740000D02*
X110850000Y-103740000D01*
X109920000Y-103740000D02*
X109920000Y-105900000D01*
X113080000Y-103740000D02*
X113080000Y-105200000D01*
%TO.C,K1*%
X110200000Y-100900000D02*
X116800000Y-100900000D01*
X101200000Y-100900000D02*
X107800000Y-100900000D01*
X101200000Y-100900000D02*
X101200000Y-81100000D01*
X101200000Y-81100000D02*
X116800000Y-81100000D01*
X116800000Y-81100000D02*
X116800000Y-100900000D01*
X113200000Y-85350000D02*
X110750000Y-85350000D01*
X104800000Y-85350000D02*
X107300000Y-85350000D01*
X115050000Y-95950000D02*
X115050000Y-93450000D01*
X109050000Y-96850000D02*
X109050000Y-97650000D01*
X103050000Y-93450000D02*
X103050000Y-95950000D01*
X109050000Y-90050000D02*
X109050000Y-88550000D01*
X109050000Y-88550000D02*
X106550000Y-83950000D01*
X112650000Y-90050000D02*
X112650000Y-96850000D01*
X109050000Y-90050000D02*
X112650000Y-90050000D01*
X109050000Y-96850000D02*
X112650000Y-96850000D01*
X103050000Y-93450000D02*
X107250000Y-93450000D01*
X110850000Y-93450000D02*
X115050000Y-93450000D01*
X110850000Y-91450000D02*
X107250000Y-95450000D01*
X110850000Y-95450000D02*
X107250000Y-95450000D01*
X107250000Y-95450000D02*
X107250000Y-91450000D01*
X107250000Y-91450000D02*
X110850000Y-91450000D01*
X110850000Y-91450000D02*
X110850000Y-95450000D01*
%TO.C,D2*%
X109437500Y-112460000D02*
X112122500Y-112460000D01*
X112122500Y-112460000D02*
X112122500Y-110540000D01*
X112122500Y-110540000D02*
X109437500Y-110540000D01*
%TO.C,U5*%
D10*
X125452380Y-143761904D02*
X126261904Y-143761904D01*
X126357142Y-143714285D01*
X126404761Y-143666666D01*
X126452380Y-143571428D01*
X126452380Y-143380952D01*
X126404761Y-143285714D01*
X126357142Y-143238095D01*
X126261904Y-143190476D01*
X125452380Y-143190476D01*
X125452380Y-142238095D02*
X125452380Y-142714285D01*
X125928571Y-142761904D01*
X125880952Y-142714285D01*
X125833333Y-142619047D01*
X125833333Y-142380952D01*
X125880952Y-142285714D01*
X125928571Y-142238095D01*
X126023809Y-142190476D01*
X126261904Y-142190476D01*
X126357142Y-142238095D01*
X126404761Y-142285714D01*
X126452380Y-142380952D01*
X126452380Y-142619047D01*
X126404761Y-142714285D01*
X126357142Y-142761904D01*
%TO.C,R5*%
X108333333Y-102452380D02*
X108000000Y-101976190D01*
X107761904Y-102452380D02*
X107761904Y-101452380D01*
X108142857Y-101452380D01*
X108238095Y-101500000D01*
X108285714Y-101547619D01*
X108333333Y-101642857D01*
X108333333Y-101785714D01*
X108285714Y-101880952D01*
X108238095Y-101928571D01*
X108142857Y-101976190D01*
X107761904Y-101976190D01*
X109238095Y-101452380D02*
X108761904Y-101452380D01*
X108714285Y-101928571D01*
X108761904Y-101880952D01*
X108857142Y-101833333D01*
X109095238Y-101833333D01*
X109190476Y-101880952D01*
X109238095Y-101928571D01*
X109285714Y-102023809D01*
X109285714Y-102261904D01*
X109238095Y-102357142D01*
X109190476Y-102404761D01*
X109095238Y-102452380D01*
X108857142Y-102452380D01*
X108761904Y-102404761D01*
X108714285Y-102357142D01*
%TO.C,R4*%
X127333333Y-102452380D02*
X127000000Y-101976190D01*
X126761904Y-102452380D02*
X126761904Y-101452380D01*
X127142857Y-101452380D01*
X127238095Y-101500000D01*
X127285714Y-101547619D01*
X127333333Y-101642857D01*
X127333333Y-101785714D01*
X127285714Y-101880952D01*
X127238095Y-101928571D01*
X127142857Y-101976190D01*
X126761904Y-101976190D01*
X128190476Y-101785714D02*
X128190476Y-102452380D01*
X127952380Y-101404761D02*
X127714285Y-102119047D01*
X128333333Y-102119047D01*
%TO.C,C8*%
X126357142Y-148166666D02*
X126404761Y-148214285D01*
X126452380Y-148357142D01*
X126452380Y-148452380D01*
X126404761Y-148595238D01*
X126309523Y-148690476D01*
X126214285Y-148738095D01*
X126023809Y-148785714D01*
X125880952Y-148785714D01*
X125690476Y-148738095D01*
X125595238Y-148690476D01*
X125500000Y-148595238D01*
X125452380Y-148452380D01*
X125452380Y-148357142D01*
X125500000Y-148214285D01*
X125547619Y-148166666D01*
X125880952Y-147595238D02*
X125833333Y-147690476D01*
X125785714Y-147738095D01*
X125690476Y-147785714D01*
X125642857Y-147785714D01*
X125547619Y-147738095D01*
X125500000Y-147690476D01*
X125452380Y-147595238D01*
X125452380Y-147404761D01*
X125500000Y-147309523D01*
X125547619Y-147261904D01*
X125642857Y-147214285D01*
X125690476Y-147214285D01*
X125785714Y-147261904D01*
X125833333Y-147309523D01*
X125880952Y-147404761D01*
X125880952Y-147595238D01*
X125928571Y-147690476D01*
X125976190Y-147738095D01*
X126071428Y-147785714D01*
X126261904Y-147785714D01*
X126357142Y-147738095D01*
X126404761Y-147690476D01*
X126452380Y-147595238D01*
X126452380Y-147404761D01*
X126404761Y-147309523D01*
X126357142Y-147261904D01*
X126261904Y-147214285D01*
X126071428Y-147214285D01*
X125976190Y-147261904D01*
X125928571Y-147309523D01*
X125880952Y-147404761D01*
%TO.C,C7*%
X136857142Y-148166666D02*
X136904761Y-148214285D01*
X136952380Y-148357142D01*
X136952380Y-148452380D01*
X136904761Y-148595238D01*
X136809523Y-148690476D01*
X136714285Y-148738095D01*
X136523809Y-148785714D01*
X136380952Y-148785714D01*
X136190476Y-148738095D01*
X136095238Y-148690476D01*
X136000000Y-148595238D01*
X135952380Y-148452380D01*
X135952380Y-148357142D01*
X136000000Y-148214285D01*
X136047619Y-148166666D01*
X135952380Y-147833333D02*
X135952380Y-147166666D01*
X136952380Y-147595238D01*
%TO.C,JP2-BOOT1*%
X135452380Y-114857142D02*
X136166666Y-114857142D01*
X136309523Y-114904761D01*
X136404761Y-115000000D01*
X136452380Y-115142857D01*
X136452380Y-115238095D01*
X136452380Y-114380952D02*
X135452380Y-114380952D01*
X135452380Y-114000000D01*
X135500000Y-113904761D01*
X135547619Y-113857142D01*
X135642857Y-113809523D01*
X135785714Y-113809523D01*
X135880952Y-113857142D01*
X135928571Y-113904761D01*
X135976190Y-114000000D01*
X135976190Y-114380952D01*
X135547619Y-113428571D02*
X135500000Y-113380952D01*
X135452380Y-113285714D01*
X135452380Y-113047619D01*
X135500000Y-112952380D01*
X135547619Y-112904761D01*
X135642857Y-112857142D01*
X135738095Y-112857142D01*
X135880952Y-112904761D01*
X136452380Y-113476190D01*
X136452380Y-112857142D01*
X136071428Y-112428571D02*
X136071428Y-111666666D01*
X135928571Y-110857142D02*
X135976190Y-110714285D01*
X136023809Y-110666666D01*
X136119047Y-110619047D01*
X136261904Y-110619047D01*
X136357142Y-110666666D01*
X136404761Y-110714285D01*
X136452380Y-110809523D01*
X136452380Y-111190476D01*
X135452380Y-111190476D01*
X135452380Y-110857142D01*
X135500000Y-110761904D01*
X135547619Y-110714285D01*
X135642857Y-110666666D01*
X135738095Y-110666666D01*
X135833333Y-110714285D01*
X135880952Y-110761904D01*
X135928571Y-110857142D01*
X135928571Y-111190476D01*
X135452380Y-110000000D02*
X135452380Y-109809523D01*
X135500000Y-109714285D01*
X135595238Y-109619047D01*
X135785714Y-109571428D01*
X136119047Y-109571428D01*
X136309523Y-109619047D01*
X136404761Y-109714285D01*
X136452380Y-109809523D01*
X136452380Y-110000000D01*
X136404761Y-110095238D01*
X136309523Y-110190476D01*
X136119047Y-110238095D01*
X135785714Y-110238095D01*
X135595238Y-110190476D01*
X135500000Y-110095238D01*
X135452380Y-110000000D01*
X135452380Y-108952380D02*
X135452380Y-108761904D01*
X135500000Y-108666666D01*
X135595238Y-108571428D01*
X135785714Y-108523809D01*
X136119047Y-108523809D01*
X136309523Y-108571428D01*
X136404761Y-108666666D01*
X136452380Y-108761904D01*
X136452380Y-108952380D01*
X136404761Y-109047619D01*
X136309523Y-109142857D01*
X136119047Y-109190476D01*
X135785714Y-109190476D01*
X135595238Y-109142857D01*
X135500000Y-109047619D01*
X135452380Y-108952380D01*
X135452380Y-108238095D02*
X135452380Y-107666666D01*
X136452380Y-107952380D02*
X135452380Y-107952380D01*
X136452380Y-106809523D02*
X136452380Y-107380952D01*
X136452380Y-107095238D02*
X135452380Y-107095238D01*
X135595238Y-107190476D01*
X135690476Y-107285714D01*
X135738095Y-107380952D01*
%TO.C,J5*%
X133612380Y-136833333D02*
X134326666Y-136833333D01*
X134469523Y-136880952D01*
X134564761Y-136976190D01*
X134612380Y-137119047D01*
X134612380Y-137214285D01*
X133612380Y-135880952D02*
X133612380Y-136357142D01*
X134088571Y-136404761D01*
X134040952Y-136357142D01*
X133993333Y-136261904D01*
X133993333Y-136023809D01*
X134040952Y-135928571D01*
X134088571Y-135880952D01*
X134183809Y-135833333D01*
X134421904Y-135833333D01*
X134517142Y-135880952D01*
X134564761Y-135928571D01*
X134612380Y-136023809D01*
X134612380Y-136261904D01*
X134564761Y-136357142D01*
X134517142Y-136404761D01*
%TO.C,D6*%
X115761904Y-78952380D02*
X115761904Y-77952380D01*
X116000000Y-77952380D01*
X116142857Y-78000000D01*
X116238095Y-78095238D01*
X116285714Y-78190476D01*
X116333333Y-78380952D01*
X116333333Y-78523809D01*
X116285714Y-78714285D01*
X116238095Y-78809523D01*
X116142857Y-78904761D01*
X116000000Y-78952380D01*
X115761904Y-78952380D01*
X117190476Y-77952380D02*
X117000000Y-77952380D01*
X116904761Y-78000000D01*
X116857142Y-78047619D01*
X116761904Y-78190476D01*
X116714285Y-78380952D01*
X116714285Y-78761904D01*
X116761904Y-78857142D01*
X116809523Y-78904761D01*
X116904761Y-78952380D01*
X117095238Y-78952380D01*
X117190476Y-78904761D01*
X117238095Y-78857142D01*
X117285714Y-78761904D01*
X117285714Y-78523809D01*
X117238095Y-78428571D01*
X117190476Y-78380952D01*
X117095238Y-78333333D01*
X116904761Y-78333333D01*
X116809523Y-78380952D01*
X116761904Y-78428571D01*
X116714285Y-78523809D01*
%TO.C,D5*%
X119761904Y-78952380D02*
X119761904Y-77952380D01*
X120000000Y-77952380D01*
X120142857Y-78000000D01*
X120238095Y-78095238D01*
X120285714Y-78190476D01*
X120333333Y-78380952D01*
X120333333Y-78523809D01*
X120285714Y-78714285D01*
X120238095Y-78809523D01*
X120142857Y-78904761D01*
X120000000Y-78952380D01*
X119761904Y-78952380D01*
X121238095Y-77952380D02*
X120761904Y-77952380D01*
X120714285Y-78428571D01*
X120761904Y-78380952D01*
X120857142Y-78333333D01*
X121095238Y-78333333D01*
X121190476Y-78380952D01*
X121238095Y-78428571D01*
X121285714Y-78523809D01*
X121285714Y-78761904D01*
X121238095Y-78857142D01*
X121190476Y-78904761D01*
X121095238Y-78952380D01*
X120857142Y-78952380D01*
X120761904Y-78904761D01*
X120714285Y-78857142D01*
%TO.C,U4*%
X100738095Y-137452380D02*
X100738095Y-138261904D01*
X100785714Y-138357142D01*
X100833333Y-138404761D01*
X100928571Y-138452380D01*
X101119047Y-138452380D01*
X101214285Y-138404761D01*
X101261904Y-138357142D01*
X101309523Y-138261904D01*
X101309523Y-137452380D01*
X102214285Y-137785714D02*
X102214285Y-138452380D01*
X101976190Y-137404761D02*
X101738095Y-138119047D01*
X102357142Y-138119047D01*
%TO.C,JP1*%
X117906666Y-153452380D02*
X117906666Y-154166666D01*
X117859047Y-154309523D01*
X117763809Y-154404761D01*
X117620952Y-154452380D01*
X117525714Y-154452380D01*
X118382857Y-154452380D02*
X118382857Y-153452380D01*
X118763809Y-153452380D01*
X118859047Y-153500000D01*
X118906666Y-153547619D01*
X118954285Y-153642857D01*
X118954285Y-153785714D01*
X118906666Y-153880952D01*
X118859047Y-153928571D01*
X118763809Y-153976190D01*
X118382857Y-153976190D01*
X119906666Y-154452380D02*
X119335238Y-154452380D01*
X119620952Y-154452380D02*
X119620952Y-153452380D01*
X119525714Y-153595238D01*
X119430476Y-153690476D01*
X119335238Y-153738095D01*
%TO.C,J4*%
X111666666Y-150452380D02*
X111666666Y-151166666D01*
X111619047Y-151309523D01*
X111523809Y-151404761D01*
X111380952Y-151452380D01*
X111285714Y-151452380D01*
X112571428Y-150785714D02*
X112571428Y-151452380D01*
X112333333Y-150404761D02*
X112095238Y-151119047D01*
X112714285Y-151119047D01*
%TO.C,J3*%
X133666666Y-150452380D02*
X133666666Y-151166666D01*
X133619047Y-151309523D01*
X133523809Y-151404761D01*
X133380952Y-151452380D01*
X133285714Y-151452380D01*
X134047619Y-150452380D02*
X134666666Y-150452380D01*
X134333333Y-150833333D01*
X134476190Y-150833333D01*
X134571428Y-150880952D01*
X134619047Y-150928571D01*
X134666666Y-151023809D01*
X134666666Y-151261904D01*
X134619047Y-151357142D01*
X134571428Y-151404761D01*
X134476190Y-151452380D01*
X134190476Y-151452380D01*
X134095238Y-151404761D01*
X134047619Y-151357142D01*
%TO.C,J2*%
X108626666Y-79032380D02*
X108626666Y-79746666D01*
X108579047Y-79889523D01*
X108483809Y-79984761D01*
X108340952Y-80032380D01*
X108245714Y-80032380D01*
X109055238Y-79127619D02*
X109102857Y-79080000D01*
X109198095Y-79032380D01*
X109436190Y-79032380D01*
X109531428Y-79080000D01*
X109579047Y-79127619D01*
X109626666Y-79222857D01*
X109626666Y-79318095D01*
X109579047Y-79460952D01*
X109007619Y-80032380D01*
X109626666Y-80032380D01*
%TO.C,J1*%
X127626666Y-79032380D02*
X127626666Y-79746666D01*
X127579047Y-79889523D01*
X127483809Y-79984761D01*
X127340952Y-80032380D01*
X127245714Y-80032380D01*
X128626666Y-80032380D02*
X128055238Y-80032380D01*
X128340952Y-80032380D02*
X128340952Y-79032380D01*
X128245714Y-79175238D01*
X128150476Y-79270476D01*
X128055238Y-79318095D01*
%TO.C,C6*%
X111357142Y-147416666D02*
X111404761Y-147464285D01*
X111452380Y-147607142D01*
X111452380Y-147702380D01*
X111404761Y-147845238D01*
X111309523Y-147940476D01*
X111214285Y-147988095D01*
X111023809Y-148035714D01*
X110880952Y-148035714D01*
X110690476Y-147988095D01*
X110595238Y-147940476D01*
X110500000Y-147845238D01*
X110452380Y-147702380D01*
X110452380Y-147607142D01*
X110500000Y-147464285D01*
X110547619Y-147416666D01*
X110452380Y-146559523D02*
X110452380Y-146750000D01*
X110500000Y-146845238D01*
X110547619Y-146892857D01*
X110690476Y-146988095D01*
X110880952Y-147035714D01*
X111261904Y-147035714D01*
X111357142Y-146988095D01*
X111404761Y-146940476D01*
X111452380Y-146845238D01*
X111452380Y-146654761D01*
X111404761Y-146559523D01*
X111357142Y-146511904D01*
X111261904Y-146464285D01*
X111023809Y-146464285D01*
X110928571Y-146511904D01*
X110880952Y-146559523D01*
X110833333Y-146654761D01*
X110833333Y-146845238D01*
X110880952Y-146940476D01*
X110928571Y-146988095D01*
X111023809Y-147035714D01*
%TO.C,C5*%
X103333333Y-136357142D02*
X103285714Y-136404761D01*
X103142857Y-136452380D01*
X103047619Y-136452380D01*
X102904761Y-136404761D01*
X102809523Y-136309523D01*
X102761904Y-136214285D01*
X102714285Y-136023809D01*
X102714285Y-135880952D01*
X102761904Y-135690476D01*
X102809523Y-135595238D01*
X102904761Y-135500000D01*
X103047619Y-135452380D01*
X103142857Y-135452380D01*
X103285714Y-135500000D01*
X103333333Y-135547619D01*
X104238095Y-135452380D02*
X103761904Y-135452380D01*
X103714285Y-135928571D01*
X103761904Y-135880952D01*
X103857142Y-135833333D01*
X104095238Y-135833333D01*
X104190476Y-135880952D01*
X104238095Y-135928571D01*
X104285714Y-136023809D01*
X104285714Y-136261904D01*
X104238095Y-136357142D01*
X104190476Y-136404761D01*
X104095238Y-136452380D01*
X103857142Y-136452380D01*
X103761904Y-136404761D01*
X103714285Y-136357142D01*
%TO.C,C4*%
X101808333Y-148357142D02*
X101760714Y-148404761D01*
X101617857Y-148452380D01*
X101522619Y-148452380D01*
X101379761Y-148404761D01*
X101284523Y-148309523D01*
X101236904Y-148214285D01*
X101189285Y-148023809D01*
X101189285Y-147880952D01*
X101236904Y-147690476D01*
X101284523Y-147595238D01*
X101379761Y-147500000D01*
X101522619Y-147452380D01*
X101617857Y-147452380D01*
X101760714Y-147500000D01*
X101808333Y-147547619D01*
X102665476Y-147785714D02*
X102665476Y-148452380D01*
X102427380Y-147404761D02*
X102189285Y-148119047D01*
X102808333Y-148119047D01*
%TO.C,U1*%
X123423095Y-133562380D02*
X123423095Y-134371904D01*
X123470714Y-134467142D01*
X123518333Y-134514761D01*
X123613571Y-134562380D01*
X123804047Y-134562380D01*
X123899285Y-134514761D01*
X123946904Y-134467142D01*
X123994523Y-134371904D01*
X123994523Y-133562380D01*
X124994523Y-134562380D02*
X124423095Y-134562380D01*
X124708809Y-134562380D02*
X124708809Y-133562380D01*
X124613571Y-133705238D01*
X124518333Y-133800476D01*
X124423095Y-133848095D01*
%TO.C,BOOT1*%
X135428571Y-120333333D02*
X135476190Y-120190476D01*
X135523809Y-120142857D01*
X135619047Y-120095238D01*
X135761904Y-120095238D01*
X135857142Y-120142857D01*
X135904761Y-120190476D01*
X135952380Y-120285714D01*
X135952380Y-120666666D01*
X134952380Y-120666666D01*
X134952380Y-120333333D01*
X135000000Y-120238095D01*
X135047619Y-120190476D01*
X135142857Y-120142857D01*
X135238095Y-120142857D01*
X135333333Y-120190476D01*
X135380952Y-120238095D01*
X135428571Y-120333333D01*
X135428571Y-120666666D01*
X134952380Y-119476190D02*
X134952380Y-119285714D01*
X135000000Y-119190476D01*
X135095238Y-119095238D01*
X135285714Y-119047619D01*
X135619047Y-119047619D01*
X135809523Y-119095238D01*
X135904761Y-119190476D01*
X135952380Y-119285714D01*
X135952380Y-119476190D01*
X135904761Y-119571428D01*
X135809523Y-119666666D01*
X135619047Y-119714285D01*
X135285714Y-119714285D01*
X135095238Y-119666666D01*
X135000000Y-119571428D01*
X134952380Y-119476190D01*
X134952380Y-118428571D02*
X134952380Y-118238095D01*
X135000000Y-118142857D01*
X135095238Y-118047619D01*
X135285714Y-118000000D01*
X135619047Y-118000000D01*
X135809523Y-118047619D01*
X135904761Y-118142857D01*
X135952380Y-118238095D01*
X135952380Y-118428571D01*
X135904761Y-118523809D01*
X135809523Y-118619047D01*
X135619047Y-118666666D01*
X135285714Y-118666666D01*
X135095238Y-118619047D01*
X135000000Y-118523809D01*
X134952380Y-118428571D01*
X134952380Y-117714285D02*
X134952380Y-117142857D01*
X135952380Y-117428571D02*
X134952380Y-117428571D01*
X135952380Y-116285714D02*
X135952380Y-116857142D01*
X135952380Y-116571428D02*
X134952380Y-116571428D01*
X135095238Y-116666666D01*
X135190476Y-116761904D01*
X135238095Y-116857142D01*
%TO.C,RST1*%
X135952380Y-130273809D02*
X135476190Y-130607142D01*
X135952380Y-130845238D02*
X134952380Y-130845238D01*
X134952380Y-130464285D01*
X135000000Y-130369047D01*
X135047619Y-130321428D01*
X135142857Y-130273809D01*
X135285714Y-130273809D01*
X135380952Y-130321428D01*
X135428571Y-130369047D01*
X135476190Y-130464285D01*
X135476190Y-130845238D01*
X135904761Y-129892857D02*
X135952380Y-129750000D01*
X135952380Y-129511904D01*
X135904761Y-129416666D01*
X135857142Y-129369047D01*
X135761904Y-129321428D01*
X135666666Y-129321428D01*
X135571428Y-129369047D01*
X135523809Y-129416666D01*
X135476190Y-129511904D01*
X135428571Y-129702380D01*
X135380952Y-129797619D01*
X135333333Y-129845238D01*
X135238095Y-129892857D01*
X135142857Y-129892857D01*
X135047619Y-129845238D01*
X135000000Y-129797619D01*
X134952380Y-129702380D01*
X134952380Y-129464285D01*
X135000000Y-129321428D01*
X134952380Y-129035714D02*
X134952380Y-128464285D01*
X135952380Y-128750000D02*
X134952380Y-128750000D01*
X135952380Y-127607142D02*
X135952380Y-128178571D01*
X135952380Y-127892857D02*
X134952380Y-127892857D01*
X135095238Y-127988095D01*
X135190476Y-128083333D01*
X135238095Y-128178571D01*
%TO.C,D3*%
X115452380Y-105738095D02*
X114452380Y-105738095D01*
X114452380Y-105500000D01*
X114500000Y-105357142D01*
X114595238Y-105261904D01*
X114690476Y-105214285D01*
X114880952Y-105166666D01*
X115023809Y-105166666D01*
X115214285Y-105214285D01*
X115309523Y-105261904D01*
X115404761Y-105357142D01*
X115452380Y-105500000D01*
X115452380Y-105738095D01*
X114452380Y-104833333D02*
X114452380Y-104214285D01*
X114833333Y-104547619D01*
X114833333Y-104404761D01*
X114880952Y-104309523D01*
X114928571Y-104261904D01*
X115023809Y-104214285D01*
X115261904Y-104214285D01*
X115357142Y-104261904D01*
X115404761Y-104309523D01*
X115452380Y-104404761D01*
X115452380Y-104690476D01*
X115404761Y-104785714D01*
X115357142Y-104833333D01*
%TO.C,D1*%
X134452380Y-105738095D02*
X133452380Y-105738095D01*
X133452380Y-105500000D01*
X133500000Y-105357142D01*
X133595238Y-105261904D01*
X133690476Y-105214285D01*
X133880952Y-105166666D01*
X134023809Y-105166666D01*
X134214285Y-105214285D01*
X134309523Y-105261904D01*
X134404761Y-105357142D01*
X134452380Y-105500000D01*
X134452380Y-105738095D01*
X134452380Y-104214285D02*
X134452380Y-104785714D01*
X134452380Y-104500000D02*
X133452380Y-104500000D01*
X133595238Y-104595238D01*
X133690476Y-104690476D01*
X133738095Y-104785714D01*
%TO.C,U3*%
X119122380Y-108451904D02*
X119931904Y-108451904D01*
X120027142Y-108404285D01*
X120074761Y-108356666D01*
X120122380Y-108261428D01*
X120122380Y-108070952D01*
X120074761Y-107975714D01*
X120027142Y-107928095D01*
X119931904Y-107880476D01*
X119122380Y-107880476D01*
X119122380Y-107499523D02*
X119122380Y-106880476D01*
X119503333Y-107213809D01*
X119503333Y-107070952D01*
X119550952Y-106975714D01*
X119598571Y-106928095D01*
X119693809Y-106880476D01*
X119931904Y-106880476D01*
X120027142Y-106928095D01*
X120074761Y-106975714D01*
X120122380Y-107070952D01*
X120122380Y-107356666D01*
X120074761Y-107451904D01*
X120027142Y-107499523D01*
%TO.C,R3*%
X129333333Y-108022380D02*
X129000000Y-107546190D01*
X128761904Y-108022380D02*
X128761904Y-107022380D01*
X129142857Y-107022380D01*
X129238095Y-107070000D01*
X129285714Y-107117619D01*
X129333333Y-107212857D01*
X129333333Y-107355714D01*
X129285714Y-107450952D01*
X129238095Y-107498571D01*
X129142857Y-107546190D01*
X128761904Y-107546190D01*
X129666666Y-107022380D02*
X130285714Y-107022380D01*
X129952380Y-107403333D01*
X130095238Y-107403333D01*
X130190476Y-107450952D01*
X130238095Y-107498571D01*
X130285714Y-107593809D01*
X130285714Y-107831904D01*
X130238095Y-107927142D01*
X130190476Y-107974761D01*
X130095238Y-108022380D01*
X129809523Y-108022380D01*
X129714285Y-107974761D01*
X129666666Y-107927142D01*
%TO.C,Q2*%
X131404761Y-102547619D02*
X131309523Y-102500000D01*
X131214285Y-102404761D01*
X131071428Y-102261904D01*
X130976190Y-102214285D01*
X130880952Y-102214285D01*
X130928571Y-102452380D02*
X130833333Y-102404761D01*
X130738095Y-102309523D01*
X130690476Y-102119047D01*
X130690476Y-101785714D01*
X130738095Y-101595238D01*
X130833333Y-101500000D01*
X130928571Y-101452380D01*
X131119047Y-101452380D01*
X131214285Y-101500000D01*
X131309523Y-101595238D01*
X131357142Y-101785714D01*
X131357142Y-102119047D01*
X131309523Y-102309523D01*
X131214285Y-102404761D01*
X131119047Y-102452380D01*
X130928571Y-102452380D01*
X131738095Y-101547619D02*
X131785714Y-101500000D01*
X131880952Y-101452380D01*
X132119047Y-101452380D01*
X132214285Y-101500000D01*
X132261904Y-101547619D01*
X132309523Y-101642857D01*
X132309523Y-101738095D01*
X132261904Y-101880952D01*
X131690476Y-102452380D01*
X132309523Y-102452380D01*
%TO.C,K2*%
X120761904Y-82452380D02*
X120761904Y-81452380D01*
X121333333Y-82452380D02*
X120904761Y-81880952D01*
X121333333Y-81452380D02*
X120761904Y-82023809D01*
X121714285Y-81547619D02*
X121761904Y-81500000D01*
X121857142Y-81452380D01*
X122095238Y-81452380D01*
X122190476Y-81500000D01*
X122238095Y-81547619D01*
X122285714Y-81642857D01*
X122285714Y-81738095D01*
X122238095Y-81880952D01*
X121666666Y-82452380D01*
X122285714Y-82452380D01*
%TO.C,D4*%
X128761904Y-113602380D02*
X128761904Y-112602380D01*
X129000000Y-112602380D01*
X129142857Y-112650000D01*
X129238095Y-112745238D01*
X129285714Y-112840476D01*
X129333333Y-113030952D01*
X129333333Y-113173809D01*
X129285714Y-113364285D01*
X129238095Y-113459523D01*
X129142857Y-113554761D01*
X129000000Y-113602380D01*
X128761904Y-113602380D01*
X130190476Y-112935714D02*
X130190476Y-113602380D01*
X129952380Y-112554761D02*
X129714285Y-113269047D01*
X130333333Y-113269047D01*
%TO.C,C3*%
X115833333Y-138357142D02*
X115785714Y-138404761D01*
X115642857Y-138452380D01*
X115547619Y-138452380D01*
X115404761Y-138404761D01*
X115309523Y-138309523D01*
X115261904Y-138214285D01*
X115214285Y-138023809D01*
X115214285Y-137880952D01*
X115261904Y-137690476D01*
X115309523Y-137595238D01*
X115404761Y-137500000D01*
X115547619Y-137452380D01*
X115642857Y-137452380D01*
X115785714Y-137500000D01*
X115833333Y-137547619D01*
X116166666Y-137452380D02*
X116785714Y-137452380D01*
X116452380Y-137833333D01*
X116595238Y-137833333D01*
X116690476Y-137880952D01*
X116738095Y-137928571D01*
X116785714Y-138023809D01*
X116785714Y-138261904D01*
X116738095Y-138357142D01*
X116690476Y-138404761D01*
X116595238Y-138452380D01*
X116309523Y-138452380D01*
X116214285Y-138404761D01*
X116166666Y-138357142D01*
%TO.C,C2*%
X105883333Y-135857142D02*
X105835714Y-135904761D01*
X105692857Y-135952380D01*
X105597619Y-135952380D01*
X105454761Y-135904761D01*
X105359523Y-135809523D01*
X105311904Y-135714285D01*
X105264285Y-135523809D01*
X105264285Y-135380952D01*
X105311904Y-135190476D01*
X105359523Y-135095238D01*
X105454761Y-135000000D01*
X105597619Y-134952380D01*
X105692857Y-134952380D01*
X105835714Y-135000000D01*
X105883333Y-135047619D01*
X106264285Y-135047619D02*
X106311904Y-135000000D01*
X106407142Y-134952380D01*
X106645238Y-134952380D01*
X106740476Y-135000000D01*
X106788095Y-135047619D01*
X106835714Y-135142857D01*
X106835714Y-135238095D01*
X106788095Y-135380952D01*
X106216666Y-135952380D01*
X106835714Y-135952380D01*
%TO.C,C1*%
X105833333Y-138357142D02*
X105785714Y-138404761D01*
X105642857Y-138452380D01*
X105547619Y-138452380D01*
X105404761Y-138404761D01*
X105309523Y-138309523D01*
X105261904Y-138214285D01*
X105214285Y-138023809D01*
X105214285Y-137880952D01*
X105261904Y-137690476D01*
X105309523Y-137595238D01*
X105404761Y-137500000D01*
X105547619Y-137452380D01*
X105642857Y-137452380D01*
X105785714Y-137500000D01*
X105833333Y-137547619D01*
X106785714Y-138452380D02*
X106214285Y-138452380D01*
X106500000Y-138452380D02*
X106500000Y-137452380D01*
X106404761Y-137595238D01*
X106309523Y-137690476D01*
X106214285Y-137738095D01*
%TO.C,R2*%
X115333333Y-135952380D02*
X115000000Y-135476190D01*
X114761904Y-135952380D02*
X114761904Y-134952380D01*
X115142857Y-134952380D01*
X115238095Y-135000000D01*
X115285714Y-135047619D01*
X115333333Y-135142857D01*
X115333333Y-135285714D01*
X115285714Y-135380952D01*
X115238095Y-135428571D01*
X115142857Y-135476190D01*
X114761904Y-135476190D01*
X115714285Y-135047619D02*
X115761904Y-135000000D01*
X115857142Y-134952380D01*
X116095238Y-134952380D01*
X116190476Y-135000000D01*
X116238095Y-135047619D01*
X116285714Y-135142857D01*
X116285714Y-135238095D01*
X116238095Y-135380952D01*
X115666666Y-135952380D01*
X116285714Y-135952380D01*
%TO.C,U2*%
X100122380Y-108451904D02*
X100931904Y-108451904D01*
X101027142Y-108404285D01*
X101074761Y-108356666D01*
X101122380Y-108261428D01*
X101122380Y-108070952D01*
X101074761Y-107975714D01*
X101027142Y-107928095D01*
X100931904Y-107880476D01*
X100122380Y-107880476D01*
X100217619Y-107451904D02*
X100170000Y-107404285D01*
X100122380Y-107309047D01*
X100122380Y-107070952D01*
X100170000Y-106975714D01*
X100217619Y-106928095D01*
X100312857Y-106880476D01*
X100408095Y-106880476D01*
X100550952Y-106928095D01*
X101122380Y-107499523D01*
X101122380Y-106880476D01*
%TO.C,R1*%
X110333333Y-108022380D02*
X110000000Y-107546190D01*
X109761904Y-108022380D02*
X109761904Y-107022380D01*
X110142857Y-107022380D01*
X110238095Y-107070000D01*
X110285714Y-107117619D01*
X110333333Y-107212857D01*
X110333333Y-107355714D01*
X110285714Y-107450952D01*
X110238095Y-107498571D01*
X110142857Y-107546190D01*
X109761904Y-107546190D01*
X111285714Y-108022380D02*
X110714285Y-108022380D01*
X111000000Y-108022380D02*
X111000000Y-107022380D01*
X110904761Y-107165238D01*
X110809523Y-107260476D01*
X110714285Y-107308095D01*
%TO.C,Q1*%
X112404761Y-102547619D02*
X112309523Y-102500000D01*
X112214285Y-102404761D01*
X112071428Y-102261904D01*
X111976190Y-102214285D01*
X111880952Y-102214285D01*
X111928571Y-102452380D02*
X111833333Y-102404761D01*
X111738095Y-102309523D01*
X111690476Y-102119047D01*
X111690476Y-101785714D01*
X111738095Y-101595238D01*
X111833333Y-101500000D01*
X111928571Y-101452380D01*
X112119047Y-101452380D01*
X112214285Y-101500000D01*
X112309523Y-101595238D01*
X112357142Y-101785714D01*
X112357142Y-102119047D01*
X112309523Y-102309523D01*
X112214285Y-102404761D01*
X112119047Y-102452380D01*
X111928571Y-102452380D01*
X113309523Y-102452380D02*
X112738095Y-102452380D01*
X113023809Y-102452380D02*
X113023809Y-101452380D01*
X112928571Y-101595238D01*
X112833333Y-101690476D01*
X112738095Y-101738095D01*
%TO.C,K1*%
X114761904Y-82452380D02*
X114761904Y-81452380D01*
X115333333Y-82452380D02*
X114904761Y-81880952D01*
X115333333Y-81452380D02*
X114761904Y-82023809D01*
X116285714Y-82452380D02*
X115714285Y-82452380D01*
X116000000Y-82452380D02*
X116000000Y-81452380D01*
X115904761Y-81595238D01*
X115809523Y-81690476D01*
X115714285Y-81738095D01*
%TO.C,D2*%
X109699404Y-113602380D02*
X109699404Y-112602380D01*
X109937500Y-112602380D01*
X110080357Y-112650000D01*
X110175595Y-112745238D01*
X110223214Y-112840476D01*
X110270833Y-113030952D01*
X110270833Y-113173809D01*
X110223214Y-113364285D01*
X110175595Y-113459523D01*
X110080357Y-113554761D01*
X109937500Y-113602380D01*
X109699404Y-113602380D01*
X110651785Y-112697619D02*
X110699404Y-112650000D01*
X110794642Y-112602380D01*
X111032738Y-112602380D01*
X111127976Y-112650000D01*
X111175595Y-112697619D01*
X111223214Y-112792857D01*
X111223214Y-112888095D01*
X111175595Y-113030952D01*
X110604166Y-113602380D01*
X111223214Y-113602380D01*
%TD*%
M02*
