%TF.GenerationSoftware,KiCad,Pcbnew,(5.1.6)-1*%
%TF.CreationDate,2020-08-04T14:24:57+05:30*%
%TF.ProjectId,ESP32-BLE-Relay-Control-Board,45535033-322d-4424-9c45-2d52656c6179,rev?*%
%TF.SameCoordinates,Original*%
%TF.FileFunction,Soldermask,Top*%
%TF.FilePolarity,Negative*%
%FSLAX46Y46*%
G04 Gerber Fmt 4.6, Leading zero omitted, Abs format (unit mm)*
G04 Created by KiCad (PCBNEW (5.1.6)-1) date 2020-08-04 14:24:57*
%MOMM*%
%LPD*%
G01*
G04 APERTURE LIST*
%ADD10R,2.100000X1.600000*%
%ADD11R,2.100000X3.900000*%
%ADD12C,1.500000*%
%ADD13O,1.800000X1.800000*%
%ADD14R,1.800000X1.800000*%
%ADD15R,1.900000X2.600000*%
%ADD16C,3.100000*%
%ADD17R,3.100000X3.100000*%
%ADD18C,2.500000*%
%ADD19R,2.500000X2.500000*%
%ADD20R,1.000000X2.100000*%
%ADD21R,2.100000X1.000000*%
%ADD22R,5.100000X5.100000*%
%ADD23C,2.100000*%
%ADD24R,1.300000X1.000000*%
%ADD25O,1.700000X1.700000*%
%ADD26R,1.700000X1.700000*%
%ADD27R,0.900000X1.000000*%
%ADD28C,2.600000*%
G04 APERTURE END LIST*
D10*
%TO.C,U5*%
X134650000Y-145300000D03*
X134650000Y-140700000D03*
X134650000Y-143000000D03*
D11*
X128350000Y-143000000D03*
%TD*%
%TO.C,R5*%
G36*
G01*
X108762500Y-104200000D02*
X108237500Y-104200000D01*
G75*
G02*
X107975000Y-103937500I0J262500D01*
G01*
X107975000Y-103312500D01*
G75*
G02*
X108237500Y-103050000I262500J0D01*
G01*
X108762500Y-103050000D01*
G75*
G02*
X109025000Y-103312500I0J-262500D01*
G01*
X109025000Y-103937500D01*
G75*
G02*
X108762500Y-104200000I-262500J0D01*
G01*
G37*
G36*
G01*
X108762500Y-105950000D02*
X108237500Y-105950000D01*
G75*
G02*
X107975000Y-105687500I0J262500D01*
G01*
X107975000Y-105062500D01*
G75*
G02*
X108237500Y-104800000I262500J0D01*
G01*
X108762500Y-104800000D01*
G75*
G02*
X109025000Y-105062500I0J-262500D01*
G01*
X109025000Y-105687500D01*
G75*
G02*
X108762500Y-105950000I-262500J0D01*
G01*
G37*
%TD*%
%TO.C,R4*%
G36*
G01*
X127762500Y-104200000D02*
X127237500Y-104200000D01*
G75*
G02*
X126975000Y-103937500I0J262500D01*
G01*
X126975000Y-103312500D01*
G75*
G02*
X127237500Y-103050000I262500J0D01*
G01*
X127762500Y-103050000D01*
G75*
G02*
X128025000Y-103312500I0J-262500D01*
G01*
X128025000Y-103937500D01*
G75*
G02*
X127762500Y-104200000I-262500J0D01*
G01*
G37*
G36*
G01*
X127762500Y-105950000D02*
X127237500Y-105950000D01*
G75*
G02*
X126975000Y-105687500I0J262500D01*
G01*
X126975000Y-105062500D01*
G75*
G02*
X127237500Y-104800000I262500J0D01*
G01*
X127762500Y-104800000D01*
G75*
G02*
X128025000Y-105062500I0J-262500D01*
G01*
X128025000Y-105687500D01*
G75*
G02*
X127762500Y-105950000I-262500J0D01*
G01*
G37*
%TD*%
%TO.C,C8*%
G36*
G01*
X129425000Y-148478262D02*
X129425000Y-147521738D01*
G75*
G02*
X129696738Y-147250000I271738J0D01*
G01*
X130403262Y-147250000D01*
G75*
G02*
X130675000Y-147521738I0J-271738D01*
G01*
X130675000Y-148478262D01*
G75*
G02*
X130403262Y-148750000I-271738J0D01*
G01*
X129696738Y-148750000D01*
G75*
G02*
X129425000Y-148478262I0J271738D01*
G01*
G37*
G36*
G01*
X127375000Y-148478262D02*
X127375000Y-147521738D01*
G75*
G02*
X127646738Y-147250000I271738J0D01*
G01*
X128353262Y-147250000D01*
G75*
G02*
X128625000Y-147521738I0J-271738D01*
G01*
X128625000Y-148478262D01*
G75*
G02*
X128353262Y-148750000I-271738J0D01*
G01*
X127646738Y-148750000D01*
G75*
G02*
X127375000Y-148478262I0J271738D01*
G01*
G37*
%TD*%
%TO.C,C7*%
G36*
G01*
X133925000Y-148478262D02*
X133925000Y-147521738D01*
G75*
G02*
X134196738Y-147250000I271738J0D01*
G01*
X134903262Y-147250000D01*
G75*
G02*
X135175000Y-147521738I0J-271738D01*
G01*
X135175000Y-148478262D01*
G75*
G02*
X134903262Y-148750000I-271738J0D01*
G01*
X134196738Y-148750000D01*
G75*
G02*
X133925000Y-148478262I0J271738D01*
G01*
G37*
G36*
G01*
X131875000Y-148478262D02*
X131875000Y-147521738D01*
G75*
G02*
X132146738Y-147250000I271738J0D01*
G01*
X132853262Y-147250000D01*
G75*
G02*
X133125000Y-147521738I0J-271738D01*
G01*
X133125000Y-148478262D01*
G75*
G02*
X132853262Y-148750000I-271738J0D01*
G01*
X132146738Y-148750000D01*
G75*
G02*
X131875000Y-148478262I0J271738D01*
G01*
G37*
%TD*%
D12*
%TO.C,JP2-BOOT1*%
X133500000Y-109460000D03*
X133500000Y-112000000D03*
%TD*%
D13*
%TO.C,J5*%
X131160000Y-136500000D03*
X128620000Y-136500000D03*
X126080000Y-136500000D03*
X123540000Y-136500000D03*
X121000000Y-136500000D03*
D14*
X118460000Y-136500000D03*
%TD*%
D15*
%TO.C,D6*%
X116500000Y-76000000D03*
X116500000Y-72000000D03*
%TD*%
%TO.C,D5*%
X120500000Y-76000000D03*
X120500000Y-72000000D03*
%TD*%
D10*
%TO.C,U4*%
X101850000Y-140700000D03*
X101850000Y-145300000D03*
X101850000Y-143000000D03*
D11*
X108150000Y-143000000D03*
%TD*%
D12*
%TO.C,JP1*%
X117500000Y-156000000D03*
X120040000Y-156000000D03*
%TD*%
D16*
%TO.C,J4*%
X110080000Y-156000000D03*
D17*
X105000000Y-156000000D03*
%TD*%
D16*
%TO.C,J3*%
X132080000Y-156000000D03*
D17*
X127000000Y-156000000D03*
%TD*%
D16*
%TO.C,J2*%
X106420000Y-74500000D03*
D17*
X111500000Y-74500000D03*
%TD*%
D16*
%TO.C,J1*%
X125420000Y-74500000D03*
D17*
X130500000Y-74500000D03*
%TD*%
D18*
%TO.C,C6*%
X118500000Y-143500000D03*
D19*
X118500000Y-151000000D03*
%TD*%
%TO.C,C5*%
G36*
G01*
X105425000Y-138478262D02*
X105425000Y-137521738D01*
G75*
G02*
X105696738Y-137250000I271738J0D01*
G01*
X106403262Y-137250000D01*
G75*
G02*
X106675000Y-137521738I0J-271738D01*
G01*
X106675000Y-138478262D01*
G75*
G02*
X106403262Y-138750000I-271738J0D01*
G01*
X105696738Y-138750000D01*
G75*
G02*
X105425000Y-138478262I0J271738D01*
G01*
G37*
G36*
G01*
X103375000Y-138478262D02*
X103375000Y-137521738D01*
G75*
G02*
X103646738Y-137250000I271738J0D01*
G01*
X104353262Y-137250000D01*
G75*
G02*
X104625000Y-137521738I0J-271738D01*
G01*
X104625000Y-138478262D01*
G75*
G02*
X104353262Y-138750000I-271738J0D01*
G01*
X103646738Y-138750000D01*
G75*
G02*
X103375000Y-138478262I0J271738D01*
G01*
G37*
%TD*%
%TO.C,C4*%
G36*
G01*
X105400000Y-148478262D02*
X105400000Y-147521738D01*
G75*
G02*
X105671738Y-147250000I271738J0D01*
G01*
X106378262Y-147250000D01*
G75*
G02*
X106650000Y-147521738I0J-271738D01*
G01*
X106650000Y-148478262D01*
G75*
G02*
X106378262Y-148750000I-271738J0D01*
G01*
X105671738Y-148750000D01*
G75*
G02*
X105400000Y-148478262I0J271738D01*
G01*
G37*
G36*
G01*
X103350000Y-148478262D02*
X103350000Y-147521738D01*
G75*
G02*
X103621738Y-147250000I271738J0D01*
G01*
X104328262Y-147250000D01*
G75*
G02*
X104600000Y-147521738I0J-271738D01*
G01*
X104600000Y-148478262D01*
G75*
G02*
X104328262Y-148750000I-271738J0D01*
G01*
X103621738Y-148750000D01*
G75*
G02*
X103350000Y-148478262I0J271738D01*
G01*
G37*
%TD*%
D20*
%TO.C,U1*%
X107500000Y-115000000D03*
X108770000Y-115000000D03*
X110040000Y-115000000D03*
X111310000Y-115000000D03*
X112580000Y-115000000D03*
X113850000Y-115000000D03*
X115120000Y-115000000D03*
X116390000Y-115000000D03*
X117660000Y-115000000D03*
X118930000Y-115000000D03*
X120200000Y-115000000D03*
X121470000Y-115000000D03*
X122740000Y-115000000D03*
X124010000Y-115000000D03*
D21*
X125010000Y-117785000D03*
X125010000Y-119055000D03*
X125010000Y-120325000D03*
X125010000Y-121595000D03*
X125010000Y-122865000D03*
X125010000Y-124135000D03*
X125010000Y-125405000D03*
X125010000Y-126675000D03*
X125010000Y-127945000D03*
X125010000Y-129215000D03*
D20*
X124010000Y-132000000D03*
X122740000Y-132000000D03*
X121470000Y-132000000D03*
X120200000Y-132000000D03*
X118930000Y-132000000D03*
X117660000Y-132000000D03*
X116390000Y-132000000D03*
X115120000Y-132000000D03*
X113850000Y-132000000D03*
X112580000Y-132000000D03*
X111310000Y-132000000D03*
X110040000Y-132000000D03*
X108770000Y-132000000D03*
X107500000Y-132000000D03*
D22*
X115000000Y-124500000D03*
%TD*%
D23*
%TO.C,BOOT1*%
X128500000Y-115500000D03*
X133000000Y-115500000D03*
X128500000Y-122000000D03*
X133000000Y-122000000D03*
%TD*%
%TO.C,RST1*%
X128500000Y-126000000D03*
X133000000Y-126000000D03*
X128500000Y-132500000D03*
X133000000Y-132500000D03*
%TD*%
D24*
%TO.C,D3*%
X115000000Y-103350000D03*
X115000000Y-106650000D03*
%TD*%
%TO.C,D1*%
X134000000Y-103350000D03*
X134000000Y-106650000D03*
%TD*%
D25*
%TO.C,U3*%
X122000000Y-103880000D03*
X124540000Y-111500000D03*
X124540000Y-103880000D03*
D26*
X122000000Y-111500000D03*
%TD*%
%TO.C,R3*%
G36*
G01*
X129800000Y-109262500D02*
X129800000Y-108737500D01*
G75*
G02*
X130062500Y-108475000I262500J0D01*
G01*
X130687500Y-108475000D01*
G75*
G02*
X130950000Y-108737500I0J-262500D01*
G01*
X130950000Y-109262500D01*
G75*
G02*
X130687500Y-109525000I-262500J0D01*
G01*
X130062500Y-109525000D01*
G75*
G02*
X129800000Y-109262500I0J262500D01*
G01*
G37*
G36*
G01*
X128050000Y-109262500D02*
X128050000Y-108737500D01*
G75*
G02*
X128312500Y-108475000I262500J0D01*
G01*
X128937500Y-108475000D01*
G75*
G02*
X129200000Y-108737500I0J-262500D01*
G01*
X129200000Y-109262500D01*
G75*
G02*
X128937500Y-109525000I-262500J0D01*
G01*
X128312500Y-109525000D01*
G75*
G02*
X128050000Y-109262500I0J262500D01*
G01*
G37*
%TD*%
D27*
%TO.C,Q2*%
X130500000Y-103500000D03*
X131450000Y-105500000D03*
X129550000Y-105500000D03*
%TD*%
D16*
%TO.C,K2*%
X128000000Y-99500000D03*
D28*
X122050000Y-97550000D03*
D16*
X122000000Y-85300000D03*
X134050000Y-85350000D03*
D28*
X134050000Y-97550000D03*
%TD*%
%TO.C,D4*%
G36*
G01*
X129100000Y-111018750D02*
X129100000Y-111981250D01*
G75*
G02*
X128831250Y-112250000I-268750J0D01*
G01*
X128293750Y-112250000D01*
G75*
G02*
X128025000Y-111981250I0J268750D01*
G01*
X128025000Y-111018750D01*
G75*
G02*
X128293750Y-110750000I268750J0D01*
G01*
X128831250Y-110750000D01*
G75*
G02*
X129100000Y-111018750I0J-268750D01*
G01*
G37*
G36*
G01*
X130975000Y-111018750D02*
X130975000Y-111981250D01*
G75*
G02*
X130706250Y-112250000I-268750J0D01*
G01*
X130168750Y-112250000D01*
G75*
G02*
X129900000Y-111981250I0J268750D01*
G01*
X129900000Y-111018750D01*
G75*
G02*
X130168750Y-110750000I268750J0D01*
G01*
X130706250Y-110750000D01*
G75*
G02*
X130975000Y-111018750I0J-268750D01*
G01*
G37*
%TD*%
%TO.C,C3*%
G36*
G01*
X112600000Y-137521738D02*
X112600000Y-138478262D01*
G75*
G02*
X112328262Y-138750000I-271738J0D01*
G01*
X111621738Y-138750000D01*
G75*
G02*
X111350000Y-138478262I0J271738D01*
G01*
X111350000Y-137521738D01*
G75*
G02*
X111621738Y-137250000I271738J0D01*
G01*
X112328262Y-137250000D01*
G75*
G02*
X112600000Y-137521738I0J-271738D01*
G01*
G37*
G36*
G01*
X114650000Y-137521738D02*
X114650000Y-138478262D01*
G75*
G02*
X114378262Y-138750000I-271738J0D01*
G01*
X113671738Y-138750000D01*
G75*
G02*
X113400000Y-138478262I0J271738D01*
G01*
X113400000Y-137521738D01*
G75*
G02*
X113671738Y-137250000I271738J0D01*
G01*
X114378262Y-137250000D01*
G75*
G02*
X114650000Y-137521738I0J-271738D01*
G01*
G37*
%TD*%
%TO.C,C2*%
G36*
G01*
X108625000Y-135021738D02*
X108625000Y-135978262D01*
G75*
G02*
X108353262Y-136250000I-271738J0D01*
G01*
X107646738Y-136250000D01*
G75*
G02*
X107375000Y-135978262I0J271738D01*
G01*
X107375000Y-135021738D01*
G75*
G02*
X107646738Y-134750000I271738J0D01*
G01*
X108353262Y-134750000D01*
G75*
G02*
X108625000Y-135021738I0J-271738D01*
G01*
G37*
G36*
G01*
X110675000Y-135021738D02*
X110675000Y-135978262D01*
G75*
G02*
X110403262Y-136250000I-271738J0D01*
G01*
X109696738Y-136250000D01*
G75*
G02*
X109425000Y-135978262I0J271738D01*
G01*
X109425000Y-135021738D01*
G75*
G02*
X109696738Y-134750000I271738J0D01*
G01*
X110403262Y-134750000D01*
G75*
G02*
X110675000Y-135021738I0J-271738D01*
G01*
G37*
%TD*%
%TO.C,C1*%
G36*
G01*
X108600000Y-137521738D02*
X108600000Y-138478262D01*
G75*
G02*
X108328262Y-138750000I-271738J0D01*
G01*
X107621738Y-138750000D01*
G75*
G02*
X107350000Y-138478262I0J271738D01*
G01*
X107350000Y-137521738D01*
G75*
G02*
X107621738Y-137250000I271738J0D01*
G01*
X108328262Y-137250000D01*
G75*
G02*
X108600000Y-137521738I0J-271738D01*
G01*
G37*
G36*
G01*
X110650000Y-137521738D02*
X110650000Y-138478262D01*
G75*
G02*
X110378262Y-138750000I-271738J0D01*
G01*
X109671738Y-138750000D01*
G75*
G02*
X109400000Y-138478262I0J271738D01*
G01*
X109400000Y-137521738D01*
G75*
G02*
X109671738Y-137250000I271738J0D01*
G01*
X110378262Y-137250000D01*
G75*
G02*
X110650000Y-137521738I0J-271738D01*
G01*
G37*
%TD*%
%TO.C,R2*%
G36*
G01*
X112575000Y-135237500D02*
X112575000Y-135762500D01*
G75*
G02*
X112312500Y-136025000I-262500J0D01*
G01*
X111687500Y-136025000D01*
G75*
G02*
X111425000Y-135762500I0J262500D01*
G01*
X111425000Y-135237500D01*
G75*
G02*
X111687500Y-134975000I262500J0D01*
G01*
X112312500Y-134975000D01*
G75*
G02*
X112575000Y-135237500I0J-262500D01*
G01*
G37*
G36*
G01*
X114325000Y-135237500D02*
X114325000Y-135762500D01*
G75*
G02*
X114062500Y-136025000I-262500J0D01*
G01*
X113437500Y-136025000D01*
G75*
G02*
X113175000Y-135762500I0J262500D01*
G01*
X113175000Y-135237500D01*
G75*
G02*
X113437500Y-134975000I262500J0D01*
G01*
X114062500Y-134975000D01*
G75*
G02*
X114325000Y-135237500I0J-262500D01*
G01*
G37*
%TD*%
D25*
%TO.C,U2*%
X103000000Y-103880000D03*
X105540000Y-111500000D03*
X105540000Y-103880000D03*
D26*
X103000000Y-111500000D03*
%TD*%
%TO.C,R1*%
G36*
G01*
X110800000Y-109262500D02*
X110800000Y-108737500D01*
G75*
G02*
X111062500Y-108475000I262500J0D01*
G01*
X111687500Y-108475000D01*
G75*
G02*
X111950000Y-108737500I0J-262500D01*
G01*
X111950000Y-109262500D01*
G75*
G02*
X111687500Y-109525000I-262500J0D01*
G01*
X111062500Y-109525000D01*
G75*
G02*
X110800000Y-109262500I0J262500D01*
G01*
G37*
G36*
G01*
X109050000Y-109262500D02*
X109050000Y-108737500D01*
G75*
G02*
X109312500Y-108475000I262500J0D01*
G01*
X109937500Y-108475000D01*
G75*
G02*
X110200000Y-108737500I0J-262500D01*
G01*
X110200000Y-109262500D01*
G75*
G02*
X109937500Y-109525000I-262500J0D01*
G01*
X109312500Y-109525000D01*
G75*
G02*
X109050000Y-109262500I0J262500D01*
G01*
G37*
%TD*%
D27*
%TO.C,Q1*%
X111500000Y-103500000D03*
X112450000Y-105500000D03*
X110550000Y-105500000D03*
%TD*%
D16*
%TO.C,K1*%
X109000000Y-99500000D03*
D28*
X103050000Y-97550000D03*
D16*
X103000000Y-85300000D03*
X115050000Y-85350000D03*
D28*
X115050000Y-97550000D03*
%TD*%
%TO.C,D2*%
G36*
G01*
X110037500Y-111018750D02*
X110037500Y-111981250D01*
G75*
G02*
X109768750Y-112250000I-268750J0D01*
G01*
X109231250Y-112250000D01*
G75*
G02*
X108962500Y-111981250I0J268750D01*
G01*
X108962500Y-111018750D01*
G75*
G02*
X109231250Y-110750000I268750J0D01*
G01*
X109768750Y-110750000D01*
G75*
G02*
X110037500Y-111018750I0J-268750D01*
G01*
G37*
G36*
G01*
X111912500Y-111018750D02*
X111912500Y-111981250D01*
G75*
G02*
X111643750Y-112250000I-268750J0D01*
G01*
X111106250Y-112250000D01*
G75*
G02*
X110837500Y-111981250I0J268750D01*
G01*
X110837500Y-111018750D01*
G75*
G02*
X111106250Y-110750000I268750J0D01*
G01*
X111643750Y-110750000D01*
G75*
G02*
X111912500Y-111018750I0J-268750D01*
G01*
G37*
%TD*%
M02*
