%TF.GenerationSoftware,KiCad,Pcbnew,(5.1.6)-1*%
%TF.CreationDate,2020-08-06T11:41:01+05:30*%
%TF.ProjectId,ESP32-BLE-Relay-Control-Board,45535033-322d-4424-9c45-2d52656c6179,rev?*%
%TF.SameCoordinates,Original*%
%TF.FileFunction,Legend,Bot*%
%TF.FilePolarity,Positive*%
%FSLAX46Y46*%
G04 Gerber Fmt 4.6, Leading zero omitted, Abs format (unit mm)*
G04 Created by KiCad (PCBNEW (5.1.6)-1) date 2020-08-06 11:41:01*
%MOMM*%
%LPD*%
G01*
G04 APERTURE LIST*
%ADD10C,0.300000*%
%ADD11C,0.250000*%
%ADD12C,0.010000*%
G04 APERTURE END LIST*
D10*
X124482142Y-79100000D02*
X124339285Y-79171428D01*
X124125000Y-79171428D01*
X123910714Y-79100000D01*
X123767857Y-78957142D01*
X123696428Y-78814285D01*
X123625000Y-78528571D01*
X123625000Y-78314285D01*
X123696428Y-78028571D01*
X123767857Y-77885714D01*
X123910714Y-77742857D01*
X124125000Y-77671428D01*
X124267857Y-77671428D01*
X124482142Y-77742857D01*
X124553571Y-77814285D01*
X124553571Y-78314285D01*
X124267857Y-78314285D01*
X125196428Y-77671428D02*
X125196428Y-79171428D01*
X126053571Y-77671428D01*
X126053571Y-79171428D01*
X126767857Y-77671428D02*
X126767857Y-79171428D01*
X127125000Y-79171428D01*
X127339285Y-79100000D01*
X127482142Y-78957142D01*
X127553571Y-78814285D01*
X127625000Y-78528571D01*
X127625000Y-78314285D01*
X127553571Y-78028571D01*
X127482142Y-77885714D01*
X127339285Y-77742857D01*
X127125000Y-77671428D01*
X126767857Y-77671428D01*
X105382142Y-79100000D02*
X105239285Y-79171428D01*
X105025000Y-79171428D01*
X104810714Y-79100000D01*
X104667857Y-78957142D01*
X104596428Y-78814285D01*
X104525000Y-78528571D01*
X104525000Y-78314285D01*
X104596428Y-78028571D01*
X104667857Y-77885714D01*
X104810714Y-77742857D01*
X105025000Y-77671428D01*
X105167857Y-77671428D01*
X105382142Y-77742857D01*
X105453571Y-77814285D01*
X105453571Y-78314285D01*
X105167857Y-78314285D01*
X106096428Y-77671428D02*
X106096428Y-79171428D01*
X106953571Y-77671428D01*
X106953571Y-79171428D01*
X107667857Y-77671428D02*
X107667857Y-79171428D01*
X108025000Y-79171428D01*
X108239285Y-79100000D01*
X108382142Y-78957142D01*
X108453571Y-78814285D01*
X108525000Y-78528571D01*
X108525000Y-78314285D01*
X108453571Y-78028571D01*
X108382142Y-77885714D01*
X108239285Y-77742857D01*
X108025000Y-77671428D01*
X107667857Y-77671428D01*
X129596428Y-77621428D02*
X128739285Y-77621428D01*
X129167857Y-77621428D02*
X129167857Y-79121428D01*
X129025000Y-78907142D01*
X128882142Y-78764285D01*
X128739285Y-78692857D01*
X130167857Y-78978571D02*
X130239285Y-79050000D01*
X130382142Y-79121428D01*
X130739285Y-79121428D01*
X130882142Y-79050000D01*
X130953571Y-78978571D01*
X131025000Y-78835714D01*
X131025000Y-78692857D01*
X130953571Y-78478571D01*
X130096428Y-77621428D01*
X131025000Y-77621428D01*
X131453571Y-79121428D02*
X131953571Y-77621428D01*
X132453571Y-79121428D01*
X110996428Y-77671428D02*
X110139285Y-77671428D01*
X110567857Y-77671428D02*
X110567857Y-79171428D01*
X110425000Y-78957142D01*
X110282142Y-78814285D01*
X110139285Y-78742857D01*
X111567857Y-79028571D02*
X111639285Y-79100000D01*
X111782142Y-79171428D01*
X112139285Y-79171428D01*
X112282142Y-79100000D01*
X112353571Y-79028571D01*
X112425000Y-78885714D01*
X112425000Y-78742857D01*
X112353571Y-78528571D01*
X111496428Y-77671428D01*
X112425000Y-77671428D01*
X112853571Y-79171428D02*
X113353571Y-77671428D01*
X113853571Y-79171428D01*
X128028571Y-153103571D02*
X128885714Y-153103571D01*
X128457142Y-153103571D02*
X128457142Y-151603571D01*
X128600000Y-151817857D01*
X128742857Y-151960714D01*
X128885714Y-152032142D01*
X127457142Y-151746428D02*
X127385714Y-151675000D01*
X127242857Y-151603571D01*
X126885714Y-151603571D01*
X126742857Y-151675000D01*
X126671428Y-151746428D01*
X126600000Y-151889285D01*
X126600000Y-152032142D01*
X126671428Y-152246428D01*
X127528571Y-153103571D01*
X126600000Y-153103571D01*
X126171428Y-151603571D02*
X125671428Y-153103571D01*
X125171428Y-151603571D01*
X105335714Y-151653571D02*
X106050000Y-151653571D01*
X106121428Y-152367857D01*
X106050000Y-152296428D01*
X105907142Y-152225000D01*
X105550000Y-152225000D01*
X105407142Y-152296428D01*
X105335714Y-152367857D01*
X105264285Y-152510714D01*
X105264285Y-152867857D01*
X105335714Y-153010714D01*
X105407142Y-153082142D01*
X105550000Y-153153571D01*
X105907142Y-153153571D01*
X106050000Y-153082142D01*
X106121428Y-153010714D01*
X104835714Y-151653571D02*
X104335714Y-153153571D01*
X103835714Y-151653571D01*
D11*
X108142857Y-114448214D02*
X106942857Y-114448214D01*
X107400000Y-114448214D02*
X107342857Y-114562500D01*
X107342857Y-114791071D01*
X107400000Y-114905357D01*
X107457142Y-114962500D01*
X107571428Y-115019642D01*
X107914285Y-115019642D01*
X108028571Y-114962500D01*
X108085714Y-114905357D01*
X108142857Y-114791071D01*
X108142857Y-114562500D01*
X108085714Y-114448214D01*
X108142857Y-115705357D02*
X108085714Y-115591071D01*
X107971428Y-115533928D01*
X106942857Y-115533928D01*
X107342857Y-116676785D02*
X108142857Y-116676785D01*
X107342857Y-116162500D02*
X107971428Y-116162500D01*
X108085714Y-116219642D01*
X108142857Y-116333928D01*
X108142857Y-116505357D01*
X108085714Y-116619642D01*
X108028571Y-116676785D01*
X108085714Y-117705357D02*
X108142857Y-117591071D01*
X108142857Y-117362500D01*
X108085714Y-117248214D01*
X107971428Y-117191071D01*
X107514285Y-117191071D01*
X107400000Y-117248214D01*
X107342857Y-117362500D01*
X107342857Y-117591071D01*
X107400000Y-117705357D01*
X107514285Y-117762500D01*
X107628571Y-117762500D01*
X107742857Y-117191071D01*
X108085714Y-118219642D02*
X108142857Y-118391071D01*
X108142857Y-118676785D01*
X108085714Y-118791071D01*
X108028571Y-118848214D01*
X107914285Y-118905357D01*
X107800000Y-118905357D01*
X107685714Y-118848214D01*
X107628571Y-118791071D01*
X107571428Y-118676785D01*
X107514285Y-118448214D01*
X107457142Y-118333928D01*
X107400000Y-118276785D01*
X107285714Y-118219642D01*
X107171428Y-118219642D01*
X107057142Y-118276785D01*
X107000000Y-118333928D01*
X106942857Y-118448214D01*
X106942857Y-118733928D01*
X107000000Y-118905357D01*
X107342857Y-119305357D02*
X108142857Y-119533928D01*
X107571428Y-119762500D01*
X108142857Y-119991071D01*
X107342857Y-120219642D01*
X108142857Y-120676785D02*
X107342857Y-120676785D01*
X106942857Y-120676785D02*
X107000000Y-120619642D01*
X107057142Y-120676785D01*
X107000000Y-120733928D01*
X106942857Y-120676785D01*
X107057142Y-120676785D01*
X107342857Y-121076785D02*
X107342857Y-121533928D01*
X106942857Y-121248214D02*
X107971428Y-121248214D01*
X108085714Y-121305357D01*
X108142857Y-121419642D01*
X108142857Y-121533928D01*
X108085714Y-122448214D02*
X108142857Y-122333928D01*
X108142857Y-122105357D01*
X108085714Y-121991071D01*
X108028571Y-121933928D01*
X107914285Y-121876785D01*
X107571428Y-121876785D01*
X107457142Y-121933928D01*
X107400000Y-121991071D01*
X107342857Y-122105357D01*
X107342857Y-122333928D01*
X107400000Y-122448214D01*
X108142857Y-122962500D02*
X106942857Y-122962500D01*
X108142857Y-123476785D02*
X107514285Y-123476785D01*
X107400000Y-123419642D01*
X107342857Y-123305357D01*
X107342857Y-123133928D01*
X107400000Y-123019642D01*
X107457142Y-122962500D01*
X108257142Y-123762500D02*
X108257142Y-124676785D01*
X107342857Y-124848214D02*
X108142857Y-125133928D01*
X107342857Y-125419642D01*
X108142857Y-126505357D02*
X108142857Y-125819642D01*
X108142857Y-126162500D02*
X106942857Y-126162500D01*
X107114285Y-126048214D01*
X107228571Y-125933928D01*
X107285714Y-125819642D01*
X108600000Y-128276785D02*
X108542857Y-128219642D01*
X108371428Y-128105357D01*
X108257142Y-128048214D01*
X108085714Y-127991071D01*
X107800000Y-127933928D01*
X107571428Y-127933928D01*
X107285714Y-127991071D01*
X107114285Y-128048214D01*
X107000000Y-128105357D01*
X106828571Y-128219642D01*
X106771428Y-128276785D01*
X108142857Y-129362500D02*
X108142857Y-128676785D01*
X108142857Y-129019642D02*
X106942857Y-129019642D01*
X107114285Y-128905357D01*
X107228571Y-128791071D01*
X107285714Y-128676785D01*
X107057142Y-129819642D02*
X107000000Y-129876785D01*
X106942857Y-129991071D01*
X106942857Y-130276785D01*
X107000000Y-130391071D01*
X107057142Y-130448214D01*
X107171428Y-130505357D01*
X107285714Y-130505357D01*
X107457142Y-130448214D01*
X108142857Y-129762500D01*
X108142857Y-130505357D01*
X106942857Y-130848214D02*
X108142857Y-131248214D01*
X106942857Y-131648214D01*
X108600000Y-131933928D02*
X108542857Y-131991071D01*
X108371428Y-132105357D01*
X108257142Y-132162500D01*
X108085714Y-132219642D01*
X107800000Y-132276785D01*
X107571428Y-132276785D01*
X107285714Y-132219642D01*
X107114285Y-132162500D01*
X107000000Y-132105357D01*
X106828571Y-131991071D01*
X106771428Y-131933928D01*
X108992857Y-114962500D02*
X108992857Y-114733928D01*
X109050000Y-114619642D01*
X109107142Y-114562500D01*
X109278571Y-114448214D01*
X109507142Y-114391071D01*
X109964285Y-114391071D01*
X110078571Y-114448214D01*
X110135714Y-114505357D01*
X110192857Y-114619642D01*
X110192857Y-114848214D01*
X110135714Y-114962500D01*
X110078571Y-115019642D01*
X109964285Y-115076785D01*
X109678571Y-115076785D01*
X109564285Y-115019642D01*
X109507142Y-114962500D01*
X109450000Y-114848214D01*
X109450000Y-114619642D01*
X109507142Y-114505357D01*
X109564285Y-114448214D01*
X109678571Y-114391071D01*
X109850000Y-116448214D02*
X109850000Y-117019642D01*
X110192857Y-116333928D02*
X108992857Y-116733928D01*
X110192857Y-117133928D01*
X109392857Y-118048214D02*
X110192857Y-118048214D01*
X109392857Y-117533928D02*
X110021428Y-117533928D01*
X110135714Y-117591071D01*
X110192857Y-117705357D01*
X110192857Y-117876785D01*
X110135714Y-117991071D01*
X110078571Y-118048214D01*
X109392857Y-119133928D02*
X110364285Y-119133928D01*
X110478571Y-119076785D01*
X110535714Y-119019642D01*
X110592857Y-118905357D01*
X110592857Y-118733928D01*
X110535714Y-118619642D01*
X110135714Y-119133928D02*
X110192857Y-119019642D01*
X110192857Y-118791071D01*
X110135714Y-118676785D01*
X110078571Y-118619642D01*
X109964285Y-118562500D01*
X109621428Y-118562500D01*
X109507142Y-118619642D01*
X109450000Y-118676785D01*
X109392857Y-118791071D01*
X109392857Y-119019642D01*
X109450000Y-119133928D01*
X109107142Y-120562500D02*
X109050000Y-120619642D01*
X108992857Y-120733928D01*
X108992857Y-121019642D01*
X109050000Y-121133928D01*
X109107142Y-121191071D01*
X109221428Y-121248214D01*
X109335714Y-121248214D01*
X109507142Y-121191071D01*
X110192857Y-120505357D01*
X110192857Y-121248214D01*
X108992857Y-121991071D02*
X108992857Y-122105357D01*
X109050000Y-122219642D01*
X109107142Y-122276785D01*
X109221428Y-122333928D01*
X109450000Y-122391071D01*
X109735714Y-122391071D01*
X109964285Y-122333928D01*
X110078571Y-122276785D01*
X110135714Y-122219642D01*
X110192857Y-122105357D01*
X110192857Y-121991071D01*
X110135714Y-121876785D01*
X110078571Y-121819642D01*
X109964285Y-121762500D01*
X109735714Y-121705357D01*
X109450000Y-121705357D01*
X109221428Y-121762500D01*
X109107142Y-121819642D01*
X109050000Y-121876785D01*
X108992857Y-121991071D01*
X109107142Y-122848214D02*
X109050000Y-122905357D01*
X108992857Y-123019642D01*
X108992857Y-123305357D01*
X109050000Y-123419642D01*
X109107142Y-123476785D01*
X109221428Y-123533928D01*
X109335714Y-123533928D01*
X109507142Y-123476785D01*
X110192857Y-122791071D01*
X110192857Y-123533928D01*
X108992857Y-124276785D02*
X108992857Y-124391071D01*
X109050000Y-124505357D01*
X109107142Y-124562500D01*
X109221428Y-124619642D01*
X109450000Y-124676785D01*
X109735714Y-124676785D01*
X109964285Y-124619642D01*
X110078571Y-124562500D01*
X110135714Y-124505357D01*
X110192857Y-124391071D01*
X110192857Y-124276785D01*
X110135714Y-124162500D01*
X110078571Y-124105357D01*
X109964285Y-124048214D01*
X109735714Y-123991071D01*
X109450000Y-123991071D01*
X109221428Y-124048214D01*
X109107142Y-124105357D01*
X109050000Y-124162500D01*
X108992857Y-124276785D01*
X114292857Y-114448214D02*
X113092857Y-114448214D01*
X114292857Y-115133928D02*
X113607142Y-114619642D01*
X113092857Y-115133928D02*
X113778571Y-114448214D01*
X114292857Y-116276785D02*
X114292857Y-115591071D01*
X114292857Y-115933928D02*
X113092857Y-115933928D01*
X113264285Y-115819642D01*
X113378571Y-115705357D01*
X113435714Y-115591071D01*
X113492857Y-117705357D02*
X113835714Y-118619642D01*
X114178571Y-117705357D01*
X113492857Y-119191071D02*
X113835714Y-120105357D01*
X114178571Y-119191071D01*
X114292857Y-121591071D02*
X113092857Y-121591071D01*
X113092857Y-122391071D02*
X113092857Y-122619642D01*
X113150000Y-122733928D01*
X113264285Y-122848214D01*
X113492857Y-122905357D01*
X113892857Y-122905357D01*
X114121428Y-122848214D01*
X114235714Y-122733928D01*
X114292857Y-122619642D01*
X114292857Y-122391071D01*
X114235714Y-122276785D01*
X114121428Y-122162500D01*
X113892857Y-122105357D01*
X113492857Y-122105357D01*
X113264285Y-122162500D01*
X113150000Y-122276785D01*
X113092857Y-122391071D01*
X113207142Y-123362500D02*
X113150000Y-123419642D01*
X113092857Y-123533928D01*
X113092857Y-123819642D01*
X113150000Y-123933928D01*
X113207142Y-123991071D01*
X113321428Y-124048214D01*
X113435714Y-124048214D01*
X113607142Y-123991071D01*
X114292857Y-123305357D01*
X114292857Y-124048214D01*
X113092857Y-125133928D02*
X113092857Y-124562500D01*
X113664285Y-124505357D01*
X113607142Y-124562500D01*
X113550000Y-124676785D01*
X113550000Y-124962500D01*
X113607142Y-125076785D01*
X113664285Y-125133928D01*
X113778571Y-125191071D01*
X114064285Y-125191071D01*
X114178571Y-125133928D01*
X114235714Y-125076785D01*
X114292857Y-124962500D01*
X114292857Y-124676785D01*
X114235714Y-124562500D01*
X114178571Y-124505357D01*
X116342857Y-114448214D02*
X115142857Y-114448214D01*
X116342857Y-115133928D02*
X115657142Y-114619642D01*
X115142857Y-115133928D02*
X115828571Y-114448214D01*
X115257142Y-115591071D02*
X115200000Y-115648214D01*
X115142857Y-115762500D01*
X115142857Y-116048214D01*
X115200000Y-116162500D01*
X115257142Y-116219642D01*
X115371428Y-116276785D01*
X115485714Y-116276785D01*
X115657142Y-116219642D01*
X116342857Y-115533928D01*
X116342857Y-116276785D01*
X115542857Y-117705357D02*
X115885714Y-118619642D01*
X116228571Y-117705357D01*
X115542857Y-119191071D02*
X115885714Y-120105357D01*
X116228571Y-119191071D01*
X116342857Y-121591071D02*
X115142857Y-121591071D01*
X115142857Y-122391071D02*
X115142857Y-122619642D01*
X115200000Y-122733928D01*
X115314285Y-122848214D01*
X115542857Y-122905357D01*
X115942857Y-122905357D01*
X116171428Y-122848214D01*
X116285714Y-122733928D01*
X116342857Y-122619642D01*
X116342857Y-122391071D01*
X116285714Y-122276785D01*
X116171428Y-122162500D01*
X115942857Y-122105357D01*
X115542857Y-122105357D01*
X115314285Y-122162500D01*
X115200000Y-122276785D01*
X115142857Y-122391071D01*
X115257142Y-123362500D02*
X115200000Y-123419642D01*
X115142857Y-123533928D01*
X115142857Y-123819642D01*
X115200000Y-123933928D01*
X115257142Y-123991071D01*
X115371428Y-124048214D01*
X115485714Y-124048214D01*
X115657142Y-123991071D01*
X116342857Y-123305357D01*
X116342857Y-124048214D01*
X115142857Y-125076785D02*
X115142857Y-124848214D01*
X115200000Y-124733928D01*
X115257142Y-124676785D01*
X115428571Y-124562500D01*
X115657142Y-124505357D01*
X116114285Y-124505357D01*
X116228571Y-124562500D01*
X116285714Y-124619642D01*
X116342857Y-124733928D01*
X116342857Y-124962500D01*
X116285714Y-125076785D01*
X116228571Y-125133928D01*
X116114285Y-125191071D01*
X115828571Y-125191071D01*
X115714285Y-125133928D01*
X115657142Y-125076785D01*
X115600000Y-124962500D01*
X115600000Y-124733928D01*
X115657142Y-124619642D01*
X115714285Y-124562500D01*
X115828571Y-124505357D01*
X120842857Y-114791071D02*
X120842857Y-114505357D01*
X119128571Y-114505357D01*
X119128571Y-114791071D01*
X120442857Y-115876785D02*
X120442857Y-115191071D01*
X120442857Y-115533928D02*
X119242857Y-115533928D01*
X119414285Y-115419642D01*
X119528571Y-115305357D01*
X119585714Y-115191071D01*
X119357142Y-116333928D02*
X119300000Y-116391071D01*
X119242857Y-116505357D01*
X119242857Y-116791071D01*
X119300000Y-116905357D01*
X119357142Y-116962499D01*
X119471428Y-117019642D01*
X119585714Y-117019642D01*
X119757142Y-116962499D01*
X120442857Y-116276785D01*
X120442857Y-117019642D01*
X119242857Y-117362499D02*
X120442857Y-117762499D01*
X119242857Y-118162499D01*
X120385714Y-119419642D02*
X120442857Y-119591071D01*
X120442857Y-119876785D01*
X120385714Y-119991071D01*
X120328571Y-120048214D01*
X120214285Y-120105357D01*
X120100000Y-120105357D01*
X119985714Y-120048214D01*
X119928571Y-119991071D01*
X119871428Y-119876785D01*
X119814285Y-119648214D01*
X119757142Y-119533928D01*
X119700000Y-119476785D01*
X119585714Y-119419642D01*
X119471428Y-119419642D01*
X119357142Y-119476785D01*
X119300000Y-119533928D01*
X119242857Y-119648214D01*
X119242857Y-119933928D01*
X119300000Y-120105357D01*
X119642857Y-120505357D02*
X120442857Y-120733928D01*
X119871428Y-120962500D01*
X120442857Y-121191071D01*
X119642857Y-121419642D01*
X119642857Y-121705357D02*
X119642857Y-122162499D01*
X119242857Y-121876785D02*
X120271428Y-121876785D01*
X120385714Y-121933928D01*
X120442857Y-122048214D01*
X120442857Y-122162499D01*
X120442857Y-122562499D02*
X119642857Y-122562499D01*
X119242857Y-122562499D02*
X119300000Y-122505357D01*
X119357142Y-122562499D01*
X119300000Y-122619642D01*
X119242857Y-122562499D01*
X119357142Y-122562499D01*
X120385714Y-123648214D02*
X120442857Y-123533928D01*
X120442857Y-123305357D01*
X120385714Y-123191071D01*
X120328571Y-123133928D01*
X120214285Y-123076785D01*
X119871428Y-123076785D01*
X119757142Y-123133928D01*
X119700000Y-123191071D01*
X119642857Y-123305357D01*
X119642857Y-123533928D01*
X119700000Y-123648214D01*
X120442857Y-124162499D02*
X119242857Y-124162499D01*
X120442857Y-124676785D02*
X119814285Y-124676785D01*
X119700000Y-124619642D01*
X119642857Y-124505357D01*
X119642857Y-124333928D01*
X119700000Y-124219642D01*
X119757142Y-124162499D01*
X120442857Y-125248214D02*
X119642857Y-125248214D01*
X119242857Y-125248214D02*
X119300000Y-125191071D01*
X119357142Y-125248214D01*
X119300000Y-125305357D01*
X119242857Y-125248214D01*
X119357142Y-125248214D01*
X119642857Y-125819642D02*
X120442857Y-125819642D01*
X119757142Y-125819642D02*
X119700000Y-125876785D01*
X119642857Y-125991071D01*
X119642857Y-126162499D01*
X119700000Y-126276785D01*
X119814285Y-126333928D01*
X120442857Y-126333928D01*
X119642857Y-127419642D02*
X120614285Y-127419642D01*
X120728571Y-127362499D01*
X120785714Y-127305357D01*
X120842857Y-127191071D01*
X120842857Y-127019642D01*
X120785714Y-126905357D01*
X120385714Y-127419642D02*
X120442857Y-127305357D01*
X120442857Y-127076785D01*
X120385714Y-126962499D01*
X120328571Y-126905357D01*
X120214285Y-126848214D01*
X119871428Y-126848214D01*
X119757142Y-126905357D01*
X119700000Y-126962499D01*
X119642857Y-127076785D01*
X119642857Y-127305357D01*
X119700000Y-127419642D01*
X119242857Y-129133928D02*
X119242857Y-129362499D01*
X119300000Y-129476785D01*
X119414285Y-129591071D01*
X119642857Y-129648214D01*
X120042857Y-129648214D01*
X120271428Y-129591071D01*
X120385714Y-129476785D01*
X120442857Y-129362499D01*
X120442857Y-129133928D01*
X120385714Y-129019642D01*
X120271428Y-128905357D01*
X120042857Y-128848214D01*
X119642857Y-128848214D01*
X119414285Y-128905357D01*
X119300000Y-129019642D01*
X119242857Y-129133928D01*
X119642857Y-130162499D02*
X120442857Y-130162499D01*
X119757142Y-130162499D02*
X119700000Y-130219642D01*
X119642857Y-130333928D01*
X119642857Y-130505357D01*
X119700000Y-130619642D01*
X119814285Y-130676785D01*
X120442857Y-130676785D01*
X120442857Y-131419642D02*
X120385714Y-131305357D01*
X120271428Y-131248214D01*
X119242857Y-131248214D01*
X119642857Y-131762499D02*
X120442857Y-132048214D01*
X119642857Y-132333928D02*
X120442857Y-132048214D01*
X120728571Y-131933928D01*
X120785714Y-131876785D01*
X120842857Y-131762499D01*
X120842857Y-132676785D02*
X120842857Y-132962499D01*
X119128571Y-132962499D01*
X119128571Y-132676785D01*
X110729761Y-134311904D02*
X110777380Y-134407142D01*
X110777380Y-134597619D01*
X110729761Y-134692857D01*
X110634523Y-134740476D01*
X110586904Y-134740476D01*
X110491666Y-134692857D01*
X110444047Y-134597619D01*
X110444047Y-134454761D01*
X110396428Y-134359523D01*
X110301190Y-134311904D01*
X110253571Y-134311904D01*
X110158333Y-134359523D01*
X110110714Y-134454761D01*
X110110714Y-134597619D01*
X110158333Y-134692857D01*
X110777380Y-135169047D02*
X109777380Y-135169047D01*
X110777380Y-135597619D02*
X110253571Y-135597619D01*
X110158333Y-135550000D01*
X110110714Y-135454761D01*
X110110714Y-135311904D01*
X110158333Y-135216666D01*
X110205952Y-135169047D01*
X110777380Y-136073809D02*
X110110714Y-136073809D01*
X110301190Y-136073809D02*
X110205952Y-136121428D01*
X110158333Y-136169047D01*
X110110714Y-136264285D01*
X110110714Y-136359523D01*
X110777380Y-136692857D02*
X110110714Y-136692857D01*
X109777380Y-136692857D02*
X109825000Y-136645238D01*
X109872619Y-136692857D01*
X109825000Y-136740476D01*
X109777380Y-136692857D01*
X109872619Y-136692857D01*
X110777380Y-137597619D02*
X109777380Y-137597619D01*
X110729761Y-137597619D02*
X110777380Y-137502380D01*
X110777380Y-137311904D01*
X110729761Y-137216666D01*
X110682142Y-137169047D01*
X110586904Y-137121428D01*
X110301190Y-137121428D01*
X110205952Y-137169047D01*
X110158333Y-137216666D01*
X110110714Y-137311904D01*
X110110714Y-137502380D01*
X110158333Y-137597619D01*
X110777380Y-138502380D02*
X110253571Y-138502380D01*
X110158333Y-138454761D01*
X110110714Y-138359523D01*
X110110714Y-138169047D01*
X110158333Y-138073809D01*
X110729761Y-138502380D02*
X110777380Y-138407142D01*
X110777380Y-138169047D01*
X110729761Y-138073809D01*
X110634523Y-138026190D01*
X110539285Y-138026190D01*
X110444047Y-138073809D01*
X110396428Y-138169047D01*
X110396428Y-138407142D01*
X110348809Y-138502380D01*
X110110714Y-138835714D02*
X110110714Y-139216666D01*
X109777380Y-138978571D02*
X110634523Y-138978571D01*
X110729761Y-139026190D01*
X110777380Y-139121428D01*
X110777380Y-139216666D01*
X110110714Y-139407142D02*
X110110714Y-139788095D01*
X109777380Y-139550000D02*
X110634523Y-139550000D01*
X110729761Y-139597619D01*
X110777380Y-139692857D01*
X110777380Y-139788095D01*
X110777380Y-140550000D02*
X109777380Y-140550000D01*
X110729761Y-140550000D02*
X110777380Y-140454761D01*
X110777380Y-140264285D01*
X110729761Y-140169047D01*
X110682142Y-140121428D01*
X110586904Y-140073809D01*
X110301190Y-140073809D01*
X110205952Y-140121428D01*
X110158333Y-140169047D01*
X110110714Y-140264285D01*
X110110714Y-140454761D01*
X110158333Y-140550000D01*
X110110714Y-141454761D02*
X110777380Y-141454761D01*
X110110714Y-141026190D02*
X110634523Y-141026190D01*
X110729761Y-141073809D01*
X110777380Y-141169047D01*
X110777380Y-141311904D01*
X110729761Y-141407142D01*
X110682142Y-141454761D01*
X110777380Y-142359523D02*
X109777380Y-142359523D01*
X110729761Y-142359523D02*
X110777380Y-142264285D01*
X110777380Y-142073809D01*
X110729761Y-141978571D01*
X110682142Y-141930952D01*
X110586904Y-141883333D01*
X110301190Y-141883333D01*
X110205952Y-141930952D01*
X110158333Y-141978571D01*
X110110714Y-142073809D01*
X110110714Y-142264285D01*
X110158333Y-142359523D01*
X110777380Y-142835714D02*
X109777380Y-142835714D01*
X110777380Y-143264285D02*
X110253571Y-143264285D01*
X110158333Y-143216666D01*
X110110714Y-143121428D01*
X110110714Y-142978571D01*
X110158333Y-142883333D01*
X110205952Y-142835714D01*
X110777380Y-144169047D02*
X110253571Y-144169047D01*
X110158333Y-144121428D01*
X110110714Y-144026190D01*
X110110714Y-143835714D01*
X110158333Y-143740476D01*
X110729761Y-144169047D02*
X110777380Y-144073809D01*
X110777380Y-143835714D01*
X110729761Y-143740476D01*
X110634523Y-143692857D01*
X110539285Y-143692857D01*
X110444047Y-143740476D01*
X110396428Y-143835714D01*
X110396428Y-144073809D01*
X110348809Y-144169047D01*
X110110714Y-144502380D02*
X110110714Y-144883333D01*
X109777380Y-144645238D02*
X110634523Y-144645238D01*
X110729761Y-144692857D01*
X110777380Y-144788095D01*
X110777380Y-144883333D01*
X110682142Y-145216666D02*
X110729761Y-145264285D01*
X110777380Y-145216666D01*
X110729761Y-145169047D01*
X110682142Y-145216666D01*
X110777380Y-145216666D01*
X110110714Y-146121428D02*
X110920238Y-146121428D01*
X111015476Y-146073809D01*
X111063095Y-146026190D01*
X111110714Y-145930952D01*
X111110714Y-145788095D01*
X111063095Y-145692857D01*
X110729761Y-146121428D02*
X110777380Y-146026190D01*
X110777380Y-145835714D01*
X110729761Y-145740476D01*
X110682142Y-145692857D01*
X110586904Y-145645238D01*
X110301190Y-145645238D01*
X110205952Y-145692857D01*
X110158333Y-145740476D01*
X110110714Y-145835714D01*
X110110714Y-146026190D01*
X110158333Y-146121428D01*
X110777380Y-146597619D02*
X110110714Y-146597619D01*
X109777380Y-146597619D02*
X109825000Y-146550000D01*
X109872619Y-146597619D01*
X109825000Y-146645238D01*
X109777380Y-146597619D01*
X109872619Y-146597619D01*
X110110714Y-146930952D02*
X110110714Y-147311904D01*
X109777380Y-147073809D02*
X110634523Y-147073809D01*
X110729761Y-147121428D01*
X110777380Y-147216666D01*
X110777380Y-147311904D01*
X110777380Y-147645238D02*
X109777380Y-147645238D01*
X110777380Y-148073809D02*
X110253571Y-148073809D01*
X110158333Y-148026190D01*
X110110714Y-147930952D01*
X110110714Y-147788095D01*
X110158333Y-147692857D01*
X110205952Y-147645238D01*
X110110714Y-148978571D02*
X110777380Y-148978571D01*
X110110714Y-148550000D02*
X110634523Y-148550000D01*
X110729761Y-148597619D01*
X110777380Y-148692857D01*
X110777380Y-148835714D01*
X110729761Y-148930952D01*
X110682142Y-148978571D01*
X110777380Y-149454761D02*
X109777380Y-149454761D01*
X110158333Y-149454761D02*
X110110714Y-149550000D01*
X110110714Y-149740476D01*
X110158333Y-149835714D01*
X110205952Y-149883333D01*
X110301190Y-149930952D01*
X110586904Y-149930952D01*
X110682142Y-149883333D01*
X110729761Y-149835714D01*
X110777380Y-149740476D01*
X110777380Y-149550000D01*
X110729761Y-149454761D01*
X110682142Y-150359523D02*
X110729761Y-150407142D01*
X110777380Y-150359523D01*
X110729761Y-150311904D01*
X110682142Y-150359523D01*
X110777380Y-150359523D01*
X110777380Y-150835714D02*
X110110714Y-150835714D01*
X109777380Y-150835714D02*
X109825000Y-150788095D01*
X109872619Y-150835714D01*
X109825000Y-150883333D01*
X109777380Y-150835714D01*
X109872619Y-150835714D01*
X110777380Y-151454761D02*
X110729761Y-151359523D01*
X110682142Y-151311904D01*
X110586904Y-151264285D01*
X110301190Y-151264285D01*
X110205952Y-151311904D01*
X110158333Y-151359523D01*
X110110714Y-151454761D01*
X110110714Y-151597619D01*
X110158333Y-151692857D01*
X110205952Y-151740476D01*
X110301190Y-151788095D01*
X110586904Y-151788095D01*
X110682142Y-151740476D01*
X110729761Y-151692857D01*
X110777380Y-151597619D01*
X110777380Y-151454761D01*
D12*
%TO.C,REF\u002A\u002A*%
G36*
X125800427Y-145821536D02*
G01*
X126397618Y-145934118D01*
X126568865Y-146349531D01*
X126740112Y-146764945D01*
X126401233Y-147263302D01*
X126306877Y-147402869D01*
X126222630Y-147529029D01*
X126152338Y-147635896D01*
X126099847Y-147717583D01*
X126069004Y-147768202D01*
X126062353Y-147781987D01*
X126079458Y-147806821D01*
X126126744Y-147859889D01*
X126198172Y-147935241D01*
X126287700Y-148026930D01*
X126389289Y-148129008D01*
X126496898Y-148235527D01*
X126604487Y-148340537D01*
X126706015Y-148438092D01*
X126795441Y-148522243D01*
X126866726Y-148587041D01*
X126913828Y-148626538D01*
X126929592Y-148635981D01*
X126958653Y-148622392D01*
X127022321Y-148584294D01*
X127114367Y-148525694D01*
X127228564Y-148450598D01*
X127358684Y-148363009D01*
X127432901Y-148312255D01*
X127568422Y-148219746D01*
X127690716Y-148137541D01*
X127793695Y-148069631D01*
X127871273Y-148020001D01*
X127917361Y-147992641D01*
X127927047Y-147988530D01*
X127954574Y-147997850D01*
X128018728Y-148023255D01*
X128110490Y-148060912D01*
X128220839Y-148106987D01*
X128340755Y-148157647D01*
X128461219Y-148209060D01*
X128573209Y-148257390D01*
X128667707Y-148298807D01*
X128735692Y-148329475D01*
X128768143Y-148345562D01*
X128769420Y-148346512D01*
X128775617Y-148371773D01*
X128789440Y-148439046D01*
X128809532Y-148541361D01*
X128834534Y-148671742D01*
X128863086Y-148823217D01*
X128879551Y-148911594D01*
X128910369Y-149073453D01*
X128939694Y-149219650D01*
X128965921Y-149342788D01*
X128987446Y-149435470D01*
X129002665Y-149490302D01*
X129007493Y-149501324D01*
X129040174Y-149512119D01*
X129113985Y-149520830D01*
X129220292Y-149527461D01*
X129350467Y-149532019D01*
X129495876Y-149534510D01*
X129647890Y-149534939D01*
X129797877Y-149533312D01*
X129937206Y-149529636D01*
X130057245Y-149523916D01*
X130149365Y-149516158D01*
X130204932Y-149506369D01*
X130216500Y-149500497D01*
X130230365Y-149465400D01*
X130250188Y-149391029D01*
X130273639Y-149287224D01*
X130298391Y-149163820D01*
X130306398Y-149120742D01*
X130344441Y-148913048D01*
X130375079Y-148748985D01*
X130399529Y-148623131D01*
X130419009Y-148530066D01*
X130434736Y-148464368D01*
X130447928Y-148420618D01*
X130459804Y-148393393D01*
X130471580Y-148377273D01*
X130473908Y-148375018D01*
X130511400Y-148352504D01*
X130584365Y-148318159D01*
X130683867Y-148275412D01*
X130800973Y-148227693D01*
X130926748Y-148178431D01*
X131052257Y-148131056D01*
X131168565Y-148088996D01*
X131266739Y-148055681D01*
X131337843Y-148034542D01*
X131372942Y-148029006D01*
X131374172Y-148029467D01*
X131402861Y-148048224D01*
X131465985Y-148090777D01*
X131556973Y-148152654D01*
X131669255Y-148229383D01*
X131796260Y-148316492D01*
X131832353Y-148341299D01*
X131963203Y-148429753D01*
X132082591Y-148507589D01*
X132183662Y-148570567D01*
X132259559Y-148614446D01*
X132303427Y-148634986D01*
X132308817Y-148635981D01*
X132337144Y-148618723D01*
X132393261Y-148571036D01*
X132471137Y-148499051D01*
X132564740Y-148408898D01*
X132668041Y-148306706D01*
X132775006Y-148198606D01*
X132879606Y-148090729D01*
X132975809Y-147989205D01*
X133057584Y-147900163D01*
X133118900Y-147829734D01*
X133153726Y-147784048D01*
X133159412Y-147771410D01*
X133146020Y-147741992D01*
X133109899Y-147681762D01*
X133057136Y-147600530D01*
X133014667Y-147538031D01*
X132936740Y-147424786D01*
X132844984Y-147290675D01*
X132753375Y-147156156D01*
X132704346Y-147083834D01*
X132538770Y-146839039D01*
X132649875Y-146633551D01*
X132698548Y-146539937D01*
X132736381Y-146460331D01*
X132757958Y-146406468D01*
X132760961Y-146392758D01*
X132738793Y-146376271D01*
X132676149Y-146343746D01*
X132578809Y-146297609D01*
X132452549Y-146240291D01*
X132303150Y-146174217D01*
X132136388Y-146101816D01*
X131958042Y-146025517D01*
X131773891Y-145947747D01*
X131589712Y-145870935D01*
X131411285Y-145797507D01*
X131244387Y-145729893D01*
X131094797Y-145670521D01*
X130968293Y-145621817D01*
X130870654Y-145586211D01*
X130807657Y-145566131D01*
X130786021Y-145562901D01*
X130758424Y-145588497D01*
X130713625Y-145644539D01*
X130660934Y-145719312D01*
X130656765Y-145725588D01*
X130502069Y-145918846D01*
X130321591Y-146074675D01*
X130121102Y-146191725D01*
X129906374Y-146268646D01*
X129683177Y-146304087D01*
X129457281Y-146296698D01*
X129234459Y-146245128D01*
X129020479Y-146148027D01*
X128973664Y-146119459D01*
X128784618Y-145970869D01*
X128632812Y-145795328D01*
X128519034Y-145598911D01*
X128444075Y-145387694D01*
X128408722Y-145167754D01*
X128413767Y-144945164D01*
X128459999Y-144726002D01*
X128548206Y-144516343D01*
X128679179Y-144322262D01*
X128732337Y-144262227D01*
X128898739Y-144109436D01*
X129073912Y-143998098D01*
X129270266Y-143921724D01*
X129464717Y-143879188D01*
X129683342Y-143868687D01*
X129903052Y-143903701D01*
X130116420Y-143980674D01*
X130316022Y-144096048D01*
X130494429Y-144246266D01*
X130644217Y-144427774D01*
X130660006Y-144451628D01*
X130711712Y-144527202D01*
X130756512Y-144584652D01*
X130785117Y-144612118D01*
X130786021Y-144612518D01*
X130816964Y-144606621D01*
X130887191Y-144583246D01*
X130990925Y-144544822D01*
X131122390Y-144493778D01*
X131275807Y-144432543D01*
X131445401Y-144363545D01*
X131625393Y-144289214D01*
X131810008Y-144211979D01*
X131993468Y-144134269D01*
X132169996Y-144058512D01*
X132333814Y-143987138D01*
X132479147Y-143922575D01*
X132600217Y-143867253D01*
X132691247Y-143823601D01*
X132746460Y-143794047D01*
X132760961Y-143782145D01*
X132749669Y-143745778D01*
X132719385Y-143677731D01*
X132675520Y-143589737D01*
X132649875Y-143541351D01*
X132538770Y-143335864D01*
X132704346Y-143091069D01*
X132789170Y-142966107D01*
X132882516Y-142829296D01*
X132970408Y-142701089D01*
X133014667Y-142636872D01*
X133075318Y-142546552D01*
X133123381Y-142470072D01*
X133152770Y-142417408D01*
X133158982Y-142400303D01*
X133142223Y-142375406D01*
X133095436Y-142320306D01*
X133023480Y-142240344D01*
X132931212Y-142140861D01*
X132823490Y-142027201D01*
X132754326Y-141955316D01*
X132630757Y-141829552D01*
X132520234Y-141720864D01*
X132427485Y-141633646D01*
X132357237Y-141572290D01*
X132314220Y-141541192D01*
X132305490Y-141538209D01*
X132272284Y-141552054D01*
X132205142Y-141590313D01*
X132110863Y-141648742D01*
X131996245Y-141723098D01*
X131868083Y-141809136D01*
X131832353Y-141833603D01*
X131702489Y-141922755D01*
X131585569Y-142002739D01*
X131488162Y-142069081D01*
X131416839Y-142117312D01*
X131378170Y-142142958D01*
X131374172Y-142145436D01*
X131343355Y-142141730D01*
X131275599Y-142122062D01*
X131179839Y-142089861D01*
X131065009Y-142048556D01*
X130940044Y-142001576D01*
X130813879Y-141952350D01*
X130695448Y-141904309D01*
X130593685Y-141860882D01*
X130517526Y-141825497D01*
X130475904Y-141801585D01*
X130473908Y-141799885D01*
X130462013Y-141785263D01*
X130450250Y-141760566D01*
X130437401Y-141720373D01*
X130422249Y-141659264D01*
X130403576Y-141571818D01*
X130380165Y-141452613D01*
X130350797Y-141296228D01*
X130314255Y-141097244D01*
X130306398Y-141054161D01*
X130281727Y-140926471D01*
X130257593Y-140815154D01*
X130236324Y-140730046D01*
X130220248Y-140680984D01*
X130216500Y-140674406D01*
X130183273Y-140663565D01*
X130109021Y-140654754D01*
X130002376Y-140647977D01*
X129871967Y-140643241D01*
X129726427Y-140640551D01*
X129574386Y-140639914D01*
X129424476Y-140641335D01*
X129285328Y-140644821D01*
X129165572Y-140650377D01*
X129073841Y-140658009D01*
X129018766Y-140667723D01*
X129007493Y-140673579D01*
X128996123Y-140706181D01*
X128977624Y-140780419D01*
X128953602Y-140888897D01*
X128925662Y-141024218D01*
X128895408Y-141178986D01*
X128879551Y-141263308D01*
X128849644Y-141423297D01*
X128822550Y-141565968D01*
X128799631Y-141684349D01*
X128782243Y-141771466D01*
X128771747Y-141820346D01*
X128769420Y-141828391D01*
X128743186Y-141841988D01*
X128679995Y-141870730D01*
X128588877Y-141910786D01*
X128478857Y-141958325D01*
X128358965Y-142009516D01*
X128238227Y-142060527D01*
X128125671Y-142107527D01*
X128030326Y-142146685D01*
X127961217Y-142174170D01*
X127927374Y-142186150D01*
X127925895Y-142186373D01*
X127899197Y-142172792D01*
X127837760Y-142134716D01*
X127747689Y-142076148D01*
X127635090Y-142001089D01*
X127506070Y-141913541D01*
X127431961Y-141862648D01*
X127296077Y-141769910D01*
X127172709Y-141687542D01*
X127068097Y-141619562D01*
X126988483Y-141569989D01*
X126940107Y-141542843D01*
X126929262Y-141538922D01*
X126904020Y-141555776D01*
X126850124Y-141602369D01*
X126773613Y-141672749D01*
X126680523Y-141760966D01*
X126576895Y-141861066D01*
X126468764Y-141967099D01*
X126362170Y-142073112D01*
X126263150Y-142173153D01*
X126177742Y-142261271D01*
X126111985Y-142331514D01*
X126071916Y-142377929D01*
X126062353Y-142393457D01*
X126075800Y-142418740D01*
X126113575Y-142479212D01*
X126171835Y-142568993D01*
X126246734Y-142682204D01*
X126334425Y-142812964D01*
X126401233Y-142911600D01*
X126740112Y-143409958D01*
X126568865Y-143825371D01*
X126397618Y-144240785D01*
X125800427Y-144353367D01*
X125203235Y-144465950D01*
X125203235Y-145708953D01*
X125800427Y-145821536D01*
G37*
X125800427Y-145821536D02*
X126397618Y-145934118D01*
X126568865Y-146349531D01*
X126740112Y-146764945D01*
X126401233Y-147263302D01*
X126306877Y-147402869D01*
X126222630Y-147529029D01*
X126152338Y-147635896D01*
X126099847Y-147717583D01*
X126069004Y-147768202D01*
X126062353Y-147781987D01*
X126079458Y-147806821D01*
X126126744Y-147859889D01*
X126198172Y-147935241D01*
X126287700Y-148026930D01*
X126389289Y-148129008D01*
X126496898Y-148235527D01*
X126604487Y-148340537D01*
X126706015Y-148438092D01*
X126795441Y-148522243D01*
X126866726Y-148587041D01*
X126913828Y-148626538D01*
X126929592Y-148635981D01*
X126958653Y-148622392D01*
X127022321Y-148584294D01*
X127114367Y-148525694D01*
X127228564Y-148450598D01*
X127358684Y-148363009D01*
X127432901Y-148312255D01*
X127568422Y-148219746D01*
X127690716Y-148137541D01*
X127793695Y-148069631D01*
X127871273Y-148020001D01*
X127917361Y-147992641D01*
X127927047Y-147988530D01*
X127954574Y-147997850D01*
X128018728Y-148023255D01*
X128110490Y-148060912D01*
X128220839Y-148106987D01*
X128340755Y-148157647D01*
X128461219Y-148209060D01*
X128573209Y-148257390D01*
X128667707Y-148298807D01*
X128735692Y-148329475D01*
X128768143Y-148345562D01*
X128769420Y-148346512D01*
X128775617Y-148371773D01*
X128789440Y-148439046D01*
X128809532Y-148541361D01*
X128834534Y-148671742D01*
X128863086Y-148823217D01*
X128879551Y-148911594D01*
X128910369Y-149073453D01*
X128939694Y-149219650D01*
X128965921Y-149342788D01*
X128987446Y-149435470D01*
X129002665Y-149490302D01*
X129007493Y-149501324D01*
X129040174Y-149512119D01*
X129113985Y-149520830D01*
X129220292Y-149527461D01*
X129350467Y-149532019D01*
X129495876Y-149534510D01*
X129647890Y-149534939D01*
X129797877Y-149533312D01*
X129937206Y-149529636D01*
X130057245Y-149523916D01*
X130149365Y-149516158D01*
X130204932Y-149506369D01*
X130216500Y-149500497D01*
X130230365Y-149465400D01*
X130250188Y-149391029D01*
X130273639Y-149287224D01*
X130298391Y-149163820D01*
X130306398Y-149120742D01*
X130344441Y-148913048D01*
X130375079Y-148748985D01*
X130399529Y-148623131D01*
X130419009Y-148530066D01*
X130434736Y-148464368D01*
X130447928Y-148420618D01*
X130459804Y-148393393D01*
X130471580Y-148377273D01*
X130473908Y-148375018D01*
X130511400Y-148352504D01*
X130584365Y-148318159D01*
X130683867Y-148275412D01*
X130800973Y-148227693D01*
X130926748Y-148178431D01*
X131052257Y-148131056D01*
X131168565Y-148088996D01*
X131266739Y-148055681D01*
X131337843Y-148034542D01*
X131372942Y-148029006D01*
X131374172Y-148029467D01*
X131402861Y-148048224D01*
X131465985Y-148090777D01*
X131556973Y-148152654D01*
X131669255Y-148229383D01*
X131796260Y-148316492D01*
X131832353Y-148341299D01*
X131963203Y-148429753D01*
X132082591Y-148507589D01*
X132183662Y-148570567D01*
X132259559Y-148614446D01*
X132303427Y-148634986D01*
X132308817Y-148635981D01*
X132337144Y-148618723D01*
X132393261Y-148571036D01*
X132471137Y-148499051D01*
X132564740Y-148408898D01*
X132668041Y-148306706D01*
X132775006Y-148198606D01*
X132879606Y-148090729D01*
X132975809Y-147989205D01*
X133057584Y-147900163D01*
X133118900Y-147829734D01*
X133153726Y-147784048D01*
X133159412Y-147771410D01*
X133146020Y-147741992D01*
X133109899Y-147681762D01*
X133057136Y-147600530D01*
X133014667Y-147538031D01*
X132936740Y-147424786D01*
X132844984Y-147290675D01*
X132753375Y-147156156D01*
X132704346Y-147083834D01*
X132538770Y-146839039D01*
X132649875Y-146633551D01*
X132698548Y-146539937D01*
X132736381Y-146460331D01*
X132757958Y-146406468D01*
X132760961Y-146392758D01*
X132738793Y-146376271D01*
X132676149Y-146343746D01*
X132578809Y-146297609D01*
X132452549Y-146240291D01*
X132303150Y-146174217D01*
X132136388Y-146101816D01*
X131958042Y-146025517D01*
X131773891Y-145947747D01*
X131589712Y-145870935D01*
X131411285Y-145797507D01*
X131244387Y-145729893D01*
X131094797Y-145670521D01*
X130968293Y-145621817D01*
X130870654Y-145586211D01*
X130807657Y-145566131D01*
X130786021Y-145562901D01*
X130758424Y-145588497D01*
X130713625Y-145644539D01*
X130660934Y-145719312D01*
X130656765Y-145725588D01*
X130502069Y-145918846D01*
X130321591Y-146074675D01*
X130121102Y-146191725D01*
X129906374Y-146268646D01*
X129683177Y-146304087D01*
X129457281Y-146296698D01*
X129234459Y-146245128D01*
X129020479Y-146148027D01*
X128973664Y-146119459D01*
X128784618Y-145970869D01*
X128632812Y-145795328D01*
X128519034Y-145598911D01*
X128444075Y-145387694D01*
X128408722Y-145167754D01*
X128413767Y-144945164D01*
X128459999Y-144726002D01*
X128548206Y-144516343D01*
X128679179Y-144322262D01*
X128732337Y-144262227D01*
X128898739Y-144109436D01*
X129073912Y-143998098D01*
X129270266Y-143921724D01*
X129464717Y-143879188D01*
X129683342Y-143868687D01*
X129903052Y-143903701D01*
X130116420Y-143980674D01*
X130316022Y-144096048D01*
X130494429Y-144246266D01*
X130644217Y-144427774D01*
X130660006Y-144451628D01*
X130711712Y-144527202D01*
X130756512Y-144584652D01*
X130785117Y-144612118D01*
X130786021Y-144612518D01*
X130816964Y-144606621D01*
X130887191Y-144583246D01*
X130990925Y-144544822D01*
X131122390Y-144493778D01*
X131275807Y-144432543D01*
X131445401Y-144363545D01*
X131625393Y-144289214D01*
X131810008Y-144211979D01*
X131993468Y-144134269D01*
X132169996Y-144058512D01*
X132333814Y-143987138D01*
X132479147Y-143922575D01*
X132600217Y-143867253D01*
X132691247Y-143823601D01*
X132746460Y-143794047D01*
X132760961Y-143782145D01*
X132749669Y-143745778D01*
X132719385Y-143677731D01*
X132675520Y-143589737D01*
X132649875Y-143541351D01*
X132538770Y-143335864D01*
X132704346Y-143091069D01*
X132789170Y-142966107D01*
X132882516Y-142829296D01*
X132970408Y-142701089D01*
X133014667Y-142636872D01*
X133075318Y-142546552D01*
X133123381Y-142470072D01*
X133152770Y-142417408D01*
X133158982Y-142400303D01*
X133142223Y-142375406D01*
X133095436Y-142320306D01*
X133023480Y-142240344D01*
X132931212Y-142140861D01*
X132823490Y-142027201D01*
X132754326Y-141955316D01*
X132630757Y-141829552D01*
X132520234Y-141720864D01*
X132427485Y-141633646D01*
X132357237Y-141572290D01*
X132314220Y-141541192D01*
X132305490Y-141538209D01*
X132272284Y-141552054D01*
X132205142Y-141590313D01*
X132110863Y-141648742D01*
X131996245Y-141723098D01*
X131868083Y-141809136D01*
X131832353Y-141833603D01*
X131702489Y-141922755D01*
X131585569Y-142002739D01*
X131488162Y-142069081D01*
X131416839Y-142117312D01*
X131378170Y-142142958D01*
X131374172Y-142145436D01*
X131343355Y-142141730D01*
X131275599Y-142122062D01*
X131179839Y-142089861D01*
X131065009Y-142048556D01*
X130940044Y-142001576D01*
X130813879Y-141952350D01*
X130695448Y-141904309D01*
X130593685Y-141860882D01*
X130517526Y-141825497D01*
X130475904Y-141801585D01*
X130473908Y-141799885D01*
X130462013Y-141785263D01*
X130450250Y-141760566D01*
X130437401Y-141720373D01*
X130422249Y-141659264D01*
X130403576Y-141571818D01*
X130380165Y-141452613D01*
X130350797Y-141296228D01*
X130314255Y-141097244D01*
X130306398Y-141054161D01*
X130281727Y-140926471D01*
X130257593Y-140815154D01*
X130236324Y-140730046D01*
X130220248Y-140680984D01*
X130216500Y-140674406D01*
X130183273Y-140663565D01*
X130109021Y-140654754D01*
X130002376Y-140647977D01*
X129871967Y-140643241D01*
X129726427Y-140640551D01*
X129574386Y-140639914D01*
X129424476Y-140641335D01*
X129285328Y-140644821D01*
X129165572Y-140650377D01*
X129073841Y-140658009D01*
X129018766Y-140667723D01*
X129007493Y-140673579D01*
X128996123Y-140706181D01*
X128977624Y-140780419D01*
X128953602Y-140888897D01*
X128925662Y-141024218D01*
X128895408Y-141178986D01*
X128879551Y-141263308D01*
X128849644Y-141423297D01*
X128822550Y-141565968D01*
X128799631Y-141684349D01*
X128782243Y-141771466D01*
X128771747Y-141820346D01*
X128769420Y-141828391D01*
X128743186Y-141841988D01*
X128679995Y-141870730D01*
X128588877Y-141910786D01*
X128478857Y-141958325D01*
X128358965Y-142009516D01*
X128238227Y-142060527D01*
X128125671Y-142107527D01*
X128030326Y-142146685D01*
X127961217Y-142174170D01*
X127927374Y-142186150D01*
X127925895Y-142186373D01*
X127899197Y-142172792D01*
X127837760Y-142134716D01*
X127747689Y-142076148D01*
X127635090Y-142001089D01*
X127506070Y-141913541D01*
X127431961Y-141862648D01*
X127296077Y-141769910D01*
X127172709Y-141687542D01*
X127068097Y-141619562D01*
X126988483Y-141569989D01*
X126940107Y-141542843D01*
X126929262Y-141538922D01*
X126904020Y-141555776D01*
X126850124Y-141602369D01*
X126773613Y-141672749D01*
X126680523Y-141760966D01*
X126576895Y-141861066D01*
X126468764Y-141967099D01*
X126362170Y-142073112D01*
X126263150Y-142173153D01*
X126177742Y-142261271D01*
X126111985Y-142331514D01*
X126071916Y-142377929D01*
X126062353Y-142393457D01*
X126075800Y-142418740D01*
X126113575Y-142479212D01*
X126171835Y-142568993D01*
X126246734Y-142682204D01*
X126334425Y-142812964D01*
X126401233Y-142911600D01*
X126740112Y-143409958D01*
X126568865Y-143825371D01*
X126397618Y-144240785D01*
X125800427Y-144353367D01*
X125203235Y-144465950D01*
X125203235Y-145708953D01*
X125800427Y-145821536D01*
G36*
X107535258Y-136390337D02*
G01*
X107535659Y-136429819D01*
X107538451Y-136545508D01*
X107546742Y-136642397D01*
X107561424Y-136723789D01*
X107583385Y-136792985D01*
X107613514Y-136853288D01*
X107652702Y-136908000D01*
X107669724Y-136927541D01*
X107709555Y-136959958D01*
X107763605Y-136989188D01*
X107823515Y-137011717D01*
X107880931Y-137024029D01*
X107902148Y-137025308D01*
X107960961Y-137017291D01*
X108025205Y-136995809D01*
X108086013Y-136964709D01*
X108134522Y-136927842D01*
X108140374Y-136921854D01*
X108181513Y-136871129D01*
X108213627Y-136815583D01*
X108237557Y-136752012D01*
X108254145Y-136677214D01*
X108264233Y-136587986D01*
X108268661Y-136481126D01*
X108269037Y-136432180D01*
X108268737Y-136369946D01*
X108267484Y-136326180D01*
X108264746Y-136296777D01*
X108259993Y-136277629D01*
X108252693Y-136264631D01*
X108246459Y-136257663D01*
X108238886Y-136251082D01*
X108229116Y-136245920D01*
X108214532Y-136242005D01*
X108192518Y-136239165D01*
X108160456Y-136237228D01*
X108115728Y-136236024D01*
X108055718Y-136235380D01*
X107977809Y-136235125D01*
X107902148Y-136235086D01*
X107801233Y-136234838D01*
X107720619Y-136234891D01*
X107682014Y-136235851D01*
X107682014Y-136381841D01*
X108122281Y-136381841D01*
X108122196Y-136474974D01*
X108120588Y-136531015D01*
X108116448Y-136589709D01*
X108110656Y-136638680D01*
X108110418Y-136640170D01*
X108091282Y-136719316D01*
X108061479Y-136780706D01*
X108019070Y-136827403D01*
X107973153Y-136857073D01*
X107922218Y-136875355D01*
X107874392Y-136873937D01*
X107823125Y-136852720D01*
X107770091Y-136811219D01*
X107730792Y-136753710D01*
X107704523Y-136678958D01*
X107695227Y-136629000D01*
X107688699Y-136572292D01*
X107683974Y-136512189D01*
X107682009Y-136461069D01*
X107682000Y-136458041D01*
X107682014Y-136381841D01*
X107682014Y-136235851D01*
X107658043Y-136236448D01*
X107611247Y-136240710D01*
X107577970Y-136248878D01*
X107555951Y-136262152D01*
X107542931Y-136281734D01*
X107536649Y-136308825D01*
X107534845Y-136344626D01*
X107535258Y-136390337D01*
G37*
X107535258Y-136390337D02*
X107535659Y-136429819D01*
X107538451Y-136545508D01*
X107546742Y-136642397D01*
X107561424Y-136723789D01*
X107583385Y-136792985D01*
X107613514Y-136853288D01*
X107652702Y-136908000D01*
X107669724Y-136927541D01*
X107709555Y-136959958D01*
X107763605Y-136989188D01*
X107823515Y-137011717D01*
X107880931Y-137024029D01*
X107902148Y-137025308D01*
X107960961Y-137017291D01*
X108025205Y-136995809D01*
X108086013Y-136964709D01*
X108134522Y-136927842D01*
X108140374Y-136921854D01*
X108181513Y-136871129D01*
X108213627Y-136815583D01*
X108237557Y-136752012D01*
X108254145Y-136677214D01*
X108264233Y-136587986D01*
X108268661Y-136481126D01*
X108269037Y-136432180D01*
X108268737Y-136369946D01*
X108267484Y-136326180D01*
X108264746Y-136296777D01*
X108259993Y-136277629D01*
X108252693Y-136264631D01*
X108246459Y-136257663D01*
X108238886Y-136251082D01*
X108229116Y-136245920D01*
X108214532Y-136242005D01*
X108192518Y-136239165D01*
X108160456Y-136237228D01*
X108115728Y-136236024D01*
X108055718Y-136235380D01*
X107977809Y-136235125D01*
X107902148Y-136235086D01*
X107801233Y-136234838D01*
X107720619Y-136234891D01*
X107682014Y-136235851D01*
X107682014Y-136381841D01*
X108122281Y-136381841D01*
X108122196Y-136474974D01*
X108120588Y-136531015D01*
X108116448Y-136589709D01*
X108110656Y-136638680D01*
X108110418Y-136640170D01*
X108091282Y-136719316D01*
X108061479Y-136780706D01*
X108019070Y-136827403D01*
X107973153Y-136857073D01*
X107922218Y-136875355D01*
X107874392Y-136873937D01*
X107823125Y-136852720D01*
X107770091Y-136811219D01*
X107730792Y-136753710D01*
X107704523Y-136678958D01*
X107695227Y-136629000D01*
X107688699Y-136572292D01*
X107683974Y-136512189D01*
X107682009Y-136461069D01*
X107682000Y-136458041D01*
X107682014Y-136381841D01*
X107682014Y-136235851D01*
X107658043Y-136236448D01*
X107611247Y-136240710D01*
X107577970Y-136248878D01*
X107555951Y-136262152D01*
X107542931Y-136281734D01*
X107536649Y-136308825D01*
X107534845Y-136344626D01*
X107535258Y-136390337D01*
G36*
X107535338Y-137798914D02*
G01*
X107535710Y-137868322D01*
X107536577Y-137920711D01*
X107538138Y-137958861D01*
X107540595Y-137985549D01*
X107544149Y-138003555D01*
X107549002Y-138015659D01*
X107555353Y-138024639D01*
X107558276Y-138027890D01*
X107589334Y-138047665D01*
X107625020Y-138051226D01*
X107656702Y-138038217D01*
X107663105Y-138032202D01*
X107669313Y-138022473D01*
X107674102Y-138006807D01*
X107677706Y-137982300D01*
X107680356Y-137946047D01*
X107682287Y-137895143D01*
X107683731Y-137826682D01*
X107684610Y-137764091D01*
X107687659Y-137516374D01*
X107752570Y-137512989D01*
X107817481Y-137509603D01*
X107817481Y-137677750D01*
X107818111Y-137750749D01*
X107820745Y-137804191D01*
X107826501Y-137841080D01*
X107836496Y-137864420D01*
X107851848Y-137877214D01*
X107873674Y-137882466D01*
X107893930Y-137883263D01*
X107918784Y-137880785D01*
X107937098Y-137871431D01*
X107949829Y-137852325D01*
X107957933Y-137820590D01*
X107962368Y-137773349D01*
X107964091Y-137707725D01*
X107964237Y-137671907D01*
X107964237Y-137510730D01*
X108122281Y-137510730D01*
X108122281Y-137759086D01*
X108122394Y-137840495D01*
X108122904Y-137902366D01*
X108124062Y-137947740D01*
X108126122Y-137979654D01*
X108129338Y-138001149D01*
X108133964Y-138015265D01*
X108140251Y-138025040D01*
X108144859Y-138030019D01*
X108171752Y-138047098D01*
X108195659Y-138052597D01*
X108224859Y-138044745D01*
X108246459Y-138030019D01*
X108253258Y-138022162D01*
X108258538Y-138012020D01*
X108262490Y-137996864D01*
X108265305Y-137973967D01*
X108267174Y-137940599D01*
X108268290Y-137894033D01*
X108268843Y-137831541D01*
X108269025Y-137750394D01*
X108269037Y-137708286D01*
X108268957Y-137618110D01*
X108268590Y-137547784D01*
X108267744Y-137494579D01*
X108266228Y-137455768D01*
X108263851Y-137428621D01*
X108260421Y-137410410D01*
X108255746Y-137398408D01*
X108249636Y-137389886D01*
X108246459Y-137386552D01*
X108238862Y-137379953D01*
X108229062Y-137374781D01*
X108214431Y-137370862D01*
X108192344Y-137368024D01*
X108160174Y-137366093D01*
X108115295Y-137364896D01*
X108055081Y-137364260D01*
X107976905Y-137364011D01*
X107904115Y-137363974D01*
X107810899Y-137364008D01*
X107737623Y-137364243D01*
X107681650Y-137364878D01*
X107640343Y-137366114D01*
X107611064Y-137368152D01*
X107591176Y-137371191D01*
X107578042Y-137375431D01*
X107569024Y-137381073D01*
X107561485Y-137388317D01*
X107559804Y-137390102D01*
X107552364Y-137398763D01*
X107546601Y-137408826D01*
X107542304Y-137423083D01*
X107539256Y-137444325D01*
X107537243Y-137475344D01*
X107536052Y-137518931D01*
X107535467Y-137577877D01*
X107535275Y-137654974D01*
X107535259Y-137709707D01*
X107535338Y-137798914D01*
G37*
X107535338Y-137798914D02*
X107535710Y-137868322D01*
X107536577Y-137920711D01*
X107538138Y-137958861D01*
X107540595Y-137985549D01*
X107544149Y-138003555D01*
X107549002Y-138015659D01*
X107555353Y-138024639D01*
X107558276Y-138027890D01*
X107589334Y-138047665D01*
X107625020Y-138051226D01*
X107656702Y-138038217D01*
X107663105Y-138032202D01*
X107669313Y-138022473D01*
X107674102Y-138006807D01*
X107677706Y-137982300D01*
X107680356Y-137946047D01*
X107682287Y-137895143D01*
X107683731Y-137826682D01*
X107684610Y-137764091D01*
X107687659Y-137516374D01*
X107752570Y-137512989D01*
X107817481Y-137509603D01*
X107817481Y-137677750D01*
X107818111Y-137750749D01*
X107820745Y-137804191D01*
X107826501Y-137841080D01*
X107836496Y-137864420D01*
X107851848Y-137877214D01*
X107873674Y-137882466D01*
X107893930Y-137883263D01*
X107918784Y-137880785D01*
X107937098Y-137871431D01*
X107949829Y-137852325D01*
X107957933Y-137820590D01*
X107962368Y-137773349D01*
X107964091Y-137707725D01*
X107964237Y-137671907D01*
X107964237Y-137510730D01*
X108122281Y-137510730D01*
X108122281Y-137759086D01*
X108122394Y-137840495D01*
X108122904Y-137902366D01*
X108124062Y-137947740D01*
X108126122Y-137979654D01*
X108129338Y-138001149D01*
X108133964Y-138015265D01*
X108140251Y-138025040D01*
X108144859Y-138030019D01*
X108171752Y-138047098D01*
X108195659Y-138052597D01*
X108224859Y-138044745D01*
X108246459Y-138030019D01*
X108253258Y-138022162D01*
X108258538Y-138012020D01*
X108262490Y-137996864D01*
X108265305Y-137973967D01*
X108267174Y-137940599D01*
X108268290Y-137894033D01*
X108268843Y-137831541D01*
X108269025Y-137750394D01*
X108269037Y-137708286D01*
X108268957Y-137618110D01*
X108268590Y-137547784D01*
X108267744Y-137494579D01*
X108266228Y-137455768D01*
X108263851Y-137428621D01*
X108260421Y-137410410D01*
X108255746Y-137398408D01*
X108249636Y-137389886D01*
X108246459Y-137386552D01*
X108238862Y-137379953D01*
X108229062Y-137374781D01*
X108214431Y-137370862D01*
X108192344Y-137368024D01*
X108160174Y-137366093D01*
X108115295Y-137364896D01*
X108055081Y-137364260D01*
X107976905Y-137364011D01*
X107904115Y-137363974D01*
X107810899Y-137364008D01*
X107737623Y-137364243D01*
X107681650Y-137364878D01*
X107640343Y-137366114D01*
X107611064Y-137368152D01*
X107591176Y-137371191D01*
X107578042Y-137375431D01*
X107569024Y-137381073D01*
X107561485Y-137388317D01*
X107559804Y-137390102D01*
X107552364Y-137398763D01*
X107546601Y-137408826D01*
X107542304Y-137423083D01*
X107539256Y-137444325D01*
X107537243Y-137475344D01*
X107536052Y-137518931D01*
X107535467Y-137577877D01*
X107535275Y-137654974D01*
X107535259Y-137709707D01*
X107535338Y-137798914D01*
G36*
X107536543Y-138820005D02*
G01*
X107541773Y-138894820D01*
X107549942Y-138964402D01*
X107560742Y-139024706D01*
X107573865Y-139071688D01*
X107589005Y-139101302D01*
X107593461Y-139105848D01*
X107628042Y-139121654D01*
X107663543Y-139116861D01*
X107693917Y-139092344D01*
X107694788Y-139091174D01*
X107704146Y-139076754D01*
X107709068Y-139061700D01*
X107709665Y-139040703D01*
X107706053Y-139008451D01*
X107698346Y-138959635D01*
X107697697Y-138955708D01*
X107688761Y-138882969D01*
X107684353Y-138804491D01*
X107684311Y-138725781D01*
X107688471Y-138652347D01*
X107696671Y-138589697D01*
X107708749Y-138543338D01*
X107709963Y-138540292D01*
X107728807Y-138506660D01*
X107747877Y-138494844D01*
X107766631Y-138504094D01*
X107784529Y-138533661D01*
X107801029Y-138582797D01*
X107815588Y-138650751D01*
X107822598Y-138696063D01*
X107836081Y-138790252D01*
X107848406Y-138865164D01*
X107860641Y-138923991D01*
X107873853Y-138969923D01*
X107889109Y-139006153D01*
X107907477Y-139035870D01*
X107930023Y-139062266D01*
X107952163Y-139083478D01*
X107983011Y-139108643D01*
X108009537Y-139121027D01*
X108042218Y-139124900D01*
X108054187Y-139125041D01*
X108093904Y-139122132D01*
X108123451Y-139110506D01*
X108149678Y-139090385D01*
X108189768Y-139049492D01*
X108220341Y-139003891D01*
X108242395Y-138950195D01*
X108256927Y-138885016D01*
X108264933Y-138804964D01*
X108267410Y-138706651D01*
X108267369Y-138690419D01*
X108266010Y-138624859D01*
X108262922Y-138559842D01*
X108258548Y-138502456D01*
X108253332Y-138459786D01*
X108252733Y-138456336D01*
X108242683Y-138413912D01*
X108229988Y-138377928D01*
X108218382Y-138357558D01*
X108187764Y-138338601D01*
X108152110Y-138337281D01*
X108120336Y-138353623D01*
X108116743Y-138357279D01*
X108106068Y-138372393D01*
X108101468Y-138391293D01*
X108102251Y-138420546D01*
X108106319Y-138456057D01*
X108109954Y-138495738D01*
X108113020Y-138551363D01*
X108115245Y-138616302D01*
X108116356Y-138683923D01*
X108116429Y-138701708D01*
X108116156Y-138769580D01*
X108114838Y-138819254D01*
X108112019Y-138855098D01*
X108107242Y-138881484D01*
X108100049Y-138902782D01*
X108094059Y-138915582D01*
X108077425Y-138943708D01*
X108062360Y-138961640D01*
X108058089Y-138964261D01*
X108040455Y-138958732D01*
X108023384Y-138932448D01*
X108007650Y-138887230D01*
X107994030Y-138824900D01*
X107990996Y-138806537D01*
X107975930Y-138710618D01*
X107963338Y-138634067D01*
X107952303Y-138573928D01*
X107941912Y-138527248D01*
X107931248Y-138491071D01*
X107919397Y-138462443D01*
X107905443Y-138438410D01*
X107888473Y-138416016D01*
X107867570Y-138392306D01*
X107860241Y-138384328D01*
X107832891Y-138356355D01*
X107811221Y-138341548D01*
X107786424Y-138335756D01*
X107755175Y-138334819D01*
X107693897Y-138345133D01*
X107641832Y-138375956D01*
X107599150Y-138427113D01*
X107566017Y-138498425D01*
X107551156Y-138549308D01*
X107541558Y-138604608D01*
X107536128Y-138670855D01*
X107534559Y-138744002D01*
X107536543Y-138820005D01*
G37*
X107536543Y-138820005D02*
X107541773Y-138894820D01*
X107549942Y-138964402D01*
X107560742Y-139024706D01*
X107573865Y-139071688D01*
X107589005Y-139101302D01*
X107593461Y-139105848D01*
X107628042Y-139121654D01*
X107663543Y-139116861D01*
X107693917Y-139092344D01*
X107694788Y-139091174D01*
X107704146Y-139076754D01*
X107709068Y-139061700D01*
X107709665Y-139040703D01*
X107706053Y-139008451D01*
X107698346Y-138959635D01*
X107697697Y-138955708D01*
X107688761Y-138882969D01*
X107684353Y-138804491D01*
X107684311Y-138725781D01*
X107688471Y-138652347D01*
X107696671Y-138589697D01*
X107708749Y-138543338D01*
X107709963Y-138540292D01*
X107728807Y-138506660D01*
X107747877Y-138494844D01*
X107766631Y-138504094D01*
X107784529Y-138533661D01*
X107801029Y-138582797D01*
X107815588Y-138650751D01*
X107822598Y-138696063D01*
X107836081Y-138790252D01*
X107848406Y-138865164D01*
X107860641Y-138923991D01*
X107873853Y-138969923D01*
X107889109Y-139006153D01*
X107907477Y-139035870D01*
X107930023Y-139062266D01*
X107952163Y-139083478D01*
X107983011Y-139108643D01*
X108009537Y-139121027D01*
X108042218Y-139124900D01*
X108054187Y-139125041D01*
X108093904Y-139122132D01*
X108123451Y-139110506D01*
X108149678Y-139090385D01*
X108189768Y-139049492D01*
X108220341Y-139003891D01*
X108242395Y-138950195D01*
X108256927Y-138885016D01*
X108264933Y-138804964D01*
X108267410Y-138706651D01*
X108267369Y-138690419D01*
X108266010Y-138624859D01*
X108262922Y-138559842D01*
X108258548Y-138502456D01*
X108253332Y-138459786D01*
X108252733Y-138456336D01*
X108242683Y-138413912D01*
X108229988Y-138377928D01*
X108218382Y-138357558D01*
X108187764Y-138338601D01*
X108152110Y-138337281D01*
X108120336Y-138353623D01*
X108116743Y-138357279D01*
X108106068Y-138372393D01*
X108101468Y-138391293D01*
X108102251Y-138420546D01*
X108106319Y-138456057D01*
X108109954Y-138495738D01*
X108113020Y-138551363D01*
X108115245Y-138616302D01*
X108116356Y-138683923D01*
X108116429Y-138701708D01*
X108116156Y-138769580D01*
X108114838Y-138819254D01*
X108112019Y-138855098D01*
X108107242Y-138881484D01*
X108100049Y-138902782D01*
X108094059Y-138915582D01*
X108077425Y-138943708D01*
X108062360Y-138961640D01*
X108058089Y-138964261D01*
X108040455Y-138958732D01*
X108023384Y-138932448D01*
X108007650Y-138887230D01*
X107994030Y-138824900D01*
X107990996Y-138806537D01*
X107975930Y-138710618D01*
X107963338Y-138634067D01*
X107952303Y-138573928D01*
X107941912Y-138527248D01*
X107931248Y-138491071D01*
X107919397Y-138462443D01*
X107905443Y-138438410D01*
X107888473Y-138416016D01*
X107867570Y-138392306D01*
X107860241Y-138384328D01*
X107832891Y-138356355D01*
X107811221Y-138341548D01*
X107786424Y-138335756D01*
X107755175Y-138334819D01*
X107693897Y-138345133D01*
X107641832Y-138375956D01*
X107599150Y-138427113D01*
X107566017Y-138498425D01*
X107551156Y-138549308D01*
X107541558Y-138604608D01*
X107536128Y-138670855D01*
X107534559Y-138744002D01*
X107536543Y-138820005D01*
G36*
X107557837Y-139587886D02*
G01*
X107565410Y-139594466D01*
X107575179Y-139599629D01*
X107589763Y-139603544D01*
X107611777Y-139606384D01*
X107643840Y-139608321D01*
X107688567Y-139609525D01*
X107748577Y-139610169D01*
X107826486Y-139610424D01*
X107902148Y-139610463D01*
X107995994Y-139610394D01*
X108069881Y-139610070D01*
X108126424Y-139609322D01*
X108168241Y-139607976D01*
X108197949Y-139605862D01*
X108218165Y-139602808D01*
X108231506Y-139598642D01*
X108240590Y-139593192D01*
X108246459Y-139587886D01*
X108266139Y-139554882D01*
X108264373Y-139519717D01*
X108242909Y-139488253D01*
X108234529Y-139481024D01*
X108224806Y-139475374D01*
X108211053Y-139471109D01*
X108190581Y-139468035D01*
X108160704Y-139465956D01*
X108118733Y-139464678D01*
X108061981Y-139464007D01*
X107987759Y-139463749D01*
X107903729Y-139463708D01*
X107590677Y-139463708D01*
X107562968Y-139491417D01*
X107539655Y-139525571D01*
X107538815Y-139558702D01*
X107557837Y-139587886D01*
G37*
X107557837Y-139587886D02*
X107565410Y-139594466D01*
X107575179Y-139599629D01*
X107589763Y-139603544D01*
X107611777Y-139606384D01*
X107643840Y-139608321D01*
X107688567Y-139609525D01*
X107748577Y-139610169D01*
X107826486Y-139610424D01*
X107902148Y-139610463D01*
X107995994Y-139610394D01*
X108069881Y-139610070D01*
X108126424Y-139609322D01*
X108168241Y-139607976D01*
X108197949Y-139605862D01*
X108218165Y-139602808D01*
X108231506Y-139598642D01*
X108240590Y-139593192D01*
X108246459Y-139587886D01*
X108266139Y-139554882D01*
X108264373Y-139519717D01*
X108242909Y-139488253D01*
X108234529Y-139481024D01*
X108224806Y-139475374D01*
X108211053Y-139471109D01*
X108190581Y-139468035D01*
X108160704Y-139465956D01*
X108118733Y-139464678D01*
X108061981Y-139464007D01*
X107987759Y-139463749D01*
X107903729Y-139463708D01*
X107590677Y-139463708D01*
X107562968Y-139491417D01*
X107539655Y-139525571D01*
X107538815Y-139558702D01*
X107557837Y-139587886D01*
G36*
X107540791Y-140561627D02*
G01*
X107552287Y-140630143D01*
X107570159Y-140682765D01*
X107593691Y-140717000D01*
X107607116Y-140726329D01*
X107638340Y-140735815D01*
X107666587Y-140729431D01*
X107693374Y-140709278D01*
X107705905Y-140677963D01*
X107704888Y-140632525D01*
X107698098Y-140597382D01*
X107685163Y-140519289D01*
X107683934Y-140439482D01*
X107694433Y-140350153D01*
X107698882Y-140325479D01*
X107722300Y-140242417D01*
X107757137Y-140177435D01*
X107802796Y-140131247D01*
X107858686Y-140104563D01*
X107887580Y-140099045D01*
X107946204Y-140102657D01*
X107998071Y-140125979D01*
X108042170Y-140166884D01*
X108077491Y-140223249D01*
X108103021Y-140292948D01*
X108117751Y-140373856D01*
X108120670Y-140463848D01*
X108110767Y-140560798D01*
X108109833Y-140566272D01*
X108102651Y-140604833D01*
X108095713Y-140626214D01*
X108085419Y-140635481D01*
X108068168Y-140637702D01*
X108059033Y-140637752D01*
X108020681Y-140637752D01*
X108020681Y-140569277D01*
X108016539Y-140508808D01*
X108003339Y-140467543D01*
X107979922Y-140443533D01*
X107945128Y-140434831D01*
X107940586Y-140434725D01*
X107910846Y-140439816D01*
X107889611Y-140457275D01*
X107875558Y-140489769D01*
X107867365Y-140539965D01*
X107864353Y-140588585D01*
X107862625Y-140659252D01*
X107865262Y-140710510D01*
X107874992Y-140745469D01*
X107894545Y-140767238D01*
X107926648Y-140778928D01*
X107974030Y-140783648D01*
X108036263Y-140784508D01*
X108105727Y-140783099D01*
X108152978Y-140778860D01*
X108178204Y-140771772D01*
X108180180Y-140770397D01*
X108211700Y-140731480D01*
X108236662Y-140674422D01*
X108254532Y-140602839D01*
X108264778Y-140520350D01*
X108266865Y-140430569D01*
X108260260Y-140337116D01*
X108252148Y-140282152D01*
X108227746Y-140195942D01*
X108187854Y-140115816D01*
X108136079Y-140048731D01*
X108125731Y-140038535D01*
X108082227Y-140005406D01*
X108028310Y-139975514D01*
X107971784Y-139952351D01*
X107920451Y-139939410D01*
X107900736Y-139937850D01*
X107859611Y-139944490D01*
X107808444Y-139962140D01*
X107754586Y-139987411D01*
X107705387Y-140016919D01*
X107672526Y-140042989D01*
X107623644Y-140103943D01*
X107584737Y-140182739D01*
X107556686Y-140276551D01*
X107540371Y-140382558D01*
X107536384Y-140479708D01*
X107540791Y-140561627D01*
G37*
X107540791Y-140561627D02*
X107552287Y-140630143D01*
X107570159Y-140682765D01*
X107593691Y-140717000D01*
X107607116Y-140726329D01*
X107638340Y-140735815D01*
X107666587Y-140729431D01*
X107693374Y-140709278D01*
X107705905Y-140677963D01*
X107704888Y-140632525D01*
X107698098Y-140597382D01*
X107685163Y-140519289D01*
X107683934Y-140439482D01*
X107694433Y-140350153D01*
X107698882Y-140325479D01*
X107722300Y-140242417D01*
X107757137Y-140177435D01*
X107802796Y-140131247D01*
X107858686Y-140104563D01*
X107887580Y-140099045D01*
X107946204Y-140102657D01*
X107998071Y-140125979D01*
X108042170Y-140166884D01*
X108077491Y-140223249D01*
X108103021Y-140292948D01*
X108117751Y-140373856D01*
X108120670Y-140463848D01*
X108110767Y-140560798D01*
X108109833Y-140566272D01*
X108102651Y-140604833D01*
X108095713Y-140626214D01*
X108085419Y-140635481D01*
X108068168Y-140637702D01*
X108059033Y-140637752D01*
X108020681Y-140637752D01*
X108020681Y-140569277D01*
X108016539Y-140508808D01*
X108003339Y-140467543D01*
X107979922Y-140443533D01*
X107945128Y-140434831D01*
X107940586Y-140434725D01*
X107910846Y-140439816D01*
X107889611Y-140457275D01*
X107875558Y-140489769D01*
X107867365Y-140539965D01*
X107864353Y-140588585D01*
X107862625Y-140659252D01*
X107865262Y-140710510D01*
X107874992Y-140745469D01*
X107894545Y-140767238D01*
X107926648Y-140778928D01*
X107974030Y-140783648D01*
X108036263Y-140784508D01*
X108105727Y-140783099D01*
X108152978Y-140778860D01*
X108178204Y-140771772D01*
X108180180Y-140770397D01*
X108211700Y-140731480D01*
X108236662Y-140674422D01*
X108254532Y-140602839D01*
X108264778Y-140520350D01*
X108266865Y-140430569D01*
X108260260Y-140337116D01*
X108252148Y-140282152D01*
X108227746Y-140195942D01*
X108187854Y-140115816D01*
X108136079Y-140048731D01*
X108125731Y-140038535D01*
X108082227Y-140005406D01*
X108028310Y-139975514D01*
X107971784Y-139952351D01*
X107920451Y-139939410D01*
X107900736Y-139937850D01*
X107859611Y-139944490D01*
X107808444Y-139962140D01*
X107754586Y-139987411D01*
X107705387Y-140016919D01*
X107672526Y-140042989D01*
X107623644Y-140103943D01*
X107584737Y-140182739D01*
X107556686Y-140276551D01*
X107540371Y-140382558D01*
X107536384Y-140479708D01*
X107540791Y-140561627D01*
G36*
X107539640Y-141211594D02*
G01*
X107553465Y-141235160D01*
X107576073Y-141265973D01*
X107608530Y-141305630D01*
X107651900Y-141355728D01*
X107707250Y-141417865D01*
X107775643Y-141493636D01*
X107854276Y-141580374D01*
X108018070Y-141760997D01*
X107798221Y-141766641D01*
X107722543Y-141768679D01*
X107666186Y-141770645D01*
X107625898Y-141772974D01*
X107598427Y-141776102D01*
X107580521Y-141780463D01*
X107568929Y-141786492D01*
X107560400Y-141794624D01*
X107556815Y-141798936D01*
X107537862Y-141833467D01*
X107540633Y-141866325D01*
X107556825Y-141892390D01*
X107578391Y-141919041D01*
X107893343Y-141922356D01*
X107985971Y-141923273D01*
X108058736Y-141923740D01*
X108114353Y-141923595D01*
X108155534Y-141922676D01*
X108184995Y-141920821D01*
X108205447Y-141917869D01*
X108219605Y-141913658D01*
X108230183Y-141908026D01*
X108238666Y-141901781D01*
X108254399Y-141888269D01*
X108264828Y-141874825D01*
X108268831Y-141859584D01*
X108265286Y-141840682D01*
X108253071Y-141816253D01*
X108231063Y-141784435D01*
X108198141Y-141743360D01*
X108153183Y-141691166D01*
X108095067Y-141625986D01*
X108028291Y-141552152D01*
X107787650Y-141286863D01*
X108006781Y-141281219D01*
X108082320Y-141279177D01*
X108138546Y-141277206D01*
X108178716Y-141274869D01*
X108206088Y-141271727D01*
X108223920Y-141267344D01*
X108235471Y-141261284D01*
X108243999Y-141253108D01*
X108247474Y-141248924D01*
X108266564Y-141211943D01*
X108263685Y-141177000D01*
X108239292Y-141146572D01*
X108229478Y-141139611D01*
X108218018Y-141134185D01*
X108202160Y-141130105D01*
X108179155Y-141127179D01*
X108146254Y-141125216D01*
X108100708Y-141124025D01*
X108039765Y-141123416D01*
X107960678Y-141123197D01*
X107902148Y-141123174D01*
X107810599Y-141123248D01*
X107738879Y-141123595D01*
X107684237Y-141124407D01*
X107643924Y-141125875D01*
X107615190Y-141128189D01*
X107595285Y-141131541D01*
X107581460Y-141136120D01*
X107570964Y-141142119D01*
X107565003Y-141146572D01*
X107550883Y-141157858D01*
X107540221Y-141168407D01*
X107534084Y-141179815D01*
X107533535Y-141193678D01*
X107539640Y-141211594D01*
G37*
X107539640Y-141211594D02*
X107553465Y-141235160D01*
X107576073Y-141265973D01*
X107608530Y-141305630D01*
X107651900Y-141355728D01*
X107707250Y-141417865D01*
X107775643Y-141493636D01*
X107854276Y-141580374D01*
X108018070Y-141760997D01*
X107798221Y-141766641D01*
X107722543Y-141768679D01*
X107666186Y-141770645D01*
X107625898Y-141772974D01*
X107598427Y-141776102D01*
X107580521Y-141780463D01*
X107568929Y-141786492D01*
X107560400Y-141794624D01*
X107556815Y-141798936D01*
X107537862Y-141833467D01*
X107540633Y-141866325D01*
X107556825Y-141892390D01*
X107578391Y-141919041D01*
X107893343Y-141922356D01*
X107985971Y-141923273D01*
X108058736Y-141923740D01*
X108114353Y-141923595D01*
X108155534Y-141922676D01*
X108184995Y-141920821D01*
X108205447Y-141917869D01*
X108219605Y-141913658D01*
X108230183Y-141908026D01*
X108238666Y-141901781D01*
X108254399Y-141888269D01*
X108264828Y-141874825D01*
X108268831Y-141859584D01*
X108265286Y-141840682D01*
X108253071Y-141816253D01*
X108231063Y-141784435D01*
X108198141Y-141743360D01*
X108153183Y-141691166D01*
X108095067Y-141625986D01*
X108028291Y-141552152D01*
X107787650Y-141286863D01*
X108006781Y-141281219D01*
X108082320Y-141279177D01*
X108138546Y-141277206D01*
X108178716Y-141274869D01*
X108206088Y-141271727D01*
X108223920Y-141267344D01*
X108235471Y-141261284D01*
X108243999Y-141253108D01*
X108247474Y-141248924D01*
X108266564Y-141211943D01*
X108263685Y-141177000D01*
X108239292Y-141146572D01*
X108229478Y-141139611D01*
X108218018Y-141134185D01*
X108202160Y-141130105D01*
X108179155Y-141127179D01*
X108146254Y-141125216D01*
X108100708Y-141124025D01*
X108039765Y-141123416D01*
X107960678Y-141123197D01*
X107902148Y-141123174D01*
X107810599Y-141123248D01*
X107738879Y-141123595D01*
X107684237Y-141124407D01*
X107643924Y-141125875D01*
X107615190Y-141128189D01*
X107595285Y-141131541D01*
X107581460Y-141136120D01*
X107570964Y-141142119D01*
X107565003Y-141146572D01*
X107550883Y-141157858D01*
X107540221Y-141168407D01*
X107534084Y-141179815D01*
X107533535Y-141193678D01*
X107539640Y-141211594D01*
G36*
X107535452Y-142742051D02*
G01*
X107536366Y-142818409D01*
X107538503Y-142876925D01*
X107542367Y-142919963D01*
X107548459Y-142949891D01*
X107557282Y-142969076D01*
X107569338Y-142979884D01*
X107585131Y-142984681D01*
X107605162Y-142985835D01*
X107607527Y-142985841D01*
X107630184Y-142984839D01*
X107647695Y-142980104D01*
X107660766Y-142969041D01*
X107670105Y-142949056D01*
X107676419Y-142917554D01*
X107680414Y-142871940D01*
X107682798Y-142809621D01*
X107684278Y-142728001D01*
X107684606Y-142702985D01*
X107687659Y-142460908D01*
X107752570Y-142457522D01*
X107817481Y-142454137D01*
X107817481Y-142622284D01*
X107817723Y-142687974D01*
X107818748Y-142734880D01*
X107821003Y-142766791D01*
X107824934Y-142787499D01*
X107830990Y-142800792D01*
X107839616Y-142810463D01*
X107839685Y-142810525D01*
X107873304Y-142828064D01*
X107909640Y-142827430D01*
X107940615Y-142809022D01*
X107943799Y-142805379D01*
X107952004Y-142792449D01*
X107957713Y-142774732D01*
X107961354Y-142748278D01*
X107963359Y-142709140D01*
X107964156Y-142653370D01*
X107964237Y-142617702D01*
X107964237Y-142455263D01*
X108122281Y-142455263D01*
X108122281Y-142701869D01*
X108122423Y-142783288D01*
X108123006Y-142845118D01*
X108124260Y-142890345D01*
X108126419Y-142921956D01*
X108129715Y-142942939D01*
X108134381Y-142956281D01*
X108140649Y-142964969D01*
X108142925Y-142967158D01*
X108174472Y-142983322D01*
X108210360Y-142984505D01*
X108241477Y-142971244D01*
X108251463Y-142960751D01*
X108256961Y-142949837D01*
X108261214Y-142932925D01*
X108264372Y-142907341D01*
X108266584Y-142870409D01*
X108267998Y-142819454D01*
X108268764Y-142751802D01*
X108269030Y-142664777D01*
X108269037Y-142645102D01*
X108268979Y-142556619D01*
X108268659Y-142487935D01*
X108267859Y-142436272D01*
X108266359Y-142398853D01*
X108263941Y-142372898D01*
X108260386Y-142355630D01*
X108255474Y-142344270D01*
X108248987Y-142336040D01*
X108244330Y-142331525D01*
X108236081Y-142324729D01*
X108225861Y-142319420D01*
X108210992Y-142315414D01*
X108188794Y-142312529D01*
X108156585Y-142310582D01*
X108111688Y-142309389D01*
X108051420Y-142308769D01*
X107973103Y-142308537D01*
X107907186Y-142308508D01*
X107814820Y-142308579D01*
X107742309Y-142308916D01*
X107686929Y-142309706D01*
X107645957Y-142311134D01*
X107616670Y-142313387D01*
X107596345Y-142316651D01*
X107582258Y-142321112D01*
X107571687Y-142326956D01*
X107565003Y-142331905D01*
X107535259Y-142355302D01*
X107535259Y-142645482D01*
X107535452Y-142742051D01*
G37*
X107535452Y-142742051D02*
X107536366Y-142818409D01*
X107538503Y-142876925D01*
X107542367Y-142919963D01*
X107548459Y-142949891D01*
X107557282Y-142969076D01*
X107569338Y-142979884D01*
X107585131Y-142984681D01*
X107605162Y-142985835D01*
X107607527Y-142985841D01*
X107630184Y-142984839D01*
X107647695Y-142980104D01*
X107660766Y-142969041D01*
X107670105Y-142949056D01*
X107676419Y-142917554D01*
X107680414Y-142871940D01*
X107682798Y-142809621D01*
X107684278Y-142728001D01*
X107684606Y-142702985D01*
X107687659Y-142460908D01*
X107752570Y-142457522D01*
X107817481Y-142454137D01*
X107817481Y-142622284D01*
X107817723Y-142687974D01*
X107818748Y-142734880D01*
X107821003Y-142766791D01*
X107824934Y-142787499D01*
X107830990Y-142800792D01*
X107839616Y-142810463D01*
X107839685Y-142810525D01*
X107873304Y-142828064D01*
X107909640Y-142827430D01*
X107940615Y-142809022D01*
X107943799Y-142805379D01*
X107952004Y-142792449D01*
X107957713Y-142774732D01*
X107961354Y-142748278D01*
X107963359Y-142709140D01*
X107964156Y-142653370D01*
X107964237Y-142617702D01*
X107964237Y-142455263D01*
X108122281Y-142455263D01*
X108122281Y-142701869D01*
X108122423Y-142783288D01*
X108123006Y-142845118D01*
X108124260Y-142890345D01*
X108126419Y-142921956D01*
X108129715Y-142942939D01*
X108134381Y-142956281D01*
X108140649Y-142964969D01*
X108142925Y-142967158D01*
X108174472Y-142983322D01*
X108210360Y-142984505D01*
X108241477Y-142971244D01*
X108251463Y-142960751D01*
X108256961Y-142949837D01*
X108261214Y-142932925D01*
X108264372Y-142907341D01*
X108266584Y-142870409D01*
X108267998Y-142819454D01*
X108268764Y-142751802D01*
X108269030Y-142664777D01*
X108269037Y-142645102D01*
X108268979Y-142556619D01*
X108268659Y-142487935D01*
X108267859Y-142436272D01*
X108266359Y-142398853D01*
X108263941Y-142372898D01*
X108260386Y-142355630D01*
X108255474Y-142344270D01*
X108248987Y-142336040D01*
X108244330Y-142331525D01*
X108236081Y-142324729D01*
X108225861Y-142319420D01*
X108210992Y-142315414D01*
X108188794Y-142312529D01*
X108156585Y-142310582D01*
X108111688Y-142309389D01*
X108051420Y-142308769D01*
X107973103Y-142308537D01*
X107907186Y-142308508D01*
X107814820Y-142308579D01*
X107742309Y-142308916D01*
X107686929Y-142309706D01*
X107645957Y-142311134D01*
X107616670Y-142313387D01*
X107596345Y-142316651D01*
X107582258Y-142321112D01*
X107571687Y-142326956D01*
X107565003Y-142331905D01*
X107535259Y-142355302D01*
X107535259Y-142645482D01*
X107535452Y-142742051D01*
G36*
X107535467Y-143530017D02*
G01*
X107539828Y-143658996D01*
X107553053Y-143768699D01*
X107575933Y-143860934D01*
X107609262Y-143937510D01*
X107653830Y-144000235D01*
X107710428Y-144050920D01*
X107779850Y-144091371D01*
X107781543Y-144092167D01*
X107843675Y-144116309D01*
X107898701Y-144124911D01*
X107954079Y-144117939D01*
X108017265Y-144095362D01*
X108026881Y-144091080D01*
X108083158Y-144061880D01*
X108126643Y-144029064D01*
X108163609Y-143986710D01*
X108200327Y-143928898D01*
X108202244Y-143925539D01*
X108226419Y-143875212D01*
X108244474Y-143818329D01*
X108257031Y-143751235D01*
X108264714Y-143670273D01*
X108268145Y-143571790D01*
X108268443Y-143536994D01*
X108269037Y-143371302D01*
X108239292Y-143347905D01*
X108229511Y-143340965D01*
X108218089Y-143335550D01*
X108202287Y-143331473D01*
X108179367Y-143328545D01*
X108146588Y-143326575D01*
X108122281Y-143325933D01*
X108122281Y-143482552D01*
X108122281Y-143576434D01*
X108120675Y-143631372D01*
X108116447Y-143687768D01*
X108110484Y-143734053D01*
X108109982Y-143736847D01*
X108087928Y-143819056D01*
X108054792Y-143882822D01*
X108009039Y-143930160D01*
X107949131Y-143963090D01*
X107933253Y-143968816D01*
X107908525Y-143974429D01*
X107884094Y-143971999D01*
X107851592Y-143960175D01*
X107835626Y-143953048D01*
X107793198Y-143929708D01*
X107763432Y-143901588D01*
X107742703Y-143870648D01*
X107715729Y-143808674D01*
X107696190Y-143729359D01*
X107684938Y-143636961D01*
X107682462Y-143570041D01*
X107682014Y-143482552D01*
X108122281Y-143482552D01*
X108122281Y-143325933D01*
X108101213Y-143325376D01*
X108040503Y-143324758D01*
X107961718Y-143324533D01*
X107900112Y-143324508D01*
X107590677Y-143324508D01*
X107562968Y-143352217D01*
X107551736Y-143364514D01*
X107544045Y-143377811D01*
X107539232Y-143396380D01*
X107536638Y-143424494D01*
X107535602Y-143466425D01*
X107535462Y-143526445D01*
X107535467Y-143530017D01*
G37*
X107535467Y-143530017D02*
X107539828Y-143658996D01*
X107553053Y-143768699D01*
X107575933Y-143860934D01*
X107609262Y-143937510D01*
X107653830Y-144000235D01*
X107710428Y-144050920D01*
X107779850Y-144091371D01*
X107781543Y-144092167D01*
X107843675Y-144116309D01*
X107898701Y-144124911D01*
X107954079Y-144117939D01*
X108017265Y-144095362D01*
X108026881Y-144091080D01*
X108083158Y-144061880D01*
X108126643Y-144029064D01*
X108163609Y-143986710D01*
X108200327Y-143928898D01*
X108202244Y-143925539D01*
X108226419Y-143875212D01*
X108244474Y-143818329D01*
X108257031Y-143751235D01*
X108264714Y-143670273D01*
X108268145Y-143571790D01*
X108268443Y-143536994D01*
X108269037Y-143371302D01*
X108239292Y-143347905D01*
X108229511Y-143340965D01*
X108218089Y-143335550D01*
X108202287Y-143331473D01*
X108179367Y-143328545D01*
X108146588Y-143326575D01*
X108122281Y-143325933D01*
X108122281Y-143482552D01*
X108122281Y-143576434D01*
X108120675Y-143631372D01*
X108116447Y-143687768D01*
X108110484Y-143734053D01*
X108109982Y-143736847D01*
X108087928Y-143819056D01*
X108054792Y-143882822D01*
X108009039Y-143930160D01*
X107949131Y-143963090D01*
X107933253Y-143968816D01*
X107908525Y-143974429D01*
X107884094Y-143971999D01*
X107851592Y-143960175D01*
X107835626Y-143953048D01*
X107793198Y-143929708D01*
X107763432Y-143901588D01*
X107742703Y-143870648D01*
X107715729Y-143808674D01*
X107696190Y-143729359D01*
X107684938Y-143636961D01*
X107682462Y-143570041D01*
X107682014Y-143482552D01*
X108122281Y-143482552D01*
X108122281Y-143325933D01*
X108101213Y-143325376D01*
X108040503Y-143324758D01*
X107961718Y-143324533D01*
X107900112Y-143324508D01*
X107590677Y-143324508D01*
X107562968Y-143352217D01*
X107551736Y-143364514D01*
X107544045Y-143377811D01*
X107539232Y-143396380D01*
X107536638Y-143424494D01*
X107535602Y-143466425D01*
X107535462Y-143526445D01*
X107535467Y-143530017D01*
G36*
X107537226Y-146256373D02*
G01*
X107544227Y-146275963D01*
X107544569Y-146276718D01*
X107564870Y-146303321D01*
X107585753Y-146317978D01*
X107595544Y-146320846D01*
X107608553Y-146320704D01*
X107627087Y-146316669D01*
X107653449Y-146307854D01*
X107689944Y-146293377D01*
X107738879Y-146272353D01*
X107802557Y-146243896D01*
X107883285Y-146207123D01*
X107927408Y-146186883D01*
X108006177Y-146150333D01*
X108078615Y-146116023D01*
X108142072Y-146085260D01*
X108193900Y-146059356D01*
X108231451Y-146039618D01*
X108252076Y-146027358D01*
X108254925Y-146024932D01*
X108267494Y-145993891D01*
X108265811Y-145958829D01*
X108250524Y-145930708D01*
X108249281Y-145929562D01*
X108232346Y-145918376D01*
X108199362Y-145899612D01*
X108154572Y-145875583D01*
X108102224Y-145848605D01*
X108082934Y-145838909D01*
X107936342Y-145765722D01*
X108095585Y-145685948D01*
X108150607Y-145657475D01*
X108198324Y-145631058D01*
X108235085Y-145608856D01*
X108257236Y-145593027D01*
X108261933Y-145587662D01*
X108268294Y-145545965D01*
X108254925Y-145511557D01*
X108240638Y-145501436D01*
X108208884Y-145483922D01*
X108162789Y-145460443D01*
X108105477Y-145432428D01*
X108040072Y-145401307D01*
X107969699Y-145368507D01*
X107897483Y-145335458D01*
X107826547Y-145303589D01*
X107760017Y-145274327D01*
X107701018Y-145249103D01*
X107652673Y-145229344D01*
X107618107Y-145216480D01*
X107600445Y-145211939D01*
X107599805Y-145211985D01*
X107577580Y-145223034D01*
X107554945Y-145245118D01*
X107553960Y-145246418D01*
X107538617Y-145273561D01*
X107538766Y-145298666D01*
X107541658Y-145308076D01*
X107547910Y-145319542D01*
X107560206Y-145331718D01*
X107581100Y-145346065D01*
X107613141Y-145364044D01*
X107658880Y-145387115D01*
X107720869Y-145416738D01*
X107778090Y-145443453D01*
X107844418Y-145474188D01*
X107904066Y-145501729D01*
X107953917Y-145524646D01*
X107990856Y-145541506D01*
X108011765Y-145550881D01*
X108015037Y-145552248D01*
X108009689Y-145558397D01*
X107987301Y-145572530D01*
X107951138Y-145592765D01*
X107904469Y-145617223D01*
X107885214Y-145626956D01*
X107820196Y-145659925D01*
X107772846Y-145685351D01*
X107740411Y-145705320D01*
X107720138Y-145721918D01*
X107709274Y-145737232D01*
X107705067Y-145753348D01*
X107704592Y-145763851D01*
X107706234Y-145782378D01*
X107713023Y-145798612D01*
X107727758Y-145814743D01*
X107753236Y-145832959D01*
X107792253Y-145855447D01*
X107847606Y-145884397D01*
X107879095Y-145900370D01*
X107929279Y-145926278D01*
X107970896Y-145948875D01*
X108000434Y-145966166D01*
X108014381Y-145976158D01*
X108014962Y-145977517D01*
X108003985Y-145983969D01*
X107975482Y-145998416D01*
X107932436Y-146019411D01*
X107877830Y-146045505D01*
X107814646Y-146075254D01*
X107783263Y-146089888D01*
X107702270Y-146127958D01*
X107639948Y-146158613D01*
X107594263Y-146183445D01*
X107563181Y-146204045D01*
X107544670Y-146222006D01*
X107536696Y-146238918D01*
X107537226Y-146256373D01*
G37*
X107537226Y-146256373D02*
X107544227Y-146275963D01*
X107544569Y-146276718D01*
X107564870Y-146303321D01*
X107585753Y-146317978D01*
X107595544Y-146320846D01*
X107608553Y-146320704D01*
X107627087Y-146316669D01*
X107653449Y-146307854D01*
X107689944Y-146293377D01*
X107738879Y-146272353D01*
X107802557Y-146243896D01*
X107883285Y-146207123D01*
X107927408Y-146186883D01*
X108006177Y-146150333D01*
X108078615Y-146116023D01*
X108142072Y-146085260D01*
X108193900Y-146059356D01*
X108231451Y-146039618D01*
X108252076Y-146027358D01*
X108254925Y-146024932D01*
X108267494Y-145993891D01*
X108265811Y-145958829D01*
X108250524Y-145930708D01*
X108249281Y-145929562D01*
X108232346Y-145918376D01*
X108199362Y-145899612D01*
X108154572Y-145875583D01*
X108102224Y-145848605D01*
X108082934Y-145838909D01*
X107936342Y-145765722D01*
X108095585Y-145685948D01*
X108150607Y-145657475D01*
X108198324Y-145631058D01*
X108235085Y-145608856D01*
X108257236Y-145593027D01*
X108261933Y-145587662D01*
X108268294Y-145545965D01*
X108254925Y-145511557D01*
X108240638Y-145501436D01*
X108208884Y-145483922D01*
X108162789Y-145460443D01*
X108105477Y-145432428D01*
X108040072Y-145401307D01*
X107969699Y-145368507D01*
X107897483Y-145335458D01*
X107826547Y-145303589D01*
X107760017Y-145274327D01*
X107701018Y-145249103D01*
X107652673Y-145229344D01*
X107618107Y-145216480D01*
X107600445Y-145211939D01*
X107599805Y-145211985D01*
X107577580Y-145223034D01*
X107554945Y-145245118D01*
X107553960Y-145246418D01*
X107538617Y-145273561D01*
X107538766Y-145298666D01*
X107541658Y-145308076D01*
X107547910Y-145319542D01*
X107560206Y-145331718D01*
X107581100Y-145346065D01*
X107613141Y-145364044D01*
X107658880Y-145387115D01*
X107720869Y-145416738D01*
X107778090Y-145443453D01*
X107844418Y-145474188D01*
X107904066Y-145501729D01*
X107953917Y-145524646D01*
X107990856Y-145541506D01*
X108011765Y-145550881D01*
X108015037Y-145552248D01*
X108009689Y-145558397D01*
X107987301Y-145572530D01*
X107951138Y-145592765D01*
X107904469Y-145617223D01*
X107885214Y-145626956D01*
X107820196Y-145659925D01*
X107772846Y-145685351D01*
X107740411Y-145705320D01*
X107720138Y-145721918D01*
X107709274Y-145737232D01*
X107705067Y-145753348D01*
X107704592Y-145763851D01*
X107706234Y-145782378D01*
X107713023Y-145798612D01*
X107727758Y-145814743D01*
X107753236Y-145832959D01*
X107792253Y-145855447D01*
X107847606Y-145884397D01*
X107879095Y-145900370D01*
X107929279Y-145926278D01*
X107970896Y-145948875D01*
X108000434Y-145966166D01*
X108014381Y-145976158D01*
X108014962Y-145977517D01*
X108003985Y-145983969D01*
X107975482Y-145998416D01*
X107932436Y-146019411D01*
X107877830Y-146045505D01*
X107814646Y-146075254D01*
X107783263Y-146089888D01*
X107702270Y-146127958D01*
X107639948Y-146158613D01*
X107594263Y-146183445D01*
X107563181Y-146204045D01*
X107544670Y-146222006D01*
X107536696Y-146238918D01*
X107537226Y-146256373D01*
G36*
X107542069Y-146700322D02*
G01*
X107556839Y-146724035D01*
X107578419Y-146750686D01*
X107899965Y-146750686D01*
X107994022Y-146750601D01*
X108068124Y-146750237D01*
X108124896Y-146749432D01*
X108166960Y-146748021D01*
X108196940Y-146745841D01*
X108217459Y-146742729D01*
X108231141Y-146738522D01*
X108240608Y-146733056D01*
X108245274Y-146729180D01*
X108265767Y-146697742D01*
X108264931Y-146661941D01*
X108247456Y-146630581D01*
X108225876Y-146603930D01*
X107578419Y-146603930D01*
X107556839Y-146630581D01*
X107541141Y-146656302D01*
X107535259Y-146677308D01*
X107542069Y-146700322D01*
G37*
X107542069Y-146700322D02*
X107556839Y-146724035D01*
X107578419Y-146750686D01*
X107899965Y-146750686D01*
X107994022Y-146750601D01*
X108068124Y-146750237D01*
X108124896Y-146749432D01*
X108166960Y-146748021D01*
X108196940Y-146745841D01*
X108217459Y-146742729D01*
X108231141Y-146738522D01*
X108240608Y-146733056D01*
X108245274Y-146729180D01*
X108265767Y-146697742D01*
X108264931Y-146661941D01*
X108247456Y-146630581D01*
X108225876Y-146603930D01*
X107578419Y-146603930D01*
X107556839Y-146630581D01*
X107541141Y-146656302D01*
X107535259Y-146677308D01*
X107542069Y-146700322D01*
G36*
X107535355Y-147474773D02*
G01*
X107535734Y-147553480D01*
X107536525Y-147614571D01*
X107537862Y-147660525D01*
X107539875Y-147693822D01*
X107542698Y-147716944D01*
X107546461Y-147732370D01*
X107551297Y-147742579D01*
X107555014Y-147747521D01*
X107587550Y-147773165D01*
X107621330Y-147776267D01*
X107652018Y-147760419D01*
X107664281Y-147750056D01*
X107672642Y-147738904D01*
X107677849Y-147722743D01*
X107680649Y-147697350D01*
X107681788Y-147658506D01*
X107682013Y-147601988D01*
X107682014Y-147590888D01*
X107682014Y-147444952D01*
X107952948Y-147444952D01*
X108038346Y-147444856D01*
X108104056Y-147444419D01*
X108152966Y-147443420D01*
X108187965Y-147441636D01*
X108211941Y-147438845D01*
X108227785Y-147434825D01*
X108238383Y-147429353D01*
X108246459Y-147422374D01*
X108266304Y-147389442D01*
X108264740Y-147355062D01*
X108242098Y-147323884D01*
X108239292Y-147321594D01*
X108228684Y-147314137D01*
X108216273Y-147308455D01*
X108199042Y-147304309D01*
X108173976Y-147301458D01*
X108138059Y-147299662D01*
X108088275Y-147298680D01*
X108021609Y-147298272D01*
X107945781Y-147298197D01*
X107682014Y-147298197D01*
X107682014Y-147158835D01*
X107681610Y-147099030D01*
X107680032Y-147057626D01*
X107676739Y-147030456D01*
X107671184Y-147013354D01*
X107662823Y-147002151D01*
X107661370Y-147000791D01*
X107628131Y-146984433D01*
X107590554Y-146985880D01*
X107557837Y-147004686D01*
X107551490Y-147011958D01*
X107546458Y-147021335D01*
X107542588Y-147035317D01*
X107539729Y-147056404D01*
X107537727Y-147087097D01*
X107536431Y-147129897D01*
X107535690Y-147187303D01*
X107535350Y-147261818D01*
X107535260Y-147355941D01*
X107535259Y-147375968D01*
X107535355Y-147474773D01*
G37*
X107535355Y-147474773D02*
X107535734Y-147553480D01*
X107536525Y-147614571D01*
X107537862Y-147660525D01*
X107539875Y-147693822D01*
X107542698Y-147716944D01*
X107546461Y-147732370D01*
X107551297Y-147742579D01*
X107555014Y-147747521D01*
X107587550Y-147773165D01*
X107621330Y-147776267D01*
X107652018Y-147760419D01*
X107664281Y-147750056D01*
X107672642Y-147738904D01*
X107677849Y-147722743D01*
X107680649Y-147697350D01*
X107681788Y-147658506D01*
X107682013Y-147601988D01*
X107682014Y-147590888D01*
X107682014Y-147444952D01*
X107952948Y-147444952D01*
X108038346Y-147444856D01*
X108104056Y-147444419D01*
X108152966Y-147443420D01*
X108187965Y-147441636D01*
X108211941Y-147438845D01*
X108227785Y-147434825D01*
X108238383Y-147429353D01*
X108246459Y-147422374D01*
X108266304Y-147389442D01*
X108264740Y-147355062D01*
X108242098Y-147323884D01*
X108239292Y-147321594D01*
X108228684Y-147314137D01*
X108216273Y-147308455D01*
X108199042Y-147304309D01*
X108173976Y-147301458D01*
X108138059Y-147299662D01*
X108088275Y-147298680D01*
X108021609Y-147298272D01*
X107945781Y-147298197D01*
X107682014Y-147298197D01*
X107682014Y-147158835D01*
X107681610Y-147099030D01*
X107680032Y-147057626D01*
X107676739Y-147030456D01*
X107671184Y-147013354D01*
X107662823Y-147002151D01*
X107661370Y-147000791D01*
X107628131Y-146984433D01*
X107590554Y-146985880D01*
X107557837Y-147004686D01*
X107551490Y-147011958D01*
X107546458Y-147021335D01*
X107542588Y-147035317D01*
X107539729Y-147056404D01*
X107537727Y-147087097D01*
X107536431Y-147129897D01*
X107535690Y-147187303D01*
X107535350Y-147261818D01*
X107535260Y-147355941D01*
X107535259Y-147375968D01*
X107535355Y-147474773D01*
G36*
X107540725Y-148740531D02*
G01*
X107562968Y-148771910D01*
X107590677Y-148799619D01*
X107900112Y-148799619D01*
X107991991Y-148799546D01*
X108064032Y-148799203D01*
X108118972Y-148798400D01*
X108159552Y-148796949D01*
X108188509Y-148794660D01*
X108208583Y-148791344D01*
X108222513Y-148786813D01*
X108233037Y-148780877D01*
X108239292Y-148776222D01*
X108263865Y-148745491D01*
X108266533Y-148710204D01*
X108251463Y-148677953D01*
X108242566Y-148667296D01*
X108230749Y-148660172D01*
X108211718Y-148655875D01*
X108181184Y-148653699D01*
X108134854Y-148652936D01*
X108099063Y-148652863D01*
X107964237Y-148652863D01*
X107964237Y-148156152D01*
X108086892Y-148156152D01*
X108142979Y-148155639D01*
X108181525Y-148153584D01*
X108207553Y-148149216D01*
X108226089Y-148141764D01*
X108239292Y-148132755D01*
X108263796Y-148101852D01*
X108266698Y-148066904D01*
X108249281Y-148033446D01*
X108240151Y-148024312D01*
X108228047Y-148017860D01*
X108209193Y-148013605D01*
X108179812Y-148011060D01*
X108136129Y-148009737D01*
X108074367Y-148009151D01*
X108060192Y-148009083D01*
X107943823Y-148008599D01*
X107847919Y-148008349D01*
X107770369Y-148008431D01*
X107709061Y-148008939D01*
X107661882Y-148009970D01*
X107626722Y-148011621D01*
X107601468Y-148013987D01*
X107584009Y-148017165D01*
X107572233Y-148021252D01*
X107564027Y-148026342D01*
X107557837Y-148031974D01*
X107538036Y-148063836D01*
X107540725Y-148097065D01*
X107562968Y-148128443D01*
X107577318Y-148141141D01*
X107593170Y-148149234D01*
X107615746Y-148153750D01*
X107650270Y-148155714D01*
X107701968Y-148156152D01*
X107817481Y-148156152D01*
X107817481Y-148652863D01*
X107698948Y-148652863D01*
X107644340Y-148653370D01*
X107607467Y-148655406D01*
X107583499Y-148659743D01*
X107567607Y-148667155D01*
X107557837Y-148675441D01*
X107538036Y-148707302D01*
X107540725Y-148740531D01*
G37*
X107540725Y-148740531D02*
X107562968Y-148771910D01*
X107590677Y-148799619D01*
X107900112Y-148799619D01*
X107991991Y-148799546D01*
X108064032Y-148799203D01*
X108118972Y-148798400D01*
X108159552Y-148796949D01*
X108188509Y-148794660D01*
X108208583Y-148791344D01*
X108222513Y-148786813D01*
X108233037Y-148780877D01*
X108239292Y-148776222D01*
X108263865Y-148745491D01*
X108266533Y-148710204D01*
X108251463Y-148677953D01*
X108242566Y-148667296D01*
X108230749Y-148660172D01*
X108211718Y-148655875D01*
X108181184Y-148653699D01*
X108134854Y-148652936D01*
X108099063Y-148652863D01*
X107964237Y-148652863D01*
X107964237Y-148156152D01*
X108086892Y-148156152D01*
X108142979Y-148155639D01*
X108181525Y-148153584D01*
X108207553Y-148149216D01*
X108226089Y-148141764D01*
X108239292Y-148132755D01*
X108263796Y-148101852D01*
X108266698Y-148066904D01*
X108249281Y-148033446D01*
X108240151Y-148024312D01*
X108228047Y-148017860D01*
X108209193Y-148013605D01*
X108179812Y-148011060D01*
X108136129Y-148009737D01*
X108074367Y-148009151D01*
X108060192Y-148009083D01*
X107943823Y-148008599D01*
X107847919Y-148008349D01*
X107770369Y-148008431D01*
X107709061Y-148008939D01*
X107661882Y-148009970D01*
X107626722Y-148011621D01*
X107601468Y-148013987D01*
X107584009Y-148017165D01*
X107572233Y-148021252D01*
X107564027Y-148026342D01*
X107557837Y-148031974D01*
X107538036Y-148063836D01*
X107540725Y-148097065D01*
X107562968Y-148128443D01*
X107577318Y-148141141D01*
X107593170Y-148149234D01*
X107615746Y-148153750D01*
X107650270Y-148155714D01*
X107701968Y-148156152D01*
X107817481Y-148156152D01*
X107817481Y-148652863D01*
X107698948Y-148652863D01*
X107644340Y-148653370D01*
X107607467Y-148655406D01*
X107583499Y-148659743D01*
X107567607Y-148667155D01*
X107557837Y-148675441D01*
X107538036Y-148707302D01*
X107540725Y-148740531D01*
G36*
X100936490Y-139773921D02*
G01*
X100972238Y-139877027D01*
X101028507Y-139973022D01*
X101105288Y-140058753D01*
X101202573Y-140131070D01*
X101263892Y-140163555D01*
X101349660Y-140191668D01*
X101448677Y-140205295D01*
X101550471Y-140203786D01*
X101642714Y-140187031D01*
X101755432Y-140141237D01*
X101853207Y-140074832D01*
X101934115Y-139991191D01*
X101996232Y-139893688D01*
X102037634Y-139785700D01*
X102056397Y-139670601D01*
X102050598Y-139551766D01*
X102038206Y-139493189D01*
X101993797Y-139379028D01*
X101926033Y-139277635D01*
X101837001Y-139191455D01*
X101728791Y-139122934D01*
X101716973Y-139117136D01*
X101672628Y-139097096D01*
X101635280Y-139084513D01*
X101595880Y-139077681D01*
X101545381Y-139074895D01*
X101490433Y-139074432D01*
X101424415Y-139075197D01*
X101376689Y-139078648D01*
X101338103Y-139086523D01*
X101299506Y-139100557D01*
X101261426Y-139117880D01*
X101153328Y-139182495D01*
X101065803Y-139262066D01*
X100998841Y-139353440D01*
X100952436Y-139453464D01*
X100926581Y-139558988D01*
X100921268Y-139666858D01*
X100936490Y-139773921D01*
G37*
X100936490Y-139773921D02*
X100972238Y-139877027D01*
X101028507Y-139973022D01*
X101105288Y-140058753D01*
X101202573Y-140131070D01*
X101263892Y-140163555D01*
X101349660Y-140191668D01*
X101448677Y-140205295D01*
X101550471Y-140203786D01*
X101642714Y-140187031D01*
X101755432Y-140141237D01*
X101853207Y-140074832D01*
X101934115Y-139991191D01*
X101996232Y-139893688D01*
X102037634Y-139785700D01*
X102056397Y-139670601D01*
X102050598Y-139551766D01*
X102038206Y-139493189D01*
X101993797Y-139379028D01*
X101926033Y-139277635D01*
X101837001Y-139191455D01*
X101728791Y-139122934D01*
X101716973Y-139117136D01*
X101672628Y-139097096D01*
X101635280Y-139084513D01*
X101595880Y-139077681D01*
X101545381Y-139074895D01*
X101490433Y-139074432D01*
X101424415Y-139075197D01*
X101376689Y-139078648D01*
X101338103Y-139086523D01*
X101299506Y-139100557D01*
X101261426Y-139117880D01*
X101153328Y-139182495D01*
X101065803Y-139262066D01*
X100998841Y-139353440D01*
X100952436Y-139453464D01*
X100926581Y-139558988D01*
X100921268Y-139666858D01*
X100936490Y-139773921D01*
G36*
X101856825Y-149342270D02*
G01*
X101857304Y-149459041D01*
X101857545Y-149498729D01*
X101861135Y-150044486D01*
X103954919Y-150051351D01*
X104238842Y-150052258D01*
X104496640Y-150053062D01*
X104729646Y-150053815D01*
X104939194Y-150054569D01*
X105126618Y-150055375D01*
X105293250Y-150056285D01*
X105440425Y-150057351D01*
X105569477Y-150058624D01*
X105681739Y-150060156D01*
X105778544Y-150061998D01*
X105861226Y-150064203D01*
X105931119Y-150066822D01*
X105989557Y-150069906D01*
X106037872Y-150073508D01*
X106077400Y-150077678D01*
X106109473Y-150082469D01*
X106135424Y-150087931D01*
X106156589Y-150094118D01*
X106174299Y-150101080D01*
X106189889Y-150108869D01*
X106204693Y-150117537D01*
X106220044Y-150127135D01*
X106237276Y-150137715D01*
X106240946Y-150139884D01*
X106303031Y-150176268D01*
X106299434Y-149650431D01*
X106295838Y-149124594D01*
X106180331Y-149117729D01*
X106124899Y-149113992D01*
X106092851Y-149110097D01*
X106080135Y-149104811D01*
X106082696Y-149096903D01*
X106090024Y-149090270D01*
X106116714Y-149061374D01*
X106151021Y-149014279D01*
X106188846Y-148955620D01*
X106226090Y-148892031D01*
X106258653Y-148830149D01*
X106280077Y-148782634D01*
X106315283Y-148671316D01*
X106340222Y-148543596D01*
X106353941Y-148408901D01*
X106355486Y-148276663D01*
X106343906Y-148156308D01*
X106343574Y-148154326D01*
X106302250Y-147989641D01*
X106236412Y-147835479D01*
X106147474Y-147693328D01*
X106036852Y-147564675D01*
X105905961Y-147451007D01*
X105756216Y-147353810D01*
X105589033Y-147274572D01*
X105465190Y-147231430D01*
X105361581Y-147202979D01*
X105261252Y-147181880D01*
X105158109Y-147167488D01*
X105046057Y-147159158D01*
X104919001Y-147156245D01*
X104815252Y-147157535D01*
X104815252Y-148170650D01*
X104989222Y-148175444D01*
X105138895Y-148190568D01*
X105265597Y-148216485D01*
X105370658Y-148253663D01*
X105455406Y-148302565D01*
X105521169Y-148363658D01*
X105567659Y-148434177D01*
X105585014Y-148470871D01*
X105595419Y-148502696D01*
X105600179Y-148538177D01*
X105600601Y-148585841D01*
X105598748Y-148637189D01*
X105589841Y-148738169D01*
X105572398Y-148818035D01*
X105563661Y-148843135D01*
X105537857Y-148900448D01*
X105505453Y-148960897D01*
X105489233Y-148987297D01*
X105444205Y-149055946D01*
X104016982Y-149055946D01*
X103971718Y-148980432D01*
X103920572Y-148875121D01*
X103890324Y-148767525D01*
X103880795Y-148661581D01*
X103891807Y-148561224D01*
X103923181Y-148470387D01*
X103974740Y-148393007D01*
X103999488Y-148368039D01*
X104080577Y-148307856D01*
X104178734Y-148259145D01*
X104295643Y-148221499D01*
X104432985Y-148194512D01*
X104592444Y-148177775D01*
X104775700Y-148170883D01*
X104815252Y-148170650D01*
X104815252Y-147157535D01*
X104772067Y-147158073D01*
X104546053Y-147169647D01*
X104342192Y-147192920D01*
X104157513Y-147228504D01*
X103989048Y-147277013D01*
X103833826Y-147339060D01*
X103787808Y-147361201D01*
X103637739Y-147450385D01*
X103504377Y-147558159D01*
X103389877Y-147681990D01*
X103296389Y-147819342D01*
X103226068Y-147967683D01*
X103197060Y-148056604D01*
X103179840Y-148143933D01*
X103169594Y-148249011D01*
X103166318Y-148363029D01*
X103170009Y-148477177D01*
X103180660Y-148582648D01*
X103197370Y-148667334D01*
X103230140Y-148768128D01*
X103272279Y-148865822D01*
X103319519Y-148951296D01*
X103351581Y-148996789D01*
X103375422Y-149028169D01*
X103389939Y-149050142D01*
X103392000Y-149055141D01*
X103378718Y-149056690D01*
X103340663Y-149058135D01*
X103280519Y-149059443D01*
X103200973Y-149060583D01*
X103104711Y-149061521D01*
X102994419Y-149062226D01*
X102872781Y-149062667D01*
X102748885Y-149062811D01*
X102590196Y-149062730D01*
X102456408Y-149062335D01*
X102344960Y-149061395D01*
X102253295Y-149059680D01*
X102178853Y-149056957D01*
X102119075Y-149052997D01*
X102071402Y-149047569D01*
X102033274Y-149040441D01*
X102002134Y-149031384D01*
X101975421Y-149020167D01*
X101950577Y-149006558D01*
X101925043Y-148990328D01*
X101921881Y-148988240D01*
X101888810Y-148967306D01*
X101866069Y-148954667D01*
X101861272Y-148952973D01*
X101859759Y-148966216D01*
X101858528Y-149004002D01*
X101857599Y-149063416D01*
X101856992Y-149141542D01*
X101856727Y-149235465D01*
X101856825Y-149342270D01*
G37*
X101856825Y-149342270D02*
X101857304Y-149459041D01*
X101857545Y-149498729D01*
X101861135Y-150044486D01*
X103954919Y-150051351D01*
X104238842Y-150052258D01*
X104496640Y-150053062D01*
X104729646Y-150053815D01*
X104939194Y-150054569D01*
X105126618Y-150055375D01*
X105293250Y-150056285D01*
X105440425Y-150057351D01*
X105569477Y-150058624D01*
X105681739Y-150060156D01*
X105778544Y-150061998D01*
X105861226Y-150064203D01*
X105931119Y-150066822D01*
X105989557Y-150069906D01*
X106037872Y-150073508D01*
X106077400Y-150077678D01*
X106109473Y-150082469D01*
X106135424Y-150087931D01*
X106156589Y-150094118D01*
X106174299Y-150101080D01*
X106189889Y-150108869D01*
X106204693Y-150117537D01*
X106220044Y-150127135D01*
X106237276Y-150137715D01*
X106240946Y-150139884D01*
X106303031Y-150176268D01*
X106299434Y-149650431D01*
X106295838Y-149124594D01*
X106180331Y-149117729D01*
X106124899Y-149113992D01*
X106092851Y-149110097D01*
X106080135Y-149104811D01*
X106082696Y-149096903D01*
X106090024Y-149090270D01*
X106116714Y-149061374D01*
X106151021Y-149014279D01*
X106188846Y-148955620D01*
X106226090Y-148892031D01*
X106258653Y-148830149D01*
X106280077Y-148782634D01*
X106315283Y-148671316D01*
X106340222Y-148543596D01*
X106353941Y-148408901D01*
X106355486Y-148276663D01*
X106343906Y-148156308D01*
X106343574Y-148154326D01*
X106302250Y-147989641D01*
X106236412Y-147835479D01*
X106147474Y-147693328D01*
X106036852Y-147564675D01*
X105905961Y-147451007D01*
X105756216Y-147353810D01*
X105589033Y-147274572D01*
X105465190Y-147231430D01*
X105361581Y-147202979D01*
X105261252Y-147181880D01*
X105158109Y-147167488D01*
X105046057Y-147159158D01*
X104919001Y-147156245D01*
X104815252Y-147157535D01*
X104815252Y-148170650D01*
X104989222Y-148175444D01*
X105138895Y-148190568D01*
X105265597Y-148216485D01*
X105370658Y-148253663D01*
X105455406Y-148302565D01*
X105521169Y-148363658D01*
X105567659Y-148434177D01*
X105585014Y-148470871D01*
X105595419Y-148502696D01*
X105600179Y-148538177D01*
X105600601Y-148585841D01*
X105598748Y-148637189D01*
X105589841Y-148738169D01*
X105572398Y-148818035D01*
X105563661Y-148843135D01*
X105537857Y-148900448D01*
X105505453Y-148960897D01*
X105489233Y-148987297D01*
X105444205Y-149055946D01*
X104016982Y-149055946D01*
X103971718Y-148980432D01*
X103920572Y-148875121D01*
X103890324Y-148767525D01*
X103880795Y-148661581D01*
X103891807Y-148561224D01*
X103923181Y-148470387D01*
X103974740Y-148393007D01*
X103999488Y-148368039D01*
X104080577Y-148307856D01*
X104178734Y-148259145D01*
X104295643Y-148221499D01*
X104432985Y-148194512D01*
X104592444Y-148177775D01*
X104775700Y-148170883D01*
X104815252Y-148170650D01*
X104815252Y-147157535D01*
X104772067Y-147158073D01*
X104546053Y-147169647D01*
X104342192Y-147192920D01*
X104157513Y-147228504D01*
X103989048Y-147277013D01*
X103833826Y-147339060D01*
X103787808Y-147361201D01*
X103637739Y-147450385D01*
X103504377Y-147558159D01*
X103389877Y-147681990D01*
X103296389Y-147819342D01*
X103226068Y-147967683D01*
X103197060Y-148056604D01*
X103179840Y-148143933D01*
X103169594Y-148249011D01*
X103166318Y-148363029D01*
X103170009Y-148477177D01*
X103180660Y-148582648D01*
X103197370Y-148667334D01*
X103230140Y-148768128D01*
X103272279Y-148865822D01*
X103319519Y-148951296D01*
X103351581Y-148996789D01*
X103375422Y-149028169D01*
X103389939Y-149050142D01*
X103392000Y-149055141D01*
X103378718Y-149056690D01*
X103340663Y-149058135D01*
X103280519Y-149059443D01*
X103200973Y-149060583D01*
X103104711Y-149061521D01*
X102994419Y-149062226D01*
X102872781Y-149062667D01*
X102748885Y-149062811D01*
X102590196Y-149062730D01*
X102456408Y-149062335D01*
X102344960Y-149061395D01*
X102253295Y-149059680D01*
X102178853Y-149056957D01*
X102119075Y-149052997D01*
X102071402Y-149047569D01*
X102033274Y-149040441D01*
X102002134Y-149031384D01*
X101975421Y-149020167D01*
X101950577Y-149006558D01*
X101925043Y-148990328D01*
X101921881Y-148988240D01*
X101888810Y-148967306D01*
X101866069Y-148954667D01*
X101861272Y-148952973D01*
X101859759Y-148966216D01*
X101858528Y-149004002D01*
X101857599Y-149063416D01*
X101856992Y-149141542D01*
X101856727Y-149235465D01*
X101856825Y-149342270D01*
G36*
X103164229Y-145667505D02*
G01*
X103169378Y-145735531D01*
X103195273Y-145930163D01*
X103236575Y-146102529D01*
X103293853Y-146253470D01*
X103367674Y-146383825D01*
X103458608Y-146494434D01*
X103567222Y-146586135D01*
X103694085Y-146659770D01*
X103831352Y-146713539D01*
X103875137Y-146727187D01*
X103916141Y-146739073D01*
X103956569Y-146749334D01*
X103998630Y-146758113D01*
X104044531Y-146765548D01*
X104096480Y-146771780D01*
X104156685Y-146776950D01*
X104227352Y-146781196D01*
X104310689Y-146784660D01*
X104408905Y-146787481D01*
X104524205Y-146789800D01*
X104658799Y-146791757D01*
X104814893Y-146793491D01*
X104994695Y-146795143D01*
X105135676Y-146796324D01*
X106103622Y-146804270D01*
X106196770Y-146855756D01*
X106241645Y-146880137D01*
X106276501Y-146898280D01*
X106295054Y-146906935D01*
X106296311Y-146907243D01*
X106297749Y-146894014D01*
X106299074Y-146856326D01*
X106300249Y-146797183D01*
X106301237Y-146719586D01*
X106301999Y-146626536D01*
X106302500Y-146521035D01*
X106302701Y-146406084D01*
X106302703Y-146392378D01*
X106302703Y-145877513D01*
X106186000Y-145877513D01*
X106133260Y-145876635D01*
X106092926Y-145874292D01*
X106071300Y-145870921D01*
X106069298Y-145869431D01*
X106077683Y-145855804D01*
X106099692Y-145827757D01*
X106130601Y-145791303D01*
X106131316Y-145790485D01*
X106180843Y-145723962D01*
X106230575Y-145639948D01*
X106275626Y-145547937D01*
X106311110Y-145457421D01*
X106323236Y-145417567D01*
X106338637Y-145338255D01*
X106348465Y-145240935D01*
X106352580Y-145134516D01*
X106350841Y-145027907D01*
X106343108Y-144930017D01*
X106331981Y-144861513D01*
X106282648Y-144693520D01*
X106212342Y-144542281D01*
X106121933Y-144408782D01*
X106012295Y-144294006D01*
X105884299Y-144198937D01*
X105738818Y-144124560D01*
X105650541Y-144092474D01*
X105564739Y-144072365D01*
X105461736Y-144059038D01*
X105351034Y-144052872D01*
X105334925Y-144053074D01*
X105334925Y-144981648D01*
X105417184Y-144989348D01*
X105485546Y-145014989D01*
X105548970Y-145062378D01*
X105567567Y-145080579D01*
X105617846Y-145145282D01*
X105650056Y-145220066D01*
X105665648Y-145309662D01*
X105666796Y-145404012D01*
X105659216Y-145493501D01*
X105644389Y-145562018D01*
X105633253Y-145591775D01*
X105602904Y-145645408D01*
X105560221Y-145702235D01*
X105512317Y-145754082D01*
X105466301Y-145792778D01*
X105449421Y-145803054D01*
X105425782Y-145811042D01*
X105388168Y-145816721D01*
X105332985Y-145820356D01*
X105256640Y-145822211D01*
X105183981Y-145822594D01*
X105099270Y-145822335D01*
X105038018Y-145821287D01*
X104996227Y-145819045D01*
X104969899Y-145815206D01*
X104955035Y-145809365D01*
X104947639Y-145801118D01*
X104946461Y-145798567D01*
X104942833Y-145776400D01*
X104939866Y-145732680D01*
X104937827Y-145673311D01*
X104936983Y-145604196D01*
X104936982Y-145589189D01*
X104938457Y-145496805D01*
X104942842Y-145425432D01*
X104950738Y-145368719D01*
X104962270Y-145321872D01*
X105006215Y-145205669D01*
X105060243Y-145114543D01*
X105125219Y-145047705D01*
X105202005Y-145004365D01*
X105291467Y-144983734D01*
X105334925Y-144981648D01*
X105334925Y-144053074D01*
X105242133Y-144054244D01*
X105144536Y-144063532D01*
X105105105Y-144070777D01*
X104958701Y-144117039D01*
X104823995Y-144187384D01*
X104702280Y-144280484D01*
X104594847Y-144395012D01*
X104502988Y-144529640D01*
X104427996Y-144683040D01*
X104382458Y-144813459D01*
X104358533Y-144900623D01*
X104339943Y-144983996D01*
X104326084Y-145068976D01*
X104316351Y-145160965D01*
X104310141Y-145265362D01*
X104306851Y-145387568D01*
X104305924Y-145498055D01*
X104305027Y-145825677D01*
X104206547Y-145819401D01*
X104099695Y-145801579D01*
X104007852Y-145763667D01*
X103933310Y-145707280D01*
X103878364Y-145634031D01*
X103851552Y-145569535D01*
X103834654Y-145477123D01*
X103832227Y-145367111D01*
X103843378Y-145244656D01*
X103867210Y-145114914D01*
X103902830Y-144983042D01*
X103949343Y-144854198D01*
X103991883Y-144760566D01*
X104013728Y-144715517D01*
X104028984Y-144681156D01*
X104034937Y-144663681D01*
X104034746Y-144662733D01*
X104021412Y-144656703D01*
X103986068Y-144641645D01*
X103932101Y-144618977D01*
X103862896Y-144590115D01*
X103781840Y-144556477D01*
X103699118Y-144522284D01*
X103367803Y-144385586D01*
X103351833Y-144482820D01*
X103343820Y-144524964D01*
X103330361Y-144588319D01*
X103312679Y-144667457D01*
X103291996Y-144756951D01*
X103269532Y-144851373D01*
X103260403Y-144888973D01*
X103222674Y-145051637D01*
X103194388Y-145194050D01*
X103174972Y-145321527D01*
X103163854Y-145439384D01*
X103160464Y-145552938D01*
X103164229Y-145667505D01*
G37*
X103164229Y-145667505D02*
X103169378Y-145735531D01*
X103195273Y-145930163D01*
X103236575Y-146102529D01*
X103293853Y-146253470D01*
X103367674Y-146383825D01*
X103458608Y-146494434D01*
X103567222Y-146586135D01*
X103694085Y-146659770D01*
X103831352Y-146713539D01*
X103875137Y-146727187D01*
X103916141Y-146739073D01*
X103956569Y-146749334D01*
X103998630Y-146758113D01*
X104044531Y-146765548D01*
X104096480Y-146771780D01*
X104156685Y-146776950D01*
X104227352Y-146781196D01*
X104310689Y-146784660D01*
X104408905Y-146787481D01*
X104524205Y-146789800D01*
X104658799Y-146791757D01*
X104814893Y-146793491D01*
X104994695Y-146795143D01*
X105135676Y-146796324D01*
X106103622Y-146804270D01*
X106196770Y-146855756D01*
X106241645Y-146880137D01*
X106276501Y-146898280D01*
X106295054Y-146906935D01*
X106296311Y-146907243D01*
X106297749Y-146894014D01*
X106299074Y-146856326D01*
X106300249Y-146797183D01*
X106301237Y-146719586D01*
X106301999Y-146626536D01*
X106302500Y-146521035D01*
X106302701Y-146406084D01*
X106302703Y-146392378D01*
X106302703Y-145877513D01*
X106186000Y-145877513D01*
X106133260Y-145876635D01*
X106092926Y-145874292D01*
X106071300Y-145870921D01*
X106069298Y-145869431D01*
X106077683Y-145855804D01*
X106099692Y-145827757D01*
X106130601Y-145791303D01*
X106131316Y-145790485D01*
X106180843Y-145723962D01*
X106230575Y-145639948D01*
X106275626Y-145547937D01*
X106311110Y-145457421D01*
X106323236Y-145417567D01*
X106338637Y-145338255D01*
X106348465Y-145240935D01*
X106352580Y-145134516D01*
X106350841Y-145027907D01*
X106343108Y-144930017D01*
X106331981Y-144861513D01*
X106282648Y-144693520D01*
X106212342Y-144542281D01*
X106121933Y-144408782D01*
X106012295Y-144294006D01*
X105884299Y-144198937D01*
X105738818Y-144124560D01*
X105650541Y-144092474D01*
X105564739Y-144072365D01*
X105461736Y-144059038D01*
X105351034Y-144052872D01*
X105334925Y-144053074D01*
X105334925Y-144981648D01*
X105417184Y-144989348D01*
X105485546Y-145014989D01*
X105548970Y-145062378D01*
X105567567Y-145080579D01*
X105617846Y-145145282D01*
X105650056Y-145220066D01*
X105665648Y-145309662D01*
X105666796Y-145404012D01*
X105659216Y-145493501D01*
X105644389Y-145562018D01*
X105633253Y-145591775D01*
X105602904Y-145645408D01*
X105560221Y-145702235D01*
X105512317Y-145754082D01*
X105466301Y-145792778D01*
X105449421Y-145803054D01*
X105425782Y-145811042D01*
X105388168Y-145816721D01*
X105332985Y-145820356D01*
X105256640Y-145822211D01*
X105183981Y-145822594D01*
X105099270Y-145822335D01*
X105038018Y-145821287D01*
X104996227Y-145819045D01*
X104969899Y-145815206D01*
X104955035Y-145809365D01*
X104947639Y-145801118D01*
X104946461Y-145798567D01*
X104942833Y-145776400D01*
X104939866Y-145732680D01*
X104937827Y-145673311D01*
X104936983Y-145604196D01*
X104936982Y-145589189D01*
X104938457Y-145496805D01*
X104942842Y-145425432D01*
X104950738Y-145368719D01*
X104962270Y-145321872D01*
X105006215Y-145205669D01*
X105060243Y-145114543D01*
X105125219Y-145047705D01*
X105202005Y-145004365D01*
X105291467Y-144983734D01*
X105334925Y-144981648D01*
X105334925Y-144053074D01*
X105242133Y-144054244D01*
X105144536Y-144063532D01*
X105105105Y-144070777D01*
X104958701Y-144117039D01*
X104823995Y-144187384D01*
X104702280Y-144280484D01*
X104594847Y-144395012D01*
X104502988Y-144529640D01*
X104427996Y-144683040D01*
X104382458Y-144813459D01*
X104358533Y-144900623D01*
X104339943Y-144983996D01*
X104326084Y-145068976D01*
X104316351Y-145160965D01*
X104310141Y-145265362D01*
X104306851Y-145387568D01*
X104305924Y-145498055D01*
X104305027Y-145825677D01*
X104206547Y-145819401D01*
X104099695Y-145801579D01*
X104007852Y-145763667D01*
X103933310Y-145707280D01*
X103878364Y-145634031D01*
X103851552Y-145569535D01*
X103834654Y-145477123D01*
X103832227Y-145367111D01*
X103843378Y-145244656D01*
X103867210Y-145114914D01*
X103902830Y-144983042D01*
X103949343Y-144854198D01*
X103991883Y-144760566D01*
X104013728Y-144715517D01*
X104028984Y-144681156D01*
X104034937Y-144663681D01*
X104034746Y-144662733D01*
X104021412Y-144656703D01*
X103986068Y-144641645D01*
X103932101Y-144618977D01*
X103862896Y-144590115D01*
X103781840Y-144556477D01*
X103699118Y-144522284D01*
X103367803Y-144385586D01*
X103351833Y-144482820D01*
X103343820Y-144524964D01*
X103330361Y-144588319D01*
X103312679Y-144667457D01*
X103291996Y-144756951D01*
X103269532Y-144851373D01*
X103260403Y-144888973D01*
X103222674Y-145051637D01*
X103194388Y-145194050D01*
X103174972Y-145321527D01*
X103163854Y-145439384D01*
X103160464Y-145552938D01*
X103164229Y-145667505D01*
G36*
X102060499Y-142939962D02*
G01*
X102076707Y-143088014D01*
X102105718Y-143231452D01*
X102149045Y-143376110D01*
X102208201Y-143527824D01*
X102284700Y-143692428D01*
X102299517Y-143722071D01*
X102333031Y-143790098D01*
X102363208Y-143854256D01*
X102387166Y-143908215D01*
X102402024Y-143945640D01*
X102403895Y-143951389D01*
X102420402Y-144006486D01*
X102779201Y-143759851D01*
X102866893Y-143699552D01*
X102947012Y-143644422D01*
X103016836Y-143596336D01*
X103073647Y-143557168D01*
X103114723Y-143528794D01*
X103137346Y-143513087D01*
X103140928Y-143510536D01*
X103133438Y-143500171D01*
X103110918Y-143474660D01*
X103077461Y-143438563D01*
X103058550Y-143418642D01*
X102968778Y-143305773D01*
X102900561Y-143179014D01*
X102863195Y-143069783D01*
X102851460Y-143004214D01*
X102844308Y-142922116D01*
X102841874Y-142833144D01*
X102844288Y-142746956D01*
X102851683Y-142673205D01*
X102857347Y-142643776D01*
X102902982Y-142511133D01*
X102972663Y-142391606D01*
X103066260Y-142285283D01*
X103183649Y-142192253D01*
X103324700Y-142112605D01*
X103489286Y-142046426D01*
X103677280Y-141993806D01*
X103838217Y-141962533D01*
X103909263Y-141954374D01*
X104001046Y-141948815D01*
X104106968Y-141945802D01*
X104220434Y-141945281D01*
X104334849Y-141947200D01*
X104443617Y-141951503D01*
X104540143Y-141958137D01*
X104617831Y-141967049D01*
X104629817Y-141968979D01*
X104822892Y-142011499D01*
X104993773Y-142069433D01*
X105143224Y-142143133D01*
X105272011Y-142232951D01*
X105341639Y-142296707D01*
X105436173Y-142411286D01*
X105506246Y-142536942D01*
X105551477Y-142671557D01*
X105571484Y-142813011D01*
X105565885Y-142959183D01*
X105534300Y-143107955D01*
X105503394Y-143195911D01*
X105441506Y-143317629D01*
X105352729Y-143443080D01*
X105292694Y-143513353D01*
X105257947Y-143552811D01*
X105232454Y-143583812D01*
X105220170Y-143601458D01*
X105219795Y-143603648D01*
X105232347Y-143611524D01*
X105265516Y-143631932D01*
X105316458Y-143663132D01*
X105382331Y-143703386D01*
X105460289Y-143750957D01*
X105547490Y-143804104D01*
X105596067Y-143833687D01*
X105967215Y-144059648D01*
X106106639Y-143777527D01*
X106156719Y-143675522D01*
X106196210Y-143592889D01*
X106227073Y-143524578D01*
X106251268Y-143465537D01*
X106270758Y-143410714D01*
X106287503Y-143355060D01*
X106303465Y-143293523D01*
X106317482Y-143234540D01*
X106328329Y-143182115D01*
X106336526Y-143127288D01*
X106342528Y-143064572D01*
X106346790Y-142988477D01*
X106349767Y-142893516D01*
X106351052Y-142829513D01*
X106351930Y-142738192D01*
X106351487Y-142650627D01*
X106349852Y-142572612D01*
X106347149Y-142509942D01*
X106343505Y-142468413D01*
X106343142Y-142465952D01*
X106296487Y-142250303D01*
X106225729Y-142047793D01*
X106130914Y-141858495D01*
X106012089Y-141682479D01*
X105869300Y-141519816D01*
X105702594Y-141370578D01*
X105554433Y-141262496D01*
X105360502Y-141147434D01*
X105155699Y-141054423D01*
X104938383Y-140983013D01*
X104706912Y-140932756D01*
X104459643Y-140903201D01*
X104208559Y-140893889D01*
X103965670Y-140901548D01*
X103741570Y-140925613D01*
X103532477Y-140966852D01*
X103334613Y-141026027D01*
X103144196Y-141103904D01*
X103124468Y-141113203D01*
X102940059Y-141215648D01*
X102764576Y-141341472D01*
X102601650Y-141487112D01*
X102454914Y-141649001D01*
X102328001Y-141823576D01*
X102234905Y-141986244D01*
X102161991Y-142150573D01*
X102109174Y-142315251D01*
X102075015Y-142486652D01*
X102058078Y-142671153D01*
X102055580Y-142781459D01*
X102060499Y-142939962D01*
G37*
X102060499Y-142939962D02*
X102076707Y-143088014D01*
X102105718Y-143231452D01*
X102149045Y-143376110D01*
X102208201Y-143527824D01*
X102284700Y-143692428D01*
X102299517Y-143722071D01*
X102333031Y-143790098D01*
X102363208Y-143854256D01*
X102387166Y-143908215D01*
X102402024Y-143945640D01*
X102403895Y-143951389D01*
X102420402Y-144006486D01*
X102779201Y-143759851D01*
X102866893Y-143699552D01*
X102947012Y-143644422D01*
X103016836Y-143596336D01*
X103073647Y-143557168D01*
X103114723Y-143528794D01*
X103137346Y-143513087D01*
X103140928Y-143510536D01*
X103133438Y-143500171D01*
X103110918Y-143474660D01*
X103077461Y-143438563D01*
X103058550Y-143418642D01*
X102968778Y-143305773D01*
X102900561Y-143179014D01*
X102863195Y-143069783D01*
X102851460Y-143004214D01*
X102844308Y-142922116D01*
X102841874Y-142833144D01*
X102844288Y-142746956D01*
X102851683Y-142673205D01*
X102857347Y-142643776D01*
X102902982Y-142511133D01*
X102972663Y-142391606D01*
X103066260Y-142285283D01*
X103183649Y-142192253D01*
X103324700Y-142112605D01*
X103489286Y-142046426D01*
X103677280Y-141993806D01*
X103838217Y-141962533D01*
X103909263Y-141954374D01*
X104001046Y-141948815D01*
X104106968Y-141945802D01*
X104220434Y-141945281D01*
X104334849Y-141947200D01*
X104443617Y-141951503D01*
X104540143Y-141958137D01*
X104617831Y-141967049D01*
X104629817Y-141968979D01*
X104822892Y-142011499D01*
X104993773Y-142069433D01*
X105143224Y-142143133D01*
X105272011Y-142232951D01*
X105341639Y-142296707D01*
X105436173Y-142411286D01*
X105506246Y-142536942D01*
X105551477Y-142671557D01*
X105571484Y-142813011D01*
X105565885Y-142959183D01*
X105534300Y-143107955D01*
X105503394Y-143195911D01*
X105441506Y-143317629D01*
X105352729Y-143443080D01*
X105292694Y-143513353D01*
X105257947Y-143552811D01*
X105232454Y-143583812D01*
X105220170Y-143601458D01*
X105219795Y-143603648D01*
X105232347Y-143611524D01*
X105265516Y-143631932D01*
X105316458Y-143663132D01*
X105382331Y-143703386D01*
X105460289Y-143750957D01*
X105547490Y-143804104D01*
X105596067Y-143833687D01*
X105967215Y-144059648D01*
X106106639Y-143777527D01*
X106156719Y-143675522D01*
X106196210Y-143592889D01*
X106227073Y-143524578D01*
X106251268Y-143465537D01*
X106270758Y-143410714D01*
X106287503Y-143355060D01*
X106303465Y-143293523D01*
X106317482Y-143234540D01*
X106328329Y-143182115D01*
X106336526Y-143127288D01*
X106342528Y-143064572D01*
X106346790Y-142988477D01*
X106349767Y-142893516D01*
X106351052Y-142829513D01*
X106351930Y-142738192D01*
X106351487Y-142650627D01*
X106349852Y-142572612D01*
X106347149Y-142509942D01*
X106343505Y-142468413D01*
X106343142Y-142465952D01*
X106296487Y-142250303D01*
X106225729Y-142047793D01*
X106130914Y-141858495D01*
X106012089Y-141682479D01*
X105869300Y-141519816D01*
X105702594Y-141370578D01*
X105554433Y-141262496D01*
X105360502Y-141147434D01*
X105155699Y-141054423D01*
X104938383Y-140983013D01*
X104706912Y-140932756D01*
X104459643Y-140903201D01*
X104208559Y-140893889D01*
X103965670Y-140901548D01*
X103741570Y-140925613D01*
X103532477Y-140966852D01*
X103334613Y-141026027D01*
X103144196Y-141103904D01*
X103124468Y-141113203D01*
X102940059Y-141215648D01*
X102764576Y-141341472D01*
X102601650Y-141487112D01*
X102454914Y-141649001D01*
X102328001Y-141823576D01*
X102234905Y-141986244D01*
X102161991Y-142150573D01*
X102109174Y-142315251D01*
X102075015Y-142486652D01*
X102058078Y-142671153D01*
X102055580Y-142781459D01*
X102060499Y-142939962D01*
G36*
X101373689Y-136544257D02*
G01*
X101373725Y-136808780D01*
X101373730Y-136931912D01*
X101373730Y-138902811D01*
X101489910Y-138902811D01*
X101631291Y-138915211D01*
X101761684Y-138952636D01*
X101881862Y-139015423D01*
X101992602Y-139103906D01*
X102022511Y-139133843D01*
X102107348Y-139241534D01*
X102169221Y-139360275D01*
X102208159Y-139486540D01*
X102224190Y-139616803D01*
X102217342Y-139747535D01*
X102187643Y-139875212D01*
X102135120Y-139996305D01*
X102059803Y-140107288D01*
X102014363Y-140157132D01*
X101902952Y-140250017D01*
X101780435Y-140318127D01*
X101648215Y-140360871D01*
X101507692Y-140377653D01*
X101493867Y-140377876D01*
X101373734Y-140378756D01*
X101373732Y-140431557D01*
X101380089Y-140478396D01*
X101395556Y-140521183D01*
X101397154Y-140524011D01*
X101402168Y-140533675D01*
X101406073Y-140542549D01*
X101410007Y-140550665D01*
X101415106Y-140558057D01*
X101422508Y-140564755D01*
X101433351Y-140570792D01*
X101448772Y-140576199D01*
X101469909Y-140581010D01*
X101497899Y-140585255D01*
X101533879Y-140588968D01*
X101578987Y-140592179D01*
X101634360Y-140594922D01*
X101701137Y-140597228D01*
X101780453Y-140599129D01*
X101873447Y-140600658D01*
X101981257Y-140601846D01*
X102105019Y-140602726D01*
X102245871Y-140603330D01*
X102404950Y-140603689D01*
X102583395Y-140603835D01*
X102782342Y-140603802D01*
X103002929Y-140603620D01*
X103246293Y-140603323D01*
X103513572Y-140602941D01*
X103805903Y-140602508D01*
X104124424Y-140602055D01*
X104163230Y-140602002D01*
X104483782Y-140601596D01*
X104778012Y-140601251D01*
X105047056Y-140600931D01*
X105292052Y-140600600D01*
X105514137Y-140600221D01*
X105714447Y-140599757D01*
X105894119Y-140599172D01*
X106054290Y-140598430D01*
X106196098Y-140597494D01*
X106320679Y-140596327D01*
X106429170Y-140594893D01*
X106522707Y-140593156D01*
X106602429Y-140591078D01*
X106669472Y-140588624D01*
X106724973Y-140585756D01*
X106770068Y-140582439D01*
X106805895Y-140578636D01*
X106833591Y-140574310D01*
X106854293Y-140569425D01*
X106869137Y-140563945D01*
X106879260Y-140557832D01*
X106885800Y-140551050D01*
X106889893Y-140543563D01*
X106892676Y-140535334D01*
X106895287Y-140526327D01*
X106898862Y-140516505D01*
X106899950Y-140514106D01*
X106902396Y-140506565D01*
X106904642Y-140493944D01*
X106906698Y-140475141D01*
X106908572Y-140449053D01*
X106910271Y-140414578D01*
X106911803Y-140370615D01*
X106913177Y-140316061D01*
X106914400Y-140249815D01*
X106915481Y-140170774D01*
X106916427Y-140077837D01*
X106917247Y-139969901D01*
X106917947Y-139845864D01*
X106918538Y-139704624D01*
X106919025Y-139545079D01*
X106919419Y-139366128D01*
X106919725Y-139166668D01*
X106919953Y-138945596D01*
X106920110Y-138701812D01*
X106920205Y-138434213D01*
X106920245Y-138141697D01*
X106920238Y-137823161D01*
X106920228Y-137719979D01*
X106920176Y-137394377D01*
X106920091Y-137095119D01*
X106919963Y-136821091D01*
X106919785Y-136571176D01*
X106919548Y-136344260D01*
X106919242Y-136139227D01*
X106918860Y-135954962D01*
X106918392Y-135790350D01*
X106917830Y-135644275D01*
X106917165Y-135515624D01*
X106916388Y-135403279D01*
X106915491Y-135306126D01*
X106914465Y-135223050D01*
X106913301Y-135152936D01*
X106911991Y-135094668D01*
X106910525Y-135047131D01*
X106908896Y-135009210D01*
X106907093Y-134979790D01*
X106905110Y-134957755D01*
X106902936Y-134941990D01*
X106900563Y-134931380D01*
X106898391Y-134925596D01*
X106894056Y-134915316D01*
X106890859Y-134905878D01*
X106887665Y-134897245D01*
X106883338Y-134889381D01*
X106876744Y-134882252D01*
X106866747Y-134875821D01*
X106852212Y-134870053D01*
X106832003Y-134864911D01*
X106804985Y-134860360D01*
X106770023Y-134856365D01*
X106725981Y-134852889D01*
X106671724Y-134849898D01*
X106606117Y-134847354D01*
X106528024Y-134845223D01*
X106436310Y-134843468D01*
X106329840Y-134842055D01*
X106288973Y-134841685D01*
X106288973Y-135208116D01*
X106288973Y-136503266D01*
X106251217Y-136478345D01*
X106212417Y-136453553D01*
X106175469Y-136432560D01*
X106137788Y-136415065D01*
X106096788Y-136400770D01*
X106049883Y-136389377D01*
X105994487Y-136380587D01*
X105928016Y-136374102D01*
X105847883Y-136369623D01*
X105751502Y-136366850D01*
X105636289Y-136365487D01*
X105499657Y-136365233D01*
X105339020Y-136365791D01*
X105279382Y-136366107D01*
X104640041Y-136369675D01*
X105191449Y-136774702D01*
X105347876Y-136889446D01*
X105484088Y-136988857D01*
X105601890Y-137074010D01*
X105703084Y-137145978D01*
X105789477Y-137205834D01*
X105862874Y-137254652D01*
X105925077Y-137293505D01*
X105977893Y-137323466D01*
X106023125Y-137345609D01*
X106062578Y-137361007D01*
X106098058Y-137370734D01*
X106131368Y-137375863D01*
X106164313Y-137377468D01*
X106198697Y-137376621D01*
X106203019Y-137376405D01*
X106289031Y-137371946D01*
X106288973Y-138791308D01*
X106182522Y-138685735D01*
X106153406Y-138657087D01*
X106125076Y-138629910D01*
X106095968Y-138603011D01*
X106064520Y-138575197D01*
X106029169Y-138545275D01*
X105988354Y-138512054D01*
X105940511Y-138474339D01*
X105884079Y-138430940D01*
X105817494Y-138380662D01*
X105739195Y-138322312D01*
X105647619Y-138254700D01*
X105541204Y-138176631D01*
X105418387Y-138086912D01*
X105277605Y-137984352D01*
X105117297Y-137867758D01*
X104985798Y-137772191D01*
X104820596Y-137652251D01*
X104676152Y-137547620D01*
X104551094Y-137457352D01*
X104444052Y-137380497D01*
X104353654Y-137316109D01*
X104278529Y-137263239D01*
X104217304Y-137220940D01*
X104168610Y-137188264D01*
X104131074Y-137164262D01*
X104103325Y-137147987D01*
X104083992Y-137138492D01*
X104071703Y-137134827D01*
X104065242Y-137135929D01*
X104048048Y-137149276D01*
X104011655Y-137178134D01*
X103958224Y-137220760D01*
X103889919Y-137275415D01*
X103808903Y-137340356D01*
X103717340Y-137413842D01*
X103617392Y-137494132D01*
X103511224Y-137579485D01*
X103400997Y-137668160D01*
X103288876Y-137758414D01*
X103227244Y-137808056D01*
X103227244Y-139040627D01*
X103319919Y-139091854D01*
X103412595Y-139143081D01*
X106103622Y-139143081D01*
X106196298Y-139091854D01*
X106288973Y-139040627D01*
X106288973Y-139646604D01*
X106288931Y-139791266D01*
X106288741Y-139910756D01*
X106288308Y-140007358D01*
X106287536Y-140083358D01*
X106286330Y-140141043D01*
X106284594Y-140182699D01*
X106282232Y-140210611D01*
X106279150Y-140227065D01*
X106275251Y-140234348D01*
X106270440Y-140234745D01*
X106264622Y-140230542D01*
X106264574Y-140230499D01*
X106239532Y-140213187D01*
X106198815Y-140190264D01*
X106158168Y-140170019D01*
X106076162Y-140131621D01*
X103227244Y-140123789D01*
X103227244Y-139040627D01*
X103227244Y-137808056D01*
X103177024Y-137848507D01*
X103067604Y-137936698D01*
X102962778Y-138021246D01*
X102864711Y-138100408D01*
X102775566Y-138172444D01*
X102697505Y-138235613D01*
X102632692Y-138288173D01*
X102583290Y-138328383D01*
X102554487Y-138352000D01*
X102446778Y-138443710D01*
X102349580Y-138531940D01*
X102266076Y-138613597D01*
X102199448Y-138685590D01*
X102158599Y-138736681D01*
X102115135Y-138797093D01*
X102115135Y-137407702D01*
X102196666Y-137408092D01*
X102256606Y-137404209D01*
X102312177Y-137389610D01*
X102364855Y-137367012D01*
X102394615Y-137352322D01*
X102424103Y-137336528D01*
X102455276Y-137318186D01*
X102490093Y-137295855D01*
X102530510Y-137268091D01*
X102578486Y-137233451D01*
X102635978Y-137190493D01*
X102704943Y-137137773D01*
X102787339Y-137073849D01*
X102885124Y-136997279D01*
X103000255Y-136906619D01*
X103134690Y-136800426D01*
X103149859Y-136788432D01*
X103679412Y-136369675D01*
X103092922Y-136365622D01*
X102917251Y-136364805D01*
X102768532Y-136364979D01*
X102646275Y-136366151D01*
X102549989Y-136368331D01*
X102479183Y-136371526D01*
X102433369Y-136375744D01*
X102424679Y-136377162D01*
X102333135Y-136399409D01*
X102250608Y-136428557D01*
X102184253Y-136461818D01*
X102156110Y-136481800D01*
X102115135Y-136516278D01*
X102115135Y-135862086D01*
X102115269Y-135706031D01*
X102115703Y-135575533D01*
X102116489Y-135468690D01*
X102117676Y-135383602D01*
X102119317Y-135318365D01*
X102121461Y-135271079D01*
X102124159Y-135239843D01*
X102127462Y-135222754D01*
X102131421Y-135217912D01*
X102132298Y-135218247D01*
X102153231Y-135232115D01*
X102186412Y-135255268D01*
X102203193Y-135267246D01*
X102219940Y-135279631D01*
X102234915Y-135290763D01*
X102249594Y-135300712D01*
X102265449Y-135309549D01*
X102283955Y-135317343D01*
X102306585Y-135324165D01*
X102334813Y-135330084D01*
X102370113Y-135335171D01*
X102413958Y-135339496D01*
X102467822Y-135343129D01*
X102533180Y-135346140D01*
X102611504Y-135348599D01*
X102704268Y-135350577D01*
X102812947Y-135352142D01*
X102939013Y-135353366D01*
X103083942Y-135354319D01*
X103249206Y-135355070D01*
X103436279Y-135355689D01*
X103646635Y-135356248D01*
X103881748Y-135356815D01*
X104097741Y-135357345D01*
X104338535Y-135357845D01*
X104568274Y-135358105D01*
X104785493Y-135358132D01*
X104988722Y-135357933D01*
X105176496Y-135357514D01*
X105347345Y-135356882D01*
X105499803Y-135356044D01*
X105632403Y-135355008D01*
X105743676Y-135353780D01*
X105832156Y-135352367D01*
X105896375Y-135350775D01*
X105934865Y-135349013D01*
X105938933Y-135348679D01*
X106032248Y-135336534D01*
X106107190Y-135317573D01*
X106172594Y-135288698D01*
X106237293Y-135246810D01*
X106244352Y-135241571D01*
X106288973Y-135208116D01*
X106288973Y-134841685D01*
X106207479Y-134840946D01*
X106068090Y-134840107D01*
X105910539Y-134839502D01*
X105733691Y-134839095D01*
X105536410Y-134838850D01*
X105317560Y-134838733D01*
X105076007Y-134838705D01*
X104810615Y-134838733D01*
X104520249Y-134838780D01*
X104203773Y-134838810D01*
X104140946Y-134838811D01*
X103821137Y-134838828D01*
X103527661Y-134838888D01*
X103259390Y-134838998D01*
X103015198Y-134839167D01*
X102793957Y-134839403D01*
X102594540Y-134839716D01*
X102415820Y-134840115D01*
X102256671Y-134840607D01*
X102115966Y-134841203D01*
X101992576Y-134841910D01*
X101885376Y-134842737D01*
X101793238Y-134843693D01*
X101715035Y-134844787D01*
X101649641Y-134846027D01*
X101595928Y-134847422D01*
X101552769Y-134848982D01*
X101519037Y-134850714D01*
X101493605Y-134852628D01*
X101475347Y-134854732D01*
X101463134Y-134857034D01*
X101455841Y-134859545D01*
X101455659Y-134859637D01*
X101444518Y-134864808D01*
X101434431Y-134869115D01*
X101425346Y-134873879D01*
X101417212Y-134880422D01*
X101409976Y-134890065D01*
X101403586Y-134904129D01*
X101397989Y-134923937D01*
X101393133Y-134950809D01*
X101388966Y-134986067D01*
X101385436Y-135031032D01*
X101382491Y-135087026D01*
X101380077Y-135155371D01*
X101378144Y-135237386D01*
X101376638Y-135334395D01*
X101375508Y-135447718D01*
X101374702Y-135578677D01*
X101374166Y-135728593D01*
X101373849Y-135898787D01*
X101373699Y-136090582D01*
X101373663Y-136305298D01*
X101373689Y-136544257D01*
G37*
X101373689Y-136544257D02*
X101373725Y-136808780D01*
X101373730Y-136931912D01*
X101373730Y-138902811D01*
X101489910Y-138902811D01*
X101631291Y-138915211D01*
X101761684Y-138952636D01*
X101881862Y-139015423D01*
X101992602Y-139103906D01*
X102022511Y-139133843D01*
X102107348Y-139241534D01*
X102169221Y-139360275D01*
X102208159Y-139486540D01*
X102224190Y-139616803D01*
X102217342Y-139747535D01*
X102187643Y-139875212D01*
X102135120Y-139996305D01*
X102059803Y-140107288D01*
X102014363Y-140157132D01*
X101902952Y-140250017D01*
X101780435Y-140318127D01*
X101648215Y-140360871D01*
X101507692Y-140377653D01*
X101493867Y-140377876D01*
X101373734Y-140378756D01*
X101373732Y-140431557D01*
X101380089Y-140478396D01*
X101395556Y-140521183D01*
X101397154Y-140524011D01*
X101402168Y-140533675D01*
X101406073Y-140542549D01*
X101410007Y-140550665D01*
X101415106Y-140558057D01*
X101422508Y-140564755D01*
X101433351Y-140570792D01*
X101448772Y-140576199D01*
X101469909Y-140581010D01*
X101497899Y-140585255D01*
X101533879Y-140588968D01*
X101578987Y-140592179D01*
X101634360Y-140594922D01*
X101701137Y-140597228D01*
X101780453Y-140599129D01*
X101873447Y-140600658D01*
X101981257Y-140601846D01*
X102105019Y-140602726D01*
X102245871Y-140603330D01*
X102404950Y-140603689D01*
X102583395Y-140603835D01*
X102782342Y-140603802D01*
X103002929Y-140603620D01*
X103246293Y-140603323D01*
X103513572Y-140602941D01*
X103805903Y-140602508D01*
X104124424Y-140602055D01*
X104163230Y-140602002D01*
X104483782Y-140601596D01*
X104778012Y-140601251D01*
X105047056Y-140600931D01*
X105292052Y-140600600D01*
X105514137Y-140600221D01*
X105714447Y-140599757D01*
X105894119Y-140599172D01*
X106054290Y-140598430D01*
X106196098Y-140597494D01*
X106320679Y-140596327D01*
X106429170Y-140594893D01*
X106522707Y-140593156D01*
X106602429Y-140591078D01*
X106669472Y-140588624D01*
X106724973Y-140585756D01*
X106770068Y-140582439D01*
X106805895Y-140578636D01*
X106833591Y-140574310D01*
X106854293Y-140569425D01*
X106869137Y-140563945D01*
X106879260Y-140557832D01*
X106885800Y-140551050D01*
X106889893Y-140543563D01*
X106892676Y-140535334D01*
X106895287Y-140526327D01*
X106898862Y-140516505D01*
X106899950Y-140514106D01*
X106902396Y-140506565D01*
X106904642Y-140493944D01*
X106906698Y-140475141D01*
X106908572Y-140449053D01*
X106910271Y-140414578D01*
X106911803Y-140370615D01*
X106913177Y-140316061D01*
X106914400Y-140249815D01*
X106915481Y-140170774D01*
X106916427Y-140077837D01*
X106917247Y-139969901D01*
X106917947Y-139845864D01*
X106918538Y-139704624D01*
X106919025Y-139545079D01*
X106919419Y-139366128D01*
X106919725Y-139166668D01*
X106919953Y-138945596D01*
X106920110Y-138701812D01*
X106920205Y-138434213D01*
X106920245Y-138141697D01*
X106920238Y-137823161D01*
X106920228Y-137719979D01*
X106920176Y-137394377D01*
X106920091Y-137095119D01*
X106919963Y-136821091D01*
X106919785Y-136571176D01*
X106919548Y-136344260D01*
X106919242Y-136139227D01*
X106918860Y-135954962D01*
X106918392Y-135790350D01*
X106917830Y-135644275D01*
X106917165Y-135515624D01*
X106916388Y-135403279D01*
X106915491Y-135306126D01*
X106914465Y-135223050D01*
X106913301Y-135152936D01*
X106911991Y-135094668D01*
X106910525Y-135047131D01*
X106908896Y-135009210D01*
X106907093Y-134979790D01*
X106905110Y-134957755D01*
X106902936Y-134941990D01*
X106900563Y-134931380D01*
X106898391Y-134925596D01*
X106894056Y-134915316D01*
X106890859Y-134905878D01*
X106887665Y-134897245D01*
X106883338Y-134889381D01*
X106876744Y-134882252D01*
X106866747Y-134875821D01*
X106852212Y-134870053D01*
X106832003Y-134864911D01*
X106804985Y-134860360D01*
X106770023Y-134856365D01*
X106725981Y-134852889D01*
X106671724Y-134849898D01*
X106606117Y-134847354D01*
X106528024Y-134845223D01*
X106436310Y-134843468D01*
X106329840Y-134842055D01*
X106288973Y-134841685D01*
X106288973Y-135208116D01*
X106288973Y-136503266D01*
X106251217Y-136478345D01*
X106212417Y-136453553D01*
X106175469Y-136432560D01*
X106137788Y-136415065D01*
X106096788Y-136400770D01*
X106049883Y-136389377D01*
X105994487Y-136380587D01*
X105928016Y-136374102D01*
X105847883Y-136369623D01*
X105751502Y-136366850D01*
X105636289Y-136365487D01*
X105499657Y-136365233D01*
X105339020Y-136365791D01*
X105279382Y-136366107D01*
X104640041Y-136369675D01*
X105191449Y-136774702D01*
X105347876Y-136889446D01*
X105484088Y-136988857D01*
X105601890Y-137074010D01*
X105703084Y-137145978D01*
X105789477Y-137205834D01*
X105862874Y-137254652D01*
X105925077Y-137293505D01*
X105977893Y-137323466D01*
X106023125Y-137345609D01*
X106062578Y-137361007D01*
X106098058Y-137370734D01*
X106131368Y-137375863D01*
X106164313Y-137377468D01*
X106198697Y-137376621D01*
X106203019Y-137376405D01*
X106289031Y-137371946D01*
X106288973Y-138791308D01*
X106182522Y-138685735D01*
X106153406Y-138657087D01*
X106125076Y-138629910D01*
X106095968Y-138603011D01*
X106064520Y-138575197D01*
X106029169Y-138545275D01*
X105988354Y-138512054D01*
X105940511Y-138474339D01*
X105884079Y-138430940D01*
X105817494Y-138380662D01*
X105739195Y-138322312D01*
X105647619Y-138254700D01*
X105541204Y-138176631D01*
X105418387Y-138086912D01*
X105277605Y-137984352D01*
X105117297Y-137867758D01*
X104985798Y-137772191D01*
X104820596Y-137652251D01*
X104676152Y-137547620D01*
X104551094Y-137457352D01*
X104444052Y-137380497D01*
X104353654Y-137316109D01*
X104278529Y-137263239D01*
X104217304Y-137220940D01*
X104168610Y-137188264D01*
X104131074Y-137164262D01*
X104103325Y-137147987D01*
X104083992Y-137138492D01*
X104071703Y-137134827D01*
X104065242Y-137135929D01*
X104048048Y-137149276D01*
X104011655Y-137178134D01*
X103958224Y-137220760D01*
X103889919Y-137275415D01*
X103808903Y-137340356D01*
X103717340Y-137413842D01*
X103617392Y-137494132D01*
X103511224Y-137579485D01*
X103400997Y-137668160D01*
X103288876Y-137758414D01*
X103227244Y-137808056D01*
X103227244Y-139040627D01*
X103319919Y-139091854D01*
X103412595Y-139143081D01*
X106103622Y-139143081D01*
X106196298Y-139091854D01*
X106288973Y-139040627D01*
X106288973Y-139646604D01*
X106288931Y-139791266D01*
X106288741Y-139910756D01*
X106288308Y-140007358D01*
X106287536Y-140083358D01*
X106286330Y-140141043D01*
X106284594Y-140182699D01*
X106282232Y-140210611D01*
X106279150Y-140227065D01*
X106275251Y-140234348D01*
X106270440Y-140234745D01*
X106264622Y-140230542D01*
X106264574Y-140230499D01*
X106239532Y-140213187D01*
X106198815Y-140190264D01*
X106158168Y-140170019D01*
X106076162Y-140131621D01*
X103227244Y-140123789D01*
X103227244Y-139040627D01*
X103227244Y-137808056D01*
X103177024Y-137848507D01*
X103067604Y-137936698D01*
X102962778Y-138021246D01*
X102864711Y-138100408D01*
X102775566Y-138172444D01*
X102697505Y-138235613D01*
X102632692Y-138288173D01*
X102583290Y-138328383D01*
X102554487Y-138352000D01*
X102446778Y-138443710D01*
X102349580Y-138531940D01*
X102266076Y-138613597D01*
X102199448Y-138685590D01*
X102158599Y-138736681D01*
X102115135Y-138797093D01*
X102115135Y-137407702D01*
X102196666Y-137408092D01*
X102256606Y-137404209D01*
X102312177Y-137389610D01*
X102364855Y-137367012D01*
X102394615Y-137352322D01*
X102424103Y-137336528D01*
X102455276Y-137318186D01*
X102490093Y-137295855D01*
X102530510Y-137268091D01*
X102578486Y-137233451D01*
X102635978Y-137190493D01*
X102704943Y-137137773D01*
X102787339Y-137073849D01*
X102885124Y-136997279D01*
X103000255Y-136906619D01*
X103134690Y-136800426D01*
X103149859Y-136788432D01*
X103679412Y-136369675D01*
X103092922Y-136365622D01*
X102917251Y-136364805D01*
X102768532Y-136364979D01*
X102646275Y-136366151D01*
X102549989Y-136368331D01*
X102479183Y-136371526D01*
X102433369Y-136375744D01*
X102424679Y-136377162D01*
X102333135Y-136399409D01*
X102250608Y-136428557D01*
X102184253Y-136461818D01*
X102156110Y-136481800D01*
X102115135Y-136516278D01*
X102115135Y-135862086D01*
X102115269Y-135706031D01*
X102115703Y-135575533D01*
X102116489Y-135468690D01*
X102117676Y-135383602D01*
X102119317Y-135318365D01*
X102121461Y-135271079D01*
X102124159Y-135239843D01*
X102127462Y-135222754D01*
X102131421Y-135217912D01*
X102132298Y-135218247D01*
X102153231Y-135232115D01*
X102186412Y-135255268D01*
X102203193Y-135267246D01*
X102219940Y-135279631D01*
X102234915Y-135290763D01*
X102249594Y-135300712D01*
X102265449Y-135309549D01*
X102283955Y-135317343D01*
X102306585Y-135324165D01*
X102334813Y-135330084D01*
X102370113Y-135335171D01*
X102413958Y-135339496D01*
X102467822Y-135343129D01*
X102533180Y-135346140D01*
X102611504Y-135348599D01*
X102704268Y-135350577D01*
X102812947Y-135352142D01*
X102939013Y-135353366D01*
X103083942Y-135354319D01*
X103249206Y-135355070D01*
X103436279Y-135355689D01*
X103646635Y-135356248D01*
X103881748Y-135356815D01*
X104097741Y-135357345D01*
X104338535Y-135357845D01*
X104568274Y-135358105D01*
X104785493Y-135358132D01*
X104988722Y-135357933D01*
X105176496Y-135357514D01*
X105347345Y-135356882D01*
X105499803Y-135356044D01*
X105632403Y-135355008D01*
X105743676Y-135353780D01*
X105832156Y-135352367D01*
X105896375Y-135350775D01*
X105934865Y-135349013D01*
X105938933Y-135348679D01*
X106032248Y-135336534D01*
X106107190Y-135317573D01*
X106172594Y-135288698D01*
X106237293Y-135246810D01*
X106244352Y-135241571D01*
X106288973Y-135208116D01*
X106288973Y-134841685D01*
X106207479Y-134840946D01*
X106068090Y-134840107D01*
X105910539Y-134839502D01*
X105733691Y-134839095D01*
X105536410Y-134838850D01*
X105317560Y-134838733D01*
X105076007Y-134838705D01*
X104810615Y-134838733D01*
X104520249Y-134838780D01*
X104203773Y-134838810D01*
X104140946Y-134838811D01*
X103821137Y-134838828D01*
X103527661Y-134838888D01*
X103259390Y-134838998D01*
X103015198Y-134839167D01*
X102793957Y-134839403D01*
X102594540Y-134839716D01*
X102415820Y-134840115D01*
X102256671Y-134840607D01*
X102115966Y-134841203D01*
X101992576Y-134841910D01*
X101885376Y-134842737D01*
X101793238Y-134843693D01*
X101715035Y-134844787D01*
X101649641Y-134846027D01*
X101595928Y-134847422D01*
X101552769Y-134848982D01*
X101519037Y-134850714D01*
X101493605Y-134852628D01*
X101475347Y-134854732D01*
X101463134Y-134857034D01*
X101455841Y-134859545D01*
X101455659Y-134859637D01*
X101444518Y-134864808D01*
X101434431Y-134869115D01*
X101425346Y-134873879D01*
X101417212Y-134880422D01*
X101409976Y-134890065D01*
X101403586Y-134904129D01*
X101397989Y-134923937D01*
X101393133Y-134950809D01*
X101388966Y-134986067D01*
X101385436Y-135031032D01*
X101382491Y-135087026D01*
X101380077Y-135155371D01*
X101378144Y-135237386D01*
X101376638Y-135334395D01*
X101375508Y-135447718D01*
X101374702Y-135578677D01*
X101374166Y-135728593D01*
X101373849Y-135898787D01*
X101373699Y-136090582D01*
X101373663Y-136305298D01*
X101373689Y-136544257D01*
%TD*%
M02*
