%TF.GenerationSoftware,KiCad,Pcbnew,(5.1.6)-1*%
%TF.CreationDate,2020-08-06T11:41:01+05:30*%
%TF.ProjectId,ESP32-BLE-Relay-Control-Board,45535033-322d-4424-9c45-2d52656c6179,rev?*%
%TF.SameCoordinates,Original*%
%TF.FileFunction,Copper,L2,Bot*%
%TF.FilePolarity,Positive*%
%FSLAX46Y46*%
G04 Gerber Fmt 4.6, Leading zero omitted, Abs format (unit mm)*
G04 Created by KiCad (PCBNEW (5.1.6)-1) date 2020-08-06 11:41:01*
%MOMM*%
%LPD*%
G01*
G04 APERTURE LIST*
%TA.AperFunction,EtchedComponent*%
%ADD10C,0.381000*%
%TD*%
%TA.AperFunction,ComponentPad*%
%ADD11O,1.700000X1.700000*%
%TD*%
%TA.AperFunction,ComponentPad*%
%ADD12R,1.700000X1.700000*%
%TD*%
%TA.AperFunction,ComponentPad*%
%ADD13C,1.400000*%
%TD*%
%TA.AperFunction,ComponentPad*%
%ADD14C,3.000000*%
%TD*%
%TA.AperFunction,ComponentPad*%
%ADD15R,3.000000X3.000000*%
%TD*%
%TA.AperFunction,ComponentPad*%
%ADD16C,2.400000*%
%TD*%
%TA.AperFunction,ComponentPad*%
%ADD17R,2.400000X2.400000*%
%TD*%
%TA.AperFunction,ComponentPad*%
%ADD18C,2.000000*%
%TD*%
%TA.AperFunction,ComponentPad*%
%ADD19O,1.600000X1.600000*%
%TD*%
%TA.AperFunction,ComponentPad*%
%ADD20R,1.600000X1.600000*%
%TD*%
%TA.AperFunction,ComponentPad*%
%ADD21C,2.500000*%
%TD*%
%TA.AperFunction,ViaPad*%
%ADD22C,0.800000*%
%TD*%
%TA.AperFunction,Conductor*%
%ADD23C,0.400000*%
%TD*%
%TA.AperFunction,Conductor*%
%ADD24C,2.000000*%
%TD*%
%TA.AperFunction,Conductor*%
%ADD25C,0.254000*%
%TD*%
G04 APERTURE END LIST*
D10*
%TO.C,REF\u002A\u002A*%
X126873000Y-82451000D02*
X126746000Y-82959000D01*
X128016000Y-84737000D02*
X126873000Y-82451000D01*
X126619000Y-84737000D02*
X128016000Y-84737000D01*
X128143000Y-87023000D02*
X126619000Y-84737000D01*
X128397000Y-86642000D02*
X128270000Y-87150000D01*
X129159000Y-87150000D02*
X128397000Y-86642000D01*
X127381000Y-85118000D02*
X129159000Y-87150000D01*
X128651000Y-85118000D02*
X127381000Y-85118000D01*
X126873000Y-82324000D02*
X128651000Y-85118000D01*
X127381000Y-82578000D02*
X126873000Y-82324000D01*
X126619000Y-81943000D02*
X127381000Y-82578000D01*
X126746000Y-82959000D02*
X126619000Y-81943000D01*
X127000000Y-84864000D02*
X128270000Y-84864000D01*
X128397000Y-86769000D02*
X127000000Y-84864000D01*
X107973000Y-82751000D02*
X107846000Y-83259000D01*
X109116000Y-85037000D02*
X107973000Y-82751000D01*
X107719000Y-85037000D02*
X109116000Y-85037000D01*
X109243000Y-87323000D02*
X107719000Y-85037000D01*
X109497000Y-86942000D02*
X109370000Y-87450000D01*
X110259000Y-87450000D02*
X109497000Y-86942000D01*
X108481000Y-85418000D02*
X110259000Y-87450000D01*
X109751000Y-85418000D02*
X108481000Y-85418000D01*
X107973000Y-82624000D02*
X109751000Y-85418000D01*
X108481000Y-82878000D02*
X107973000Y-82624000D01*
X107719000Y-82243000D02*
X108481000Y-82878000D01*
X107846000Y-83259000D02*
X107719000Y-82243000D01*
X108100000Y-85164000D02*
X109370000Y-85164000D01*
X109497000Y-87069000D02*
X108100000Y-85164000D01*
%TD*%
D11*
%TO.P,J6,3*%
%TO.N,GND*%
X113050000Y-141195000D03*
%TO.P,J6,2*%
%TO.N,ADC1_7*%
X113050000Y-143735000D03*
D12*
%TO.P,J6,1*%
%TO.N,+3V3*%
X113050000Y-146275000D03*
%TD*%
D13*
%TO.P,JP2-BOOT1,2*%
%TO.N,GND*%
X133500000Y-109460000D03*
%TO.P,JP2-BOOT1,1*%
%TO.N,/IO0*%
X133500000Y-112000000D03*
%TD*%
D11*
%TO.P,J5,6*%
%TO.N,GND*%
X131160000Y-136500000D03*
%TO.P,J5,5*%
%TO.N,Net-(J5-Pad5)*%
X128620000Y-136500000D03*
%TO.P,J5,4*%
%TO.N,3V3*%
X126080000Y-136500000D03*
%TO.P,J5,3*%
%TO.N,RX0*%
X123540000Y-136500000D03*
%TO.P,J5,2*%
%TO.N,TX0*%
X121000000Y-136500000D03*
D12*
%TO.P,J5,1*%
%TO.N,Net-(J5-Pad1)*%
X118460000Y-136500000D03*
%TD*%
D13*
%TO.P,JP1,2*%
%TO.N,+5V*%
X117500000Y-156000000D03*
%TO.P,JP1,1*%
%TO.N,+12V*%
X120040000Y-156000000D03*
%TD*%
D14*
%TO.P,J4,2*%
%TO.N,GND*%
X110080000Y-156000000D03*
D15*
%TO.P,J4,1*%
%TO.N,+5V*%
X105000000Y-156000000D03*
%TD*%
D14*
%TO.P,J3,2*%
%TO.N,GND*%
X132080000Y-156000000D03*
D15*
%TO.P,J3,1*%
%TO.N,+12V*%
X127000000Y-156000000D03*
%TD*%
D14*
%TO.P,J2,2*%
%TO.N,GND*%
X106420000Y-74500000D03*
D15*
%TO.P,J2,1*%
%TO.N,Net-(D6-Pad1)*%
X111500000Y-74500000D03*
%TD*%
D14*
%TO.P,J1,2*%
%TO.N,GND*%
X125420000Y-74500000D03*
D15*
%TO.P,J1,1*%
%TO.N,Net-(D5-Pad1)*%
X130500000Y-74500000D03*
%TD*%
D16*
%TO.P,C6,2*%
%TO.N,GND*%
X118500000Y-143500000D03*
D17*
%TO.P,C6,1*%
%TO.N,+5V*%
X118500000Y-151000000D03*
%TD*%
D18*
%TO.P,BOOT1,1*%
%TO.N,/IO0*%
X128500000Y-115500000D03*
%TO.P,BOOT1,2*%
%TO.N,GND*%
X133000000Y-115500000D03*
%TO.P,BOOT1,1*%
%TO.N,/IO0*%
X128500000Y-122000000D03*
%TO.P,BOOT1,2*%
%TO.N,GND*%
X133000000Y-122000000D03*
%TD*%
%TO.P,RST1,1*%
%TO.N,/EN*%
X128500000Y-126000000D03*
%TO.P,RST1,2*%
%TO.N,GND*%
X133000000Y-126000000D03*
%TO.P,RST1,1*%
%TO.N,/EN*%
X128500000Y-132500000D03*
%TO.P,RST1,2*%
%TO.N,GND*%
X133000000Y-132500000D03*
%TD*%
D19*
%TO.P,U3,4*%
%TO.N,+5V*%
X122000000Y-103880000D03*
%TO.P,U3,2*%
%TO.N,Net-(D4-Pad2)*%
X124540000Y-111500000D03*
%TO.P,U3,3*%
%TO.N,Net-(R4-Pad2)*%
X124540000Y-103880000D03*
D20*
%TO.P,U3,1*%
%TO.N,Net-(R3-Pad1)*%
X122000000Y-111500000D03*
%TD*%
D14*
%TO.P,K2,1*%
%TO.N,+12V*%
X128000000Y-99500000D03*
D21*
%TO.P,K2,5*%
%TO.N,+5V*%
X122050000Y-97550000D03*
D14*
%TO.P,K2,4*%
%TO.N,Net-(K2-Pad4)*%
X122000000Y-85300000D03*
%TO.P,K2,3*%
%TO.N,Net-(D5-Pad1)*%
X134050000Y-85350000D03*
D21*
%TO.P,K2,2*%
%TO.N,Net-(D1-Pad2)*%
X134050000Y-97550000D03*
%TD*%
D19*
%TO.P,U2,4*%
%TO.N,+5V*%
X103000000Y-103880000D03*
%TO.P,U2,2*%
%TO.N,Net-(D2-Pad2)*%
X105540000Y-111500000D03*
%TO.P,U2,3*%
%TO.N,Net-(R5-Pad2)*%
X105540000Y-103880000D03*
D20*
%TO.P,U2,1*%
%TO.N,Net-(R1-Pad1)*%
X103000000Y-111500000D03*
%TD*%
D14*
%TO.P,K1,1*%
%TO.N,+12V*%
X109000000Y-99500000D03*
D21*
%TO.P,K1,5*%
%TO.N,+5V*%
X103050000Y-97550000D03*
D14*
%TO.P,K1,4*%
%TO.N,Net-(K1-Pad4)*%
X103000000Y-85300000D03*
%TO.P,K1,3*%
%TO.N,Net-(D6-Pad1)*%
X115050000Y-85350000D03*
D21*
%TO.P,K1,2*%
%TO.N,Net-(D3-Pad2)*%
X115050000Y-97550000D03*
%TD*%
D22*
%TO.N,+5V*%
X131000000Y-118500000D03*
%TO.N,+3V3*%
X109500000Y-118000000D03*
X118750000Y-110750000D03*
%TO.N,+12V*%
X135774990Y-136774990D03*
%TO.N,IO26*%
X126500000Y-113000000D03*
X120000000Y-128500000D03*
%TO.N,IO25*%
X118000000Y-129000000D03*
X113500000Y-111500000D03*
%TO.N,RX0*%
X113000000Y-129000000D03*
%TO.N,TX0*%
X111000000Y-128500000D03*
%TO.N,ADC1_7*%
X115650000Y-136650000D03*
X115150000Y-134050000D03*
%TD*%
D23*
%TO.N,+5V*%
X131000000Y-118500000D02*
X131000000Y-108500000D01*
X131000000Y-108500000D02*
X129000000Y-106500000D01*
X124620000Y-106500000D02*
X122000000Y-103880000D01*
X129000000Y-106500000D02*
X124620000Y-106500000D01*
%TO.N,+3V3*%
X109500000Y-118000000D02*
X110500000Y-117000000D01*
X110500000Y-117000000D02*
X110500000Y-110500000D01*
X118750000Y-110750000D02*
X117500000Y-109500000D01*
X111500000Y-109500000D02*
X110500000Y-110500000D01*
X117500000Y-109500000D02*
X111500000Y-109500000D01*
D24*
%TO.N,+12V*%
X128000000Y-99500000D02*
X128000000Y-95000000D01*
X128000000Y-95000000D02*
X124500000Y-91500000D01*
X124500000Y-91500000D02*
X112500000Y-91500000D01*
X109000000Y-95000000D02*
X109000000Y-99500000D01*
X112500000Y-91500000D02*
X109000000Y-95000000D01*
X135774990Y-107274990D02*
X128000000Y-99500000D01*
X135774990Y-136774990D02*
X135774990Y-107274990D01*
X135774990Y-139500000D02*
X135774990Y-136774990D01*
X127000000Y-156000000D02*
X127000000Y-148274990D01*
X127000000Y-148274990D02*
X135774990Y-139500000D01*
X120040000Y-156000000D02*
X127000000Y-156000000D01*
%TO.N,Net-(D5-Pad1)*%
X134050000Y-78050000D02*
X130500000Y-74500000D01*
X134050000Y-85350000D02*
X134050000Y-78050000D01*
%TO.N,Net-(D6-Pad1)*%
X115050000Y-78050000D02*
X111500000Y-74500000D01*
X115050000Y-85350000D02*
X115050000Y-78050000D01*
D23*
%TO.N,IO26*%
X126500000Y-113000000D02*
X124500000Y-113000000D01*
X124500000Y-113000000D02*
X120000000Y-117500000D01*
X120000000Y-117500000D02*
X120000000Y-128500000D01*
%TO.N,IO25*%
X116500000Y-114500000D02*
X113500000Y-111500000D01*
X118000000Y-129000000D02*
X116500000Y-127500000D01*
X116500000Y-127500000D02*
X116500000Y-114500000D01*
%TO.N,RX0*%
X113000000Y-129000000D02*
X115000000Y-131000000D01*
X115000000Y-131000000D02*
X121500000Y-131000000D01*
X123540000Y-133040000D02*
X123540000Y-136500000D01*
X121500000Y-131000000D02*
X123540000Y-133040000D01*
%TO.N,TX0*%
X121000000Y-136500000D02*
X121000000Y-133500000D01*
X121000000Y-133500000D02*
X120000000Y-132500000D01*
X115000000Y-132500000D02*
X111000000Y-128500000D01*
X120000000Y-132500000D02*
X115000000Y-132500000D01*
%TO.N,ADC1_7*%
X115700000Y-134900000D02*
X115650000Y-136650000D01*
X115150000Y-134050000D02*
X115700000Y-134900000D01*
%TD*%
D25*
%TO.N,GND*%
G36*
X135259659Y-70688625D02*
G01*
X135509429Y-70764035D01*
X135739792Y-70886522D01*
X135941980Y-71051422D01*
X136108286Y-71252450D01*
X136232378Y-71481954D01*
X136309531Y-71731195D01*
X136340000Y-72021089D01*
X136340001Y-101467572D01*
X136340000Y-101467582D01*
X136340000Y-105527761D01*
X130135000Y-99322762D01*
X130135000Y-99289721D01*
X130052953Y-98877244D01*
X129892012Y-98488698D01*
X129658363Y-98139017D01*
X129635000Y-98115654D01*
X129635000Y-97364344D01*
X132165000Y-97364344D01*
X132165000Y-97735656D01*
X132237439Y-98099834D01*
X132379534Y-98442882D01*
X132585825Y-98751618D01*
X132848382Y-99014175D01*
X133157118Y-99220466D01*
X133500166Y-99362561D01*
X133864344Y-99435000D01*
X134235656Y-99435000D01*
X134599834Y-99362561D01*
X134942882Y-99220466D01*
X135251618Y-99014175D01*
X135514175Y-98751618D01*
X135720466Y-98442882D01*
X135862561Y-98099834D01*
X135935000Y-97735656D01*
X135935000Y-97364344D01*
X135862561Y-97000166D01*
X135720466Y-96657118D01*
X135514175Y-96348382D01*
X135251618Y-96085825D01*
X134942882Y-95879534D01*
X134599834Y-95737439D01*
X134235656Y-95665000D01*
X133864344Y-95665000D01*
X133500166Y-95737439D01*
X133157118Y-95879534D01*
X132848382Y-96085825D01*
X132585825Y-96348382D01*
X132379534Y-96657118D01*
X132237439Y-97000166D01*
X132165000Y-97364344D01*
X129635000Y-97364344D01*
X129635000Y-95080319D01*
X129642911Y-94999999D01*
X129635000Y-94919678D01*
X129611343Y-94679484D01*
X129517852Y-94371285D01*
X129366031Y-94087248D01*
X129161714Y-93838286D01*
X129099319Y-93787080D01*
X125712925Y-90400687D01*
X125661714Y-90338286D01*
X125412752Y-90133969D01*
X125128715Y-89982148D01*
X124820516Y-89888657D01*
X124580322Y-89865000D01*
X124580319Y-89865000D01*
X124500000Y-89857089D01*
X124419681Y-89865000D01*
X112580319Y-89865000D01*
X112499999Y-89857089D01*
X112419680Y-89865000D01*
X112419678Y-89865000D01*
X112179484Y-89888657D01*
X111871285Y-89982148D01*
X111587248Y-90133969D01*
X111338286Y-90338286D01*
X111287080Y-90400681D01*
X107900687Y-93787075D01*
X107838286Y-93838286D01*
X107633969Y-94087249D01*
X107482148Y-94371286D01*
X107388657Y-94679485D01*
X107365000Y-94919678D01*
X107357089Y-95000000D01*
X107365000Y-95080320D01*
X107365001Y-98115653D01*
X107341637Y-98139017D01*
X107107988Y-98488698D01*
X106947047Y-98877244D01*
X106865000Y-99289721D01*
X106865000Y-99710279D01*
X106947047Y-100122756D01*
X107107988Y-100511302D01*
X107341637Y-100860983D01*
X107639017Y-101158363D01*
X107988698Y-101392012D01*
X108377244Y-101552953D01*
X108789721Y-101635000D01*
X109210279Y-101635000D01*
X109622756Y-101552953D01*
X110011302Y-101392012D01*
X110360983Y-101158363D01*
X110658363Y-100860983D01*
X110892012Y-100511302D01*
X111052953Y-100122756D01*
X111135000Y-99710279D01*
X111135000Y-99289721D01*
X111052953Y-98877244D01*
X110892012Y-98488698D01*
X110658363Y-98139017D01*
X110635000Y-98115654D01*
X110635000Y-97364344D01*
X113165000Y-97364344D01*
X113165000Y-97735656D01*
X113237439Y-98099834D01*
X113379534Y-98442882D01*
X113585825Y-98751618D01*
X113848382Y-99014175D01*
X114157118Y-99220466D01*
X114500166Y-99362561D01*
X114864344Y-99435000D01*
X115235656Y-99435000D01*
X115599834Y-99362561D01*
X115942882Y-99220466D01*
X116251618Y-99014175D01*
X116514175Y-98751618D01*
X116720466Y-98442882D01*
X116862561Y-98099834D01*
X116935000Y-97735656D01*
X116935000Y-97364344D01*
X120165000Y-97364344D01*
X120165000Y-97735656D01*
X120237439Y-98099834D01*
X120379534Y-98442882D01*
X120585825Y-98751618D01*
X120848382Y-99014175D01*
X121157118Y-99220466D01*
X121500166Y-99362561D01*
X121864344Y-99435000D01*
X122235656Y-99435000D01*
X122599834Y-99362561D01*
X122942882Y-99220466D01*
X123251618Y-99014175D01*
X123514175Y-98751618D01*
X123720466Y-98442882D01*
X123862561Y-98099834D01*
X123935000Y-97735656D01*
X123935000Y-97364344D01*
X123862561Y-97000166D01*
X123720466Y-96657118D01*
X123514175Y-96348382D01*
X123251618Y-96085825D01*
X122942882Y-95879534D01*
X122599834Y-95737439D01*
X122235656Y-95665000D01*
X121864344Y-95665000D01*
X121500166Y-95737439D01*
X121157118Y-95879534D01*
X120848382Y-96085825D01*
X120585825Y-96348382D01*
X120379534Y-96657118D01*
X120237439Y-97000166D01*
X120165000Y-97364344D01*
X116935000Y-97364344D01*
X116862561Y-97000166D01*
X116720466Y-96657118D01*
X116514175Y-96348382D01*
X116251618Y-96085825D01*
X115942882Y-95879534D01*
X115599834Y-95737439D01*
X115235656Y-95665000D01*
X114864344Y-95665000D01*
X114500166Y-95737439D01*
X114157118Y-95879534D01*
X113848382Y-96085825D01*
X113585825Y-96348382D01*
X113379534Y-96657118D01*
X113237439Y-97000166D01*
X113165000Y-97364344D01*
X110635000Y-97364344D01*
X110635000Y-95677238D01*
X113177239Y-93135000D01*
X123822762Y-93135000D01*
X126365001Y-95677240D01*
X126365000Y-98115654D01*
X126341637Y-98139017D01*
X126107988Y-98488698D01*
X125947047Y-98877244D01*
X125865000Y-99289721D01*
X125865000Y-99710279D01*
X125947047Y-100122756D01*
X126107988Y-100511302D01*
X126341637Y-100860983D01*
X126639017Y-101158363D01*
X126988698Y-101392012D01*
X127377244Y-101552953D01*
X127789721Y-101635000D01*
X127822762Y-101635000D01*
X134139991Y-107952230D01*
X134139991Y-108285331D01*
X133943758Y-108194066D01*
X133688260Y-108131817D01*
X133425527Y-108120610D01*
X133165656Y-108160875D01*
X132918634Y-108251065D01*
X132817797Y-108304963D01*
X132758336Y-108538731D01*
X133500000Y-109280395D01*
X133514143Y-109266253D01*
X133693748Y-109445858D01*
X133679605Y-109460000D01*
X133693748Y-109474143D01*
X133514143Y-109653748D01*
X133500000Y-109639605D01*
X132758336Y-110381269D01*
X132817797Y-110615037D01*
X133056242Y-110725934D01*
X133075827Y-110730706D01*
X132867641Y-110816939D01*
X132648987Y-110963038D01*
X132463038Y-111148987D01*
X132316939Y-111367641D01*
X132216304Y-111610595D01*
X132165000Y-111868514D01*
X132165000Y-112131486D01*
X132216304Y-112389405D01*
X132316939Y-112632359D01*
X132463038Y-112851013D01*
X132648987Y-113036962D01*
X132867641Y-113183061D01*
X133110595Y-113283696D01*
X133368514Y-113335000D01*
X133631486Y-113335000D01*
X133889405Y-113283696D01*
X134132359Y-113183061D01*
X134139991Y-113177962D01*
X134139991Y-114317433D01*
X134071475Y-114248917D01*
X133955807Y-114364585D01*
X133860044Y-114100186D01*
X133570429Y-113959296D01*
X133258892Y-113877616D01*
X132937405Y-113858282D01*
X132618325Y-113902039D01*
X132313912Y-114007205D01*
X132139956Y-114100186D01*
X132044192Y-114364587D01*
X133000000Y-115320395D01*
X133014143Y-115306253D01*
X133193748Y-115485858D01*
X133179605Y-115500000D01*
X133193748Y-115514143D01*
X133014143Y-115693748D01*
X133000000Y-115679605D01*
X132044192Y-116635413D01*
X132139956Y-116899814D01*
X132429571Y-117040704D01*
X132741108Y-117122384D01*
X133062595Y-117141718D01*
X133381675Y-117097961D01*
X133686088Y-116992795D01*
X133860044Y-116899814D01*
X133955807Y-116635415D01*
X134071475Y-116751083D01*
X134139991Y-116682567D01*
X134139991Y-120817433D01*
X134071475Y-120748917D01*
X133955807Y-120864585D01*
X133860044Y-120600186D01*
X133570429Y-120459296D01*
X133258892Y-120377616D01*
X132937405Y-120358282D01*
X132618325Y-120402039D01*
X132313912Y-120507205D01*
X132139956Y-120600186D01*
X132044192Y-120864587D01*
X133000000Y-121820395D01*
X133014143Y-121806253D01*
X133193748Y-121985858D01*
X133179605Y-122000000D01*
X133193748Y-122014143D01*
X133014143Y-122193748D01*
X133000000Y-122179605D01*
X132044192Y-123135413D01*
X132139956Y-123399814D01*
X132429571Y-123540704D01*
X132741108Y-123622384D01*
X133062595Y-123641718D01*
X133381675Y-123597961D01*
X133686088Y-123492795D01*
X133860044Y-123399814D01*
X133955807Y-123135415D01*
X134071475Y-123251083D01*
X134139990Y-123182568D01*
X134139990Y-124817432D01*
X134071475Y-124748917D01*
X133955807Y-124864585D01*
X133860044Y-124600186D01*
X133570429Y-124459296D01*
X133258892Y-124377616D01*
X132937405Y-124358282D01*
X132618325Y-124402039D01*
X132313912Y-124507205D01*
X132139956Y-124600186D01*
X132044192Y-124864587D01*
X133000000Y-125820395D01*
X133014143Y-125806253D01*
X133193748Y-125985858D01*
X133179605Y-126000000D01*
X133193748Y-126014143D01*
X133014143Y-126193748D01*
X133000000Y-126179605D01*
X132044192Y-127135413D01*
X132139956Y-127399814D01*
X132429571Y-127540704D01*
X132741108Y-127622384D01*
X133062595Y-127641718D01*
X133381675Y-127597961D01*
X133686088Y-127492795D01*
X133860044Y-127399814D01*
X133955807Y-127135415D01*
X134071475Y-127251083D01*
X134139990Y-127182568D01*
X134139990Y-131317432D01*
X134071475Y-131248917D01*
X133955807Y-131364585D01*
X133860044Y-131100186D01*
X133570429Y-130959296D01*
X133258892Y-130877616D01*
X132937405Y-130858282D01*
X132618325Y-130902039D01*
X132313912Y-131007205D01*
X132139956Y-131100186D01*
X132044192Y-131364587D01*
X133000000Y-132320395D01*
X133014143Y-132306253D01*
X133193748Y-132485858D01*
X133179605Y-132500000D01*
X133193748Y-132514143D01*
X133014143Y-132693748D01*
X133000000Y-132679605D01*
X132044192Y-133635413D01*
X132139956Y-133899814D01*
X132429571Y-134040704D01*
X132741108Y-134122384D01*
X133062595Y-134141718D01*
X133381675Y-134097961D01*
X133686088Y-133992795D01*
X133860044Y-133899814D01*
X133955807Y-133635415D01*
X134071475Y-133751083D01*
X134139990Y-133682568D01*
X134139990Y-136855311D01*
X134139991Y-136855321D01*
X134139990Y-138822761D01*
X125900682Y-147062070D01*
X125838287Y-147113276D01*
X125633970Y-147362238D01*
X125482148Y-147646276D01*
X125388658Y-147954474D01*
X125357089Y-148274990D01*
X125365001Y-148355319D01*
X125365000Y-153877379D01*
X125255820Y-153910498D01*
X125145506Y-153969463D01*
X125048815Y-154048815D01*
X124969463Y-154145506D01*
X124910498Y-154255820D01*
X124877379Y-154365000D01*
X119959678Y-154365000D01*
X119719484Y-154388657D01*
X119411285Y-154482148D01*
X119127248Y-154633969D01*
X118878286Y-154838286D01*
X118673969Y-155087248D01*
X118594745Y-155235466D01*
X118536962Y-155148987D01*
X118351013Y-154963038D01*
X118132359Y-154816939D01*
X117889405Y-154716304D01*
X117631486Y-154665000D01*
X117368514Y-154665000D01*
X117110595Y-154716304D01*
X116867641Y-154816939D01*
X116648987Y-154963038D01*
X116463038Y-155148987D01*
X116316939Y-155367641D01*
X116216304Y-155610595D01*
X116165000Y-155868514D01*
X116165000Y-156131486D01*
X116216304Y-156389405D01*
X116316939Y-156632359D01*
X116463038Y-156851013D01*
X116648987Y-157036962D01*
X116867641Y-157183061D01*
X117110595Y-157283696D01*
X117368514Y-157335000D01*
X117631486Y-157335000D01*
X117889405Y-157283696D01*
X118132359Y-157183061D01*
X118351013Y-157036962D01*
X118536962Y-156851013D01*
X118594745Y-156764534D01*
X118673969Y-156912752D01*
X118878286Y-157161714D01*
X119127248Y-157366031D01*
X119411285Y-157517852D01*
X119719484Y-157611343D01*
X119959678Y-157635000D01*
X124877379Y-157635000D01*
X124910498Y-157744180D01*
X124969463Y-157854494D01*
X125048815Y-157951185D01*
X125145506Y-158030537D01*
X125255820Y-158089502D01*
X125375518Y-158125812D01*
X125500000Y-158138072D01*
X128500000Y-158138072D01*
X128624482Y-158125812D01*
X128744180Y-158089502D01*
X128854494Y-158030537D01*
X128951185Y-157951185D01*
X129030537Y-157854494D01*
X129089502Y-157744180D01*
X129125812Y-157624482D01*
X129138072Y-157500000D01*
X129138072Y-157491653D01*
X130767952Y-157491653D01*
X130923962Y-157807214D01*
X131298745Y-157998020D01*
X131703551Y-158112044D01*
X132122824Y-158144902D01*
X132540451Y-158095334D01*
X132940383Y-157965243D01*
X133236038Y-157807214D01*
X133392048Y-157491653D01*
X132080000Y-156179605D01*
X130767952Y-157491653D01*
X129138072Y-157491653D01*
X129138072Y-156042824D01*
X129935098Y-156042824D01*
X129984666Y-156460451D01*
X130114757Y-156860383D01*
X130272786Y-157156038D01*
X130588347Y-157312048D01*
X131900395Y-156000000D01*
X132259605Y-156000000D01*
X133571653Y-157312048D01*
X133887214Y-157156038D01*
X134078020Y-156781255D01*
X134192044Y-156376449D01*
X134224902Y-155957176D01*
X134175334Y-155539549D01*
X134045243Y-155139617D01*
X133887214Y-154843962D01*
X133571653Y-154687952D01*
X132259605Y-156000000D01*
X131900395Y-156000000D01*
X130588347Y-154687952D01*
X130272786Y-154843962D01*
X130081980Y-155218745D01*
X129967956Y-155623551D01*
X129935098Y-156042824D01*
X129138072Y-156042824D01*
X129138072Y-154508347D01*
X130767952Y-154508347D01*
X132080000Y-155820395D01*
X133392048Y-154508347D01*
X133236038Y-154192786D01*
X132861255Y-154001980D01*
X132456449Y-153887956D01*
X132037176Y-153855098D01*
X131619549Y-153904666D01*
X131219617Y-154034757D01*
X130923962Y-154192786D01*
X130767952Y-154508347D01*
X129138072Y-154508347D01*
X129138072Y-154500000D01*
X129125812Y-154375518D01*
X129089502Y-154255820D01*
X129030537Y-154145506D01*
X128951185Y-154048815D01*
X128854494Y-153969463D01*
X128744180Y-153910498D01*
X128635000Y-153877379D01*
X128635000Y-148952228D01*
X136340001Y-141247228D01*
X136340001Y-146467581D01*
X136340000Y-157967721D01*
X136311375Y-158259660D01*
X136235965Y-158509429D01*
X136113477Y-158739794D01*
X135948579Y-158941979D01*
X135747546Y-159108288D01*
X135518046Y-159232378D01*
X135268805Y-159309531D01*
X134978911Y-159340000D01*
X102032279Y-159340000D01*
X101740340Y-159311375D01*
X101490571Y-159235965D01*
X101260206Y-159113477D01*
X101058021Y-158948579D01*
X100891712Y-158747546D01*
X100767622Y-158518046D01*
X100690469Y-158268805D01*
X100660000Y-157978911D01*
X100660000Y-154500000D01*
X102861928Y-154500000D01*
X102861928Y-157500000D01*
X102874188Y-157624482D01*
X102910498Y-157744180D01*
X102969463Y-157854494D01*
X103048815Y-157951185D01*
X103145506Y-158030537D01*
X103255820Y-158089502D01*
X103375518Y-158125812D01*
X103500000Y-158138072D01*
X106500000Y-158138072D01*
X106624482Y-158125812D01*
X106744180Y-158089502D01*
X106854494Y-158030537D01*
X106951185Y-157951185D01*
X107030537Y-157854494D01*
X107089502Y-157744180D01*
X107125812Y-157624482D01*
X107138072Y-157500000D01*
X107138072Y-157491653D01*
X108767952Y-157491653D01*
X108923962Y-157807214D01*
X109298745Y-157998020D01*
X109703551Y-158112044D01*
X110122824Y-158144902D01*
X110540451Y-158095334D01*
X110940383Y-157965243D01*
X111236038Y-157807214D01*
X111392048Y-157491653D01*
X110080000Y-156179605D01*
X108767952Y-157491653D01*
X107138072Y-157491653D01*
X107138072Y-156042824D01*
X107935098Y-156042824D01*
X107984666Y-156460451D01*
X108114757Y-156860383D01*
X108272786Y-157156038D01*
X108588347Y-157312048D01*
X109900395Y-156000000D01*
X110259605Y-156000000D01*
X111571653Y-157312048D01*
X111887214Y-157156038D01*
X112078020Y-156781255D01*
X112192044Y-156376449D01*
X112224902Y-155957176D01*
X112175334Y-155539549D01*
X112045243Y-155139617D01*
X111887214Y-154843962D01*
X111571653Y-154687952D01*
X110259605Y-156000000D01*
X109900395Y-156000000D01*
X108588347Y-154687952D01*
X108272786Y-154843962D01*
X108081980Y-155218745D01*
X107967956Y-155623551D01*
X107935098Y-156042824D01*
X107138072Y-156042824D01*
X107138072Y-154508347D01*
X108767952Y-154508347D01*
X110080000Y-155820395D01*
X111392048Y-154508347D01*
X111236038Y-154192786D01*
X110861255Y-154001980D01*
X110456449Y-153887956D01*
X110037176Y-153855098D01*
X109619549Y-153904666D01*
X109219617Y-154034757D01*
X108923962Y-154192786D01*
X108767952Y-154508347D01*
X107138072Y-154508347D01*
X107138072Y-154500000D01*
X107125812Y-154375518D01*
X107089502Y-154255820D01*
X107030537Y-154145506D01*
X106951185Y-154048815D01*
X106854494Y-153969463D01*
X106744180Y-153910498D01*
X106624482Y-153874188D01*
X106500000Y-153861928D01*
X103500000Y-153861928D01*
X103375518Y-153874188D01*
X103255820Y-153910498D01*
X103145506Y-153969463D01*
X103048815Y-154048815D01*
X102969463Y-154145506D01*
X102910498Y-154255820D01*
X102874188Y-154375518D01*
X102861928Y-154500000D01*
X100660000Y-154500000D01*
X100660000Y-149800000D01*
X116661928Y-149800000D01*
X116661928Y-152200000D01*
X116674188Y-152324482D01*
X116710498Y-152444180D01*
X116769463Y-152554494D01*
X116848815Y-152651185D01*
X116945506Y-152730537D01*
X117055820Y-152789502D01*
X117175518Y-152825812D01*
X117300000Y-152838072D01*
X119700000Y-152838072D01*
X119824482Y-152825812D01*
X119944180Y-152789502D01*
X120054494Y-152730537D01*
X120151185Y-152651185D01*
X120230537Y-152554494D01*
X120289502Y-152444180D01*
X120325812Y-152324482D01*
X120338072Y-152200000D01*
X120338072Y-149800000D01*
X120325812Y-149675518D01*
X120289502Y-149555820D01*
X120230537Y-149445506D01*
X120151185Y-149348815D01*
X120054494Y-149269463D01*
X119944180Y-149210498D01*
X119824482Y-149174188D01*
X119700000Y-149161928D01*
X117300000Y-149161928D01*
X117175518Y-149174188D01*
X117055820Y-149210498D01*
X116945506Y-149269463D01*
X116848815Y-149348815D01*
X116769463Y-149445506D01*
X116710498Y-149555820D01*
X116674188Y-149675518D01*
X116661928Y-149800000D01*
X100660000Y-149800000D01*
X100660000Y-145425000D01*
X111561928Y-145425000D01*
X111561928Y-147125000D01*
X111574188Y-147249482D01*
X111610498Y-147369180D01*
X111669463Y-147479494D01*
X111748815Y-147576185D01*
X111845506Y-147655537D01*
X111955820Y-147714502D01*
X112075518Y-147750812D01*
X112200000Y-147763072D01*
X113900000Y-147763072D01*
X114024482Y-147750812D01*
X114144180Y-147714502D01*
X114254494Y-147655537D01*
X114351185Y-147576185D01*
X114430537Y-147479494D01*
X114489502Y-147369180D01*
X114525812Y-147249482D01*
X114538072Y-147125000D01*
X114538072Y-145425000D01*
X114525812Y-145300518D01*
X114489502Y-145180820D01*
X114430537Y-145070506D01*
X114351185Y-144973815D01*
X114254494Y-144894463D01*
X114144180Y-144835498D01*
X114071620Y-144813487D01*
X114107127Y-144777980D01*
X117401626Y-144777980D01*
X117521514Y-145062836D01*
X117845210Y-145223699D01*
X118194069Y-145318322D01*
X118554684Y-145343067D01*
X118913198Y-145296985D01*
X119255833Y-145181846D01*
X119478486Y-145062836D01*
X119598374Y-144777980D01*
X118500000Y-143679605D01*
X117401626Y-144777980D01*
X114107127Y-144777980D01*
X114203475Y-144681632D01*
X114365990Y-144438411D01*
X114477932Y-144168158D01*
X114535000Y-143881260D01*
X114535000Y-143588740D01*
X114528226Y-143554684D01*
X116656933Y-143554684D01*
X116703015Y-143913198D01*
X116818154Y-144255833D01*
X116937164Y-144478486D01*
X117222020Y-144598374D01*
X118320395Y-143500000D01*
X118679605Y-143500000D01*
X119777980Y-144598374D01*
X120062836Y-144478486D01*
X120223699Y-144154790D01*
X120318322Y-143805931D01*
X120343067Y-143445316D01*
X120296985Y-143086802D01*
X120181846Y-142744167D01*
X120062836Y-142521514D01*
X119777980Y-142401626D01*
X118679605Y-143500000D01*
X118320395Y-143500000D01*
X117222020Y-142401626D01*
X116937164Y-142521514D01*
X116776301Y-142845210D01*
X116681678Y-143194069D01*
X116656933Y-143554684D01*
X114528226Y-143554684D01*
X114477932Y-143301842D01*
X114365990Y-143031589D01*
X114203475Y-142788368D01*
X113996632Y-142581525D01*
X113814466Y-142459805D01*
X113931355Y-142390178D01*
X114117910Y-142222020D01*
X117401626Y-142222020D01*
X118500000Y-143320395D01*
X119598374Y-142222020D01*
X119478486Y-141937164D01*
X119154790Y-141776301D01*
X118805931Y-141681678D01*
X118445316Y-141656933D01*
X118086802Y-141703015D01*
X117744167Y-141818154D01*
X117521514Y-141937164D01*
X117401626Y-142222020D01*
X114117910Y-142222020D01*
X114147588Y-142195269D01*
X114321641Y-141961920D01*
X114446825Y-141699099D01*
X114491476Y-141551890D01*
X114370155Y-141322000D01*
X113177000Y-141322000D01*
X113177000Y-141342000D01*
X112923000Y-141342000D01*
X112923000Y-141322000D01*
X111729845Y-141322000D01*
X111608524Y-141551890D01*
X111653175Y-141699099D01*
X111778359Y-141961920D01*
X111952412Y-142195269D01*
X112168645Y-142390178D01*
X112285534Y-142459805D01*
X112103368Y-142581525D01*
X111896525Y-142788368D01*
X111734010Y-143031589D01*
X111622068Y-143301842D01*
X111565000Y-143588740D01*
X111565000Y-143881260D01*
X111622068Y-144168158D01*
X111734010Y-144438411D01*
X111896525Y-144681632D01*
X112028380Y-144813487D01*
X111955820Y-144835498D01*
X111845506Y-144894463D01*
X111748815Y-144973815D01*
X111669463Y-145070506D01*
X111610498Y-145180820D01*
X111574188Y-145300518D01*
X111561928Y-145425000D01*
X100660000Y-145425000D01*
X100660000Y-140838110D01*
X111608524Y-140838110D01*
X111729845Y-141068000D01*
X112923000Y-141068000D01*
X112923000Y-139874186D01*
X113177000Y-139874186D01*
X113177000Y-141068000D01*
X114370155Y-141068000D01*
X114491476Y-140838110D01*
X114446825Y-140690901D01*
X114321641Y-140428080D01*
X114147588Y-140194731D01*
X113931355Y-139999822D01*
X113681252Y-139850843D01*
X113406891Y-139753519D01*
X113177000Y-139874186D01*
X112923000Y-139874186D01*
X112693109Y-139753519D01*
X112418748Y-139850843D01*
X112168645Y-139999822D01*
X111952412Y-140194731D01*
X111778359Y-140428080D01*
X111653175Y-140690901D01*
X111608524Y-140838110D01*
X100660000Y-140838110D01*
X100660000Y-133660000D01*
X105967581Y-133660000D01*
X106000000Y-133663193D01*
X106032419Y-133660000D01*
X106129383Y-133650450D01*
X106253793Y-133612710D01*
X106368450Y-133551425D01*
X106468948Y-133468948D01*
X106551425Y-133368450D01*
X106612710Y-133253793D01*
X106650450Y-133129383D01*
X106663193Y-133000000D01*
X106660000Y-132967581D01*
X106660000Y-128398061D01*
X109965000Y-128398061D01*
X109965000Y-128601939D01*
X110004774Y-128801898D01*
X110082795Y-128990256D01*
X110196063Y-129159774D01*
X110340226Y-129303937D01*
X110509744Y-129417205D01*
X110698102Y-129495226D01*
X110843226Y-129524093D01*
X114380559Y-133061427D01*
X114406709Y-133093291D01*
X114533854Y-133197636D01*
X114549881Y-133206203D01*
X114490226Y-133246063D01*
X114346063Y-133390226D01*
X114232795Y-133559744D01*
X114154774Y-133748102D01*
X114115000Y-133948061D01*
X114115000Y-134151939D01*
X114154774Y-134351898D01*
X114232795Y-134540256D01*
X114346063Y-134709774D01*
X114490226Y-134853937D01*
X114659744Y-134967205D01*
X114781586Y-135017674D01*
X114857927Y-135135656D01*
X114832950Y-136009851D01*
X114732795Y-136159744D01*
X114654774Y-136348102D01*
X114615000Y-136548061D01*
X114615000Y-136751939D01*
X114654774Y-136951898D01*
X114732795Y-137140256D01*
X114846063Y-137309774D01*
X114990226Y-137453937D01*
X115159744Y-137567205D01*
X115348102Y-137645226D01*
X115548061Y-137685000D01*
X115751939Y-137685000D01*
X115951898Y-137645226D01*
X116140256Y-137567205D01*
X116309774Y-137453937D01*
X116453937Y-137309774D01*
X116567205Y-137140256D01*
X116645226Y-136951898D01*
X116685000Y-136751939D01*
X116685000Y-136548061D01*
X116645226Y-136348102D01*
X116567205Y-136159744D01*
X116502130Y-136062352D01*
X116533652Y-134959072D01*
X116538948Y-134912370D01*
X116532574Y-134836144D01*
X116527257Y-134759881D01*
X116525727Y-134754266D01*
X116525242Y-134748462D01*
X116504118Y-134674940D01*
X116484025Y-134601183D01*
X116481429Y-134595974D01*
X116479821Y-134590377D01*
X116444762Y-134522394D01*
X116410664Y-134453969D01*
X116381900Y-134416805D01*
X116185000Y-134112504D01*
X116185000Y-133948061D01*
X116145226Y-133748102D01*
X116067205Y-133559744D01*
X115953937Y-133390226D01*
X115898711Y-133335000D01*
X119654132Y-133335000D01*
X120165001Y-133845869D01*
X120165000Y-135271935D01*
X120053368Y-135346525D01*
X119921513Y-135478380D01*
X119899502Y-135405820D01*
X119840537Y-135295506D01*
X119761185Y-135198815D01*
X119664494Y-135119463D01*
X119554180Y-135060498D01*
X119434482Y-135024188D01*
X119310000Y-135011928D01*
X117610000Y-135011928D01*
X117485518Y-135024188D01*
X117365820Y-135060498D01*
X117255506Y-135119463D01*
X117158815Y-135198815D01*
X117079463Y-135295506D01*
X117020498Y-135405820D01*
X116984188Y-135525518D01*
X116971928Y-135650000D01*
X116971928Y-137350000D01*
X116984188Y-137474482D01*
X117020498Y-137594180D01*
X117079463Y-137704494D01*
X117158815Y-137801185D01*
X117255506Y-137880537D01*
X117365820Y-137939502D01*
X117485518Y-137975812D01*
X117610000Y-137988072D01*
X119310000Y-137988072D01*
X119434482Y-137975812D01*
X119554180Y-137939502D01*
X119664494Y-137880537D01*
X119761185Y-137801185D01*
X119840537Y-137704494D01*
X119899502Y-137594180D01*
X119921513Y-137521620D01*
X120053368Y-137653475D01*
X120296589Y-137815990D01*
X120566842Y-137927932D01*
X120853740Y-137985000D01*
X121146260Y-137985000D01*
X121433158Y-137927932D01*
X121703411Y-137815990D01*
X121946632Y-137653475D01*
X122153475Y-137446632D01*
X122270000Y-137272240D01*
X122386525Y-137446632D01*
X122593368Y-137653475D01*
X122836589Y-137815990D01*
X123106842Y-137927932D01*
X123393740Y-137985000D01*
X123686260Y-137985000D01*
X123973158Y-137927932D01*
X124243411Y-137815990D01*
X124486632Y-137653475D01*
X124693475Y-137446632D01*
X124810000Y-137272240D01*
X124926525Y-137446632D01*
X125133368Y-137653475D01*
X125376589Y-137815990D01*
X125646842Y-137927932D01*
X125933740Y-137985000D01*
X126226260Y-137985000D01*
X126513158Y-137927932D01*
X126783411Y-137815990D01*
X127026632Y-137653475D01*
X127233475Y-137446632D01*
X127350000Y-137272240D01*
X127466525Y-137446632D01*
X127673368Y-137653475D01*
X127916589Y-137815990D01*
X128186842Y-137927932D01*
X128473740Y-137985000D01*
X128766260Y-137985000D01*
X129053158Y-137927932D01*
X129323411Y-137815990D01*
X129566632Y-137653475D01*
X129773475Y-137446632D01*
X129895195Y-137264466D01*
X129964822Y-137381355D01*
X130159731Y-137597588D01*
X130393080Y-137771641D01*
X130655901Y-137896825D01*
X130803110Y-137941476D01*
X131033000Y-137820155D01*
X131033000Y-136627000D01*
X131287000Y-136627000D01*
X131287000Y-137820155D01*
X131516890Y-137941476D01*
X131664099Y-137896825D01*
X131926920Y-137771641D01*
X132160269Y-137597588D01*
X132355178Y-137381355D01*
X132504157Y-137131252D01*
X132601481Y-136856891D01*
X132480814Y-136627000D01*
X131287000Y-136627000D01*
X131033000Y-136627000D01*
X131013000Y-136627000D01*
X131013000Y-136373000D01*
X131033000Y-136373000D01*
X131033000Y-135179845D01*
X131287000Y-135179845D01*
X131287000Y-136373000D01*
X132480814Y-136373000D01*
X132601481Y-136143109D01*
X132504157Y-135868748D01*
X132355178Y-135618645D01*
X132160269Y-135402412D01*
X131926920Y-135228359D01*
X131664099Y-135103175D01*
X131516890Y-135058524D01*
X131287000Y-135179845D01*
X131033000Y-135179845D01*
X130803110Y-135058524D01*
X130655901Y-135103175D01*
X130393080Y-135228359D01*
X130159731Y-135402412D01*
X129964822Y-135618645D01*
X129895195Y-135735534D01*
X129773475Y-135553368D01*
X129566632Y-135346525D01*
X129323411Y-135184010D01*
X129053158Y-135072068D01*
X128766260Y-135015000D01*
X128473740Y-135015000D01*
X128186842Y-135072068D01*
X127916589Y-135184010D01*
X127673368Y-135346525D01*
X127466525Y-135553368D01*
X127350000Y-135727760D01*
X127233475Y-135553368D01*
X127026632Y-135346525D01*
X126783411Y-135184010D01*
X126513158Y-135072068D01*
X126226260Y-135015000D01*
X125933740Y-135015000D01*
X125646842Y-135072068D01*
X125376589Y-135184010D01*
X125133368Y-135346525D01*
X124926525Y-135553368D01*
X124810000Y-135727760D01*
X124693475Y-135553368D01*
X124486632Y-135346525D01*
X124375000Y-135271935D01*
X124375000Y-133081018D01*
X124379040Y-133040000D01*
X124362918Y-132876312D01*
X124361191Y-132870617D01*
X124315172Y-132718913D01*
X124237636Y-132573854D01*
X124228396Y-132562595D01*
X124159439Y-132478570D01*
X124159437Y-132478568D01*
X124133291Y-132446709D01*
X124101433Y-132420564D01*
X124019836Y-132338967D01*
X126865000Y-132338967D01*
X126865000Y-132661033D01*
X126927832Y-132976912D01*
X127051082Y-133274463D01*
X127230013Y-133542252D01*
X127457748Y-133769987D01*
X127725537Y-133948918D01*
X128023088Y-134072168D01*
X128338967Y-134135000D01*
X128661033Y-134135000D01*
X128976912Y-134072168D01*
X129274463Y-133948918D01*
X129542252Y-133769987D01*
X129769987Y-133542252D01*
X129948918Y-133274463D01*
X130072168Y-132976912D01*
X130135000Y-132661033D01*
X130135000Y-132562595D01*
X131358282Y-132562595D01*
X131402039Y-132881675D01*
X131507205Y-133186088D01*
X131600186Y-133360044D01*
X131864587Y-133455808D01*
X132820395Y-132500000D01*
X131864587Y-131544192D01*
X131600186Y-131639956D01*
X131459296Y-131929571D01*
X131377616Y-132241108D01*
X131358282Y-132562595D01*
X130135000Y-132562595D01*
X130135000Y-132338967D01*
X130072168Y-132023088D01*
X129948918Y-131725537D01*
X129769987Y-131457748D01*
X129542252Y-131230013D01*
X129274463Y-131051082D01*
X128976912Y-130927832D01*
X128661033Y-130865000D01*
X128338967Y-130865000D01*
X128023088Y-130927832D01*
X127725537Y-131051082D01*
X127457748Y-131230013D01*
X127230013Y-131457748D01*
X127051082Y-131725537D01*
X126927832Y-132023088D01*
X126865000Y-132338967D01*
X124019836Y-132338967D01*
X122119446Y-130438579D01*
X122093291Y-130406709D01*
X121966146Y-130302364D01*
X121821087Y-130224828D01*
X121663689Y-130177082D01*
X121541019Y-130165000D01*
X121541018Y-130165000D01*
X121500000Y-130160960D01*
X121458982Y-130165000D01*
X115345868Y-130165000D01*
X114024093Y-128843225D01*
X113995226Y-128698102D01*
X113917205Y-128509744D01*
X113803937Y-128340226D01*
X113659774Y-128196063D01*
X113490256Y-128082795D01*
X113301898Y-128004774D01*
X113101939Y-127965000D01*
X112898061Y-127965000D01*
X112698102Y-128004774D01*
X112509744Y-128082795D01*
X112340226Y-128196063D01*
X112196063Y-128340226D01*
X112125980Y-128445113D01*
X112024093Y-128343226D01*
X111995226Y-128198102D01*
X111917205Y-128009744D01*
X111803937Y-127840226D01*
X111659774Y-127696063D01*
X111490256Y-127582795D01*
X111301898Y-127504774D01*
X111101939Y-127465000D01*
X110898061Y-127465000D01*
X110698102Y-127504774D01*
X110509744Y-127582795D01*
X110340226Y-127696063D01*
X110196063Y-127840226D01*
X110082795Y-128009744D01*
X110004774Y-128198102D01*
X109965000Y-128398061D01*
X106660000Y-128398061D01*
X106660000Y-117898061D01*
X108465000Y-117898061D01*
X108465000Y-118101939D01*
X108504774Y-118301898D01*
X108582795Y-118490256D01*
X108696063Y-118659774D01*
X108840226Y-118803937D01*
X109009744Y-118917205D01*
X109198102Y-118995226D01*
X109398061Y-119035000D01*
X109601939Y-119035000D01*
X109801898Y-118995226D01*
X109990256Y-118917205D01*
X110159774Y-118803937D01*
X110303937Y-118659774D01*
X110417205Y-118490256D01*
X110495226Y-118301898D01*
X110524092Y-118156775D01*
X111061433Y-117619436D01*
X111093291Y-117593291D01*
X111197636Y-117466146D01*
X111275172Y-117321087D01*
X111322918Y-117163689D01*
X111335000Y-117041019D01*
X111335000Y-117041018D01*
X111339040Y-117000000D01*
X111335000Y-116958982D01*
X111335000Y-111398061D01*
X112465000Y-111398061D01*
X112465000Y-111601939D01*
X112504774Y-111801898D01*
X112582795Y-111990256D01*
X112696063Y-112159774D01*
X112840226Y-112303937D01*
X113009744Y-112417205D01*
X113198102Y-112495226D01*
X113343225Y-112524093D01*
X115665001Y-114845870D01*
X115665000Y-127458981D01*
X115660960Y-127500000D01*
X115665000Y-127541018D01*
X115677082Y-127663688D01*
X115724828Y-127821086D01*
X115802364Y-127966145D01*
X115906709Y-128093291D01*
X115938579Y-128119446D01*
X116975908Y-129156775D01*
X117004774Y-129301898D01*
X117082795Y-129490256D01*
X117196063Y-129659774D01*
X117340226Y-129803937D01*
X117509744Y-129917205D01*
X117698102Y-129995226D01*
X117898061Y-130035000D01*
X118101939Y-130035000D01*
X118301898Y-129995226D01*
X118490256Y-129917205D01*
X118659774Y-129803937D01*
X118803937Y-129659774D01*
X118917205Y-129490256D01*
X118995226Y-129301898D01*
X119035000Y-129101939D01*
X119035000Y-128898061D01*
X119026125Y-128853444D01*
X119082795Y-128990256D01*
X119196063Y-129159774D01*
X119340226Y-129303937D01*
X119509744Y-129417205D01*
X119698102Y-129495226D01*
X119898061Y-129535000D01*
X120101939Y-129535000D01*
X120301898Y-129495226D01*
X120490256Y-129417205D01*
X120659774Y-129303937D01*
X120803937Y-129159774D01*
X120917205Y-128990256D01*
X120995226Y-128801898D01*
X121035000Y-128601939D01*
X121035000Y-128398061D01*
X120995226Y-128198102D01*
X120917205Y-128009744D01*
X120835000Y-127886715D01*
X120835000Y-125838967D01*
X126865000Y-125838967D01*
X126865000Y-126161033D01*
X126927832Y-126476912D01*
X127051082Y-126774463D01*
X127230013Y-127042252D01*
X127457748Y-127269987D01*
X127725537Y-127448918D01*
X128023088Y-127572168D01*
X128338967Y-127635000D01*
X128661033Y-127635000D01*
X128976912Y-127572168D01*
X129274463Y-127448918D01*
X129542252Y-127269987D01*
X129769987Y-127042252D01*
X129948918Y-126774463D01*
X130072168Y-126476912D01*
X130135000Y-126161033D01*
X130135000Y-126062595D01*
X131358282Y-126062595D01*
X131402039Y-126381675D01*
X131507205Y-126686088D01*
X131600186Y-126860044D01*
X131864587Y-126955808D01*
X132820395Y-126000000D01*
X131864587Y-125044192D01*
X131600186Y-125139956D01*
X131459296Y-125429571D01*
X131377616Y-125741108D01*
X131358282Y-126062595D01*
X130135000Y-126062595D01*
X130135000Y-125838967D01*
X130072168Y-125523088D01*
X129948918Y-125225537D01*
X129769987Y-124957748D01*
X129542252Y-124730013D01*
X129274463Y-124551082D01*
X128976912Y-124427832D01*
X128661033Y-124365000D01*
X128338967Y-124365000D01*
X128023088Y-124427832D01*
X127725537Y-124551082D01*
X127457748Y-124730013D01*
X127230013Y-124957748D01*
X127051082Y-125225537D01*
X126927832Y-125523088D01*
X126865000Y-125838967D01*
X120835000Y-125838967D01*
X120835000Y-121838967D01*
X126865000Y-121838967D01*
X126865000Y-122161033D01*
X126927832Y-122476912D01*
X127051082Y-122774463D01*
X127230013Y-123042252D01*
X127457748Y-123269987D01*
X127725537Y-123448918D01*
X128023088Y-123572168D01*
X128338967Y-123635000D01*
X128661033Y-123635000D01*
X128976912Y-123572168D01*
X129274463Y-123448918D01*
X129542252Y-123269987D01*
X129769987Y-123042252D01*
X129948918Y-122774463D01*
X130072168Y-122476912D01*
X130135000Y-122161033D01*
X130135000Y-122062595D01*
X131358282Y-122062595D01*
X131402039Y-122381675D01*
X131507205Y-122686088D01*
X131600186Y-122860044D01*
X131864587Y-122955808D01*
X132820395Y-122000000D01*
X131864587Y-121044192D01*
X131600186Y-121139956D01*
X131459296Y-121429571D01*
X131377616Y-121741108D01*
X131358282Y-122062595D01*
X130135000Y-122062595D01*
X130135000Y-121838967D01*
X130072168Y-121523088D01*
X129948918Y-121225537D01*
X129769987Y-120957748D01*
X129542252Y-120730013D01*
X129274463Y-120551082D01*
X128976912Y-120427832D01*
X128661033Y-120365000D01*
X128338967Y-120365000D01*
X128023088Y-120427832D01*
X127725537Y-120551082D01*
X127457748Y-120730013D01*
X127230013Y-120957748D01*
X127051082Y-121225537D01*
X126927832Y-121523088D01*
X126865000Y-121838967D01*
X120835000Y-121838967D01*
X120835000Y-117845867D01*
X123341900Y-115338967D01*
X126865000Y-115338967D01*
X126865000Y-115661033D01*
X126927832Y-115976912D01*
X127051082Y-116274463D01*
X127230013Y-116542252D01*
X127457748Y-116769987D01*
X127725537Y-116948918D01*
X128023088Y-117072168D01*
X128338967Y-117135000D01*
X128661033Y-117135000D01*
X128976912Y-117072168D01*
X129274463Y-116948918D01*
X129542252Y-116769987D01*
X129769987Y-116542252D01*
X129948918Y-116274463D01*
X130072168Y-115976912D01*
X130135000Y-115661033D01*
X130135000Y-115338967D01*
X130072168Y-115023088D01*
X129948918Y-114725537D01*
X129769987Y-114457748D01*
X129542252Y-114230013D01*
X129274463Y-114051082D01*
X128976912Y-113927832D01*
X128661033Y-113865000D01*
X128338967Y-113865000D01*
X128023088Y-113927832D01*
X127725537Y-114051082D01*
X127457748Y-114230013D01*
X127230013Y-114457748D01*
X127051082Y-114725537D01*
X126927832Y-115023088D01*
X126865000Y-115338967D01*
X123341900Y-115338967D01*
X124845868Y-113835000D01*
X125886715Y-113835000D01*
X126009744Y-113917205D01*
X126198102Y-113995226D01*
X126398061Y-114035000D01*
X126601939Y-114035000D01*
X126801898Y-113995226D01*
X126990256Y-113917205D01*
X127159774Y-113803937D01*
X127303937Y-113659774D01*
X127417205Y-113490256D01*
X127495226Y-113301898D01*
X127535000Y-113101939D01*
X127535000Y-112898061D01*
X127495226Y-112698102D01*
X127417205Y-112509744D01*
X127303937Y-112340226D01*
X127159774Y-112196063D01*
X126990256Y-112082795D01*
X126801898Y-112004774D01*
X126601939Y-111965000D01*
X126398061Y-111965000D01*
X126198102Y-112004774D01*
X126009744Y-112082795D01*
X125886715Y-112165000D01*
X125817780Y-112165000D01*
X125919853Y-111918574D01*
X125975000Y-111641335D01*
X125975000Y-111358665D01*
X125919853Y-111081426D01*
X125811680Y-110820273D01*
X125654637Y-110585241D01*
X125454759Y-110385363D01*
X125219727Y-110228320D01*
X124958574Y-110120147D01*
X124681335Y-110065000D01*
X124398665Y-110065000D01*
X124121426Y-110120147D01*
X123860273Y-110228320D01*
X123625241Y-110385363D01*
X123426643Y-110583961D01*
X123425812Y-110575518D01*
X123389502Y-110455820D01*
X123330537Y-110345506D01*
X123251185Y-110248815D01*
X123154494Y-110169463D01*
X123044180Y-110110498D01*
X122924482Y-110074188D01*
X122800000Y-110061928D01*
X121200000Y-110061928D01*
X121075518Y-110074188D01*
X120955820Y-110110498D01*
X120845506Y-110169463D01*
X120748815Y-110248815D01*
X120669463Y-110345506D01*
X120610498Y-110455820D01*
X120574188Y-110575518D01*
X120561928Y-110700000D01*
X120561928Y-112300000D01*
X120574188Y-112424482D01*
X120610498Y-112544180D01*
X120669463Y-112654494D01*
X120748815Y-112751185D01*
X120845506Y-112830537D01*
X120955820Y-112889502D01*
X121075518Y-112925812D01*
X121200000Y-112938072D01*
X122800000Y-112938072D01*
X122924482Y-112925812D01*
X123044180Y-112889502D01*
X123154494Y-112830537D01*
X123251185Y-112751185D01*
X123330537Y-112654494D01*
X123389502Y-112544180D01*
X123425812Y-112424482D01*
X123426643Y-112416039D01*
X123625241Y-112614637D01*
X123672750Y-112646382D01*
X119438579Y-116880554D01*
X119406709Y-116906709D01*
X119336061Y-116992795D01*
X119302364Y-117033855D01*
X119224828Y-117178914D01*
X119177082Y-117336312D01*
X119160960Y-117500000D01*
X119165000Y-117541019D01*
X119165001Y-127886714D01*
X119082795Y-128009744D01*
X119004774Y-128198102D01*
X118965000Y-128398061D01*
X118965000Y-128601939D01*
X118973875Y-128646556D01*
X118917205Y-128509744D01*
X118803937Y-128340226D01*
X118659774Y-128196063D01*
X118490256Y-128082795D01*
X118301898Y-128004774D01*
X118156775Y-127975908D01*
X117335000Y-127154133D01*
X117335000Y-114541018D01*
X117339040Y-114500000D01*
X117322918Y-114336312D01*
X117297887Y-114253793D01*
X117275172Y-114178913D01*
X117197636Y-114033854D01*
X117165935Y-113995226D01*
X117119439Y-113938570D01*
X117119437Y-113938568D01*
X117093291Y-113906709D01*
X117061432Y-113880563D01*
X114524093Y-111343225D01*
X114495226Y-111198102D01*
X114417205Y-111009744D01*
X114303937Y-110840226D01*
X114159774Y-110696063D01*
X113990256Y-110582795D01*
X113801898Y-110504774D01*
X113601939Y-110465000D01*
X113398061Y-110465000D01*
X113198102Y-110504774D01*
X113009744Y-110582795D01*
X112840226Y-110696063D01*
X112696063Y-110840226D01*
X112582795Y-111009744D01*
X112504774Y-111198102D01*
X112465000Y-111398061D01*
X111335000Y-111398061D01*
X111335000Y-110845868D01*
X111845868Y-110335000D01*
X117154133Y-110335000D01*
X117725908Y-110906776D01*
X117754774Y-111051898D01*
X117832795Y-111240256D01*
X117946063Y-111409774D01*
X118090226Y-111553937D01*
X118259744Y-111667205D01*
X118448102Y-111745226D01*
X118648061Y-111785000D01*
X118851939Y-111785000D01*
X119051898Y-111745226D01*
X119240256Y-111667205D01*
X119409774Y-111553937D01*
X119553937Y-111409774D01*
X119667205Y-111240256D01*
X119745226Y-111051898D01*
X119785000Y-110851939D01*
X119785000Y-110648061D01*
X119745226Y-110448102D01*
X119667205Y-110259744D01*
X119553937Y-110090226D01*
X119409774Y-109946063D01*
X119240256Y-109832795D01*
X119051898Y-109754774D01*
X118906776Y-109725908D01*
X118119445Y-108938578D01*
X118093291Y-108906709D01*
X117966146Y-108802364D01*
X117821087Y-108724828D01*
X117663689Y-108677082D01*
X117541019Y-108665000D01*
X117541018Y-108665000D01*
X117500000Y-108660960D01*
X117458982Y-108665000D01*
X111541018Y-108665000D01*
X111500000Y-108660960D01*
X111458982Y-108665000D01*
X111458981Y-108665000D01*
X111336311Y-108677082D01*
X111178913Y-108724828D01*
X111033854Y-108802364D01*
X110970023Y-108854749D01*
X110940919Y-108878634D01*
X110906709Y-108906709D01*
X110880563Y-108938568D01*
X109938574Y-109880559D01*
X109906710Y-109906709D01*
X109825907Y-110005168D01*
X109802364Y-110033855D01*
X109724828Y-110178914D01*
X109677082Y-110336312D01*
X109660960Y-110500000D01*
X109665001Y-110541028D01*
X109665000Y-116654131D01*
X109343225Y-116975908D01*
X109198102Y-117004774D01*
X109009744Y-117082795D01*
X108840226Y-117196063D01*
X108696063Y-117340226D01*
X108582795Y-117509744D01*
X108504774Y-117698102D01*
X108465000Y-117898061D01*
X106660000Y-117898061D01*
X106660000Y-114032419D01*
X106663193Y-114000000D01*
X106650450Y-113870617D01*
X106612710Y-113746207D01*
X106551425Y-113631550D01*
X106468948Y-113531052D01*
X106368450Y-113448575D01*
X106253793Y-113387290D01*
X106129383Y-113349550D01*
X106032419Y-113340000D01*
X106000000Y-113336807D01*
X105967581Y-113340000D01*
X100660000Y-113340000D01*
X100660000Y-110700000D01*
X101561928Y-110700000D01*
X101561928Y-112300000D01*
X101574188Y-112424482D01*
X101610498Y-112544180D01*
X101669463Y-112654494D01*
X101748815Y-112751185D01*
X101845506Y-112830537D01*
X101955820Y-112889502D01*
X102075518Y-112925812D01*
X102200000Y-112938072D01*
X103800000Y-112938072D01*
X103924482Y-112925812D01*
X104044180Y-112889502D01*
X104154494Y-112830537D01*
X104251185Y-112751185D01*
X104330537Y-112654494D01*
X104389502Y-112544180D01*
X104425812Y-112424482D01*
X104426643Y-112416039D01*
X104625241Y-112614637D01*
X104860273Y-112771680D01*
X105121426Y-112879853D01*
X105398665Y-112935000D01*
X105681335Y-112935000D01*
X105958574Y-112879853D01*
X106219727Y-112771680D01*
X106454759Y-112614637D01*
X106654637Y-112414759D01*
X106811680Y-112179727D01*
X106919853Y-111918574D01*
X106975000Y-111641335D01*
X106975000Y-111358665D01*
X106919853Y-111081426D01*
X106811680Y-110820273D01*
X106654637Y-110585241D01*
X106454759Y-110385363D01*
X106219727Y-110228320D01*
X105958574Y-110120147D01*
X105681335Y-110065000D01*
X105398665Y-110065000D01*
X105121426Y-110120147D01*
X104860273Y-110228320D01*
X104625241Y-110385363D01*
X104426643Y-110583961D01*
X104425812Y-110575518D01*
X104389502Y-110455820D01*
X104330537Y-110345506D01*
X104251185Y-110248815D01*
X104154494Y-110169463D01*
X104044180Y-110110498D01*
X103924482Y-110074188D01*
X103800000Y-110061928D01*
X102200000Y-110061928D01*
X102075518Y-110074188D01*
X101955820Y-110110498D01*
X101845506Y-110169463D01*
X101748815Y-110248815D01*
X101669463Y-110345506D01*
X101610498Y-110455820D01*
X101574188Y-110575518D01*
X101561928Y-110700000D01*
X100660000Y-110700000D01*
X100660000Y-103738665D01*
X101565000Y-103738665D01*
X101565000Y-104021335D01*
X101620147Y-104298574D01*
X101728320Y-104559727D01*
X101885363Y-104794759D01*
X102085241Y-104994637D01*
X102320273Y-105151680D01*
X102581426Y-105259853D01*
X102858665Y-105315000D01*
X103141335Y-105315000D01*
X103418574Y-105259853D01*
X103679727Y-105151680D01*
X103914759Y-104994637D01*
X104114637Y-104794759D01*
X104270000Y-104562241D01*
X104425363Y-104794759D01*
X104625241Y-104994637D01*
X104860273Y-105151680D01*
X105121426Y-105259853D01*
X105398665Y-105315000D01*
X105681335Y-105315000D01*
X105958574Y-105259853D01*
X106219727Y-105151680D01*
X106454759Y-104994637D01*
X106654637Y-104794759D01*
X106811680Y-104559727D01*
X106919853Y-104298574D01*
X106975000Y-104021335D01*
X106975000Y-103738665D01*
X120565000Y-103738665D01*
X120565000Y-104021335D01*
X120620147Y-104298574D01*
X120728320Y-104559727D01*
X120885363Y-104794759D01*
X121085241Y-104994637D01*
X121320273Y-105151680D01*
X121581426Y-105259853D01*
X121858665Y-105315000D01*
X122141335Y-105315000D01*
X122235418Y-105296286D01*
X124000563Y-107061432D01*
X124026709Y-107093291D01*
X124153854Y-107197636D01*
X124298913Y-107275172D01*
X124456311Y-107322918D01*
X124578981Y-107335000D01*
X124578982Y-107335000D01*
X124620000Y-107339040D01*
X124661018Y-107335000D01*
X128654133Y-107335000D01*
X130165001Y-108845869D01*
X130165000Y-117886715D01*
X130082795Y-118009744D01*
X130004774Y-118198102D01*
X129965000Y-118398061D01*
X129965000Y-118601939D01*
X130004774Y-118801898D01*
X130082795Y-118990256D01*
X130196063Y-119159774D01*
X130340226Y-119303937D01*
X130509744Y-119417205D01*
X130698102Y-119495226D01*
X130898061Y-119535000D01*
X131101939Y-119535000D01*
X131301898Y-119495226D01*
X131490256Y-119417205D01*
X131659774Y-119303937D01*
X131803937Y-119159774D01*
X131917205Y-118990256D01*
X131995226Y-118801898D01*
X132035000Y-118601939D01*
X132035000Y-118398061D01*
X131995226Y-118198102D01*
X131917205Y-118009744D01*
X131835000Y-117886715D01*
X131835000Y-116445092D01*
X131864587Y-116455808D01*
X132820395Y-115500000D01*
X131864587Y-114544192D01*
X131835000Y-114554908D01*
X131835000Y-109534473D01*
X132160610Y-109534473D01*
X132200875Y-109794344D01*
X132291065Y-110041366D01*
X132344963Y-110142203D01*
X132578731Y-110201664D01*
X133320395Y-109460000D01*
X132578731Y-108718336D01*
X132344963Y-108777797D01*
X132234066Y-109016242D01*
X132171817Y-109271740D01*
X132160610Y-109534473D01*
X131835000Y-109534473D01*
X131835000Y-108541018D01*
X131839040Y-108499999D01*
X131822918Y-108336311D01*
X131775172Y-108178913D01*
X131697636Y-108033854D01*
X131593291Y-107906709D01*
X131561427Y-107880559D01*
X129619446Y-105938579D01*
X129593291Y-105906709D01*
X129466146Y-105802364D01*
X129321087Y-105724828D01*
X129163689Y-105677082D01*
X129041019Y-105665000D01*
X129041018Y-105665000D01*
X129000000Y-105660960D01*
X128958982Y-105665000D01*
X124965869Y-105665000D01*
X124615869Y-105315000D01*
X124681335Y-105315000D01*
X124958574Y-105259853D01*
X125219727Y-105151680D01*
X125454759Y-104994637D01*
X125654637Y-104794759D01*
X125811680Y-104559727D01*
X125919853Y-104298574D01*
X125975000Y-104021335D01*
X125975000Y-103738665D01*
X125919853Y-103461426D01*
X125811680Y-103200273D01*
X125654637Y-102965241D01*
X125454759Y-102765363D01*
X125219727Y-102608320D01*
X124958574Y-102500147D01*
X124681335Y-102445000D01*
X124398665Y-102445000D01*
X124121426Y-102500147D01*
X123860273Y-102608320D01*
X123625241Y-102765363D01*
X123425363Y-102965241D01*
X123270000Y-103197759D01*
X123114637Y-102965241D01*
X122914759Y-102765363D01*
X122679727Y-102608320D01*
X122418574Y-102500147D01*
X122141335Y-102445000D01*
X121858665Y-102445000D01*
X121581426Y-102500147D01*
X121320273Y-102608320D01*
X121085241Y-102765363D01*
X120885363Y-102965241D01*
X120728320Y-103200273D01*
X120620147Y-103461426D01*
X120565000Y-103738665D01*
X106975000Y-103738665D01*
X106919853Y-103461426D01*
X106811680Y-103200273D01*
X106654637Y-102965241D01*
X106454759Y-102765363D01*
X106219727Y-102608320D01*
X105958574Y-102500147D01*
X105681335Y-102445000D01*
X105398665Y-102445000D01*
X105121426Y-102500147D01*
X104860273Y-102608320D01*
X104625241Y-102765363D01*
X104425363Y-102965241D01*
X104270000Y-103197759D01*
X104114637Y-102965241D01*
X103914759Y-102765363D01*
X103679727Y-102608320D01*
X103418574Y-102500147D01*
X103141335Y-102445000D01*
X102858665Y-102445000D01*
X102581426Y-102500147D01*
X102320273Y-102608320D01*
X102085241Y-102765363D01*
X101885363Y-102965241D01*
X101728320Y-103200273D01*
X101620147Y-103461426D01*
X101565000Y-103738665D01*
X100660000Y-103738665D01*
X100660000Y-97364344D01*
X101165000Y-97364344D01*
X101165000Y-97735656D01*
X101237439Y-98099834D01*
X101379534Y-98442882D01*
X101585825Y-98751618D01*
X101848382Y-99014175D01*
X102157118Y-99220466D01*
X102500166Y-99362561D01*
X102864344Y-99435000D01*
X103235656Y-99435000D01*
X103599834Y-99362561D01*
X103942882Y-99220466D01*
X104251618Y-99014175D01*
X104514175Y-98751618D01*
X104720466Y-98442882D01*
X104862561Y-98099834D01*
X104935000Y-97735656D01*
X104935000Y-97364344D01*
X104862561Y-97000166D01*
X104720466Y-96657118D01*
X104514175Y-96348382D01*
X104251618Y-96085825D01*
X103942882Y-95879534D01*
X103599834Y-95737439D01*
X103235656Y-95665000D01*
X102864344Y-95665000D01*
X102500166Y-95737439D01*
X102157118Y-95879534D01*
X101848382Y-96085825D01*
X101585825Y-96348382D01*
X101379534Y-96657118D01*
X101237439Y-97000166D01*
X101165000Y-97364344D01*
X100660000Y-97364344D01*
X100660000Y-85089721D01*
X100865000Y-85089721D01*
X100865000Y-85510279D01*
X100947047Y-85922756D01*
X101107988Y-86311302D01*
X101341637Y-86660983D01*
X101639017Y-86958363D01*
X101988698Y-87192012D01*
X102377244Y-87352953D01*
X102789721Y-87435000D01*
X103210279Y-87435000D01*
X103622756Y-87352953D01*
X104011302Y-87192012D01*
X104360983Y-86958363D01*
X104658363Y-86660983D01*
X104892012Y-86311302D01*
X105052953Y-85922756D01*
X105135000Y-85510279D01*
X105135000Y-85089721D01*
X105124514Y-85037000D01*
X106889506Y-85037000D01*
X106897459Y-85117748D01*
X106905276Y-85197975D01*
X106905401Y-85198388D01*
X106905444Y-85198826D01*
X106929117Y-85276867D01*
X106952316Y-85353632D01*
X106952519Y-85354014D01*
X106952647Y-85354434D01*
X106991045Y-85426271D01*
X107009648Y-85461162D01*
X107009885Y-85461517D01*
X107029301Y-85497842D01*
X107054881Y-85529011D01*
X108578637Y-87814647D01*
X108655845Y-87908926D01*
X108724509Y-87965398D01*
X108755642Y-88007335D01*
X108876176Y-88116482D01*
X109015690Y-88200016D01*
X109168819Y-88254727D01*
X109329678Y-88278513D01*
X109492088Y-88270460D01*
X109649805Y-88230876D01*
X109796771Y-88161285D01*
X109816153Y-88146896D01*
X109834837Y-88159352D01*
X109845984Y-88165295D01*
X109891292Y-88193540D01*
X109917575Y-88203465D01*
X109942367Y-88216684D01*
X109993481Y-88232131D01*
X110043415Y-88250988D01*
X110071125Y-88255595D01*
X110098024Y-88263724D01*
X110151156Y-88268901D01*
X110203822Y-88277657D01*
X110231907Y-88276769D01*
X110259867Y-88279493D01*
X110312997Y-88274204D01*
X110366350Y-88272517D01*
X110393711Y-88266170D01*
X110421677Y-88263386D01*
X110472748Y-88247835D01*
X110524753Y-88235771D01*
X110550364Y-88224201D01*
X110577235Y-88216019D01*
X110624286Y-88190807D01*
X110672943Y-88168826D01*
X110695796Y-88152489D01*
X110720563Y-88139217D01*
X110761806Y-88105297D01*
X110805225Y-88074257D01*
X110824449Y-88053778D01*
X110846154Y-88035927D01*
X110879980Y-87994621D01*
X110916516Y-87955700D01*
X110931381Y-87931855D01*
X110949180Y-87910120D01*
X110974294Y-87863016D01*
X111002540Y-87817707D01*
X111012466Y-87791424D01*
X111025684Y-87766632D01*
X111041131Y-87715518D01*
X111059988Y-87665584D01*
X111064595Y-87637874D01*
X111072724Y-87610975D01*
X111077901Y-87557843D01*
X111086657Y-87505177D01*
X111085769Y-87477092D01*
X111088493Y-87449132D01*
X111083204Y-87396007D01*
X111081517Y-87342648D01*
X111075168Y-87315280D01*
X111072385Y-87287322D01*
X111056837Y-87236261D01*
X111044771Y-87184246D01*
X111033201Y-87158633D01*
X111025019Y-87131764D01*
X110999807Y-87084713D01*
X110977826Y-87036056D01*
X110961488Y-87013203D01*
X110948217Y-86988436D01*
X110914303Y-86947201D01*
X110906956Y-86936923D01*
X110888557Y-86915896D01*
X110844927Y-86862846D01*
X110835089Y-86854790D01*
X110192106Y-86119952D01*
X110196335Y-86117812D01*
X110203647Y-86112079D01*
X110211842Y-86107699D01*
X110267578Y-86061958D01*
X110324304Y-86017485D01*
X110330356Y-86010438D01*
X110337541Y-86004541D01*
X110383273Y-85948816D01*
X110430243Y-85894120D01*
X110434807Y-85886022D01*
X110440699Y-85878842D01*
X110474688Y-85815253D01*
X110510077Y-85752457D01*
X110512970Y-85743634D01*
X110517353Y-85735434D01*
X110538293Y-85666405D01*
X110560741Y-85597942D01*
X110561857Y-85588722D01*
X110564556Y-85579826D01*
X110571625Y-85508052D01*
X110580287Y-85436512D01*
X110579583Y-85427249D01*
X110580494Y-85418000D01*
X110573428Y-85346254D01*
X110567965Y-85274370D01*
X110565467Y-85265419D01*
X110564556Y-85256174D01*
X110543628Y-85187183D01*
X110524246Y-85117748D01*
X110520051Y-85109460D01*
X110517353Y-85100566D01*
X110483362Y-85036974D01*
X110469214Y-85009022D01*
X110464260Y-85001238D01*
X110440699Y-84957158D01*
X110420709Y-84932800D01*
X109271821Y-83127405D01*
X109272945Y-83124747D01*
X109275872Y-83110588D01*
X109281037Y-83097091D01*
X109292307Y-83031087D01*
X109305865Y-82965506D01*
X109305974Y-82951052D01*
X109308407Y-82936801D01*
X109306584Y-82869858D01*
X109307087Y-82802901D01*
X109304374Y-82788703D01*
X109303980Y-82774253D01*
X109289133Y-82708956D01*
X109276563Y-82643182D01*
X109271132Y-82629786D01*
X109267927Y-82615691D01*
X109240637Y-82554570D01*
X109215467Y-82492487D01*
X109207521Y-82480399D01*
X109201632Y-82467210D01*
X109162951Y-82412599D01*
X109126144Y-82356607D01*
X109115995Y-82346304D01*
X109107644Y-82334514D01*
X109059048Y-82288495D01*
X109040626Y-82269794D01*
X109029575Y-82260585D01*
X108989574Y-82222705D01*
X108967274Y-82208667D01*
X108267921Y-81625874D01*
X108228260Y-81588237D01*
X108171263Y-81552275D01*
X108115507Y-81514411D01*
X108102592Y-81508947D01*
X108090736Y-81501467D01*
X108027822Y-81477316D01*
X107965747Y-81451056D01*
X107952018Y-81448218D01*
X107938928Y-81443193D01*
X107872500Y-81431779D01*
X107806505Y-81418135D01*
X107792487Y-81418030D01*
X107778667Y-81415655D01*
X107711292Y-81417419D01*
X107643902Y-81416913D01*
X107630130Y-81419545D01*
X107616114Y-81419912D01*
X107550378Y-81434787D01*
X107484183Y-81447437D01*
X107471191Y-81452705D01*
X107457515Y-81455799D01*
X107395938Y-81483215D01*
X107333488Y-81508534D01*
X107321774Y-81516234D01*
X107308963Y-81521938D01*
X107253931Y-81560831D01*
X107197608Y-81597856D01*
X107187615Y-81607700D01*
X107176171Y-81615788D01*
X107129785Y-81664668D01*
X107081766Y-81711971D01*
X107073891Y-81723567D01*
X107064237Y-81733740D01*
X107028271Y-81790743D01*
X106990411Y-81846493D01*
X106984947Y-81859408D01*
X106977467Y-81871264D01*
X106953316Y-81934178D01*
X106927056Y-81996253D01*
X106924218Y-82009982D01*
X106919193Y-82023072D01*
X106907779Y-82089500D01*
X106894135Y-82155495D01*
X106894030Y-82169513D01*
X106891655Y-82183333D01*
X106893419Y-82250711D01*
X106892913Y-82318098D01*
X106903177Y-82371803D01*
X107023043Y-83330736D01*
X107025540Y-83381088D01*
X107042981Y-83450580D01*
X107058799Y-83520485D01*
X107062758Y-83529376D01*
X107065124Y-83538805D01*
X107095776Y-83603539D01*
X107124938Y-83669037D01*
X107130554Y-83676983D01*
X107134715Y-83685771D01*
X107177416Y-83743291D01*
X107218788Y-83801830D01*
X107225847Y-83808528D01*
X107231642Y-83816335D01*
X107284746Y-83864422D01*
X107336740Y-83913763D01*
X107344966Y-83918953D01*
X107352176Y-83925482D01*
X107413669Y-83962301D01*
X107474264Y-84000533D01*
X107483343Y-84004018D01*
X107491690Y-84009016D01*
X107559155Y-84033120D01*
X107626072Y-84058808D01*
X107635665Y-84060456D01*
X107644819Y-84063727D01*
X107711345Y-84073564D01*
X107780313Y-84211500D01*
X107759980Y-84211500D01*
X107719867Y-84207507D01*
X107678886Y-84211500D01*
X107678447Y-84211500D01*
X107637898Y-84215494D01*
X107558025Y-84223276D01*
X107557612Y-84223401D01*
X107557174Y-84223444D01*
X107479133Y-84247117D01*
X107402368Y-84270316D01*
X107401986Y-84270519D01*
X107401566Y-84270647D01*
X107329655Y-84309085D01*
X107258880Y-84346820D01*
X107258546Y-84347094D01*
X107258158Y-84347301D01*
X107195286Y-84398898D01*
X107133073Y-84449846D01*
X107132797Y-84450182D01*
X107132459Y-84450459D01*
X107081142Y-84512989D01*
X107029783Y-84575437D01*
X107029577Y-84575822D01*
X107029301Y-84576158D01*
X106990886Y-84648027D01*
X106952981Y-84718765D01*
X106952856Y-84719174D01*
X106952647Y-84719566D01*
X106928918Y-84797791D01*
X106905614Y-84874323D01*
X106905571Y-84874756D01*
X106905444Y-84875174D01*
X106897476Y-84956080D01*
X106889507Y-85036133D01*
X106889549Y-85036564D01*
X106889506Y-85037000D01*
X105124514Y-85037000D01*
X105052953Y-84677244D01*
X104892012Y-84288698D01*
X104658363Y-83939017D01*
X104360983Y-83641637D01*
X104011302Y-83407988D01*
X103622756Y-83247047D01*
X103210279Y-83165000D01*
X102789721Y-83165000D01*
X102377244Y-83247047D01*
X101988698Y-83407988D01*
X101639017Y-83641637D01*
X101341637Y-83939017D01*
X101107988Y-84288698D01*
X100947047Y-84677244D01*
X100865000Y-85089721D01*
X100660000Y-85089721D01*
X100660000Y-75991653D01*
X105107952Y-75991653D01*
X105263962Y-76307214D01*
X105638745Y-76498020D01*
X106043551Y-76612044D01*
X106462824Y-76644902D01*
X106880451Y-76595334D01*
X107280383Y-76465243D01*
X107576038Y-76307214D01*
X107732048Y-75991653D01*
X106420000Y-74679605D01*
X105107952Y-75991653D01*
X100660000Y-75991653D01*
X100660000Y-74542824D01*
X104275098Y-74542824D01*
X104324666Y-74960451D01*
X104454757Y-75360383D01*
X104612786Y-75656038D01*
X104928347Y-75812048D01*
X106240395Y-74500000D01*
X106599605Y-74500000D01*
X107911653Y-75812048D01*
X108227214Y-75656038D01*
X108418020Y-75281255D01*
X108532044Y-74876449D01*
X108564902Y-74457176D01*
X108515334Y-74039549D01*
X108385243Y-73639617D01*
X108227214Y-73343962D01*
X107911653Y-73187952D01*
X106599605Y-74500000D01*
X106240395Y-74500000D01*
X104928347Y-73187952D01*
X104612786Y-73343962D01*
X104421980Y-73718745D01*
X104307956Y-74123551D01*
X104275098Y-74542824D01*
X100660000Y-74542824D01*
X100660000Y-73008347D01*
X105107952Y-73008347D01*
X106420000Y-74320395D01*
X107732048Y-73008347D01*
X107727922Y-73000000D01*
X109361928Y-73000000D01*
X109361928Y-76000000D01*
X109374188Y-76124482D01*
X109410498Y-76244180D01*
X109469463Y-76354494D01*
X109548815Y-76451185D01*
X109645506Y-76530537D01*
X109755820Y-76589502D01*
X109875518Y-76625812D01*
X110000000Y-76638072D01*
X111325834Y-76638072D01*
X113415001Y-78727240D01*
X113415000Y-83965654D01*
X113391637Y-83989017D01*
X113157988Y-84338698D01*
X112997047Y-84727244D01*
X112915000Y-85139721D01*
X112915000Y-85560279D01*
X112997047Y-85972756D01*
X113157988Y-86361302D01*
X113391637Y-86710983D01*
X113689017Y-87008363D01*
X114038698Y-87242012D01*
X114427244Y-87402953D01*
X114839721Y-87485000D01*
X115260279Y-87485000D01*
X115672756Y-87402953D01*
X116061302Y-87242012D01*
X116410983Y-87008363D01*
X116708363Y-86710983D01*
X116942012Y-86361302D01*
X117102953Y-85972756D01*
X117185000Y-85560279D01*
X117185000Y-85139721D01*
X117175055Y-85089721D01*
X119865000Y-85089721D01*
X119865000Y-85510279D01*
X119947047Y-85922756D01*
X120107988Y-86311302D01*
X120341637Y-86660983D01*
X120639017Y-86958363D01*
X120988698Y-87192012D01*
X121377244Y-87352953D01*
X121789721Y-87435000D01*
X122210279Y-87435000D01*
X122622756Y-87352953D01*
X123011302Y-87192012D01*
X123360983Y-86958363D01*
X123658363Y-86660983D01*
X123892012Y-86311302D01*
X124052953Y-85922756D01*
X124135000Y-85510279D01*
X124135000Y-85089721D01*
X124064840Y-84737000D01*
X125789506Y-84737000D01*
X125797459Y-84817748D01*
X125805276Y-84897975D01*
X125805401Y-84898388D01*
X125805444Y-84898826D01*
X125829117Y-84976867D01*
X125852316Y-85053632D01*
X125852519Y-85054014D01*
X125852647Y-85054434D01*
X125891045Y-85126271D01*
X125909648Y-85161162D01*
X125909885Y-85161517D01*
X125929301Y-85197842D01*
X125954881Y-85229011D01*
X127478637Y-87514647D01*
X127555845Y-87608926D01*
X127624509Y-87665398D01*
X127655642Y-87707335D01*
X127776176Y-87816482D01*
X127915690Y-87900016D01*
X128068819Y-87954727D01*
X128229678Y-87978513D01*
X128392088Y-87970460D01*
X128549805Y-87930876D01*
X128696771Y-87861285D01*
X128716153Y-87846896D01*
X128734837Y-87859352D01*
X128745984Y-87865295D01*
X128791292Y-87893540D01*
X128817575Y-87903465D01*
X128842367Y-87916684D01*
X128893481Y-87932131D01*
X128943415Y-87950988D01*
X128971125Y-87955595D01*
X128998024Y-87963724D01*
X129051156Y-87968901D01*
X129103822Y-87977657D01*
X129131907Y-87976769D01*
X129159867Y-87979493D01*
X129212997Y-87974204D01*
X129266350Y-87972517D01*
X129293711Y-87966170D01*
X129321677Y-87963386D01*
X129372748Y-87947835D01*
X129424753Y-87935771D01*
X129450364Y-87924201D01*
X129477235Y-87916019D01*
X129524286Y-87890807D01*
X129572943Y-87868826D01*
X129595796Y-87852489D01*
X129620563Y-87839217D01*
X129661806Y-87805297D01*
X129705225Y-87774257D01*
X129724449Y-87753778D01*
X129746154Y-87735927D01*
X129779980Y-87694621D01*
X129816516Y-87655700D01*
X129831381Y-87631855D01*
X129849180Y-87610120D01*
X129874294Y-87563016D01*
X129902540Y-87517707D01*
X129912466Y-87491424D01*
X129925684Y-87466632D01*
X129941131Y-87415518D01*
X129959988Y-87365584D01*
X129964595Y-87337874D01*
X129972724Y-87310975D01*
X129977901Y-87257843D01*
X129986657Y-87205177D01*
X129985769Y-87177092D01*
X129988493Y-87149132D01*
X129983204Y-87096007D01*
X129981517Y-87042648D01*
X129975168Y-87015280D01*
X129972385Y-86987322D01*
X129956837Y-86936261D01*
X129944771Y-86884246D01*
X129933201Y-86858633D01*
X129925019Y-86831764D01*
X129899807Y-86784713D01*
X129877826Y-86736056D01*
X129861488Y-86713203D01*
X129848217Y-86688436D01*
X129814303Y-86647201D01*
X129806956Y-86636923D01*
X129788557Y-86615896D01*
X129744927Y-86562846D01*
X129735089Y-86554790D01*
X129092106Y-85819952D01*
X129096335Y-85817812D01*
X129103647Y-85812079D01*
X129111842Y-85807699D01*
X129167578Y-85761958D01*
X129224304Y-85717485D01*
X129230356Y-85710438D01*
X129237541Y-85704541D01*
X129283273Y-85648816D01*
X129330243Y-85594120D01*
X129334807Y-85586022D01*
X129340699Y-85578842D01*
X129374688Y-85515253D01*
X129410077Y-85452457D01*
X129412970Y-85443634D01*
X129417353Y-85435434D01*
X129438293Y-85366405D01*
X129460741Y-85297942D01*
X129461857Y-85288722D01*
X129464556Y-85279826D01*
X129471625Y-85208052D01*
X129480287Y-85136512D01*
X129479583Y-85127249D01*
X129480494Y-85118000D01*
X129473428Y-85046254D01*
X129467965Y-84974370D01*
X129465467Y-84965419D01*
X129464556Y-84956174D01*
X129443628Y-84887183D01*
X129424246Y-84817748D01*
X129420051Y-84809460D01*
X129417353Y-84800566D01*
X129383362Y-84736974D01*
X129369214Y-84709022D01*
X129364260Y-84701238D01*
X129340699Y-84657158D01*
X129320709Y-84632800D01*
X128171821Y-82827405D01*
X128172945Y-82824747D01*
X128175872Y-82810588D01*
X128181037Y-82797091D01*
X128192307Y-82731087D01*
X128205865Y-82665506D01*
X128205974Y-82651052D01*
X128208407Y-82636801D01*
X128206584Y-82569858D01*
X128207087Y-82502901D01*
X128204374Y-82488703D01*
X128203980Y-82474253D01*
X128189133Y-82408956D01*
X128176563Y-82343182D01*
X128171132Y-82329786D01*
X128167927Y-82315691D01*
X128140637Y-82254570D01*
X128115467Y-82192487D01*
X128107521Y-82180399D01*
X128101632Y-82167210D01*
X128062951Y-82112599D01*
X128026144Y-82056607D01*
X128015995Y-82046304D01*
X128007644Y-82034514D01*
X127959048Y-81988495D01*
X127940626Y-81969794D01*
X127929575Y-81960585D01*
X127889574Y-81922705D01*
X127867274Y-81908667D01*
X127167921Y-81325874D01*
X127128260Y-81288237D01*
X127071263Y-81252275D01*
X127015507Y-81214411D01*
X127002592Y-81208947D01*
X126990736Y-81201467D01*
X126927822Y-81177316D01*
X126865747Y-81151056D01*
X126852018Y-81148218D01*
X126838928Y-81143193D01*
X126772500Y-81131779D01*
X126706505Y-81118135D01*
X126692487Y-81118030D01*
X126678667Y-81115655D01*
X126611292Y-81117419D01*
X126543902Y-81116913D01*
X126530130Y-81119545D01*
X126516114Y-81119912D01*
X126450378Y-81134787D01*
X126384183Y-81147437D01*
X126371191Y-81152705D01*
X126357515Y-81155799D01*
X126295938Y-81183215D01*
X126233488Y-81208534D01*
X126221774Y-81216234D01*
X126208963Y-81221938D01*
X126153931Y-81260831D01*
X126097608Y-81297856D01*
X126087615Y-81307700D01*
X126076171Y-81315788D01*
X126029785Y-81364668D01*
X125981766Y-81411971D01*
X125973891Y-81423567D01*
X125964237Y-81433740D01*
X125928271Y-81490743D01*
X125890411Y-81546493D01*
X125884947Y-81559408D01*
X125877467Y-81571264D01*
X125853316Y-81634178D01*
X125827056Y-81696253D01*
X125824218Y-81709982D01*
X125819193Y-81723072D01*
X125807779Y-81789500D01*
X125794135Y-81855495D01*
X125794030Y-81869513D01*
X125791655Y-81883333D01*
X125793419Y-81950711D01*
X125792913Y-82018098D01*
X125803177Y-82071803D01*
X125923043Y-83030737D01*
X125925540Y-83081088D01*
X125942981Y-83150580D01*
X125958799Y-83220485D01*
X125962758Y-83229376D01*
X125965124Y-83238805D01*
X125995776Y-83303539D01*
X126024938Y-83369037D01*
X126030554Y-83376983D01*
X126034715Y-83385771D01*
X126077416Y-83443291D01*
X126118788Y-83501830D01*
X126125847Y-83508528D01*
X126131642Y-83516335D01*
X126184746Y-83564422D01*
X126236740Y-83613763D01*
X126244966Y-83618953D01*
X126252176Y-83625482D01*
X126313669Y-83662301D01*
X126374264Y-83700533D01*
X126383343Y-83704018D01*
X126391690Y-83709016D01*
X126459155Y-83733120D01*
X126526072Y-83758808D01*
X126535665Y-83760456D01*
X126544819Y-83763727D01*
X126611345Y-83773564D01*
X126680313Y-83911500D01*
X126659980Y-83911500D01*
X126619867Y-83907507D01*
X126578886Y-83911500D01*
X126578447Y-83911500D01*
X126537898Y-83915494D01*
X126458025Y-83923276D01*
X126457612Y-83923401D01*
X126457174Y-83923444D01*
X126379133Y-83947117D01*
X126302368Y-83970316D01*
X126301986Y-83970519D01*
X126301566Y-83970647D01*
X126229655Y-84009085D01*
X126158880Y-84046820D01*
X126158546Y-84047094D01*
X126158158Y-84047301D01*
X126095286Y-84098898D01*
X126033073Y-84149846D01*
X126032797Y-84150182D01*
X126032459Y-84150459D01*
X125981142Y-84212989D01*
X125929783Y-84275437D01*
X125929577Y-84275822D01*
X125929301Y-84276158D01*
X125890886Y-84348027D01*
X125852981Y-84418765D01*
X125852856Y-84419174D01*
X125852647Y-84419566D01*
X125828918Y-84497791D01*
X125805614Y-84574323D01*
X125805571Y-84574756D01*
X125805444Y-84575174D01*
X125797476Y-84656080D01*
X125789507Y-84736133D01*
X125789549Y-84736564D01*
X125789506Y-84737000D01*
X124064840Y-84737000D01*
X124052953Y-84677244D01*
X123892012Y-84288698D01*
X123658363Y-83939017D01*
X123360983Y-83641637D01*
X123011302Y-83407988D01*
X122622756Y-83247047D01*
X122210279Y-83165000D01*
X121789721Y-83165000D01*
X121377244Y-83247047D01*
X120988698Y-83407988D01*
X120639017Y-83641637D01*
X120341637Y-83939017D01*
X120107988Y-84288698D01*
X119947047Y-84677244D01*
X119865000Y-85089721D01*
X117175055Y-85089721D01*
X117102953Y-84727244D01*
X116942012Y-84338698D01*
X116708363Y-83989017D01*
X116685000Y-83965654D01*
X116685000Y-78130319D01*
X116692911Y-78049999D01*
X116685000Y-77969678D01*
X116661343Y-77729484D01*
X116567852Y-77421285D01*
X116416031Y-77137248D01*
X116211714Y-76888286D01*
X116149319Y-76837080D01*
X115303892Y-75991653D01*
X124107952Y-75991653D01*
X124263962Y-76307214D01*
X124638745Y-76498020D01*
X125043551Y-76612044D01*
X125462824Y-76644902D01*
X125880451Y-76595334D01*
X126280383Y-76465243D01*
X126576038Y-76307214D01*
X126732048Y-75991653D01*
X125420000Y-74679605D01*
X124107952Y-75991653D01*
X115303892Y-75991653D01*
X113855063Y-74542824D01*
X123275098Y-74542824D01*
X123324666Y-74960451D01*
X123454757Y-75360383D01*
X123612786Y-75656038D01*
X123928347Y-75812048D01*
X125240395Y-74500000D01*
X125599605Y-74500000D01*
X126911653Y-75812048D01*
X127227214Y-75656038D01*
X127418020Y-75281255D01*
X127532044Y-74876449D01*
X127564902Y-74457176D01*
X127515334Y-74039549D01*
X127385243Y-73639617D01*
X127227214Y-73343962D01*
X126911653Y-73187952D01*
X125599605Y-74500000D01*
X125240395Y-74500000D01*
X123928347Y-73187952D01*
X123612786Y-73343962D01*
X123421980Y-73718745D01*
X123307956Y-74123551D01*
X123275098Y-74542824D01*
X113855063Y-74542824D01*
X113638072Y-74325834D01*
X113638072Y-73008347D01*
X124107952Y-73008347D01*
X125420000Y-74320395D01*
X126732048Y-73008347D01*
X126727922Y-73000000D01*
X128361928Y-73000000D01*
X128361928Y-76000000D01*
X128374188Y-76124482D01*
X128410498Y-76244180D01*
X128469463Y-76354494D01*
X128548815Y-76451185D01*
X128645506Y-76530537D01*
X128755820Y-76589502D01*
X128875518Y-76625812D01*
X129000000Y-76638072D01*
X130325834Y-76638072D01*
X132415001Y-78727240D01*
X132415000Y-83965654D01*
X132391637Y-83989017D01*
X132157988Y-84338698D01*
X131997047Y-84727244D01*
X131915000Y-85139721D01*
X131915000Y-85560279D01*
X131997047Y-85972756D01*
X132157988Y-86361302D01*
X132391637Y-86710983D01*
X132689017Y-87008363D01*
X133038698Y-87242012D01*
X133427244Y-87402953D01*
X133839721Y-87485000D01*
X134260279Y-87485000D01*
X134672756Y-87402953D01*
X135061302Y-87242012D01*
X135410983Y-87008363D01*
X135708363Y-86710983D01*
X135942012Y-86361302D01*
X136102953Y-85972756D01*
X136185000Y-85560279D01*
X136185000Y-85139721D01*
X136102953Y-84727244D01*
X135942012Y-84338698D01*
X135708363Y-83989017D01*
X135685000Y-83965654D01*
X135685000Y-78130319D01*
X135692911Y-78049999D01*
X135685000Y-77969678D01*
X135661343Y-77729484D01*
X135567852Y-77421285D01*
X135416031Y-77137248D01*
X135211714Y-76888286D01*
X135149319Y-76837080D01*
X132638072Y-74325834D01*
X132638072Y-73000000D01*
X132625812Y-72875518D01*
X132589502Y-72755820D01*
X132530537Y-72645506D01*
X132451185Y-72548815D01*
X132354494Y-72469463D01*
X132244180Y-72410498D01*
X132124482Y-72374188D01*
X132000000Y-72361928D01*
X129000000Y-72361928D01*
X128875518Y-72374188D01*
X128755820Y-72410498D01*
X128645506Y-72469463D01*
X128548815Y-72548815D01*
X128469463Y-72645506D01*
X128410498Y-72755820D01*
X128374188Y-72875518D01*
X128361928Y-73000000D01*
X126727922Y-73000000D01*
X126576038Y-72692786D01*
X126201255Y-72501980D01*
X125796449Y-72387956D01*
X125377176Y-72355098D01*
X124959549Y-72404666D01*
X124559617Y-72534757D01*
X124263962Y-72692786D01*
X124107952Y-73008347D01*
X113638072Y-73008347D01*
X113638072Y-73000000D01*
X113625812Y-72875518D01*
X113589502Y-72755820D01*
X113530537Y-72645506D01*
X113451185Y-72548815D01*
X113354494Y-72469463D01*
X113244180Y-72410498D01*
X113124482Y-72374188D01*
X113000000Y-72361928D01*
X110000000Y-72361928D01*
X109875518Y-72374188D01*
X109755820Y-72410498D01*
X109645506Y-72469463D01*
X109548815Y-72548815D01*
X109469463Y-72645506D01*
X109410498Y-72755820D01*
X109374188Y-72875518D01*
X109361928Y-73000000D01*
X107727922Y-73000000D01*
X107576038Y-72692786D01*
X107201255Y-72501980D01*
X106796449Y-72387956D01*
X106377176Y-72355098D01*
X105959549Y-72404666D01*
X105559617Y-72534757D01*
X105263962Y-72692786D01*
X105107952Y-73008347D01*
X100660000Y-73008347D01*
X100660000Y-72032279D01*
X100688625Y-71740341D01*
X100764035Y-71490571D01*
X100886522Y-71260208D01*
X101051422Y-71058020D01*
X101252450Y-70891714D01*
X101481954Y-70767622D01*
X101731195Y-70690469D01*
X102021088Y-70660000D01*
X134967721Y-70660000D01*
X135259659Y-70688625D01*
G37*
X135259659Y-70688625D02*
X135509429Y-70764035D01*
X135739792Y-70886522D01*
X135941980Y-71051422D01*
X136108286Y-71252450D01*
X136232378Y-71481954D01*
X136309531Y-71731195D01*
X136340000Y-72021089D01*
X136340001Y-101467572D01*
X136340000Y-101467582D01*
X136340000Y-105527761D01*
X130135000Y-99322762D01*
X130135000Y-99289721D01*
X130052953Y-98877244D01*
X129892012Y-98488698D01*
X129658363Y-98139017D01*
X129635000Y-98115654D01*
X129635000Y-97364344D01*
X132165000Y-97364344D01*
X132165000Y-97735656D01*
X132237439Y-98099834D01*
X132379534Y-98442882D01*
X132585825Y-98751618D01*
X132848382Y-99014175D01*
X133157118Y-99220466D01*
X133500166Y-99362561D01*
X133864344Y-99435000D01*
X134235656Y-99435000D01*
X134599834Y-99362561D01*
X134942882Y-99220466D01*
X135251618Y-99014175D01*
X135514175Y-98751618D01*
X135720466Y-98442882D01*
X135862561Y-98099834D01*
X135935000Y-97735656D01*
X135935000Y-97364344D01*
X135862561Y-97000166D01*
X135720466Y-96657118D01*
X135514175Y-96348382D01*
X135251618Y-96085825D01*
X134942882Y-95879534D01*
X134599834Y-95737439D01*
X134235656Y-95665000D01*
X133864344Y-95665000D01*
X133500166Y-95737439D01*
X133157118Y-95879534D01*
X132848382Y-96085825D01*
X132585825Y-96348382D01*
X132379534Y-96657118D01*
X132237439Y-97000166D01*
X132165000Y-97364344D01*
X129635000Y-97364344D01*
X129635000Y-95080319D01*
X129642911Y-94999999D01*
X129635000Y-94919678D01*
X129611343Y-94679484D01*
X129517852Y-94371285D01*
X129366031Y-94087248D01*
X129161714Y-93838286D01*
X129099319Y-93787080D01*
X125712925Y-90400687D01*
X125661714Y-90338286D01*
X125412752Y-90133969D01*
X125128715Y-89982148D01*
X124820516Y-89888657D01*
X124580322Y-89865000D01*
X124580319Y-89865000D01*
X124500000Y-89857089D01*
X124419681Y-89865000D01*
X112580319Y-89865000D01*
X112499999Y-89857089D01*
X112419680Y-89865000D01*
X112419678Y-89865000D01*
X112179484Y-89888657D01*
X111871285Y-89982148D01*
X111587248Y-90133969D01*
X111338286Y-90338286D01*
X111287080Y-90400681D01*
X107900687Y-93787075D01*
X107838286Y-93838286D01*
X107633969Y-94087249D01*
X107482148Y-94371286D01*
X107388657Y-94679485D01*
X107365000Y-94919678D01*
X107357089Y-95000000D01*
X107365000Y-95080320D01*
X107365001Y-98115653D01*
X107341637Y-98139017D01*
X107107988Y-98488698D01*
X106947047Y-98877244D01*
X106865000Y-99289721D01*
X106865000Y-99710279D01*
X106947047Y-100122756D01*
X107107988Y-100511302D01*
X107341637Y-100860983D01*
X107639017Y-101158363D01*
X107988698Y-101392012D01*
X108377244Y-101552953D01*
X108789721Y-101635000D01*
X109210279Y-101635000D01*
X109622756Y-101552953D01*
X110011302Y-101392012D01*
X110360983Y-101158363D01*
X110658363Y-100860983D01*
X110892012Y-100511302D01*
X111052953Y-100122756D01*
X111135000Y-99710279D01*
X111135000Y-99289721D01*
X111052953Y-98877244D01*
X110892012Y-98488698D01*
X110658363Y-98139017D01*
X110635000Y-98115654D01*
X110635000Y-97364344D01*
X113165000Y-97364344D01*
X113165000Y-97735656D01*
X113237439Y-98099834D01*
X113379534Y-98442882D01*
X113585825Y-98751618D01*
X113848382Y-99014175D01*
X114157118Y-99220466D01*
X114500166Y-99362561D01*
X114864344Y-99435000D01*
X115235656Y-99435000D01*
X115599834Y-99362561D01*
X115942882Y-99220466D01*
X116251618Y-99014175D01*
X116514175Y-98751618D01*
X116720466Y-98442882D01*
X116862561Y-98099834D01*
X116935000Y-97735656D01*
X116935000Y-97364344D01*
X120165000Y-97364344D01*
X120165000Y-97735656D01*
X120237439Y-98099834D01*
X120379534Y-98442882D01*
X120585825Y-98751618D01*
X120848382Y-99014175D01*
X121157118Y-99220466D01*
X121500166Y-99362561D01*
X121864344Y-99435000D01*
X122235656Y-99435000D01*
X122599834Y-99362561D01*
X122942882Y-99220466D01*
X123251618Y-99014175D01*
X123514175Y-98751618D01*
X123720466Y-98442882D01*
X123862561Y-98099834D01*
X123935000Y-97735656D01*
X123935000Y-97364344D01*
X123862561Y-97000166D01*
X123720466Y-96657118D01*
X123514175Y-96348382D01*
X123251618Y-96085825D01*
X122942882Y-95879534D01*
X122599834Y-95737439D01*
X122235656Y-95665000D01*
X121864344Y-95665000D01*
X121500166Y-95737439D01*
X121157118Y-95879534D01*
X120848382Y-96085825D01*
X120585825Y-96348382D01*
X120379534Y-96657118D01*
X120237439Y-97000166D01*
X120165000Y-97364344D01*
X116935000Y-97364344D01*
X116862561Y-97000166D01*
X116720466Y-96657118D01*
X116514175Y-96348382D01*
X116251618Y-96085825D01*
X115942882Y-95879534D01*
X115599834Y-95737439D01*
X115235656Y-95665000D01*
X114864344Y-95665000D01*
X114500166Y-95737439D01*
X114157118Y-95879534D01*
X113848382Y-96085825D01*
X113585825Y-96348382D01*
X113379534Y-96657118D01*
X113237439Y-97000166D01*
X113165000Y-97364344D01*
X110635000Y-97364344D01*
X110635000Y-95677238D01*
X113177239Y-93135000D01*
X123822762Y-93135000D01*
X126365001Y-95677240D01*
X126365000Y-98115654D01*
X126341637Y-98139017D01*
X126107988Y-98488698D01*
X125947047Y-98877244D01*
X125865000Y-99289721D01*
X125865000Y-99710279D01*
X125947047Y-100122756D01*
X126107988Y-100511302D01*
X126341637Y-100860983D01*
X126639017Y-101158363D01*
X126988698Y-101392012D01*
X127377244Y-101552953D01*
X127789721Y-101635000D01*
X127822762Y-101635000D01*
X134139991Y-107952230D01*
X134139991Y-108285331D01*
X133943758Y-108194066D01*
X133688260Y-108131817D01*
X133425527Y-108120610D01*
X133165656Y-108160875D01*
X132918634Y-108251065D01*
X132817797Y-108304963D01*
X132758336Y-108538731D01*
X133500000Y-109280395D01*
X133514143Y-109266253D01*
X133693748Y-109445858D01*
X133679605Y-109460000D01*
X133693748Y-109474143D01*
X133514143Y-109653748D01*
X133500000Y-109639605D01*
X132758336Y-110381269D01*
X132817797Y-110615037D01*
X133056242Y-110725934D01*
X133075827Y-110730706D01*
X132867641Y-110816939D01*
X132648987Y-110963038D01*
X132463038Y-111148987D01*
X132316939Y-111367641D01*
X132216304Y-111610595D01*
X132165000Y-111868514D01*
X132165000Y-112131486D01*
X132216304Y-112389405D01*
X132316939Y-112632359D01*
X132463038Y-112851013D01*
X132648987Y-113036962D01*
X132867641Y-113183061D01*
X133110595Y-113283696D01*
X133368514Y-113335000D01*
X133631486Y-113335000D01*
X133889405Y-113283696D01*
X134132359Y-113183061D01*
X134139991Y-113177962D01*
X134139991Y-114317433D01*
X134071475Y-114248917D01*
X133955807Y-114364585D01*
X133860044Y-114100186D01*
X133570429Y-113959296D01*
X133258892Y-113877616D01*
X132937405Y-113858282D01*
X132618325Y-113902039D01*
X132313912Y-114007205D01*
X132139956Y-114100186D01*
X132044192Y-114364587D01*
X133000000Y-115320395D01*
X133014143Y-115306253D01*
X133193748Y-115485858D01*
X133179605Y-115500000D01*
X133193748Y-115514143D01*
X133014143Y-115693748D01*
X133000000Y-115679605D01*
X132044192Y-116635413D01*
X132139956Y-116899814D01*
X132429571Y-117040704D01*
X132741108Y-117122384D01*
X133062595Y-117141718D01*
X133381675Y-117097961D01*
X133686088Y-116992795D01*
X133860044Y-116899814D01*
X133955807Y-116635415D01*
X134071475Y-116751083D01*
X134139991Y-116682567D01*
X134139991Y-120817433D01*
X134071475Y-120748917D01*
X133955807Y-120864585D01*
X133860044Y-120600186D01*
X133570429Y-120459296D01*
X133258892Y-120377616D01*
X132937405Y-120358282D01*
X132618325Y-120402039D01*
X132313912Y-120507205D01*
X132139956Y-120600186D01*
X132044192Y-120864587D01*
X133000000Y-121820395D01*
X133014143Y-121806253D01*
X133193748Y-121985858D01*
X133179605Y-122000000D01*
X133193748Y-122014143D01*
X133014143Y-122193748D01*
X133000000Y-122179605D01*
X132044192Y-123135413D01*
X132139956Y-123399814D01*
X132429571Y-123540704D01*
X132741108Y-123622384D01*
X133062595Y-123641718D01*
X133381675Y-123597961D01*
X133686088Y-123492795D01*
X133860044Y-123399814D01*
X133955807Y-123135415D01*
X134071475Y-123251083D01*
X134139990Y-123182568D01*
X134139990Y-124817432D01*
X134071475Y-124748917D01*
X133955807Y-124864585D01*
X133860044Y-124600186D01*
X133570429Y-124459296D01*
X133258892Y-124377616D01*
X132937405Y-124358282D01*
X132618325Y-124402039D01*
X132313912Y-124507205D01*
X132139956Y-124600186D01*
X132044192Y-124864587D01*
X133000000Y-125820395D01*
X133014143Y-125806253D01*
X133193748Y-125985858D01*
X133179605Y-126000000D01*
X133193748Y-126014143D01*
X133014143Y-126193748D01*
X133000000Y-126179605D01*
X132044192Y-127135413D01*
X132139956Y-127399814D01*
X132429571Y-127540704D01*
X132741108Y-127622384D01*
X133062595Y-127641718D01*
X133381675Y-127597961D01*
X133686088Y-127492795D01*
X133860044Y-127399814D01*
X133955807Y-127135415D01*
X134071475Y-127251083D01*
X134139990Y-127182568D01*
X134139990Y-131317432D01*
X134071475Y-131248917D01*
X133955807Y-131364585D01*
X133860044Y-131100186D01*
X133570429Y-130959296D01*
X133258892Y-130877616D01*
X132937405Y-130858282D01*
X132618325Y-130902039D01*
X132313912Y-131007205D01*
X132139956Y-131100186D01*
X132044192Y-131364587D01*
X133000000Y-132320395D01*
X133014143Y-132306253D01*
X133193748Y-132485858D01*
X133179605Y-132500000D01*
X133193748Y-132514143D01*
X133014143Y-132693748D01*
X133000000Y-132679605D01*
X132044192Y-133635413D01*
X132139956Y-133899814D01*
X132429571Y-134040704D01*
X132741108Y-134122384D01*
X133062595Y-134141718D01*
X133381675Y-134097961D01*
X133686088Y-133992795D01*
X133860044Y-133899814D01*
X133955807Y-133635415D01*
X134071475Y-133751083D01*
X134139990Y-133682568D01*
X134139990Y-136855311D01*
X134139991Y-136855321D01*
X134139990Y-138822761D01*
X125900682Y-147062070D01*
X125838287Y-147113276D01*
X125633970Y-147362238D01*
X125482148Y-147646276D01*
X125388658Y-147954474D01*
X125357089Y-148274990D01*
X125365001Y-148355319D01*
X125365000Y-153877379D01*
X125255820Y-153910498D01*
X125145506Y-153969463D01*
X125048815Y-154048815D01*
X124969463Y-154145506D01*
X124910498Y-154255820D01*
X124877379Y-154365000D01*
X119959678Y-154365000D01*
X119719484Y-154388657D01*
X119411285Y-154482148D01*
X119127248Y-154633969D01*
X118878286Y-154838286D01*
X118673969Y-155087248D01*
X118594745Y-155235466D01*
X118536962Y-155148987D01*
X118351013Y-154963038D01*
X118132359Y-154816939D01*
X117889405Y-154716304D01*
X117631486Y-154665000D01*
X117368514Y-154665000D01*
X117110595Y-154716304D01*
X116867641Y-154816939D01*
X116648987Y-154963038D01*
X116463038Y-155148987D01*
X116316939Y-155367641D01*
X116216304Y-155610595D01*
X116165000Y-155868514D01*
X116165000Y-156131486D01*
X116216304Y-156389405D01*
X116316939Y-156632359D01*
X116463038Y-156851013D01*
X116648987Y-157036962D01*
X116867641Y-157183061D01*
X117110595Y-157283696D01*
X117368514Y-157335000D01*
X117631486Y-157335000D01*
X117889405Y-157283696D01*
X118132359Y-157183061D01*
X118351013Y-157036962D01*
X118536962Y-156851013D01*
X118594745Y-156764534D01*
X118673969Y-156912752D01*
X118878286Y-157161714D01*
X119127248Y-157366031D01*
X119411285Y-157517852D01*
X119719484Y-157611343D01*
X119959678Y-157635000D01*
X124877379Y-157635000D01*
X124910498Y-157744180D01*
X124969463Y-157854494D01*
X125048815Y-157951185D01*
X125145506Y-158030537D01*
X125255820Y-158089502D01*
X125375518Y-158125812D01*
X125500000Y-158138072D01*
X128500000Y-158138072D01*
X128624482Y-158125812D01*
X128744180Y-158089502D01*
X128854494Y-158030537D01*
X128951185Y-157951185D01*
X129030537Y-157854494D01*
X129089502Y-157744180D01*
X129125812Y-157624482D01*
X129138072Y-157500000D01*
X129138072Y-157491653D01*
X130767952Y-157491653D01*
X130923962Y-157807214D01*
X131298745Y-157998020D01*
X131703551Y-158112044D01*
X132122824Y-158144902D01*
X132540451Y-158095334D01*
X132940383Y-157965243D01*
X133236038Y-157807214D01*
X133392048Y-157491653D01*
X132080000Y-156179605D01*
X130767952Y-157491653D01*
X129138072Y-157491653D01*
X129138072Y-156042824D01*
X129935098Y-156042824D01*
X129984666Y-156460451D01*
X130114757Y-156860383D01*
X130272786Y-157156038D01*
X130588347Y-157312048D01*
X131900395Y-156000000D01*
X132259605Y-156000000D01*
X133571653Y-157312048D01*
X133887214Y-157156038D01*
X134078020Y-156781255D01*
X134192044Y-156376449D01*
X134224902Y-155957176D01*
X134175334Y-155539549D01*
X134045243Y-155139617D01*
X133887214Y-154843962D01*
X133571653Y-154687952D01*
X132259605Y-156000000D01*
X131900395Y-156000000D01*
X130588347Y-154687952D01*
X130272786Y-154843962D01*
X130081980Y-155218745D01*
X129967956Y-155623551D01*
X129935098Y-156042824D01*
X129138072Y-156042824D01*
X129138072Y-154508347D01*
X130767952Y-154508347D01*
X132080000Y-155820395D01*
X133392048Y-154508347D01*
X133236038Y-154192786D01*
X132861255Y-154001980D01*
X132456449Y-153887956D01*
X132037176Y-153855098D01*
X131619549Y-153904666D01*
X131219617Y-154034757D01*
X130923962Y-154192786D01*
X130767952Y-154508347D01*
X129138072Y-154508347D01*
X129138072Y-154500000D01*
X129125812Y-154375518D01*
X129089502Y-154255820D01*
X129030537Y-154145506D01*
X128951185Y-154048815D01*
X128854494Y-153969463D01*
X128744180Y-153910498D01*
X128635000Y-153877379D01*
X128635000Y-148952228D01*
X136340001Y-141247228D01*
X136340001Y-146467581D01*
X136340000Y-157967721D01*
X136311375Y-158259660D01*
X136235965Y-158509429D01*
X136113477Y-158739794D01*
X135948579Y-158941979D01*
X135747546Y-159108288D01*
X135518046Y-159232378D01*
X135268805Y-159309531D01*
X134978911Y-159340000D01*
X102032279Y-159340000D01*
X101740340Y-159311375D01*
X101490571Y-159235965D01*
X101260206Y-159113477D01*
X101058021Y-158948579D01*
X100891712Y-158747546D01*
X100767622Y-158518046D01*
X100690469Y-158268805D01*
X100660000Y-157978911D01*
X100660000Y-154500000D01*
X102861928Y-154500000D01*
X102861928Y-157500000D01*
X102874188Y-157624482D01*
X102910498Y-157744180D01*
X102969463Y-157854494D01*
X103048815Y-157951185D01*
X103145506Y-158030537D01*
X103255820Y-158089502D01*
X103375518Y-158125812D01*
X103500000Y-158138072D01*
X106500000Y-158138072D01*
X106624482Y-158125812D01*
X106744180Y-158089502D01*
X106854494Y-158030537D01*
X106951185Y-157951185D01*
X107030537Y-157854494D01*
X107089502Y-157744180D01*
X107125812Y-157624482D01*
X107138072Y-157500000D01*
X107138072Y-157491653D01*
X108767952Y-157491653D01*
X108923962Y-157807214D01*
X109298745Y-157998020D01*
X109703551Y-158112044D01*
X110122824Y-158144902D01*
X110540451Y-158095334D01*
X110940383Y-157965243D01*
X111236038Y-157807214D01*
X111392048Y-157491653D01*
X110080000Y-156179605D01*
X108767952Y-157491653D01*
X107138072Y-157491653D01*
X107138072Y-156042824D01*
X107935098Y-156042824D01*
X107984666Y-156460451D01*
X108114757Y-156860383D01*
X108272786Y-157156038D01*
X108588347Y-157312048D01*
X109900395Y-156000000D01*
X110259605Y-156000000D01*
X111571653Y-157312048D01*
X111887214Y-157156038D01*
X112078020Y-156781255D01*
X112192044Y-156376449D01*
X112224902Y-155957176D01*
X112175334Y-155539549D01*
X112045243Y-155139617D01*
X111887214Y-154843962D01*
X111571653Y-154687952D01*
X110259605Y-156000000D01*
X109900395Y-156000000D01*
X108588347Y-154687952D01*
X108272786Y-154843962D01*
X108081980Y-155218745D01*
X107967956Y-155623551D01*
X107935098Y-156042824D01*
X107138072Y-156042824D01*
X107138072Y-154508347D01*
X108767952Y-154508347D01*
X110080000Y-155820395D01*
X111392048Y-154508347D01*
X111236038Y-154192786D01*
X110861255Y-154001980D01*
X110456449Y-153887956D01*
X110037176Y-153855098D01*
X109619549Y-153904666D01*
X109219617Y-154034757D01*
X108923962Y-154192786D01*
X108767952Y-154508347D01*
X107138072Y-154508347D01*
X107138072Y-154500000D01*
X107125812Y-154375518D01*
X107089502Y-154255820D01*
X107030537Y-154145506D01*
X106951185Y-154048815D01*
X106854494Y-153969463D01*
X106744180Y-153910498D01*
X106624482Y-153874188D01*
X106500000Y-153861928D01*
X103500000Y-153861928D01*
X103375518Y-153874188D01*
X103255820Y-153910498D01*
X103145506Y-153969463D01*
X103048815Y-154048815D01*
X102969463Y-154145506D01*
X102910498Y-154255820D01*
X102874188Y-154375518D01*
X102861928Y-154500000D01*
X100660000Y-154500000D01*
X100660000Y-149800000D01*
X116661928Y-149800000D01*
X116661928Y-152200000D01*
X116674188Y-152324482D01*
X116710498Y-152444180D01*
X116769463Y-152554494D01*
X116848815Y-152651185D01*
X116945506Y-152730537D01*
X117055820Y-152789502D01*
X117175518Y-152825812D01*
X117300000Y-152838072D01*
X119700000Y-152838072D01*
X119824482Y-152825812D01*
X119944180Y-152789502D01*
X120054494Y-152730537D01*
X120151185Y-152651185D01*
X120230537Y-152554494D01*
X120289502Y-152444180D01*
X120325812Y-152324482D01*
X120338072Y-152200000D01*
X120338072Y-149800000D01*
X120325812Y-149675518D01*
X120289502Y-149555820D01*
X120230537Y-149445506D01*
X120151185Y-149348815D01*
X120054494Y-149269463D01*
X119944180Y-149210498D01*
X119824482Y-149174188D01*
X119700000Y-149161928D01*
X117300000Y-149161928D01*
X117175518Y-149174188D01*
X117055820Y-149210498D01*
X116945506Y-149269463D01*
X116848815Y-149348815D01*
X116769463Y-149445506D01*
X116710498Y-149555820D01*
X116674188Y-149675518D01*
X116661928Y-149800000D01*
X100660000Y-149800000D01*
X100660000Y-145425000D01*
X111561928Y-145425000D01*
X111561928Y-147125000D01*
X111574188Y-147249482D01*
X111610498Y-147369180D01*
X111669463Y-147479494D01*
X111748815Y-147576185D01*
X111845506Y-147655537D01*
X111955820Y-147714502D01*
X112075518Y-147750812D01*
X112200000Y-147763072D01*
X113900000Y-147763072D01*
X114024482Y-147750812D01*
X114144180Y-147714502D01*
X114254494Y-147655537D01*
X114351185Y-147576185D01*
X114430537Y-147479494D01*
X114489502Y-147369180D01*
X114525812Y-147249482D01*
X114538072Y-147125000D01*
X114538072Y-145425000D01*
X114525812Y-145300518D01*
X114489502Y-145180820D01*
X114430537Y-145070506D01*
X114351185Y-144973815D01*
X114254494Y-144894463D01*
X114144180Y-144835498D01*
X114071620Y-144813487D01*
X114107127Y-144777980D01*
X117401626Y-144777980D01*
X117521514Y-145062836D01*
X117845210Y-145223699D01*
X118194069Y-145318322D01*
X118554684Y-145343067D01*
X118913198Y-145296985D01*
X119255833Y-145181846D01*
X119478486Y-145062836D01*
X119598374Y-144777980D01*
X118500000Y-143679605D01*
X117401626Y-144777980D01*
X114107127Y-144777980D01*
X114203475Y-144681632D01*
X114365990Y-144438411D01*
X114477932Y-144168158D01*
X114535000Y-143881260D01*
X114535000Y-143588740D01*
X114528226Y-143554684D01*
X116656933Y-143554684D01*
X116703015Y-143913198D01*
X116818154Y-144255833D01*
X116937164Y-144478486D01*
X117222020Y-144598374D01*
X118320395Y-143500000D01*
X118679605Y-143500000D01*
X119777980Y-144598374D01*
X120062836Y-144478486D01*
X120223699Y-144154790D01*
X120318322Y-143805931D01*
X120343067Y-143445316D01*
X120296985Y-143086802D01*
X120181846Y-142744167D01*
X120062836Y-142521514D01*
X119777980Y-142401626D01*
X118679605Y-143500000D01*
X118320395Y-143500000D01*
X117222020Y-142401626D01*
X116937164Y-142521514D01*
X116776301Y-142845210D01*
X116681678Y-143194069D01*
X116656933Y-143554684D01*
X114528226Y-143554684D01*
X114477932Y-143301842D01*
X114365990Y-143031589D01*
X114203475Y-142788368D01*
X113996632Y-142581525D01*
X113814466Y-142459805D01*
X113931355Y-142390178D01*
X114117910Y-142222020D01*
X117401626Y-142222020D01*
X118500000Y-143320395D01*
X119598374Y-142222020D01*
X119478486Y-141937164D01*
X119154790Y-141776301D01*
X118805931Y-141681678D01*
X118445316Y-141656933D01*
X118086802Y-141703015D01*
X117744167Y-141818154D01*
X117521514Y-141937164D01*
X117401626Y-142222020D01*
X114117910Y-142222020D01*
X114147588Y-142195269D01*
X114321641Y-141961920D01*
X114446825Y-141699099D01*
X114491476Y-141551890D01*
X114370155Y-141322000D01*
X113177000Y-141322000D01*
X113177000Y-141342000D01*
X112923000Y-141342000D01*
X112923000Y-141322000D01*
X111729845Y-141322000D01*
X111608524Y-141551890D01*
X111653175Y-141699099D01*
X111778359Y-141961920D01*
X111952412Y-142195269D01*
X112168645Y-142390178D01*
X112285534Y-142459805D01*
X112103368Y-142581525D01*
X111896525Y-142788368D01*
X111734010Y-143031589D01*
X111622068Y-143301842D01*
X111565000Y-143588740D01*
X111565000Y-143881260D01*
X111622068Y-144168158D01*
X111734010Y-144438411D01*
X111896525Y-144681632D01*
X112028380Y-144813487D01*
X111955820Y-144835498D01*
X111845506Y-144894463D01*
X111748815Y-144973815D01*
X111669463Y-145070506D01*
X111610498Y-145180820D01*
X111574188Y-145300518D01*
X111561928Y-145425000D01*
X100660000Y-145425000D01*
X100660000Y-140838110D01*
X111608524Y-140838110D01*
X111729845Y-141068000D01*
X112923000Y-141068000D01*
X112923000Y-139874186D01*
X113177000Y-139874186D01*
X113177000Y-141068000D01*
X114370155Y-141068000D01*
X114491476Y-140838110D01*
X114446825Y-140690901D01*
X114321641Y-140428080D01*
X114147588Y-140194731D01*
X113931355Y-139999822D01*
X113681252Y-139850843D01*
X113406891Y-139753519D01*
X113177000Y-139874186D01*
X112923000Y-139874186D01*
X112693109Y-139753519D01*
X112418748Y-139850843D01*
X112168645Y-139999822D01*
X111952412Y-140194731D01*
X111778359Y-140428080D01*
X111653175Y-140690901D01*
X111608524Y-140838110D01*
X100660000Y-140838110D01*
X100660000Y-133660000D01*
X105967581Y-133660000D01*
X106000000Y-133663193D01*
X106032419Y-133660000D01*
X106129383Y-133650450D01*
X106253793Y-133612710D01*
X106368450Y-133551425D01*
X106468948Y-133468948D01*
X106551425Y-133368450D01*
X106612710Y-133253793D01*
X106650450Y-133129383D01*
X106663193Y-133000000D01*
X106660000Y-132967581D01*
X106660000Y-128398061D01*
X109965000Y-128398061D01*
X109965000Y-128601939D01*
X110004774Y-128801898D01*
X110082795Y-128990256D01*
X110196063Y-129159774D01*
X110340226Y-129303937D01*
X110509744Y-129417205D01*
X110698102Y-129495226D01*
X110843226Y-129524093D01*
X114380559Y-133061427D01*
X114406709Y-133093291D01*
X114533854Y-133197636D01*
X114549881Y-133206203D01*
X114490226Y-133246063D01*
X114346063Y-133390226D01*
X114232795Y-133559744D01*
X114154774Y-133748102D01*
X114115000Y-133948061D01*
X114115000Y-134151939D01*
X114154774Y-134351898D01*
X114232795Y-134540256D01*
X114346063Y-134709774D01*
X114490226Y-134853937D01*
X114659744Y-134967205D01*
X114781586Y-135017674D01*
X114857927Y-135135656D01*
X114832950Y-136009851D01*
X114732795Y-136159744D01*
X114654774Y-136348102D01*
X114615000Y-136548061D01*
X114615000Y-136751939D01*
X114654774Y-136951898D01*
X114732795Y-137140256D01*
X114846063Y-137309774D01*
X114990226Y-137453937D01*
X115159744Y-137567205D01*
X115348102Y-137645226D01*
X115548061Y-137685000D01*
X115751939Y-137685000D01*
X115951898Y-137645226D01*
X116140256Y-137567205D01*
X116309774Y-137453937D01*
X116453937Y-137309774D01*
X116567205Y-137140256D01*
X116645226Y-136951898D01*
X116685000Y-136751939D01*
X116685000Y-136548061D01*
X116645226Y-136348102D01*
X116567205Y-136159744D01*
X116502130Y-136062352D01*
X116533652Y-134959072D01*
X116538948Y-134912370D01*
X116532574Y-134836144D01*
X116527257Y-134759881D01*
X116525727Y-134754266D01*
X116525242Y-134748462D01*
X116504118Y-134674940D01*
X116484025Y-134601183D01*
X116481429Y-134595974D01*
X116479821Y-134590377D01*
X116444762Y-134522394D01*
X116410664Y-134453969D01*
X116381900Y-134416805D01*
X116185000Y-134112504D01*
X116185000Y-133948061D01*
X116145226Y-133748102D01*
X116067205Y-133559744D01*
X115953937Y-133390226D01*
X115898711Y-133335000D01*
X119654132Y-133335000D01*
X120165001Y-133845869D01*
X120165000Y-135271935D01*
X120053368Y-135346525D01*
X119921513Y-135478380D01*
X119899502Y-135405820D01*
X119840537Y-135295506D01*
X119761185Y-135198815D01*
X119664494Y-135119463D01*
X119554180Y-135060498D01*
X119434482Y-135024188D01*
X119310000Y-135011928D01*
X117610000Y-135011928D01*
X117485518Y-135024188D01*
X117365820Y-135060498D01*
X117255506Y-135119463D01*
X117158815Y-135198815D01*
X117079463Y-135295506D01*
X117020498Y-135405820D01*
X116984188Y-135525518D01*
X116971928Y-135650000D01*
X116971928Y-137350000D01*
X116984188Y-137474482D01*
X117020498Y-137594180D01*
X117079463Y-137704494D01*
X117158815Y-137801185D01*
X117255506Y-137880537D01*
X117365820Y-137939502D01*
X117485518Y-137975812D01*
X117610000Y-137988072D01*
X119310000Y-137988072D01*
X119434482Y-137975812D01*
X119554180Y-137939502D01*
X119664494Y-137880537D01*
X119761185Y-137801185D01*
X119840537Y-137704494D01*
X119899502Y-137594180D01*
X119921513Y-137521620D01*
X120053368Y-137653475D01*
X120296589Y-137815990D01*
X120566842Y-137927932D01*
X120853740Y-137985000D01*
X121146260Y-137985000D01*
X121433158Y-137927932D01*
X121703411Y-137815990D01*
X121946632Y-137653475D01*
X122153475Y-137446632D01*
X122270000Y-137272240D01*
X122386525Y-137446632D01*
X122593368Y-137653475D01*
X122836589Y-137815990D01*
X123106842Y-137927932D01*
X123393740Y-137985000D01*
X123686260Y-137985000D01*
X123973158Y-137927932D01*
X124243411Y-137815990D01*
X124486632Y-137653475D01*
X124693475Y-137446632D01*
X124810000Y-137272240D01*
X124926525Y-137446632D01*
X125133368Y-137653475D01*
X125376589Y-137815990D01*
X125646842Y-137927932D01*
X125933740Y-137985000D01*
X126226260Y-137985000D01*
X126513158Y-137927932D01*
X126783411Y-137815990D01*
X127026632Y-137653475D01*
X127233475Y-137446632D01*
X127350000Y-137272240D01*
X127466525Y-137446632D01*
X127673368Y-137653475D01*
X127916589Y-137815990D01*
X128186842Y-137927932D01*
X128473740Y-137985000D01*
X128766260Y-137985000D01*
X129053158Y-137927932D01*
X129323411Y-137815990D01*
X129566632Y-137653475D01*
X129773475Y-137446632D01*
X129895195Y-137264466D01*
X129964822Y-137381355D01*
X130159731Y-137597588D01*
X130393080Y-137771641D01*
X130655901Y-137896825D01*
X130803110Y-137941476D01*
X131033000Y-137820155D01*
X131033000Y-136627000D01*
X131287000Y-136627000D01*
X131287000Y-137820155D01*
X131516890Y-137941476D01*
X131664099Y-137896825D01*
X131926920Y-137771641D01*
X132160269Y-137597588D01*
X132355178Y-137381355D01*
X132504157Y-137131252D01*
X132601481Y-136856891D01*
X132480814Y-136627000D01*
X131287000Y-136627000D01*
X131033000Y-136627000D01*
X131013000Y-136627000D01*
X131013000Y-136373000D01*
X131033000Y-136373000D01*
X131033000Y-135179845D01*
X131287000Y-135179845D01*
X131287000Y-136373000D01*
X132480814Y-136373000D01*
X132601481Y-136143109D01*
X132504157Y-135868748D01*
X132355178Y-135618645D01*
X132160269Y-135402412D01*
X131926920Y-135228359D01*
X131664099Y-135103175D01*
X131516890Y-135058524D01*
X131287000Y-135179845D01*
X131033000Y-135179845D01*
X130803110Y-135058524D01*
X130655901Y-135103175D01*
X130393080Y-135228359D01*
X130159731Y-135402412D01*
X129964822Y-135618645D01*
X129895195Y-135735534D01*
X129773475Y-135553368D01*
X129566632Y-135346525D01*
X129323411Y-135184010D01*
X129053158Y-135072068D01*
X128766260Y-135015000D01*
X128473740Y-135015000D01*
X128186842Y-135072068D01*
X127916589Y-135184010D01*
X127673368Y-135346525D01*
X127466525Y-135553368D01*
X127350000Y-135727760D01*
X127233475Y-135553368D01*
X127026632Y-135346525D01*
X126783411Y-135184010D01*
X126513158Y-135072068D01*
X126226260Y-135015000D01*
X125933740Y-135015000D01*
X125646842Y-135072068D01*
X125376589Y-135184010D01*
X125133368Y-135346525D01*
X124926525Y-135553368D01*
X124810000Y-135727760D01*
X124693475Y-135553368D01*
X124486632Y-135346525D01*
X124375000Y-135271935D01*
X124375000Y-133081018D01*
X124379040Y-133040000D01*
X124362918Y-132876312D01*
X124361191Y-132870617D01*
X124315172Y-132718913D01*
X124237636Y-132573854D01*
X124228396Y-132562595D01*
X124159439Y-132478570D01*
X124159437Y-132478568D01*
X124133291Y-132446709D01*
X124101433Y-132420564D01*
X124019836Y-132338967D01*
X126865000Y-132338967D01*
X126865000Y-132661033D01*
X126927832Y-132976912D01*
X127051082Y-133274463D01*
X127230013Y-133542252D01*
X127457748Y-133769987D01*
X127725537Y-133948918D01*
X128023088Y-134072168D01*
X128338967Y-134135000D01*
X128661033Y-134135000D01*
X128976912Y-134072168D01*
X129274463Y-133948918D01*
X129542252Y-133769987D01*
X129769987Y-133542252D01*
X129948918Y-133274463D01*
X130072168Y-132976912D01*
X130135000Y-132661033D01*
X130135000Y-132562595D01*
X131358282Y-132562595D01*
X131402039Y-132881675D01*
X131507205Y-133186088D01*
X131600186Y-133360044D01*
X131864587Y-133455808D01*
X132820395Y-132500000D01*
X131864587Y-131544192D01*
X131600186Y-131639956D01*
X131459296Y-131929571D01*
X131377616Y-132241108D01*
X131358282Y-132562595D01*
X130135000Y-132562595D01*
X130135000Y-132338967D01*
X130072168Y-132023088D01*
X129948918Y-131725537D01*
X129769987Y-131457748D01*
X129542252Y-131230013D01*
X129274463Y-131051082D01*
X128976912Y-130927832D01*
X128661033Y-130865000D01*
X128338967Y-130865000D01*
X128023088Y-130927832D01*
X127725537Y-131051082D01*
X127457748Y-131230013D01*
X127230013Y-131457748D01*
X127051082Y-131725537D01*
X126927832Y-132023088D01*
X126865000Y-132338967D01*
X124019836Y-132338967D01*
X122119446Y-130438579D01*
X122093291Y-130406709D01*
X121966146Y-130302364D01*
X121821087Y-130224828D01*
X121663689Y-130177082D01*
X121541019Y-130165000D01*
X121541018Y-130165000D01*
X121500000Y-130160960D01*
X121458982Y-130165000D01*
X115345868Y-130165000D01*
X114024093Y-128843225D01*
X113995226Y-128698102D01*
X113917205Y-128509744D01*
X113803937Y-128340226D01*
X113659774Y-128196063D01*
X113490256Y-128082795D01*
X113301898Y-128004774D01*
X113101939Y-127965000D01*
X112898061Y-127965000D01*
X112698102Y-128004774D01*
X112509744Y-128082795D01*
X112340226Y-128196063D01*
X112196063Y-128340226D01*
X112125980Y-128445113D01*
X112024093Y-128343226D01*
X111995226Y-128198102D01*
X111917205Y-128009744D01*
X111803937Y-127840226D01*
X111659774Y-127696063D01*
X111490256Y-127582795D01*
X111301898Y-127504774D01*
X111101939Y-127465000D01*
X110898061Y-127465000D01*
X110698102Y-127504774D01*
X110509744Y-127582795D01*
X110340226Y-127696063D01*
X110196063Y-127840226D01*
X110082795Y-128009744D01*
X110004774Y-128198102D01*
X109965000Y-128398061D01*
X106660000Y-128398061D01*
X106660000Y-117898061D01*
X108465000Y-117898061D01*
X108465000Y-118101939D01*
X108504774Y-118301898D01*
X108582795Y-118490256D01*
X108696063Y-118659774D01*
X108840226Y-118803937D01*
X109009744Y-118917205D01*
X109198102Y-118995226D01*
X109398061Y-119035000D01*
X109601939Y-119035000D01*
X109801898Y-118995226D01*
X109990256Y-118917205D01*
X110159774Y-118803937D01*
X110303937Y-118659774D01*
X110417205Y-118490256D01*
X110495226Y-118301898D01*
X110524092Y-118156775D01*
X111061433Y-117619436D01*
X111093291Y-117593291D01*
X111197636Y-117466146D01*
X111275172Y-117321087D01*
X111322918Y-117163689D01*
X111335000Y-117041019D01*
X111335000Y-117041018D01*
X111339040Y-117000000D01*
X111335000Y-116958982D01*
X111335000Y-111398061D01*
X112465000Y-111398061D01*
X112465000Y-111601939D01*
X112504774Y-111801898D01*
X112582795Y-111990256D01*
X112696063Y-112159774D01*
X112840226Y-112303937D01*
X113009744Y-112417205D01*
X113198102Y-112495226D01*
X113343225Y-112524093D01*
X115665001Y-114845870D01*
X115665000Y-127458981D01*
X115660960Y-127500000D01*
X115665000Y-127541018D01*
X115677082Y-127663688D01*
X115724828Y-127821086D01*
X115802364Y-127966145D01*
X115906709Y-128093291D01*
X115938579Y-128119446D01*
X116975908Y-129156775D01*
X117004774Y-129301898D01*
X117082795Y-129490256D01*
X117196063Y-129659774D01*
X117340226Y-129803937D01*
X117509744Y-129917205D01*
X117698102Y-129995226D01*
X117898061Y-130035000D01*
X118101939Y-130035000D01*
X118301898Y-129995226D01*
X118490256Y-129917205D01*
X118659774Y-129803937D01*
X118803937Y-129659774D01*
X118917205Y-129490256D01*
X118995226Y-129301898D01*
X119035000Y-129101939D01*
X119035000Y-128898061D01*
X119026125Y-128853444D01*
X119082795Y-128990256D01*
X119196063Y-129159774D01*
X119340226Y-129303937D01*
X119509744Y-129417205D01*
X119698102Y-129495226D01*
X119898061Y-129535000D01*
X120101939Y-129535000D01*
X120301898Y-129495226D01*
X120490256Y-129417205D01*
X120659774Y-129303937D01*
X120803937Y-129159774D01*
X120917205Y-128990256D01*
X120995226Y-128801898D01*
X121035000Y-128601939D01*
X121035000Y-128398061D01*
X120995226Y-128198102D01*
X120917205Y-128009744D01*
X120835000Y-127886715D01*
X120835000Y-125838967D01*
X126865000Y-125838967D01*
X126865000Y-126161033D01*
X126927832Y-126476912D01*
X127051082Y-126774463D01*
X127230013Y-127042252D01*
X127457748Y-127269987D01*
X127725537Y-127448918D01*
X128023088Y-127572168D01*
X128338967Y-127635000D01*
X128661033Y-127635000D01*
X128976912Y-127572168D01*
X129274463Y-127448918D01*
X129542252Y-127269987D01*
X129769987Y-127042252D01*
X129948918Y-126774463D01*
X130072168Y-126476912D01*
X130135000Y-126161033D01*
X130135000Y-126062595D01*
X131358282Y-126062595D01*
X131402039Y-126381675D01*
X131507205Y-126686088D01*
X131600186Y-126860044D01*
X131864587Y-126955808D01*
X132820395Y-126000000D01*
X131864587Y-125044192D01*
X131600186Y-125139956D01*
X131459296Y-125429571D01*
X131377616Y-125741108D01*
X131358282Y-126062595D01*
X130135000Y-126062595D01*
X130135000Y-125838967D01*
X130072168Y-125523088D01*
X129948918Y-125225537D01*
X129769987Y-124957748D01*
X129542252Y-124730013D01*
X129274463Y-124551082D01*
X128976912Y-124427832D01*
X128661033Y-124365000D01*
X128338967Y-124365000D01*
X128023088Y-124427832D01*
X127725537Y-124551082D01*
X127457748Y-124730013D01*
X127230013Y-124957748D01*
X127051082Y-125225537D01*
X126927832Y-125523088D01*
X126865000Y-125838967D01*
X120835000Y-125838967D01*
X120835000Y-121838967D01*
X126865000Y-121838967D01*
X126865000Y-122161033D01*
X126927832Y-122476912D01*
X127051082Y-122774463D01*
X127230013Y-123042252D01*
X127457748Y-123269987D01*
X127725537Y-123448918D01*
X128023088Y-123572168D01*
X128338967Y-123635000D01*
X128661033Y-123635000D01*
X128976912Y-123572168D01*
X129274463Y-123448918D01*
X129542252Y-123269987D01*
X129769987Y-123042252D01*
X129948918Y-122774463D01*
X130072168Y-122476912D01*
X130135000Y-122161033D01*
X130135000Y-122062595D01*
X131358282Y-122062595D01*
X131402039Y-122381675D01*
X131507205Y-122686088D01*
X131600186Y-122860044D01*
X131864587Y-122955808D01*
X132820395Y-122000000D01*
X131864587Y-121044192D01*
X131600186Y-121139956D01*
X131459296Y-121429571D01*
X131377616Y-121741108D01*
X131358282Y-122062595D01*
X130135000Y-122062595D01*
X130135000Y-121838967D01*
X130072168Y-121523088D01*
X129948918Y-121225537D01*
X129769987Y-120957748D01*
X129542252Y-120730013D01*
X129274463Y-120551082D01*
X128976912Y-120427832D01*
X128661033Y-120365000D01*
X128338967Y-120365000D01*
X128023088Y-120427832D01*
X127725537Y-120551082D01*
X127457748Y-120730013D01*
X127230013Y-120957748D01*
X127051082Y-121225537D01*
X126927832Y-121523088D01*
X126865000Y-121838967D01*
X120835000Y-121838967D01*
X120835000Y-117845867D01*
X123341900Y-115338967D01*
X126865000Y-115338967D01*
X126865000Y-115661033D01*
X126927832Y-115976912D01*
X127051082Y-116274463D01*
X127230013Y-116542252D01*
X127457748Y-116769987D01*
X127725537Y-116948918D01*
X128023088Y-117072168D01*
X128338967Y-117135000D01*
X128661033Y-117135000D01*
X128976912Y-117072168D01*
X129274463Y-116948918D01*
X129542252Y-116769987D01*
X129769987Y-116542252D01*
X129948918Y-116274463D01*
X130072168Y-115976912D01*
X130135000Y-115661033D01*
X130135000Y-115338967D01*
X130072168Y-115023088D01*
X129948918Y-114725537D01*
X129769987Y-114457748D01*
X129542252Y-114230013D01*
X129274463Y-114051082D01*
X128976912Y-113927832D01*
X128661033Y-113865000D01*
X128338967Y-113865000D01*
X128023088Y-113927832D01*
X127725537Y-114051082D01*
X127457748Y-114230013D01*
X127230013Y-114457748D01*
X127051082Y-114725537D01*
X126927832Y-115023088D01*
X126865000Y-115338967D01*
X123341900Y-115338967D01*
X124845868Y-113835000D01*
X125886715Y-113835000D01*
X126009744Y-113917205D01*
X126198102Y-113995226D01*
X126398061Y-114035000D01*
X126601939Y-114035000D01*
X126801898Y-113995226D01*
X126990256Y-113917205D01*
X127159774Y-113803937D01*
X127303937Y-113659774D01*
X127417205Y-113490256D01*
X127495226Y-113301898D01*
X127535000Y-113101939D01*
X127535000Y-112898061D01*
X127495226Y-112698102D01*
X127417205Y-112509744D01*
X127303937Y-112340226D01*
X127159774Y-112196063D01*
X126990256Y-112082795D01*
X126801898Y-112004774D01*
X126601939Y-111965000D01*
X126398061Y-111965000D01*
X126198102Y-112004774D01*
X126009744Y-112082795D01*
X125886715Y-112165000D01*
X125817780Y-112165000D01*
X125919853Y-111918574D01*
X125975000Y-111641335D01*
X125975000Y-111358665D01*
X125919853Y-111081426D01*
X125811680Y-110820273D01*
X125654637Y-110585241D01*
X125454759Y-110385363D01*
X125219727Y-110228320D01*
X124958574Y-110120147D01*
X124681335Y-110065000D01*
X124398665Y-110065000D01*
X124121426Y-110120147D01*
X123860273Y-110228320D01*
X123625241Y-110385363D01*
X123426643Y-110583961D01*
X123425812Y-110575518D01*
X123389502Y-110455820D01*
X123330537Y-110345506D01*
X123251185Y-110248815D01*
X123154494Y-110169463D01*
X123044180Y-110110498D01*
X122924482Y-110074188D01*
X122800000Y-110061928D01*
X121200000Y-110061928D01*
X121075518Y-110074188D01*
X120955820Y-110110498D01*
X120845506Y-110169463D01*
X120748815Y-110248815D01*
X120669463Y-110345506D01*
X120610498Y-110455820D01*
X120574188Y-110575518D01*
X120561928Y-110700000D01*
X120561928Y-112300000D01*
X120574188Y-112424482D01*
X120610498Y-112544180D01*
X120669463Y-112654494D01*
X120748815Y-112751185D01*
X120845506Y-112830537D01*
X120955820Y-112889502D01*
X121075518Y-112925812D01*
X121200000Y-112938072D01*
X122800000Y-112938072D01*
X122924482Y-112925812D01*
X123044180Y-112889502D01*
X123154494Y-112830537D01*
X123251185Y-112751185D01*
X123330537Y-112654494D01*
X123389502Y-112544180D01*
X123425812Y-112424482D01*
X123426643Y-112416039D01*
X123625241Y-112614637D01*
X123672750Y-112646382D01*
X119438579Y-116880554D01*
X119406709Y-116906709D01*
X119336061Y-116992795D01*
X119302364Y-117033855D01*
X119224828Y-117178914D01*
X119177082Y-117336312D01*
X119160960Y-117500000D01*
X119165000Y-117541019D01*
X119165001Y-127886714D01*
X119082795Y-128009744D01*
X119004774Y-128198102D01*
X118965000Y-128398061D01*
X118965000Y-128601939D01*
X118973875Y-128646556D01*
X118917205Y-128509744D01*
X118803937Y-128340226D01*
X118659774Y-128196063D01*
X118490256Y-128082795D01*
X118301898Y-128004774D01*
X118156775Y-127975908D01*
X117335000Y-127154133D01*
X117335000Y-114541018D01*
X117339040Y-114500000D01*
X117322918Y-114336312D01*
X117297887Y-114253793D01*
X117275172Y-114178913D01*
X117197636Y-114033854D01*
X117165935Y-113995226D01*
X117119439Y-113938570D01*
X117119437Y-113938568D01*
X117093291Y-113906709D01*
X117061432Y-113880563D01*
X114524093Y-111343225D01*
X114495226Y-111198102D01*
X114417205Y-111009744D01*
X114303937Y-110840226D01*
X114159774Y-110696063D01*
X113990256Y-110582795D01*
X113801898Y-110504774D01*
X113601939Y-110465000D01*
X113398061Y-110465000D01*
X113198102Y-110504774D01*
X113009744Y-110582795D01*
X112840226Y-110696063D01*
X112696063Y-110840226D01*
X112582795Y-111009744D01*
X112504774Y-111198102D01*
X112465000Y-111398061D01*
X111335000Y-111398061D01*
X111335000Y-110845868D01*
X111845868Y-110335000D01*
X117154133Y-110335000D01*
X117725908Y-110906776D01*
X117754774Y-111051898D01*
X117832795Y-111240256D01*
X117946063Y-111409774D01*
X118090226Y-111553937D01*
X118259744Y-111667205D01*
X118448102Y-111745226D01*
X118648061Y-111785000D01*
X118851939Y-111785000D01*
X119051898Y-111745226D01*
X119240256Y-111667205D01*
X119409774Y-111553937D01*
X119553937Y-111409774D01*
X119667205Y-111240256D01*
X119745226Y-111051898D01*
X119785000Y-110851939D01*
X119785000Y-110648061D01*
X119745226Y-110448102D01*
X119667205Y-110259744D01*
X119553937Y-110090226D01*
X119409774Y-109946063D01*
X119240256Y-109832795D01*
X119051898Y-109754774D01*
X118906776Y-109725908D01*
X118119445Y-108938578D01*
X118093291Y-108906709D01*
X117966146Y-108802364D01*
X117821087Y-108724828D01*
X117663689Y-108677082D01*
X117541019Y-108665000D01*
X117541018Y-108665000D01*
X117500000Y-108660960D01*
X117458982Y-108665000D01*
X111541018Y-108665000D01*
X111500000Y-108660960D01*
X111458982Y-108665000D01*
X111458981Y-108665000D01*
X111336311Y-108677082D01*
X111178913Y-108724828D01*
X111033854Y-108802364D01*
X110970023Y-108854749D01*
X110940919Y-108878634D01*
X110906709Y-108906709D01*
X110880563Y-108938568D01*
X109938574Y-109880559D01*
X109906710Y-109906709D01*
X109825907Y-110005168D01*
X109802364Y-110033855D01*
X109724828Y-110178914D01*
X109677082Y-110336312D01*
X109660960Y-110500000D01*
X109665001Y-110541028D01*
X109665000Y-116654131D01*
X109343225Y-116975908D01*
X109198102Y-117004774D01*
X109009744Y-117082795D01*
X108840226Y-117196063D01*
X108696063Y-117340226D01*
X108582795Y-117509744D01*
X108504774Y-117698102D01*
X108465000Y-117898061D01*
X106660000Y-117898061D01*
X106660000Y-114032419D01*
X106663193Y-114000000D01*
X106650450Y-113870617D01*
X106612710Y-113746207D01*
X106551425Y-113631550D01*
X106468948Y-113531052D01*
X106368450Y-113448575D01*
X106253793Y-113387290D01*
X106129383Y-113349550D01*
X106032419Y-113340000D01*
X106000000Y-113336807D01*
X105967581Y-113340000D01*
X100660000Y-113340000D01*
X100660000Y-110700000D01*
X101561928Y-110700000D01*
X101561928Y-112300000D01*
X101574188Y-112424482D01*
X101610498Y-112544180D01*
X101669463Y-112654494D01*
X101748815Y-112751185D01*
X101845506Y-112830537D01*
X101955820Y-112889502D01*
X102075518Y-112925812D01*
X102200000Y-112938072D01*
X103800000Y-112938072D01*
X103924482Y-112925812D01*
X104044180Y-112889502D01*
X104154494Y-112830537D01*
X104251185Y-112751185D01*
X104330537Y-112654494D01*
X104389502Y-112544180D01*
X104425812Y-112424482D01*
X104426643Y-112416039D01*
X104625241Y-112614637D01*
X104860273Y-112771680D01*
X105121426Y-112879853D01*
X105398665Y-112935000D01*
X105681335Y-112935000D01*
X105958574Y-112879853D01*
X106219727Y-112771680D01*
X106454759Y-112614637D01*
X106654637Y-112414759D01*
X106811680Y-112179727D01*
X106919853Y-111918574D01*
X106975000Y-111641335D01*
X106975000Y-111358665D01*
X106919853Y-111081426D01*
X106811680Y-110820273D01*
X106654637Y-110585241D01*
X106454759Y-110385363D01*
X106219727Y-110228320D01*
X105958574Y-110120147D01*
X105681335Y-110065000D01*
X105398665Y-110065000D01*
X105121426Y-110120147D01*
X104860273Y-110228320D01*
X104625241Y-110385363D01*
X104426643Y-110583961D01*
X104425812Y-110575518D01*
X104389502Y-110455820D01*
X104330537Y-110345506D01*
X104251185Y-110248815D01*
X104154494Y-110169463D01*
X104044180Y-110110498D01*
X103924482Y-110074188D01*
X103800000Y-110061928D01*
X102200000Y-110061928D01*
X102075518Y-110074188D01*
X101955820Y-110110498D01*
X101845506Y-110169463D01*
X101748815Y-110248815D01*
X101669463Y-110345506D01*
X101610498Y-110455820D01*
X101574188Y-110575518D01*
X101561928Y-110700000D01*
X100660000Y-110700000D01*
X100660000Y-103738665D01*
X101565000Y-103738665D01*
X101565000Y-104021335D01*
X101620147Y-104298574D01*
X101728320Y-104559727D01*
X101885363Y-104794759D01*
X102085241Y-104994637D01*
X102320273Y-105151680D01*
X102581426Y-105259853D01*
X102858665Y-105315000D01*
X103141335Y-105315000D01*
X103418574Y-105259853D01*
X103679727Y-105151680D01*
X103914759Y-104994637D01*
X104114637Y-104794759D01*
X104270000Y-104562241D01*
X104425363Y-104794759D01*
X104625241Y-104994637D01*
X104860273Y-105151680D01*
X105121426Y-105259853D01*
X105398665Y-105315000D01*
X105681335Y-105315000D01*
X105958574Y-105259853D01*
X106219727Y-105151680D01*
X106454759Y-104994637D01*
X106654637Y-104794759D01*
X106811680Y-104559727D01*
X106919853Y-104298574D01*
X106975000Y-104021335D01*
X106975000Y-103738665D01*
X120565000Y-103738665D01*
X120565000Y-104021335D01*
X120620147Y-104298574D01*
X120728320Y-104559727D01*
X120885363Y-104794759D01*
X121085241Y-104994637D01*
X121320273Y-105151680D01*
X121581426Y-105259853D01*
X121858665Y-105315000D01*
X122141335Y-105315000D01*
X122235418Y-105296286D01*
X124000563Y-107061432D01*
X124026709Y-107093291D01*
X124153854Y-107197636D01*
X124298913Y-107275172D01*
X124456311Y-107322918D01*
X124578981Y-107335000D01*
X124578982Y-107335000D01*
X124620000Y-107339040D01*
X124661018Y-107335000D01*
X128654133Y-107335000D01*
X130165001Y-108845869D01*
X130165000Y-117886715D01*
X130082795Y-118009744D01*
X130004774Y-118198102D01*
X129965000Y-118398061D01*
X129965000Y-118601939D01*
X130004774Y-118801898D01*
X130082795Y-118990256D01*
X130196063Y-119159774D01*
X130340226Y-119303937D01*
X130509744Y-119417205D01*
X130698102Y-119495226D01*
X130898061Y-119535000D01*
X131101939Y-119535000D01*
X131301898Y-119495226D01*
X131490256Y-119417205D01*
X131659774Y-119303937D01*
X131803937Y-119159774D01*
X131917205Y-118990256D01*
X131995226Y-118801898D01*
X132035000Y-118601939D01*
X132035000Y-118398061D01*
X131995226Y-118198102D01*
X131917205Y-118009744D01*
X131835000Y-117886715D01*
X131835000Y-116445092D01*
X131864587Y-116455808D01*
X132820395Y-115500000D01*
X131864587Y-114544192D01*
X131835000Y-114554908D01*
X131835000Y-109534473D01*
X132160610Y-109534473D01*
X132200875Y-109794344D01*
X132291065Y-110041366D01*
X132344963Y-110142203D01*
X132578731Y-110201664D01*
X133320395Y-109460000D01*
X132578731Y-108718336D01*
X132344963Y-108777797D01*
X132234066Y-109016242D01*
X132171817Y-109271740D01*
X132160610Y-109534473D01*
X131835000Y-109534473D01*
X131835000Y-108541018D01*
X131839040Y-108499999D01*
X131822918Y-108336311D01*
X131775172Y-108178913D01*
X131697636Y-108033854D01*
X131593291Y-107906709D01*
X131561427Y-107880559D01*
X129619446Y-105938579D01*
X129593291Y-105906709D01*
X129466146Y-105802364D01*
X129321087Y-105724828D01*
X129163689Y-105677082D01*
X129041019Y-105665000D01*
X129041018Y-105665000D01*
X129000000Y-105660960D01*
X128958982Y-105665000D01*
X124965869Y-105665000D01*
X124615869Y-105315000D01*
X124681335Y-105315000D01*
X124958574Y-105259853D01*
X125219727Y-105151680D01*
X125454759Y-104994637D01*
X125654637Y-104794759D01*
X125811680Y-104559727D01*
X125919853Y-104298574D01*
X125975000Y-104021335D01*
X125975000Y-103738665D01*
X125919853Y-103461426D01*
X125811680Y-103200273D01*
X125654637Y-102965241D01*
X125454759Y-102765363D01*
X125219727Y-102608320D01*
X124958574Y-102500147D01*
X124681335Y-102445000D01*
X124398665Y-102445000D01*
X124121426Y-102500147D01*
X123860273Y-102608320D01*
X123625241Y-102765363D01*
X123425363Y-102965241D01*
X123270000Y-103197759D01*
X123114637Y-102965241D01*
X122914759Y-102765363D01*
X122679727Y-102608320D01*
X122418574Y-102500147D01*
X122141335Y-102445000D01*
X121858665Y-102445000D01*
X121581426Y-102500147D01*
X121320273Y-102608320D01*
X121085241Y-102765363D01*
X120885363Y-102965241D01*
X120728320Y-103200273D01*
X120620147Y-103461426D01*
X120565000Y-103738665D01*
X106975000Y-103738665D01*
X106919853Y-103461426D01*
X106811680Y-103200273D01*
X106654637Y-102965241D01*
X106454759Y-102765363D01*
X106219727Y-102608320D01*
X105958574Y-102500147D01*
X105681335Y-102445000D01*
X105398665Y-102445000D01*
X105121426Y-102500147D01*
X104860273Y-102608320D01*
X104625241Y-102765363D01*
X104425363Y-102965241D01*
X104270000Y-103197759D01*
X104114637Y-102965241D01*
X103914759Y-102765363D01*
X103679727Y-102608320D01*
X103418574Y-102500147D01*
X103141335Y-102445000D01*
X102858665Y-102445000D01*
X102581426Y-102500147D01*
X102320273Y-102608320D01*
X102085241Y-102765363D01*
X101885363Y-102965241D01*
X101728320Y-103200273D01*
X101620147Y-103461426D01*
X101565000Y-103738665D01*
X100660000Y-103738665D01*
X100660000Y-97364344D01*
X101165000Y-97364344D01*
X101165000Y-97735656D01*
X101237439Y-98099834D01*
X101379534Y-98442882D01*
X101585825Y-98751618D01*
X101848382Y-99014175D01*
X102157118Y-99220466D01*
X102500166Y-99362561D01*
X102864344Y-99435000D01*
X103235656Y-99435000D01*
X103599834Y-99362561D01*
X103942882Y-99220466D01*
X104251618Y-99014175D01*
X104514175Y-98751618D01*
X104720466Y-98442882D01*
X104862561Y-98099834D01*
X104935000Y-97735656D01*
X104935000Y-97364344D01*
X104862561Y-97000166D01*
X104720466Y-96657118D01*
X104514175Y-96348382D01*
X104251618Y-96085825D01*
X103942882Y-95879534D01*
X103599834Y-95737439D01*
X103235656Y-95665000D01*
X102864344Y-95665000D01*
X102500166Y-95737439D01*
X102157118Y-95879534D01*
X101848382Y-96085825D01*
X101585825Y-96348382D01*
X101379534Y-96657118D01*
X101237439Y-97000166D01*
X101165000Y-97364344D01*
X100660000Y-97364344D01*
X100660000Y-85089721D01*
X100865000Y-85089721D01*
X100865000Y-85510279D01*
X100947047Y-85922756D01*
X101107988Y-86311302D01*
X101341637Y-86660983D01*
X101639017Y-86958363D01*
X101988698Y-87192012D01*
X102377244Y-87352953D01*
X102789721Y-87435000D01*
X103210279Y-87435000D01*
X103622756Y-87352953D01*
X104011302Y-87192012D01*
X104360983Y-86958363D01*
X104658363Y-86660983D01*
X104892012Y-86311302D01*
X105052953Y-85922756D01*
X105135000Y-85510279D01*
X105135000Y-85089721D01*
X105124514Y-85037000D01*
X106889506Y-85037000D01*
X106897459Y-85117748D01*
X106905276Y-85197975D01*
X106905401Y-85198388D01*
X106905444Y-85198826D01*
X106929117Y-85276867D01*
X106952316Y-85353632D01*
X106952519Y-85354014D01*
X106952647Y-85354434D01*
X106991045Y-85426271D01*
X107009648Y-85461162D01*
X107009885Y-85461517D01*
X107029301Y-85497842D01*
X107054881Y-85529011D01*
X108578637Y-87814647D01*
X108655845Y-87908926D01*
X108724509Y-87965398D01*
X108755642Y-88007335D01*
X108876176Y-88116482D01*
X109015690Y-88200016D01*
X109168819Y-88254727D01*
X109329678Y-88278513D01*
X109492088Y-88270460D01*
X109649805Y-88230876D01*
X109796771Y-88161285D01*
X109816153Y-88146896D01*
X109834837Y-88159352D01*
X109845984Y-88165295D01*
X109891292Y-88193540D01*
X109917575Y-88203465D01*
X109942367Y-88216684D01*
X109993481Y-88232131D01*
X110043415Y-88250988D01*
X110071125Y-88255595D01*
X110098024Y-88263724D01*
X110151156Y-88268901D01*
X110203822Y-88277657D01*
X110231907Y-88276769D01*
X110259867Y-88279493D01*
X110312997Y-88274204D01*
X110366350Y-88272517D01*
X110393711Y-88266170D01*
X110421677Y-88263386D01*
X110472748Y-88247835D01*
X110524753Y-88235771D01*
X110550364Y-88224201D01*
X110577235Y-88216019D01*
X110624286Y-88190807D01*
X110672943Y-88168826D01*
X110695796Y-88152489D01*
X110720563Y-88139217D01*
X110761806Y-88105297D01*
X110805225Y-88074257D01*
X110824449Y-88053778D01*
X110846154Y-88035927D01*
X110879980Y-87994621D01*
X110916516Y-87955700D01*
X110931381Y-87931855D01*
X110949180Y-87910120D01*
X110974294Y-87863016D01*
X111002540Y-87817707D01*
X111012466Y-87791424D01*
X111025684Y-87766632D01*
X111041131Y-87715518D01*
X111059988Y-87665584D01*
X111064595Y-87637874D01*
X111072724Y-87610975D01*
X111077901Y-87557843D01*
X111086657Y-87505177D01*
X111085769Y-87477092D01*
X111088493Y-87449132D01*
X111083204Y-87396007D01*
X111081517Y-87342648D01*
X111075168Y-87315280D01*
X111072385Y-87287322D01*
X111056837Y-87236261D01*
X111044771Y-87184246D01*
X111033201Y-87158633D01*
X111025019Y-87131764D01*
X110999807Y-87084713D01*
X110977826Y-87036056D01*
X110961488Y-87013203D01*
X110948217Y-86988436D01*
X110914303Y-86947201D01*
X110906956Y-86936923D01*
X110888557Y-86915896D01*
X110844927Y-86862846D01*
X110835089Y-86854790D01*
X110192106Y-86119952D01*
X110196335Y-86117812D01*
X110203647Y-86112079D01*
X110211842Y-86107699D01*
X110267578Y-86061958D01*
X110324304Y-86017485D01*
X110330356Y-86010438D01*
X110337541Y-86004541D01*
X110383273Y-85948816D01*
X110430243Y-85894120D01*
X110434807Y-85886022D01*
X110440699Y-85878842D01*
X110474688Y-85815253D01*
X110510077Y-85752457D01*
X110512970Y-85743634D01*
X110517353Y-85735434D01*
X110538293Y-85666405D01*
X110560741Y-85597942D01*
X110561857Y-85588722D01*
X110564556Y-85579826D01*
X110571625Y-85508052D01*
X110580287Y-85436512D01*
X110579583Y-85427249D01*
X110580494Y-85418000D01*
X110573428Y-85346254D01*
X110567965Y-85274370D01*
X110565467Y-85265419D01*
X110564556Y-85256174D01*
X110543628Y-85187183D01*
X110524246Y-85117748D01*
X110520051Y-85109460D01*
X110517353Y-85100566D01*
X110483362Y-85036974D01*
X110469214Y-85009022D01*
X110464260Y-85001238D01*
X110440699Y-84957158D01*
X110420709Y-84932800D01*
X109271821Y-83127405D01*
X109272945Y-83124747D01*
X109275872Y-83110588D01*
X109281037Y-83097091D01*
X109292307Y-83031087D01*
X109305865Y-82965506D01*
X109305974Y-82951052D01*
X109308407Y-82936801D01*
X109306584Y-82869858D01*
X109307087Y-82802901D01*
X109304374Y-82788703D01*
X109303980Y-82774253D01*
X109289133Y-82708956D01*
X109276563Y-82643182D01*
X109271132Y-82629786D01*
X109267927Y-82615691D01*
X109240637Y-82554570D01*
X109215467Y-82492487D01*
X109207521Y-82480399D01*
X109201632Y-82467210D01*
X109162951Y-82412599D01*
X109126144Y-82356607D01*
X109115995Y-82346304D01*
X109107644Y-82334514D01*
X109059048Y-82288495D01*
X109040626Y-82269794D01*
X109029575Y-82260585D01*
X108989574Y-82222705D01*
X108967274Y-82208667D01*
X108267921Y-81625874D01*
X108228260Y-81588237D01*
X108171263Y-81552275D01*
X108115507Y-81514411D01*
X108102592Y-81508947D01*
X108090736Y-81501467D01*
X108027822Y-81477316D01*
X107965747Y-81451056D01*
X107952018Y-81448218D01*
X107938928Y-81443193D01*
X107872500Y-81431779D01*
X107806505Y-81418135D01*
X107792487Y-81418030D01*
X107778667Y-81415655D01*
X107711292Y-81417419D01*
X107643902Y-81416913D01*
X107630130Y-81419545D01*
X107616114Y-81419912D01*
X107550378Y-81434787D01*
X107484183Y-81447437D01*
X107471191Y-81452705D01*
X107457515Y-81455799D01*
X107395938Y-81483215D01*
X107333488Y-81508534D01*
X107321774Y-81516234D01*
X107308963Y-81521938D01*
X107253931Y-81560831D01*
X107197608Y-81597856D01*
X107187615Y-81607700D01*
X107176171Y-81615788D01*
X107129785Y-81664668D01*
X107081766Y-81711971D01*
X107073891Y-81723567D01*
X107064237Y-81733740D01*
X107028271Y-81790743D01*
X106990411Y-81846493D01*
X106984947Y-81859408D01*
X106977467Y-81871264D01*
X106953316Y-81934178D01*
X106927056Y-81996253D01*
X106924218Y-82009982D01*
X106919193Y-82023072D01*
X106907779Y-82089500D01*
X106894135Y-82155495D01*
X106894030Y-82169513D01*
X106891655Y-82183333D01*
X106893419Y-82250711D01*
X106892913Y-82318098D01*
X106903177Y-82371803D01*
X107023043Y-83330736D01*
X107025540Y-83381088D01*
X107042981Y-83450580D01*
X107058799Y-83520485D01*
X107062758Y-83529376D01*
X107065124Y-83538805D01*
X107095776Y-83603539D01*
X107124938Y-83669037D01*
X107130554Y-83676983D01*
X107134715Y-83685771D01*
X107177416Y-83743291D01*
X107218788Y-83801830D01*
X107225847Y-83808528D01*
X107231642Y-83816335D01*
X107284746Y-83864422D01*
X107336740Y-83913763D01*
X107344966Y-83918953D01*
X107352176Y-83925482D01*
X107413669Y-83962301D01*
X107474264Y-84000533D01*
X107483343Y-84004018D01*
X107491690Y-84009016D01*
X107559155Y-84033120D01*
X107626072Y-84058808D01*
X107635665Y-84060456D01*
X107644819Y-84063727D01*
X107711345Y-84073564D01*
X107780313Y-84211500D01*
X107759980Y-84211500D01*
X107719867Y-84207507D01*
X107678886Y-84211500D01*
X107678447Y-84211500D01*
X107637898Y-84215494D01*
X107558025Y-84223276D01*
X107557612Y-84223401D01*
X107557174Y-84223444D01*
X107479133Y-84247117D01*
X107402368Y-84270316D01*
X107401986Y-84270519D01*
X107401566Y-84270647D01*
X107329655Y-84309085D01*
X107258880Y-84346820D01*
X107258546Y-84347094D01*
X107258158Y-84347301D01*
X107195286Y-84398898D01*
X107133073Y-84449846D01*
X107132797Y-84450182D01*
X107132459Y-84450459D01*
X107081142Y-84512989D01*
X107029783Y-84575437D01*
X107029577Y-84575822D01*
X107029301Y-84576158D01*
X106990886Y-84648027D01*
X106952981Y-84718765D01*
X106952856Y-84719174D01*
X106952647Y-84719566D01*
X106928918Y-84797791D01*
X106905614Y-84874323D01*
X106905571Y-84874756D01*
X106905444Y-84875174D01*
X106897476Y-84956080D01*
X106889507Y-85036133D01*
X106889549Y-85036564D01*
X106889506Y-85037000D01*
X105124514Y-85037000D01*
X105052953Y-84677244D01*
X104892012Y-84288698D01*
X104658363Y-83939017D01*
X104360983Y-83641637D01*
X104011302Y-83407988D01*
X103622756Y-83247047D01*
X103210279Y-83165000D01*
X102789721Y-83165000D01*
X102377244Y-83247047D01*
X101988698Y-83407988D01*
X101639017Y-83641637D01*
X101341637Y-83939017D01*
X101107988Y-84288698D01*
X100947047Y-84677244D01*
X100865000Y-85089721D01*
X100660000Y-85089721D01*
X100660000Y-75991653D01*
X105107952Y-75991653D01*
X105263962Y-76307214D01*
X105638745Y-76498020D01*
X106043551Y-76612044D01*
X106462824Y-76644902D01*
X106880451Y-76595334D01*
X107280383Y-76465243D01*
X107576038Y-76307214D01*
X107732048Y-75991653D01*
X106420000Y-74679605D01*
X105107952Y-75991653D01*
X100660000Y-75991653D01*
X100660000Y-74542824D01*
X104275098Y-74542824D01*
X104324666Y-74960451D01*
X104454757Y-75360383D01*
X104612786Y-75656038D01*
X104928347Y-75812048D01*
X106240395Y-74500000D01*
X106599605Y-74500000D01*
X107911653Y-75812048D01*
X108227214Y-75656038D01*
X108418020Y-75281255D01*
X108532044Y-74876449D01*
X108564902Y-74457176D01*
X108515334Y-74039549D01*
X108385243Y-73639617D01*
X108227214Y-73343962D01*
X107911653Y-73187952D01*
X106599605Y-74500000D01*
X106240395Y-74500000D01*
X104928347Y-73187952D01*
X104612786Y-73343962D01*
X104421980Y-73718745D01*
X104307956Y-74123551D01*
X104275098Y-74542824D01*
X100660000Y-74542824D01*
X100660000Y-73008347D01*
X105107952Y-73008347D01*
X106420000Y-74320395D01*
X107732048Y-73008347D01*
X107727922Y-73000000D01*
X109361928Y-73000000D01*
X109361928Y-76000000D01*
X109374188Y-76124482D01*
X109410498Y-76244180D01*
X109469463Y-76354494D01*
X109548815Y-76451185D01*
X109645506Y-76530537D01*
X109755820Y-76589502D01*
X109875518Y-76625812D01*
X110000000Y-76638072D01*
X111325834Y-76638072D01*
X113415001Y-78727240D01*
X113415000Y-83965654D01*
X113391637Y-83989017D01*
X113157988Y-84338698D01*
X112997047Y-84727244D01*
X112915000Y-85139721D01*
X112915000Y-85560279D01*
X112997047Y-85972756D01*
X113157988Y-86361302D01*
X113391637Y-86710983D01*
X113689017Y-87008363D01*
X114038698Y-87242012D01*
X114427244Y-87402953D01*
X114839721Y-87485000D01*
X115260279Y-87485000D01*
X115672756Y-87402953D01*
X116061302Y-87242012D01*
X116410983Y-87008363D01*
X116708363Y-86710983D01*
X116942012Y-86361302D01*
X117102953Y-85972756D01*
X117185000Y-85560279D01*
X117185000Y-85139721D01*
X117175055Y-85089721D01*
X119865000Y-85089721D01*
X119865000Y-85510279D01*
X119947047Y-85922756D01*
X120107988Y-86311302D01*
X120341637Y-86660983D01*
X120639017Y-86958363D01*
X120988698Y-87192012D01*
X121377244Y-87352953D01*
X121789721Y-87435000D01*
X122210279Y-87435000D01*
X122622756Y-87352953D01*
X123011302Y-87192012D01*
X123360983Y-86958363D01*
X123658363Y-86660983D01*
X123892012Y-86311302D01*
X124052953Y-85922756D01*
X124135000Y-85510279D01*
X124135000Y-85089721D01*
X124064840Y-84737000D01*
X125789506Y-84737000D01*
X125797459Y-84817748D01*
X125805276Y-84897975D01*
X125805401Y-84898388D01*
X125805444Y-84898826D01*
X125829117Y-84976867D01*
X125852316Y-85053632D01*
X125852519Y-85054014D01*
X125852647Y-85054434D01*
X125891045Y-85126271D01*
X125909648Y-85161162D01*
X125909885Y-85161517D01*
X125929301Y-85197842D01*
X125954881Y-85229011D01*
X127478637Y-87514647D01*
X127555845Y-87608926D01*
X127624509Y-87665398D01*
X127655642Y-87707335D01*
X127776176Y-87816482D01*
X127915690Y-87900016D01*
X128068819Y-87954727D01*
X128229678Y-87978513D01*
X128392088Y-87970460D01*
X128549805Y-87930876D01*
X128696771Y-87861285D01*
X128716153Y-87846896D01*
X128734837Y-87859352D01*
X128745984Y-87865295D01*
X128791292Y-87893540D01*
X128817575Y-87903465D01*
X128842367Y-87916684D01*
X128893481Y-87932131D01*
X128943415Y-87950988D01*
X128971125Y-87955595D01*
X128998024Y-87963724D01*
X129051156Y-87968901D01*
X129103822Y-87977657D01*
X129131907Y-87976769D01*
X129159867Y-87979493D01*
X129212997Y-87974204D01*
X129266350Y-87972517D01*
X129293711Y-87966170D01*
X129321677Y-87963386D01*
X129372748Y-87947835D01*
X129424753Y-87935771D01*
X129450364Y-87924201D01*
X129477235Y-87916019D01*
X129524286Y-87890807D01*
X129572943Y-87868826D01*
X129595796Y-87852489D01*
X129620563Y-87839217D01*
X129661806Y-87805297D01*
X129705225Y-87774257D01*
X129724449Y-87753778D01*
X129746154Y-87735927D01*
X129779980Y-87694621D01*
X129816516Y-87655700D01*
X129831381Y-87631855D01*
X129849180Y-87610120D01*
X129874294Y-87563016D01*
X129902540Y-87517707D01*
X129912466Y-87491424D01*
X129925684Y-87466632D01*
X129941131Y-87415518D01*
X129959988Y-87365584D01*
X129964595Y-87337874D01*
X129972724Y-87310975D01*
X129977901Y-87257843D01*
X129986657Y-87205177D01*
X129985769Y-87177092D01*
X129988493Y-87149132D01*
X129983204Y-87096007D01*
X129981517Y-87042648D01*
X129975168Y-87015280D01*
X129972385Y-86987322D01*
X129956837Y-86936261D01*
X129944771Y-86884246D01*
X129933201Y-86858633D01*
X129925019Y-86831764D01*
X129899807Y-86784713D01*
X129877826Y-86736056D01*
X129861488Y-86713203D01*
X129848217Y-86688436D01*
X129814303Y-86647201D01*
X129806956Y-86636923D01*
X129788557Y-86615896D01*
X129744927Y-86562846D01*
X129735089Y-86554790D01*
X129092106Y-85819952D01*
X129096335Y-85817812D01*
X129103647Y-85812079D01*
X129111842Y-85807699D01*
X129167578Y-85761958D01*
X129224304Y-85717485D01*
X129230356Y-85710438D01*
X129237541Y-85704541D01*
X129283273Y-85648816D01*
X129330243Y-85594120D01*
X129334807Y-85586022D01*
X129340699Y-85578842D01*
X129374688Y-85515253D01*
X129410077Y-85452457D01*
X129412970Y-85443634D01*
X129417353Y-85435434D01*
X129438293Y-85366405D01*
X129460741Y-85297942D01*
X129461857Y-85288722D01*
X129464556Y-85279826D01*
X129471625Y-85208052D01*
X129480287Y-85136512D01*
X129479583Y-85127249D01*
X129480494Y-85118000D01*
X129473428Y-85046254D01*
X129467965Y-84974370D01*
X129465467Y-84965419D01*
X129464556Y-84956174D01*
X129443628Y-84887183D01*
X129424246Y-84817748D01*
X129420051Y-84809460D01*
X129417353Y-84800566D01*
X129383362Y-84736974D01*
X129369214Y-84709022D01*
X129364260Y-84701238D01*
X129340699Y-84657158D01*
X129320709Y-84632800D01*
X128171821Y-82827405D01*
X128172945Y-82824747D01*
X128175872Y-82810588D01*
X128181037Y-82797091D01*
X128192307Y-82731087D01*
X128205865Y-82665506D01*
X128205974Y-82651052D01*
X128208407Y-82636801D01*
X128206584Y-82569858D01*
X128207087Y-82502901D01*
X128204374Y-82488703D01*
X128203980Y-82474253D01*
X128189133Y-82408956D01*
X128176563Y-82343182D01*
X128171132Y-82329786D01*
X128167927Y-82315691D01*
X128140637Y-82254570D01*
X128115467Y-82192487D01*
X128107521Y-82180399D01*
X128101632Y-82167210D01*
X128062951Y-82112599D01*
X128026144Y-82056607D01*
X128015995Y-82046304D01*
X128007644Y-82034514D01*
X127959048Y-81988495D01*
X127940626Y-81969794D01*
X127929575Y-81960585D01*
X127889574Y-81922705D01*
X127867274Y-81908667D01*
X127167921Y-81325874D01*
X127128260Y-81288237D01*
X127071263Y-81252275D01*
X127015507Y-81214411D01*
X127002592Y-81208947D01*
X126990736Y-81201467D01*
X126927822Y-81177316D01*
X126865747Y-81151056D01*
X126852018Y-81148218D01*
X126838928Y-81143193D01*
X126772500Y-81131779D01*
X126706505Y-81118135D01*
X126692487Y-81118030D01*
X126678667Y-81115655D01*
X126611292Y-81117419D01*
X126543902Y-81116913D01*
X126530130Y-81119545D01*
X126516114Y-81119912D01*
X126450378Y-81134787D01*
X126384183Y-81147437D01*
X126371191Y-81152705D01*
X126357515Y-81155799D01*
X126295938Y-81183215D01*
X126233488Y-81208534D01*
X126221774Y-81216234D01*
X126208963Y-81221938D01*
X126153931Y-81260831D01*
X126097608Y-81297856D01*
X126087615Y-81307700D01*
X126076171Y-81315788D01*
X126029785Y-81364668D01*
X125981766Y-81411971D01*
X125973891Y-81423567D01*
X125964237Y-81433740D01*
X125928271Y-81490743D01*
X125890411Y-81546493D01*
X125884947Y-81559408D01*
X125877467Y-81571264D01*
X125853316Y-81634178D01*
X125827056Y-81696253D01*
X125824218Y-81709982D01*
X125819193Y-81723072D01*
X125807779Y-81789500D01*
X125794135Y-81855495D01*
X125794030Y-81869513D01*
X125791655Y-81883333D01*
X125793419Y-81950711D01*
X125792913Y-82018098D01*
X125803177Y-82071803D01*
X125923043Y-83030737D01*
X125925540Y-83081088D01*
X125942981Y-83150580D01*
X125958799Y-83220485D01*
X125962758Y-83229376D01*
X125965124Y-83238805D01*
X125995776Y-83303539D01*
X126024938Y-83369037D01*
X126030554Y-83376983D01*
X126034715Y-83385771D01*
X126077416Y-83443291D01*
X126118788Y-83501830D01*
X126125847Y-83508528D01*
X126131642Y-83516335D01*
X126184746Y-83564422D01*
X126236740Y-83613763D01*
X126244966Y-83618953D01*
X126252176Y-83625482D01*
X126313669Y-83662301D01*
X126374264Y-83700533D01*
X126383343Y-83704018D01*
X126391690Y-83709016D01*
X126459155Y-83733120D01*
X126526072Y-83758808D01*
X126535665Y-83760456D01*
X126544819Y-83763727D01*
X126611345Y-83773564D01*
X126680313Y-83911500D01*
X126659980Y-83911500D01*
X126619867Y-83907507D01*
X126578886Y-83911500D01*
X126578447Y-83911500D01*
X126537898Y-83915494D01*
X126458025Y-83923276D01*
X126457612Y-83923401D01*
X126457174Y-83923444D01*
X126379133Y-83947117D01*
X126302368Y-83970316D01*
X126301986Y-83970519D01*
X126301566Y-83970647D01*
X126229655Y-84009085D01*
X126158880Y-84046820D01*
X126158546Y-84047094D01*
X126158158Y-84047301D01*
X126095286Y-84098898D01*
X126033073Y-84149846D01*
X126032797Y-84150182D01*
X126032459Y-84150459D01*
X125981142Y-84212989D01*
X125929783Y-84275437D01*
X125929577Y-84275822D01*
X125929301Y-84276158D01*
X125890886Y-84348027D01*
X125852981Y-84418765D01*
X125852856Y-84419174D01*
X125852647Y-84419566D01*
X125828918Y-84497791D01*
X125805614Y-84574323D01*
X125805571Y-84574756D01*
X125805444Y-84575174D01*
X125797476Y-84656080D01*
X125789507Y-84736133D01*
X125789549Y-84736564D01*
X125789506Y-84737000D01*
X124064840Y-84737000D01*
X124052953Y-84677244D01*
X123892012Y-84288698D01*
X123658363Y-83939017D01*
X123360983Y-83641637D01*
X123011302Y-83407988D01*
X122622756Y-83247047D01*
X122210279Y-83165000D01*
X121789721Y-83165000D01*
X121377244Y-83247047D01*
X120988698Y-83407988D01*
X120639017Y-83641637D01*
X120341637Y-83939017D01*
X120107988Y-84288698D01*
X119947047Y-84677244D01*
X119865000Y-85089721D01*
X117175055Y-85089721D01*
X117102953Y-84727244D01*
X116942012Y-84338698D01*
X116708363Y-83989017D01*
X116685000Y-83965654D01*
X116685000Y-78130319D01*
X116692911Y-78049999D01*
X116685000Y-77969678D01*
X116661343Y-77729484D01*
X116567852Y-77421285D01*
X116416031Y-77137248D01*
X116211714Y-76888286D01*
X116149319Y-76837080D01*
X115303892Y-75991653D01*
X124107952Y-75991653D01*
X124263962Y-76307214D01*
X124638745Y-76498020D01*
X125043551Y-76612044D01*
X125462824Y-76644902D01*
X125880451Y-76595334D01*
X126280383Y-76465243D01*
X126576038Y-76307214D01*
X126732048Y-75991653D01*
X125420000Y-74679605D01*
X124107952Y-75991653D01*
X115303892Y-75991653D01*
X113855063Y-74542824D01*
X123275098Y-74542824D01*
X123324666Y-74960451D01*
X123454757Y-75360383D01*
X123612786Y-75656038D01*
X123928347Y-75812048D01*
X125240395Y-74500000D01*
X125599605Y-74500000D01*
X126911653Y-75812048D01*
X127227214Y-75656038D01*
X127418020Y-75281255D01*
X127532044Y-74876449D01*
X127564902Y-74457176D01*
X127515334Y-74039549D01*
X127385243Y-73639617D01*
X127227214Y-73343962D01*
X126911653Y-73187952D01*
X125599605Y-74500000D01*
X125240395Y-74500000D01*
X123928347Y-73187952D01*
X123612786Y-73343962D01*
X123421980Y-73718745D01*
X123307956Y-74123551D01*
X123275098Y-74542824D01*
X113855063Y-74542824D01*
X113638072Y-74325834D01*
X113638072Y-73008347D01*
X124107952Y-73008347D01*
X125420000Y-74320395D01*
X126732048Y-73008347D01*
X126727922Y-73000000D01*
X128361928Y-73000000D01*
X128361928Y-76000000D01*
X128374188Y-76124482D01*
X128410498Y-76244180D01*
X128469463Y-76354494D01*
X128548815Y-76451185D01*
X128645506Y-76530537D01*
X128755820Y-76589502D01*
X128875518Y-76625812D01*
X129000000Y-76638072D01*
X130325834Y-76638072D01*
X132415001Y-78727240D01*
X132415000Y-83965654D01*
X132391637Y-83989017D01*
X132157988Y-84338698D01*
X131997047Y-84727244D01*
X131915000Y-85139721D01*
X131915000Y-85560279D01*
X131997047Y-85972756D01*
X132157988Y-86361302D01*
X132391637Y-86710983D01*
X132689017Y-87008363D01*
X133038698Y-87242012D01*
X133427244Y-87402953D01*
X133839721Y-87485000D01*
X134260279Y-87485000D01*
X134672756Y-87402953D01*
X135061302Y-87242012D01*
X135410983Y-87008363D01*
X135708363Y-86710983D01*
X135942012Y-86361302D01*
X136102953Y-85972756D01*
X136185000Y-85560279D01*
X136185000Y-85139721D01*
X136102953Y-84727244D01*
X135942012Y-84338698D01*
X135708363Y-83989017D01*
X135685000Y-83965654D01*
X135685000Y-78130319D01*
X135692911Y-78049999D01*
X135685000Y-77969678D01*
X135661343Y-77729484D01*
X135567852Y-77421285D01*
X135416031Y-77137248D01*
X135211714Y-76888286D01*
X135149319Y-76837080D01*
X132638072Y-74325834D01*
X132638072Y-73000000D01*
X132625812Y-72875518D01*
X132589502Y-72755820D01*
X132530537Y-72645506D01*
X132451185Y-72548815D01*
X132354494Y-72469463D01*
X132244180Y-72410498D01*
X132124482Y-72374188D01*
X132000000Y-72361928D01*
X129000000Y-72361928D01*
X128875518Y-72374188D01*
X128755820Y-72410498D01*
X128645506Y-72469463D01*
X128548815Y-72548815D01*
X128469463Y-72645506D01*
X128410498Y-72755820D01*
X128374188Y-72875518D01*
X128361928Y-73000000D01*
X126727922Y-73000000D01*
X126576038Y-72692786D01*
X126201255Y-72501980D01*
X125796449Y-72387956D01*
X125377176Y-72355098D01*
X124959549Y-72404666D01*
X124559617Y-72534757D01*
X124263962Y-72692786D01*
X124107952Y-73008347D01*
X113638072Y-73008347D01*
X113638072Y-73000000D01*
X113625812Y-72875518D01*
X113589502Y-72755820D01*
X113530537Y-72645506D01*
X113451185Y-72548815D01*
X113354494Y-72469463D01*
X113244180Y-72410498D01*
X113124482Y-72374188D01*
X113000000Y-72361928D01*
X110000000Y-72361928D01*
X109875518Y-72374188D01*
X109755820Y-72410498D01*
X109645506Y-72469463D01*
X109548815Y-72548815D01*
X109469463Y-72645506D01*
X109410498Y-72755820D01*
X109374188Y-72875518D01*
X109361928Y-73000000D01*
X107727922Y-73000000D01*
X107576038Y-72692786D01*
X107201255Y-72501980D01*
X106796449Y-72387956D01*
X106377176Y-72355098D01*
X105959549Y-72404666D01*
X105559617Y-72534757D01*
X105263962Y-72692786D01*
X105107952Y-73008347D01*
X100660000Y-73008347D01*
X100660000Y-72032279D01*
X100688625Y-71740341D01*
X100764035Y-71490571D01*
X100886522Y-71260208D01*
X101051422Y-71058020D01*
X101252450Y-70891714D01*
X101481954Y-70767622D01*
X101731195Y-70690469D01*
X102021088Y-70660000D01*
X134967721Y-70660000D01*
X135259659Y-70688625D01*
%TD*%
M02*
